M48
METRIC,LZ,000.000
;FILE_FORMAT=3:3
;TYPE=NON_PLATED
;Layer: NPTH_Through
;EasyEDA v6.5.57, 2026-07-28 23:04:53
;6e20ac815a004ef09f6275fc184b8e62,47083fb59e924f2e982a52276fdf08c8,10
;Gerber Generator version 0.2
;Holesize 1 = 0.951 mm
T01C0.951
;Holesize 2 = 1.600 mm
T02C1.600
;Holesize 3 = 5.000 mm
T03C5.000
%
G05
G90
T01
X076495Y-014773
X072095Y-014773
T02
X033227Y-017977
X051261Y-017850
X015193Y-036265
X033354Y-036265
X051261Y-036265
X069422Y-036138
X015193Y-054553
X033354Y-054553
X051261Y-054553
X069422Y-054553
X069422Y-072841
X042371Y-072841
T03
X038227Y-012827
X056261Y-012700
X020193Y-031115
X038354Y-031115
X056261Y-031115
X074422Y-030988
X020193Y-049403
X038354Y-049403
X056261Y-049403
X074422Y-049403
X074422Y-067691
X047371Y-067691
M30
