M48
METRIC,LZ,000.000
;FILE_FORMAT=3:3
;TYPE=PLATED
;Layer: PTH_Through_Via
;EasyEDA v6.5.57, 2026-07-28 23:04:53
;6e20ac815a004ef09f6275fc184b8e62,47083fb59e924f2e982a52276fdf08c8,10
;Gerber Generator version 0.2
;Holesize 1 = 0.306 mm
T01C0.306
%
G05
G90
T01
X010718Y-064370
X078313Y-008128
X060088Y-005095
X061446Y-006090
X058695Y-024440
X053687Y-007913
X028927Y-065688
X036941Y-070295
X058105Y002032
X040567Y-047271
X038417Y-054443
X069642Y-000508
X062467Y-004018
X071989Y-017100
X041126Y-007531
X011684Y-021082
X067525Y-011477
X069119Y-011711
X077661Y-016855
X079585Y-017348
X079636Y-011762
X024363Y-005368
X067140Y-003082
X078004Y-000508
X043851Y-049012
X061051Y-055263
M30
