M48
METRIC,LZ,000.000
;FILE_FORMAT=3:3
;TYPE=PLATED
;Layer: PTH_Through
;EasyEDA v6.5.57, 2026-07-28 23:04:53
;6e20ac815a004ef09f6275fc184b8e62,47083fb59e924f2e982a52276fdf08c8,10
;Gerber Generator version 0.2
;Holesize 1 = 0.306 mm
T01C0.306
;Holesize 2 = 0.800 mm
T02C0.800
;Holesize 3 = 0.915 mm
T03C0.915
;Holesize 4 = 1.001 mm
T04C1.001
;Holesize 5 = 1.200 mm
T05C1.200
;Holesize 6 = 3.101 mm
T06C3.101
%
G05
G90
T01
X010718Y-064370
X078313Y-008128
X060088Y-005095
X061446Y-006090
X058695Y-024440
X053687Y-007913
X028927Y-065688
X036941Y-070295
X058105Y002032
X040567Y-047271
X038417Y-054443
X069642Y-000508
X062467Y-004018
X071989Y-017100
X041126Y-007531
X011684Y-021082
X067525Y-011477
X069119Y-011711
X077661Y-016855
X079585Y-017348
X079636Y-011762
X024363Y-005368
X067140Y-003082
X078004Y-000508
X043851Y-049012
X061051Y-055263
T02
X030417Y-060960
X038417Y-060960
X030417Y-063627
X038417Y-063627
X030417Y-066294
X038417Y-066294
X030417Y-068961
X038417Y-068961
X030417Y-071628
X038417Y-071628
X030417Y-074295
X038417Y-074295
X056325Y-066421
X064325Y-066421
X056325Y-069088
X064325Y-069088
X056325Y-071755
X064325Y-071755
X056452Y-074422
X064452Y-074422
X056325Y-060960
X064325Y-060960
X056325Y-063754
X064325Y-063754
T03
X016507Y-070485G85X016513Y-070485
X016507Y-067945G85X016513Y-067945
X016507Y-065405G85X016513Y-065405
X024127Y-070485G85X024133Y-070485
X024127Y-067945G85X024133Y-067945
X024127Y-065405G85X024133Y-065405
X023048Y-019558G85X023053Y-019558
X020381Y-019558G85X020386Y-019558
X017841Y-019558G85X017846Y-019558
X017841Y-005842G85X017846Y-005842
X022921Y-005842G85X022926Y-005842
X014018Y-013654G85X014018Y-012068
X026679Y-013696G85X026679Y-012110
T04
X061217Y-021971G85X061211Y-021971
X051057Y-021971G85X051051Y-021971
X043183Y-022098G85X043177Y-022098
X033023Y-022098G85X033017Y-022098
T05
X043227Y-009027
X038227Y-006927
X061261Y-008900
X056261Y-006800
X025193Y-027315
X020193Y-025215
X043354Y-027315
X038354Y-025215
X061261Y-027315
X056261Y-025215
X079422Y-027188
X074422Y-025088
X025193Y-045603
X020193Y-043503
X043354Y-045603
X038354Y-043503
X061261Y-045603
X056261Y-043503
X079422Y-045603
X074422Y-043503
X079422Y-063891
X074422Y-061791
X052371Y-063891
X047371Y-061791
T06
X009017Y-083058
X086106Y-083058
X086106Y000254
X008890Y000254
M30
