G04 Layer: TopSolderMaskLayer*
G04 EasyEDA v6.5.57, 2026-07-28 23:04:53*
G04 6e20ac815a004ef09f6275fc184b8e62,47083fb59e924f2e982a52276fdf08c8,10*
G04 Gerber Generator version 0.2*
G04 Scale: 100 percent, Rotated: No, Reflected: No *
G04 Dimensions in millimeters *
G04 leading zeros omitted , absolute positions ,4 integer and 5 decimal *
%FSLAX45Y45*%
%MOMM*%

%AMMACRO1*4,1,8,-1.0211,-1.0508,-1.0508,-1.021,-1.0508,1.0211,-1.0211,1.0508,1.021,1.0508,1.0508,1.0211,1.0508,-1.021,1.021,-1.0508,-1.0211,-1.0508,0*%
%AMMACRO2*4,1,8,-0.8207,-0.7,-0.85,-0.6707,-0.85,0.6707,-0.8207,0.7,0.8207,0.7,0.85,0.6707,0.85,-0.6707,0.8207,-0.7,-0.8207,-0.7,0*%
%AMMACRO3*4,1,8,0.2315,-0.5717,-0.5546,-0.27,-0.5717,-0.2315,-0.27,0.5546,-0.2315,0.5717,0.5546,0.27,0.5717,0.2315,0.27,-0.5546,0.2315,-0.5717,0*%
%AMMACRO4*4,1,8,-0.2315,-0.5717,-0.27,-0.5546,-0.5717,0.2315,-0.5546,0.27,0.2315,0.5717,0.27,0.5546,0.5717,-0.2315,0.5546,-0.27,-0.2315,-0.5717,0*%
%ADD10C,2.1006*%
%ADD11MACRO1*%
%ADD12C,1.6256*%
%ADD13C,1.5000*%
%ADD14O,1.6256X3.101594*%
%ADD15MACRO2*%
%ADD16MACRO3*%
%ADD17C,0.0148*%
%ADD18MACRO4*%
%ADD19C,3.4016*%

%LPD*%
D10*
G01*
X6121400Y-2197100D03*
G01*
X5105400Y-2197100D03*
G01*
X4318000Y-2209800D03*
G01*
X3302000Y-2209800D03*
D11*
G01*
X4322698Y-902700D03*
G01*
X3822700Y-692701D03*
G01*
X6126088Y-889998D03*
G01*
X5626089Y-679998D03*
G01*
X2519298Y-2731500D03*
G01*
X2019300Y-2521501D03*
G01*
X4335391Y-2731495D03*
G01*
X3835392Y-2521496D03*
G01*
X6126088Y-2731495D03*
G01*
X5626089Y-2521496D03*
G01*
X7942183Y-2718795D03*
G01*
X7442184Y-2508796D03*
G01*
X2519293Y-4560290D03*
G01*
X2019294Y-4350291D03*
G01*
X4335391Y-4560290D03*
G01*
X3835392Y-4350291D03*
G01*
X6126088Y-4560290D03*
G01*
X5626089Y-4350291D03*
G01*
X7942183Y-4560290D03*
G01*
X7442184Y-4350291D03*
G01*
X7942183Y-6389088D03*
G01*
X7442184Y-6179088D03*
G01*
X5237088Y-6389088D03*
G01*
X4737089Y-6179088D03*
D12*
G01*
X1651000Y-7048500D03*
G01*
X1651000Y-6794500D03*
G01*
X1651000Y-6540500D03*
G01*
X2413000Y-7048500D03*
G01*
X2413000Y-6794500D03*
G01*
X2413000Y-6540500D03*
D13*
G01*
X3041700Y-6096000D03*
G01*
X3841699Y-6096000D03*
G01*
X3041700Y-6362700D03*
G01*
X3841699Y-6362700D03*
G01*
X3041700Y-6629400D03*
G01*
X3841699Y-6629400D03*
G01*
X3041700Y-6896100D03*
G01*
X3841699Y-6896100D03*
G01*
X3041700Y-7162800D03*
G01*
X3841699Y-7162800D03*
G01*
X3041700Y-7429500D03*
G01*
X3841699Y-7429500D03*
G01*
X5632500Y-6642100D03*
G01*
X6432499Y-6642100D03*
G01*
X5632500Y-6908800D03*
G01*
X6432499Y-6908800D03*
G01*
X5632500Y-7175500D03*
G01*
X6432499Y-7175500D03*
G01*
X5645200Y-7442200D03*
G01*
X6445199Y-7442200D03*
G01*
X5632500Y-6096000D03*
G01*
X6432499Y-6096000D03*
G01*
X5632500Y-6375400D03*
G01*
X6432499Y-6375400D03*
D12*
G01*
X2305050Y-1955800D03*
G01*
X2038350Y-1955800D03*
G01*
X1784350Y-1955800D03*
G01*
X1784350Y-584200D03*
G01*
X2292350Y-584200D03*
D14*
G01*
X1401800Y-1286078D03*
G01*
X2667863Y-1290320D03*
D15*
G01*
X6839502Y-932309D03*
G01*
X6839502Y-1302311D03*
G01*
X6839502Y-1582295D03*
G01*
X8019500Y-1582295D03*
G01*
X8019500Y-1302311D03*
G01*
X8019500Y-932309D03*
D16*
G01*
X1022149Y-6615577D03*
G01*
X1162255Y-6668607D03*
D18*
G01*
X1022393Y-7088360D03*
G01*
X1161999Y-7034019D03*
D19*
G01*
X901700Y-8305800D03*
G01*
X8610600Y-8305800D03*
G01*
X8610600Y25400D03*
G01*
X889000Y25400D03*
M02*
