G04 Layer: BottomSilkscreenLayer*
G04 EasyEDA v6.5.57, 2026-07-28 23:04:53*
G04 6e20ac815a004ef09f6275fc184b8e62,47083fb59e924f2e982a52276fdf08c8,10*
G04 Gerber Generator version 0.2*
G04 Scale: 100 percent, Rotated: No, Reflected: No *
G04 Dimensions in millimeters *
G04 leading zeros omitted , absolute positions ,4 integer and 5 decimal *
%FSLAX45Y45*%
%MOMM*%

%ADD10C,0.1524*%
%ADD11C,0.1500*%
%ADD12C,0.2540*%
%ADD13C,0.0172*%

%LPD*%
G36*
X7582306Y-4566767D02*
G01*
X7570317Y-4566920D01*
X7552080Y-4567631D01*
X7527290Y-4569409D01*
X7501890Y-4572203D01*
X7475880Y-4575911D01*
X7451496Y-4580128D01*
X7428585Y-4584903D01*
X7417358Y-4587595D01*
X7400442Y-4592116D01*
X7377074Y-4599228D01*
X7351877Y-4607864D01*
X7310881Y-4623206D01*
X7289495Y-4632248D01*
X7273696Y-4639665D01*
X7252919Y-4650333D01*
X7242657Y-4655972D01*
X7227468Y-4664862D01*
X7207554Y-4677460D01*
X7186559Y-4691938D01*
X7349998Y-4691938D01*
X7349998Y-4689551D01*
X7350404Y-4687112D01*
X7351217Y-4684623D01*
X7352487Y-4682083D01*
X7354214Y-4679492D01*
X7356297Y-4676902D01*
X7361631Y-4671669D01*
X7368387Y-4666386D01*
X7376515Y-4661103D01*
X7385862Y-4655870D01*
X7396276Y-4650740D01*
X7407757Y-4645710D01*
X7420102Y-4640884D01*
X7433259Y-4636312D01*
X7447076Y-4631994D01*
X7461503Y-4627981D01*
X7476337Y-4624324D01*
X7491577Y-4621072D01*
X7507020Y-4618278D01*
X7522667Y-4615992D01*
X7538313Y-4614265D01*
X7566253Y-4612081D01*
X7580020Y-4611319D01*
X7607300Y-4610608D01*
X7620762Y-4610557D01*
X7634122Y-4610760D01*
X7660436Y-4611878D01*
X7673390Y-4612792D01*
X7692593Y-4614570D01*
X7705191Y-4616043D01*
X7723886Y-4618685D01*
X7742275Y-4621834D01*
X7766253Y-4626813D01*
X7778038Y-4629607D01*
X7795361Y-4634280D01*
X7806740Y-4637633D01*
X7829042Y-4645050D01*
X7850631Y-4653280D01*
X7861198Y-4657750D01*
X7881772Y-4667300D01*
X7896758Y-4675022D01*
X7906512Y-4680407D01*
X7920786Y-4688890D01*
X7930083Y-4694834D01*
X7948066Y-4707280D01*
X7956803Y-4713833D01*
X7973618Y-4727549D01*
X7981696Y-4734661D01*
X7997291Y-4749546D01*
X8012023Y-4765243D01*
X8022488Y-4777536D01*
X8029194Y-4785969D01*
X8041894Y-4803394D01*
X8049158Y-4814265D01*
X8055660Y-4824476D01*
X8059420Y-4831334D01*
X8060232Y-4833518D01*
X8060385Y-4834890D01*
X8059826Y-4835398D01*
X8058505Y-4835144D01*
X8056422Y-4833975D01*
X8050022Y-4829302D01*
X8040522Y-4821275D01*
X7989366Y-4776012D01*
X7968132Y-4758131D01*
X7949234Y-4743297D01*
X7931658Y-4730699D01*
X7923072Y-4725060D01*
X7914386Y-4719675D01*
X7896402Y-4709464D01*
X7876692Y-4699355D01*
X7865872Y-4694072D01*
X7855254Y-4689195D01*
X7843824Y-4684369D01*
X7831734Y-4679645D01*
X7806232Y-4670552D01*
X7793228Y-4666335D01*
X7780324Y-4662424D01*
X7767675Y-4658868D01*
X7743901Y-4652975D01*
X7733131Y-4650790D01*
X7723378Y-4649114D01*
X7714843Y-4648098D01*
X7707630Y-4647742D01*
X7699908Y-4647742D01*
X7699908Y-4653838D01*
X7699705Y-4656175D01*
X7698994Y-4658309D01*
X7697724Y-4660290D01*
X7695844Y-4662170D01*
X7693355Y-4663948D01*
X7690154Y-4665624D01*
X7686243Y-4667199D01*
X7675981Y-4670145D01*
X7662214Y-4672888D01*
X7644536Y-4675632D01*
X7622590Y-4678375D01*
X7420864Y-4701082D01*
X7403642Y-4702657D01*
X7389469Y-4703622D01*
X7377988Y-4704029D01*
X7368997Y-4703826D01*
X7362139Y-4703064D01*
X7359396Y-4702454D01*
X7355179Y-4700727D01*
X7353655Y-4699660D01*
X7352436Y-4698441D01*
X7351471Y-4697018D01*
X7350302Y-4693818D01*
X7349998Y-4691938D01*
X7186559Y-4691938D01*
X7169099Y-4704994D01*
X7155129Y-4716068D01*
X7136942Y-4731512D01*
X7119315Y-4747615D01*
X7102195Y-4764328D01*
X7089749Y-4777282D01*
X7073595Y-4795113D01*
X7058101Y-4813452D01*
X7050227Y-4823256D01*
X7133793Y-4823256D01*
X7134961Y-4817567D01*
X7136485Y-4813096D01*
X7138416Y-4808524D01*
X7140752Y-4803902D01*
X7143546Y-4799177D01*
X7146696Y-4794453D01*
X7150201Y-4789678D01*
X7158177Y-4780178D01*
X7167321Y-4770831D01*
X7177379Y-4761788D01*
X7188301Y-4753152D01*
X7199833Y-4745126D01*
X7211771Y-4737862D01*
X7217816Y-4734560D01*
X7230059Y-4728718D01*
X7242302Y-4723993D01*
X7248347Y-4722114D01*
X7261859Y-4718761D01*
X7267498Y-4717796D01*
X7272375Y-4717237D01*
X7276490Y-4717135D01*
X7279894Y-4717440D01*
X7282484Y-4718202D01*
X7284364Y-4719269D01*
X7285532Y-4720793D01*
X7285888Y-4722622D01*
X7285532Y-4724857D01*
X7284364Y-4727448D01*
X7282484Y-4730343D01*
X7279894Y-4733544D01*
X7276490Y-4737049D01*
X7272375Y-4740859D01*
X7267498Y-4744974D01*
X7255459Y-4753965D01*
X7232802Y-4769662D01*
X7227570Y-4774031D01*
X7212126Y-4784953D01*
X7179818Y-4807204D01*
X7158786Y-4821326D01*
X7150658Y-4825949D01*
X7144207Y-4828844D01*
X7139279Y-4830064D01*
X7135926Y-4829505D01*
X7134148Y-4827219D01*
X7133793Y-4823256D01*
X7050227Y-4823256D01*
X7043216Y-4832299D01*
X7032498Y-4846777D01*
X7018731Y-4866487D01*
X7005675Y-4886655D01*
X6993331Y-4907178D01*
X6981748Y-4928108D01*
X6970877Y-4949342D01*
X6960819Y-4970881D01*
X6951522Y-4992674D01*
X6943090Y-5014722D01*
X6935520Y-5036972D01*
X6928764Y-5059426D01*
X6924294Y-5076342D01*
X6921601Y-5087620D01*
X6916928Y-5110327D01*
X6913168Y-5133086D01*
X6910984Y-5150154D01*
X6909409Y-5167274D01*
X6908596Y-5178653D01*
X6907936Y-5195722D01*
X6907530Y-5223002D01*
X6906361Y-5232196D01*
X6903821Y-5236464D01*
X6899402Y-5237530D01*
X6895490Y-5237937D01*
X6891477Y-5239105D01*
X6887413Y-5240934D01*
X6883298Y-5243423D01*
X6879234Y-5246522D01*
X6875322Y-5250078D01*
X6871614Y-5254040D01*
X6868159Y-5258409D01*
X6865010Y-5263083D01*
X6862267Y-5268010D01*
X6859981Y-5273040D01*
X6858253Y-5278221D01*
X6857593Y-5281168D01*
X6856475Y-5289804D01*
X6855663Y-5301386D01*
X6854885Y-5323738D01*
X6906666Y-5323738D01*
X6906768Y-5312918D01*
X6907072Y-5308447D01*
X6907580Y-5304586D01*
X6908342Y-5301183D01*
X6909409Y-5298287D01*
X6910933Y-5295798D01*
X6912864Y-5293664D01*
X6915251Y-5291836D01*
X6918248Y-5290312D01*
X6921804Y-5288991D01*
X6926021Y-5287873D01*
X6936689Y-5285943D01*
X6968286Y-5281930D01*
X6990689Y-5279440D01*
X7013905Y-5277510D01*
X7037831Y-5276088D01*
X7062317Y-5275173D01*
X7087311Y-5274767D01*
X7119061Y-5274919D01*
X7144766Y-5275630D01*
X7177074Y-5277154D01*
X7209383Y-5279440D01*
X7247940Y-5283098D01*
X7266990Y-5285333D01*
X7292086Y-5288686D01*
X7310628Y-5291480D01*
X7340853Y-5296712D01*
X7370013Y-5302554D01*
X7392466Y-5307736D01*
X7413955Y-5313273D01*
X7436358Y-5319623D01*
X7460589Y-5326989D01*
X7486040Y-5335066D01*
X7512100Y-5343702D01*
X7538110Y-5352694D01*
X7563510Y-5361787D01*
X7587589Y-5370779D01*
X7618365Y-5382869D01*
X8277301Y-5382869D01*
X8277606Y-5380837D01*
X8279536Y-5374995D01*
X8284565Y-5362194D01*
X8288883Y-5350103D01*
X8292541Y-5338470D01*
X8295741Y-5326989D01*
X8298434Y-5315356D01*
X8300770Y-5303266D01*
X8302802Y-5290362D01*
X8304580Y-5276443D01*
X8305546Y-5266232D01*
X8306155Y-5255514D01*
X8306358Y-5244236D01*
X8306257Y-5232501D01*
X8305749Y-5220360D01*
X8304885Y-5207863D01*
X8303666Y-5195011D01*
X8302091Y-5181904D01*
X8300212Y-5168544D01*
X8297925Y-5155082D01*
X8295335Y-5141417D01*
X8287562Y-5105654D01*
X8287156Y-5102606D01*
X8287156Y-5100624D01*
X8287562Y-5099608D01*
X8288274Y-5099507D01*
X8289290Y-5100269D01*
X8290610Y-5101844D01*
X8293912Y-5107076D01*
X8298027Y-5114747D01*
X8302599Y-5124297D01*
X8307476Y-5135270D01*
X8312353Y-5147106D01*
X8317026Y-5159298D01*
X8321243Y-5171440D01*
X8324697Y-5182870D01*
X8331149Y-5209489D01*
X8333536Y-5221071D01*
X8335314Y-5231688D01*
X8336483Y-5242204D01*
X8337245Y-5253431D01*
X8337753Y-5281676D01*
X8337702Y-5306263D01*
X8337448Y-5319369D01*
X8336991Y-5330596D01*
X8336280Y-5340604D01*
X8335162Y-5350052D01*
X8333638Y-5359603D01*
X8329168Y-5381904D01*
X8325561Y-5398516D01*
X8323783Y-5401360D01*
X8320074Y-5402630D01*
X8314893Y-5402529D01*
X8308492Y-5401005D01*
X8301228Y-5398312D01*
X8293404Y-5394502D01*
X8285378Y-5389626D01*
X8277453Y-5383834D01*
X8277301Y-5382869D01*
X7618365Y-5382869D01*
X7652816Y-5397703D01*
X7670901Y-5405120D01*
X7686954Y-5412028D01*
X7765084Y-5447741D01*
X7808925Y-5469128D01*
X7932978Y-5531154D01*
X7949641Y-5530951D01*
X7954568Y-5530443D01*
X7959140Y-5529427D01*
X7963509Y-5527852D01*
X7967776Y-5525617D01*
X7972094Y-5522518D01*
X7976616Y-5518505D01*
X7981492Y-5513425D01*
X7986826Y-5507177D01*
X7999577Y-5490768D01*
X8011718Y-5474360D01*
X8021828Y-5462117D01*
X8032953Y-5449671D01*
X8044688Y-5437581D01*
X8056473Y-5426202D01*
X8067852Y-5415991D01*
X8078368Y-5407355D01*
X8087512Y-5400802D01*
X8091424Y-5398414D01*
X8094827Y-5396687D01*
X8097621Y-5395722D01*
X8099755Y-5395518D01*
X8101177Y-5396128D01*
X8100415Y-5397957D01*
X8097266Y-5401767D01*
X8092236Y-5406999D01*
X8070443Y-5427827D01*
X8060740Y-5437581D01*
X8051444Y-5447385D01*
X8042656Y-5457139D01*
X8034223Y-5466943D01*
X8026247Y-5476798D01*
X8018678Y-5486654D01*
X8011515Y-5496560D01*
X8004759Y-5506466D01*
X7998409Y-5516473D01*
X7992465Y-5526481D01*
X7986928Y-5536590D01*
X7981797Y-5546750D01*
X7977073Y-5557012D01*
X7972704Y-5567324D01*
X7968742Y-5577687D01*
X7965186Y-5588203D01*
X7961985Y-5598769D01*
X7959140Y-5609488D01*
X7956702Y-5620258D01*
X7951266Y-5648909D01*
X7948523Y-5655716D01*
X7945018Y-5657545D01*
X7939227Y-5654243D01*
X7933385Y-5651550D01*
X7911490Y-5642508D01*
X7868158Y-5625541D01*
X7854391Y-5620410D01*
X7843875Y-5616956D01*
X7818780Y-5609539D01*
X7790840Y-5602020D01*
X7763306Y-5595264D01*
X7739329Y-5590082D01*
X7729575Y-5588355D01*
X7715199Y-5586476D01*
X7707325Y-5585764D01*
X7701940Y-5585612D01*
X7698994Y-5586069D01*
X7698435Y-5587085D01*
X7700264Y-5588660D01*
X7704480Y-5590895D01*
X7731455Y-5602173D01*
X7778699Y-5622594D01*
X7805318Y-5634939D01*
X7834579Y-5649518D01*
X7857032Y-5661202D01*
X7885836Y-5676900D01*
X7911490Y-5691581D01*
X7922463Y-5698185D01*
X7931861Y-5704128D01*
X7939379Y-5709208D01*
X7944815Y-5713272D01*
X7947863Y-5716270D01*
X7948422Y-5717235D01*
X7948320Y-5717946D01*
X7945628Y-5717387D01*
X7928965Y-5712307D01*
X7880959Y-5697016D01*
X7830464Y-5684113D01*
X7805978Y-5678170D01*
X7765440Y-5669229D01*
X7747863Y-5665114D01*
X7736535Y-5661863D01*
X7732979Y-5660542D01*
X7729423Y-5658662D01*
X7725460Y-5657037D01*
X7714894Y-5653430D01*
X7659725Y-5632754D01*
X7633766Y-5623509D01*
X7600543Y-5612282D01*
X7573518Y-5603595D01*
X7525461Y-5589117D01*
X7490714Y-5579364D01*
X7462774Y-5571896D01*
X7434783Y-5564733D01*
X7406843Y-5557977D01*
X7365136Y-5548528D01*
X7337602Y-5542686D01*
X7303668Y-5535930D01*
X7270292Y-5529834D01*
X7237679Y-5524449D01*
X7205980Y-5519775D01*
X7181392Y-5516524D01*
X7157516Y-5513781D01*
X7128865Y-5511038D01*
X7107021Y-5509463D01*
X7081062Y-5508193D01*
X7061504Y-5507786D01*
X7047636Y-5507837D01*
X7030212Y-5508447D01*
X7014057Y-5509615D01*
X6999274Y-5511342D01*
X6982866Y-5514187D01*
X6979818Y-5514136D01*
X6976719Y-5513628D01*
X6973620Y-5512714D01*
X6970522Y-5511393D01*
X6967423Y-5509666D01*
X6964324Y-5507532D01*
X6961276Y-5505043D01*
X6955180Y-5498947D01*
X6949236Y-5491530D01*
X6943496Y-5482894D01*
X6938009Y-5473090D01*
X6932777Y-5462320D01*
X6927900Y-5450636D01*
X6923430Y-5438140D01*
X6919366Y-5424932D01*
X6915759Y-5411165D01*
X6912711Y-5396941D01*
X6910222Y-5382361D01*
X6908393Y-5367477D01*
X6907225Y-5352491D01*
X6906768Y-5337454D01*
X6906666Y-5323738D01*
X6854885Y-5323738D01*
X6854748Y-5338064D01*
X6855256Y-5368442D01*
X6855917Y-5381752D01*
X6856882Y-5392674D01*
X6858101Y-5400395D01*
X6862927Y-5420614D01*
X6867550Y-5438140D01*
X6871563Y-5451957D01*
X6876491Y-5465622D01*
X6877354Y-5469128D01*
X6877202Y-5471820D01*
X6875780Y-5473852D01*
X6872986Y-5475274D01*
X6868617Y-5476341D01*
X6862470Y-5477154D01*
X6846874Y-5478475D01*
X6835394Y-5479796D01*
X6824776Y-5482031D01*
X6810451Y-5486146D01*
X6794246Y-5491175D01*
X6782206Y-5495493D01*
X6770725Y-5500217D01*
X6759854Y-5505348D01*
X6749592Y-5510885D01*
X6739890Y-5516778D01*
X6730796Y-5523026D01*
X6722262Y-5529630D01*
X6714388Y-5536539D01*
X6707073Y-5543753D01*
X6700418Y-5551220D01*
X6694322Y-5558993D01*
X6688886Y-5567019D01*
X6684060Y-5575300D01*
X6679895Y-5583783D01*
X6676288Y-5592521D01*
X6673392Y-5601411D01*
X6671106Y-5610453D01*
X6669481Y-5619699D01*
X6668465Y-5629097D01*
X6668116Y-5638901D01*
X6722618Y-5638901D01*
X6723024Y-5629757D01*
X6723583Y-5625287D01*
X6725412Y-5616549D01*
X6728206Y-5608116D01*
X6731965Y-5600039D01*
X6736638Y-5592216D01*
X6742277Y-5584748D01*
X6745427Y-5581142D01*
X6752437Y-5574233D01*
X6760362Y-5567680D01*
X6769201Y-5561533D01*
X6778955Y-5555843D01*
X6789572Y-5550509D01*
X6801053Y-5545683D01*
X6813448Y-5541264D01*
X6826707Y-5537352D01*
X6842455Y-5533288D01*
X6848297Y-5532018D01*
X6852920Y-5531307D01*
X6856475Y-5531256D01*
X6859016Y-5531916D01*
X6860743Y-5533288D01*
X6861708Y-5535523D01*
X6862064Y-5538571D01*
X6861911Y-5542584D01*
X6859016Y-5566460D01*
X6858304Y-5579465D01*
X6858253Y-5592419D01*
X6858914Y-5605373D01*
X6860235Y-5618226D01*
X6862267Y-5630976D01*
X6863709Y-5638088D01*
X6934962Y-5638088D01*
X6935114Y-5634431D01*
X6935876Y-5629402D01*
X6939330Y-5614517D01*
X6947611Y-5582564D01*
X6960514Y-5576671D01*
X6967118Y-5574080D01*
X6975449Y-5571439D01*
X6984441Y-5569051D01*
X6996836Y-5566562D01*
X7008622Y-5564835D01*
X7029754Y-5562803D01*
X7048042Y-5561939D01*
X7062520Y-5561685D01*
X7082891Y-5561939D01*
X7104481Y-5562854D01*
X7127341Y-5564378D01*
X7151370Y-5566613D01*
X7176617Y-5569458D01*
X7203084Y-5572963D01*
X7230770Y-5577128D01*
X7259726Y-5581954D01*
X7289850Y-5587441D01*
X7321245Y-5593537D01*
X7353909Y-5600344D01*
X7387793Y-5607761D01*
X7416088Y-5614822D01*
X7445756Y-5622848D01*
X7465618Y-5627624D01*
X7467752Y-5628487D01*
X7467955Y-5628843D01*
X7467498Y-5629198D01*
X7464653Y-5629757D01*
X7459014Y-5630214D01*
X7438745Y-5630824D01*
X7405319Y-5631129D01*
X7354773Y-5631230D01*
X7323886Y-5631637D01*
X7298740Y-5632500D01*
X7276693Y-5633974D01*
X7249515Y-5636920D01*
X7224928Y-5640324D01*
X7211720Y-5641848D01*
X7197242Y-5642711D01*
X7182053Y-5643016D01*
X7166609Y-5642660D01*
X7151522Y-5641695D01*
X7112762Y-5637428D01*
X7085685Y-5635498D01*
X7071664Y-5634786D01*
X7050481Y-5634126D01*
X7036460Y-5633923D01*
X7016140Y-5633974D01*
X6991197Y-5634786D01*
X6979970Y-5635447D01*
X6969861Y-5636310D01*
X6961022Y-5637377D01*
X6953605Y-5638647D01*
X6940854Y-5642102D01*
X6938365Y-5642305D01*
X6936587Y-5641848D01*
X6935470Y-5640476D01*
X6934962Y-5638088D01*
X6863709Y-5638088D01*
X6866585Y-5649823D01*
X6870242Y-5662117D01*
X6874560Y-5674207D01*
X6879488Y-5685993D01*
X6885025Y-5697423D01*
X6891172Y-5708548D01*
X6897928Y-5719267D01*
X6905244Y-5729528D01*
X6913118Y-5739333D01*
X6923074Y-5750509D01*
X6927291Y-5755690D01*
X6930085Y-5760059D01*
X6931456Y-5764123D01*
X6931609Y-5768340D01*
X6930491Y-5773064D01*
X6928307Y-5778906D01*
X6922211Y-5792774D01*
X6918248Y-5803341D01*
X6917436Y-5808065D01*
X6916674Y-5809742D01*
X6915454Y-5811062D01*
X6913829Y-5812028D01*
X6911746Y-5812586D01*
X6909257Y-5812840D01*
X6906412Y-5812790D01*
X6899605Y-5811672D01*
X6891629Y-5809386D01*
X6882536Y-5806084D01*
X6872630Y-5801766D01*
X6861962Y-5796584D01*
X6850786Y-5790692D01*
X6839305Y-5784138D01*
X6827621Y-5777026D01*
X6815988Y-5769457D01*
X6804558Y-5761532D01*
X6793484Y-5753404D01*
X6783019Y-5745124D01*
X6773265Y-5736793D01*
X6764426Y-5728563D01*
X6756704Y-5720486D01*
X6750303Y-5712663D01*
X6744157Y-5703620D01*
X6738112Y-5693156D01*
X6733031Y-5682843D01*
X6728968Y-5672734D01*
X6725920Y-5662777D01*
X6724751Y-5657900D01*
X6723227Y-5648248D01*
X6722770Y-5643575D01*
X6722618Y-5638901D01*
X6668116Y-5638901D01*
X6668465Y-5648198D01*
X6669430Y-5657900D01*
X6671056Y-5667654D01*
X6673392Y-5677509D01*
X6676390Y-5687364D01*
X6680047Y-5697270D01*
X6684365Y-5707227D01*
X6689394Y-5717133D01*
X6695135Y-5727039D01*
X6701536Y-5736894D01*
X6708648Y-5746699D01*
X6716471Y-5756452D01*
X6725005Y-5766054D01*
X6747713Y-5789726D01*
X6720569Y-5830366D01*
X6969506Y-5830366D01*
X6969810Y-5820003D01*
X6970166Y-5816752D01*
X6971690Y-5810250D01*
X6974078Y-5803849D01*
X6977329Y-5797448D01*
X6981444Y-5791149D01*
X6986422Y-5784900D01*
X6992213Y-5778754D01*
X6998766Y-5772708D01*
X7006081Y-5766816D01*
X7014108Y-5760974D01*
X7022896Y-5755335D01*
X7032396Y-5749798D01*
X7042556Y-5744464D01*
X7053376Y-5739282D01*
X7064806Y-5734253D01*
X7076897Y-5729427D01*
X7089546Y-5724855D01*
X7102754Y-5720435D01*
X7116521Y-5716270D01*
X7130796Y-5712307D01*
X7145578Y-5708650D01*
X7160818Y-5705246D01*
X7176516Y-5702046D01*
X7192670Y-5699201D01*
X7209180Y-5696610D01*
X7258303Y-5690311D01*
X7274102Y-5688533D01*
X7294422Y-5687466D01*
X7322718Y-5686501D01*
X7372096Y-5685434D01*
X7404353Y-5685078D01*
X7442504Y-5685282D01*
X7463739Y-5686298D01*
X7490104Y-5687974D01*
X7523581Y-5690666D01*
X7564069Y-5694527D01*
X7597902Y-5698286D01*
X7638186Y-5703417D01*
X7671206Y-5708142D01*
X7709966Y-5714339D01*
X7732194Y-5718251D01*
X8003387Y-5718251D01*
X8004098Y-5682335D01*
X8004606Y-5670194D01*
X8005572Y-5658205D01*
X8006943Y-5646420D01*
X8008823Y-5634786D01*
X8011109Y-5623306D01*
X8013903Y-5612028D01*
X8017103Y-5600903D01*
X8020812Y-5589930D01*
X8024977Y-5579110D01*
X8029600Y-5568442D01*
X8034680Y-5557926D01*
X8040217Y-5547563D01*
X8046262Y-5537352D01*
X8052714Y-5527243D01*
X8059724Y-5517286D01*
X8067192Y-5507482D01*
X8075117Y-5497779D01*
X8083550Y-5488178D01*
X8092440Y-5478729D01*
X8101838Y-5469382D01*
X8111744Y-5460136D01*
X8122107Y-5450992D01*
X8132978Y-5442000D01*
X8144357Y-5433060D01*
X8156244Y-5424220D01*
X8168589Y-5415483D01*
X8177022Y-5409844D01*
X8180628Y-5407660D01*
X8184032Y-5405983D01*
X8187283Y-5404815D01*
X8190585Y-5404154D01*
X8194040Y-5404053D01*
X8197697Y-5404510D01*
X8201761Y-5405526D01*
X8206333Y-5407202D01*
X8217458Y-5412486D01*
X8231987Y-5420563D01*
X8250986Y-5431536D01*
X8261705Y-5437428D01*
X8265414Y-5439206D01*
X8270697Y-5441137D01*
X8271052Y-5444134D01*
X8268868Y-5447639D01*
X8264398Y-5450332D01*
X8255050Y-5453989D01*
X8245500Y-5458561D01*
X8235848Y-5463946D01*
X8226044Y-5470144D01*
X8216188Y-5477103D01*
X8206333Y-5484774D01*
X8196478Y-5493156D01*
X8186775Y-5502148D01*
X8177123Y-5511698D01*
X8167674Y-5521807D01*
X8158429Y-5532374D01*
X8149488Y-5543397D01*
X8140801Y-5554878D01*
X8132521Y-5566664D01*
X8124596Y-5578805D01*
X8117179Y-5591200D01*
X8108289Y-5606897D01*
X8104631Y-5613958D01*
X8102447Y-5619394D01*
X8097215Y-5631129D01*
X8091982Y-5643575D01*
X8090408Y-5648147D01*
X8089646Y-5652211D01*
X8089188Y-5653633D01*
X8088477Y-5654802D01*
X8086699Y-5656681D01*
X8085734Y-5658561D01*
X8084870Y-5660999D01*
X8080552Y-5679135D01*
X8077911Y-5689092D01*
X8076285Y-5698896D01*
X8074863Y-5710986D01*
X8073847Y-5724194D01*
X8072831Y-5745581D01*
X8071612Y-5756452D01*
X8070697Y-5760567D01*
X8070230Y-5761888D01*
X8118195Y-5761888D01*
X8118703Y-5729325D01*
X8119516Y-5718302D01*
X8121091Y-5707024D01*
X8123326Y-5695594D01*
X8126171Y-5684012D01*
X8129676Y-5672328D01*
X8133740Y-5660593D01*
X8138363Y-5648858D01*
X8143494Y-5637174D01*
X8149132Y-5625642D01*
X8155228Y-5614162D01*
X8161781Y-5602935D01*
X8168741Y-5591911D01*
X8176056Y-5581142D01*
X8183778Y-5570728D01*
X8191753Y-5560669D01*
X8200085Y-5551068D01*
X8208619Y-5541873D01*
X8217458Y-5533237D01*
X8226450Y-5525109D01*
X8235645Y-5517591D01*
X8244941Y-5510733D01*
X8254390Y-5504586D01*
X8263940Y-5499150D01*
X8268716Y-5496712D01*
X8274558Y-5494070D01*
X8280146Y-5491886D01*
X8285480Y-5490108D01*
X8290559Y-5488787D01*
X8295436Y-5487924D01*
X8300059Y-5487466D01*
X8304479Y-5487416D01*
X8308594Y-5487873D01*
X8312454Y-5488686D01*
X8316112Y-5489956D01*
X8319465Y-5491632D01*
X8322564Y-5493766D01*
X8325408Y-5496255D01*
X8327948Y-5499201D01*
X8330285Y-5502554D01*
X8332266Y-5506313D01*
X8334044Y-5510479D01*
X8335518Y-5515051D01*
X8336686Y-5520029D01*
X8337600Y-5525414D01*
X8338515Y-5537403D01*
X8338515Y-5543956D01*
X8338210Y-5550916D01*
X8337448Y-5560669D01*
X8336432Y-5570016D01*
X8335264Y-5577789D01*
X8334146Y-5582970D01*
X8327186Y-5605932D01*
X8325358Y-5611114D01*
X8318347Y-5628030D01*
X8312454Y-5641390D01*
X8307171Y-5652262D01*
X8301431Y-5662828D01*
X8294065Y-5675122D01*
X8285378Y-5688685D01*
X8276285Y-5701588D01*
X8266836Y-5713730D01*
X8257184Y-5725160D01*
X8247329Y-5735777D01*
X8237321Y-5745581D01*
X8227314Y-5754471D01*
X8217306Y-5762447D01*
X8207400Y-5769508D01*
X8197697Y-5775553D01*
X8188147Y-5780582D01*
X8178952Y-5784494D01*
X8174481Y-5786069D01*
X8170113Y-5787339D01*
X8161731Y-5789015D01*
X8157718Y-5789422D01*
X8153806Y-5789472D01*
X8150098Y-5789269D01*
X8146491Y-5788761D01*
X8143087Y-5787898D01*
X8139836Y-5786729D01*
X8136737Y-5785205D01*
X8133842Y-5783376D01*
X8131149Y-5781192D01*
X8128660Y-5778703D01*
X8126374Y-5775858D01*
X8118195Y-5761888D01*
X8070230Y-5761888D01*
X8069529Y-5763869D01*
X8068005Y-5766308D01*
X8066176Y-5767984D01*
X8063890Y-5768898D01*
X8061096Y-5769102D01*
X8057845Y-5768644D01*
X8053984Y-5767476D01*
X8049564Y-5765698D01*
X8038592Y-5760364D01*
X8017611Y-5749188D01*
X8014157Y-5747004D01*
X8011312Y-5744870D01*
X8008975Y-5742533D01*
X8007146Y-5739993D01*
X8005724Y-5736996D01*
X8004657Y-5733440D01*
X8003997Y-5729224D01*
X8003387Y-5718251D01*
X7732194Y-5718251D01*
X7753350Y-5722213D01*
X7777073Y-5726988D01*
X7805369Y-5733186D01*
X7826756Y-5738368D01*
X7855915Y-5746140D01*
X7871510Y-5750661D01*
X7901686Y-5760364D01*
X7916265Y-5765444D01*
X7930489Y-5770727D01*
X7957769Y-5781802D01*
X7983524Y-5793486D01*
X7995767Y-5799531D01*
X8007603Y-5805728D01*
X8018983Y-5812028D01*
X8029956Y-5818479D01*
X8040471Y-5825032D01*
X8050479Y-5831687D01*
X8060080Y-5838444D01*
X8069173Y-5845302D01*
X8077758Y-5852261D01*
X8085836Y-5859272D01*
X8093405Y-5866384D01*
X8100466Y-5873546D01*
X8107019Y-5880811D01*
X8112963Y-5888126D01*
X8118398Y-5895441D01*
X8123275Y-5902858D01*
X8127542Y-5910326D01*
X8131251Y-5917793D01*
X8134350Y-5925261D01*
X8139531Y-5940704D01*
X8134553Y-5957519D01*
X8131556Y-5964275D01*
X8127593Y-5971032D01*
X8122615Y-5977890D01*
X8116671Y-5984697D01*
X8109712Y-5991606D01*
X8101787Y-5998514D01*
X8092846Y-6005423D01*
X8082991Y-6012332D01*
X8072120Y-6019292D01*
X8060283Y-6026200D01*
X8047532Y-6033160D01*
X8033766Y-6040120D01*
X7998663Y-6056376D01*
X7992008Y-6059271D01*
X7989062Y-6060338D01*
X7986369Y-6061049D01*
X7983778Y-6061405D01*
X7981289Y-6061405D01*
X7978902Y-6060948D01*
X7976412Y-6060084D01*
X7973923Y-6058712D01*
X7971281Y-6056833D01*
X7968488Y-6054394D01*
X7962188Y-6047790D01*
X7954619Y-6038545D01*
X7909712Y-5979363D01*
X7891322Y-5955690D01*
X7875371Y-5935827D01*
X7862011Y-5919978D01*
X7856372Y-5913577D01*
X7840725Y-5897118D01*
X7838236Y-5892647D01*
X7839608Y-5890768D01*
X7844891Y-5891682D01*
X7860030Y-5896457D01*
X7875828Y-5900877D01*
X7891576Y-5904839D01*
X7906410Y-5908192D01*
X7919669Y-5910732D01*
X7930540Y-5912307D01*
X7934807Y-5912713D01*
X7938211Y-5912764D01*
X7940649Y-5912561D01*
X7941970Y-5911951D01*
X7942681Y-5910173D01*
X7941919Y-5907684D01*
X7939786Y-5904738D01*
X7936534Y-5901283D01*
X7932166Y-5897473D01*
X7926882Y-5893409D01*
X7920786Y-5889142D01*
X7913979Y-5884824D01*
X7906664Y-5880506D01*
X7898841Y-5876290D01*
X7890764Y-5872276D01*
X7877809Y-5866587D01*
X7849209Y-5855716D01*
X7817662Y-5844540D01*
X7806131Y-5840730D01*
X7772095Y-5830773D01*
X7744917Y-5823559D01*
X7713929Y-5816092D01*
X7698689Y-5812637D01*
X7672273Y-5807303D01*
X7661351Y-5805373D01*
X7647025Y-5802477D01*
X7613294Y-5794756D01*
X7592212Y-5789625D01*
X7578750Y-5786729D01*
X7560360Y-5783326D01*
X7541310Y-5780430D01*
X7511542Y-5776976D01*
X7485634Y-5774994D01*
X7469581Y-5774131D01*
X7436256Y-5773318D01*
X7401356Y-5773623D01*
X7377175Y-5774436D01*
X7345832Y-5776163D01*
X7319924Y-5778093D01*
X7286345Y-5781243D01*
X7258608Y-5784291D01*
X7230008Y-5787898D01*
X7200544Y-5791962D01*
X7170216Y-5796534D01*
X7123023Y-5804357D01*
X7050024Y-5817412D01*
X7014209Y-5823407D01*
X6991756Y-5826760D01*
X6969506Y-5830366D01*
X6720569Y-5830366D01*
X6706057Y-5853125D01*
X6691477Y-5877509D01*
X6677964Y-5901791D01*
X6671665Y-5913882D01*
X6662674Y-5931865D01*
X6651752Y-5955487D01*
X6642049Y-5978702D01*
X6633667Y-6001308D01*
X6625183Y-6027521D01*
X6621424Y-6040069D01*
X6618478Y-6050940D01*
X6615988Y-6061202D01*
X6611670Y-6083960D01*
X6608876Y-6100013D01*
X6576618Y-6120587D01*
X6522770Y-6154267D01*
X6492748Y-6173622D01*
X6464452Y-6192570D01*
X6437884Y-6211011D01*
X6413144Y-6228994D01*
X6390335Y-6246368D01*
X6369507Y-6263081D01*
X6350762Y-6279134D01*
X6334150Y-6294374D01*
X6326632Y-6301689D01*
X6313373Y-6315659D01*
X6307582Y-6322314D01*
X6302400Y-6328765D01*
X6297828Y-6334912D01*
X6293866Y-6340805D01*
X6290513Y-6346494D01*
X6287566Y-6352489D01*
X6284366Y-6361379D01*
X6281064Y-6372555D01*
X6278517Y-6382512D01*
X6325108Y-6382512D01*
X6326835Y-6376974D01*
X6327952Y-6374079D01*
X6329527Y-6370878D01*
X6334048Y-6363614D01*
X6340195Y-6355334D01*
X6347866Y-6346190D01*
X6356807Y-6336538D01*
X6366865Y-6326428D01*
X6377889Y-6316167D01*
X6401308Y-6295999D01*
X6409740Y-6288379D01*
X6421170Y-6279286D01*
X6439001Y-6266281D01*
X6461455Y-6250432D01*
X6486804Y-6232906D01*
X6513423Y-6214973D01*
X6539585Y-6197701D01*
X6563614Y-6182309D01*
X6601561Y-6159093D01*
X6605524Y-6157010D01*
X6607809Y-6156248D01*
X6608978Y-6156502D01*
X6609588Y-6157569D01*
X6610146Y-6159195D01*
X6610400Y-6161074D01*
X6610096Y-6163564D01*
X6609232Y-6166561D01*
X6607809Y-6170066D01*
X6603492Y-6178499D01*
X6597446Y-6188405D01*
X6589928Y-6199530D01*
X6581190Y-6211519D01*
X6571589Y-6223965D01*
X6561277Y-6236614D01*
X6550609Y-6249060D01*
X6539788Y-6260998D01*
X6529171Y-6272072D01*
X6518960Y-6281978D01*
X6509410Y-6290310D01*
X6505041Y-6293815D01*
X6500876Y-6296812D01*
X6497116Y-6300774D01*
X6497777Y-6304381D01*
X6502501Y-6307277D01*
X6511188Y-6309258D01*
X6525463Y-6311798D01*
X6567017Y-6320942D01*
X6573723Y-6322161D01*
X6578498Y-6322415D01*
X6581902Y-6321806D01*
X6584594Y-6320180D01*
X6590487Y-6314033D01*
X6600748Y-6302146D01*
X6632854Y-6263132D01*
X6634429Y-6262065D01*
X6635343Y-6262573D01*
X6635546Y-6264706D01*
X6635038Y-6268516D01*
X6633819Y-6274155D01*
X6615277Y-6340703D01*
X6607962Y-6370980D01*
X6601053Y-6402425D01*
X6595465Y-6431280D01*
X6591096Y-6457746D01*
X6587896Y-6482181D01*
X6585915Y-6504736D01*
X6585051Y-6525818D01*
X6585051Y-6535775D01*
X6628942Y-6535775D01*
X6634225Y-6483858D01*
X6637070Y-6462623D01*
X6639610Y-6446215D01*
X6644690Y-6418021D01*
X6649466Y-6394805D01*
X6654800Y-6371082D01*
X6662267Y-6340805D01*
X6668820Y-6316167D01*
X6675881Y-6291275D01*
X6687362Y-6253480D01*
X6697675Y-6221882D01*
X6708648Y-6190183D01*
X6720128Y-6158636D01*
X6729730Y-6133592D01*
X6739686Y-6108750D01*
X6749846Y-6084214D01*
X6762953Y-6054140D01*
X6773722Y-6030569D01*
X6784644Y-6007557D01*
X6795770Y-5985154D01*
X6807047Y-5963462D01*
X6815531Y-5947664D01*
X6824116Y-5932322D01*
X6838543Y-5907887D01*
X6850125Y-5889396D01*
X6862876Y-5870244D01*
X6866128Y-5865825D01*
X6868871Y-5862828D01*
X6871462Y-5861100D01*
X6874306Y-5860491D01*
X6877659Y-5860846D01*
X6917791Y-5873394D01*
X6928510Y-5877712D01*
X6932879Y-5879846D01*
X6941921Y-5884722D01*
X6984339Y-5882081D01*
X7005218Y-5879795D01*
X7028942Y-5876239D01*
X7058355Y-5871006D01*
X7121906Y-5859221D01*
X7179259Y-5849467D01*
X7205014Y-5845403D01*
X7253681Y-5838545D01*
X7280351Y-5835294D01*
X7314946Y-5831433D01*
X7327341Y-5830417D01*
X7335012Y-5830366D01*
X7337247Y-5830773D01*
X7338517Y-5831484D01*
X7338822Y-5832500D01*
X7338212Y-5833872D01*
X7336840Y-5835599D01*
X7331811Y-5840171D01*
X7315200Y-5854090D01*
X7306462Y-5861964D01*
X7298080Y-5870092D01*
X7290003Y-5878525D01*
X7282230Y-5887212D01*
X7274763Y-5896102D01*
X7267651Y-5905296D01*
X7260844Y-5914694D01*
X7254392Y-5924397D01*
X7245248Y-5939383D01*
X7239558Y-5949696D01*
X7234224Y-5960313D01*
X7229195Y-5971133D01*
X7224471Y-5982208D01*
X7220051Y-5993536D01*
X7215987Y-6005118D01*
X7212228Y-6016955D01*
X7208774Y-6029096D01*
X7205675Y-6041440D01*
X7202881Y-6054039D01*
X7200392Y-6066891D01*
X7198207Y-6079998D01*
X7196378Y-6093358D01*
X7194854Y-6106972D01*
X7193686Y-6120841D01*
X7192822Y-6134963D01*
X7192264Y-6149340D01*
X7192009Y-6163970D01*
X7192111Y-6178854D01*
X7192670Y-6199276D01*
X7193534Y-6219698D01*
X7194042Y-6227521D01*
X7194702Y-6233922D01*
X7195515Y-6239154D01*
X7196480Y-6243320D01*
X7197648Y-6246571D01*
X7199071Y-6249111D01*
X7200747Y-6251041D01*
X7202728Y-6252565D01*
X7205014Y-6253835D01*
X7208774Y-6255359D01*
X7214057Y-6257036D01*
X7227163Y-6260338D01*
X7240524Y-6262979D01*
X7246061Y-6263792D01*
X7250175Y-6264046D01*
X7253935Y-6265316D01*
X7255320Y-6268364D01*
X7377277Y-6268364D01*
X7377430Y-6264402D01*
X7379106Y-6259169D01*
X7380325Y-6251752D01*
X7381494Y-6240576D01*
X7384084Y-6196685D01*
X7385303Y-6181699D01*
X7386828Y-6167018D01*
X7388606Y-6152591D01*
X7390688Y-6138468D01*
X7393076Y-6124651D01*
X7395718Y-6111087D01*
X7398613Y-6097828D01*
X7401814Y-6084925D01*
X7405268Y-6072276D01*
X7408976Y-6059982D01*
X7412939Y-6047994D01*
X7417206Y-6036310D01*
X7421676Y-6024981D01*
X7426401Y-6014008D01*
X7431430Y-6003340D01*
X7436662Y-5993028D01*
X7442098Y-5983071D01*
X7447838Y-5973521D01*
X7453782Y-5964275D01*
X7459980Y-5955436D01*
X7466380Y-5946952D01*
X7472984Y-5938824D01*
X7479842Y-5931103D01*
X7486954Y-5923788D01*
X7494219Y-5916828D01*
X7501737Y-5910275D01*
X7509459Y-5904128D01*
X7517384Y-5898438D01*
X7525512Y-5893104D01*
X7533843Y-5888228D01*
X7542377Y-5883757D01*
X7551115Y-5879744D01*
X7560056Y-5876137D01*
X7569149Y-5872988D01*
X7578445Y-5870295D01*
X7587945Y-5868060D01*
X7597851Y-5866231D01*
X7608417Y-5865012D01*
X7619441Y-5864402D01*
X7630871Y-5864453D01*
X7642606Y-5865063D01*
X7654594Y-5866282D01*
X7666736Y-5868060D01*
X7678978Y-5870397D01*
X7691221Y-5873242D01*
X7703413Y-5876594D01*
X7715503Y-5880455D01*
X7727340Y-5884824D01*
X7738922Y-5889650D01*
X7750200Y-5894882D01*
X7760970Y-5900572D01*
X7771333Y-5906668D01*
X7779512Y-5912053D01*
X7785912Y-5916726D01*
X7792161Y-5921756D01*
X7798460Y-5927344D01*
X7804810Y-5933541D01*
X7811414Y-5940501D01*
X7818374Y-5948426D01*
X7825790Y-5957316D01*
X7833766Y-5967374D01*
X7851851Y-5991504D01*
X7890256Y-6044844D01*
X7907324Y-6067806D01*
X7923733Y-6089091D01*
X7939684Y-6109055D01*
X7955381Y-6127902D01*
X7963204Y-6136995D01*
X7982864Y-6158890D01*
X8002981Y-6180074D01*
X8023961Y-6200952D01*
X8044535Y-6220815D01*
X8066227Y-6242608D01*
X8085328Y-6263233D01*
X8093964Y-6273241D01*
X8102041Y-6282994D01*
X8109559Y-6292646D01*
X8116570Y-6302197D01*
X8123072Y-6311646D01*
X8129117Y-6321094D01*
X8134654Y-6330492D01*
X8139785Y-6339992D01*
X8144509Y-6349542D01*
X8148828Y-6359194D01*
X8152790Y-6368999D01*
X8156397Y-6379006D01*
X8159699Y-6389217D01*
X8162645Y-6399733D01*
X8165388Y-6410502D01*
X8167827Y-6421628D01*
X8171992Y-6444284D01*
X8173212Y-6452920D01*
X8173669Y-6459270D01*
X8173364Y-6463385D01*
X8172246Y-6465468D01*
X8170265Y-6465722D01*
X8167420Y-6464249D01*
X8154517Y-6453936D01*
X8149793Y-6450634D01*
X8139887Y-6444691D01*
X8134756Y-6441998D01*
X8124190Y-6437325D01*
X8113217Y-6433464D01*
X8101990Y-6430416D01*
X8090560Y-6428232D01*
X8078978Y-6426809D01*
X8067294Y-6426250D01*
X8055559Y-6426454D01*
X8049717Y-6426809D01*
X8038134Y-6428232D01*
X8026704Y-6430365D01*
X8015478Y-6433312D01*
X8004556Y-6436969D01*
X7993989Y-6441389D01*
X7983829Y-6446570D01*
X7974177Y-6452514D01*
X7965084Y-6459118D01*
X7956651Y-6466484D01*
X7948930Y-6474561D01*
X7945323Y-6478828D01*
X7938770Y-6487972D01*
X7932064Y-6498844D01*
X7926425Y-6509257D01*
X7921802Y-6519214D01*
X7918196Y-6529070D01*
X7915452Y-6538874D01*
X7914386Y-6543852D01*
X7912963Y-6554063D01*
X7912266Y-6564375D01*
X7951673Y-6564375D01*
X7951927Y-6558635D01*
X7952587Y-6552895D01*
X7953705Y-6547205D01*
X7955178Y-6541516D01*
X7957058Y-6535928D01*
X7959344Y-6530340D01*
X7961985Y-6524904D01*
X7964931Y-6519570D01*
X7968234Y-6514338D01*
X7971840Y-6509308D01*
X7975752Y-6504431D01*
X7979968Y-6499707D01*
X7984439Y-6495237D01*
X7989112Y-6491020D01*
X7994091Y-6487007D01*
X7999222Y-6483299D01*
X8004606Y-6479895D01*
X8010194Y-6476796D01*
X8015935Y-6474053D01*
X8021828Y-6471615D01*
X8027619Y-6469684D01*
X8033613Y-6468059D01*
X8039760Y-6466789D01*
X8046008Y-6465874D01*
X8052358Y-6465214D01*
X8058708Y-6464960D01*
X8065160Y-6464960D01*
X8071561Y-6465265D01*
X8077911Y-6465925D01*
X8084210Y-6466840D01*
X8090408Y-6468059D01*
X8096453Y-6469583D01*
X8102346Y-6471361D01*
X8108035Y-6473444D01*
X8113522Y-6475780D01*
X8118754Y-6478371D01*
X8123681Y-6481216D01*
X8128253Y-6484366D01*
X8132521Y-6487718D01*
X8142122Y-6497320D01*
X8143900Y-6499555D01*
X8144814Y-6501282D01*
X8144662Y-6502603D01*
X8143392Y-6503568D01*
X8140852Y-6504279D01*
X8136940Y-6504685D01*
X8124545Y-6504990D01*
X8105241Y-6504889D01*
X8090458Y-6505092D01*
X8076895Y-6505803D01*
X8064347Y-6507226D01*
X8058454Y-6508140D01*
X8047177Y-6510629D01*
X8041792Y-6512102D01*
X8031429Y-6515760D01*
X8021523Y-6520332D01*
X8011922Y-6525768D01*
X8002422Y-6532270D01*
X7992922Y-6539788D01*
X7983270Y-6548424D01*
X7967319Y-6564223D01*
X7962493Y-6568592D01*
X7958734Y-6571488D01*
X7955889Y-6572910D01*
X7953857Y-6572859D01*
X7952536Y-6571386D01*
X7951876Y-6568541D01*
X7951673Y-6564375D01*
X7912266Y-6564375D01*
X7911998Y-6574790D01*
X7911439Y-6578447D01*
X7910474Y-6581241D01*
X7909052Y-6583121D01*
X7907020Y-6584137D01*
X7904327Y-6584238D01*
X7900974Y-6583476D01*
X7896859Y-6581749D01*
X7891932Y-6579158D01*
X7886090Y-6575602D01*
X7871409Y-6565646D01*
X7860944Y-6557822D01*
X7851190Y-6549644D01*
X7842199Y-6541109D01*
X7833868Y-6532219D01*
X7826298Y-6523024D01*
X7819491Y-6513474D01*
X7813395Y-6503568D01*
X7808010Y-6493408D01*
X7803388Y-6482892D01*
X7799527Y-6472123D01*
X7796428Y-6460998D01*
X7795107Y-6455359D01*
X7793126Y-6443878D01*
X7791856Y-6432092D01*
X7791399Y-6420053D01*
X7791653Y-6407759D01*
X7792669Y-6395212D01*
X7794447Y-6382461D01*
X7796987Y-6369456D01*
X7800340Y-6356197D01*
X7805623Y-6338011D01*
X7808163Y-6328410D01*
X7809636Y-6321653D01*
X7809839Y-6318859D01*
X7808417Y-6318707D01*
X7806131Y-6319977D01*
X7803083Y-6322466D01*
X7799476Y-6325971D01*
X7795361Y-6330391D01*
X7786471Y-6341110D01*
X7777581Y-6353149D01*
X7769809Y-6365087D01*
X7761427Y-6379819D01*
X7757515Y-6383782D01*
X7754772Y-6382562D01*
X7752842Y-6376365D01*
X7751978Y-6369761D01*
X7751876Y-6362395D01*
X7752435Y-6354216D01*
X7753807Y-6345123D01*
X7755890Y-6335014D01*
X7758785Y-6323787D01*
X7762544Y-6311341D01*
X7767066Y-6297574D01*
X7772501Y-6282385D01*
X7785455Y-6248400D01*
X7790129Y-6235547D01*
X7792770Y-6226810D01*
X7793278Y-6223863D01*
X7793329Y-6221831D01*
X7792821Y-6220663D01*
X7791754Y-6220307D01*
X7790180Y-6220714D01*
X7788046Y-6221831D01*
X7782052Y-6226098D01*
X7773822Y-6232804D01*
X7763916Y-6241542D01*
X7754569Y-6250990D01*
X7745831Y-6261100D01*
X7737652Y-6271818D01*
X7730185Y-6283045D01*
X7723378Y-6294729D01*
X7717383Y-6306820D01*
X7714640Y-6312966D01*
X7706512Y-6333490D01*
X7704378Y-6337604D01*
X7702245Y-6340144D01*
X7699705Y-6341262D01*
X7696453Y-6341313D01*
X7686344Y-6339230D01*
X7673797Y-6336182D01*
X7661706Y-6332880D01*
X7650022Y-6329273D01*
X7638694Y-6325362D01*
X7627772Y-6321145D01*
X7617104Y-6316522D01*
X7606690Y-6311493D01*
X7596530Y-6306058D01*
X7586573Y-6300216D01*
X7576769Y-6293916D01*
X7567117Y-6287160D01*
X7557516Y-6279896D01*
X7547965Y-6272072D01*
X7538466Y-6263741D01*
X7528966Y-6254851D01*
X7519365Y-6245402D01*
X7509713Y-6235293D01*
X7462469Y-6183020D01*
X7457186Y-6177889D01*
X7455509Y-6176619D01*
X7454341Y-6176111D01*
X7453630Y-6176314D01*
X7453223Y-6177076D01*
X7453071Y-6180124D01*
X7453630Y-6193383D01*
X7455052Y-6202273D01*
X7457338Y-6211214D01*
X7460437Y-6220307D01*
X7464399Y-6229400D01*
X7469174Y-6238494D01*
X7474661Y-6247587D01*
X7480858Y-6256629D01*
X7487716Y-6265519D01*
X7495235Y-6274358D01*
X7503363Y-6282944D01*
X7512050Y-6291376D01*
X7521295Y-6299555D01*
X7531049Y-6307480D01*
X7541259Y-6315100D01*
X7551877Y-6322364D01*
X7562900Y-6329222D01*
X7574280Y-6335674D01*
X7586014Y-6341668D01*
X7598003Y-6347155D01*
X7610246Y-6352184D01*
X7622743Y-6356604D01*
X7643063Y-6363258D01*
X7647228Y-6388049D01*
X7651902Y-6411569D01*
X7656271Y-6431788D01*
X7650124Y-6445199D01*
X7648143Y-6448704D01*
X7643723Y-6455054D01*
X7638694Y-6460490D01*
X7635951Y-6462877D01*
X7630109Y-6466992D01*
X7627010Y-6468770D01*
X7620457Y-6471615D01*
X7617002Y-6472783D01*
X7609738Y-6474460D01*
X7602118Y-6475374D01*
X7598206Y-6475577D01*
X7590078Y-6475374D01*
X7581595Y-6474409D01*
X7572908Y-6472783D01*
X7564018Y-6470497D01*
X7554874Y-6467551D01*
X7545628Y-6463995D01*
X7536230Y-6459778D01*
X7526781Y-6455003D01*
X7517231Y-6449618D01*
X7507731Y-6443726D01*
X7498232Y-6437325D01*
X7488834Y-6430365D01*
X7479487Y-6422999D01*
X7470343Y-6415125D01*
X7461300Y-6406794D01*
X7452512Y-6398056D01*
X7443978Y-6388963D01*
X7435697Y-6379464D01*
X7427772Y-6369608D01*
X7420203Y-6359448D01*
X7412990Y-6348933D01*
X7406233Y-6338163D01*
X7399985Y-6327140D01*
X7394194Y-6315862D01*
X7388910Y-6304330D01*
X7384288Y-6292646D01*
X7380224Y-6280759D01*
X7378192Y-6273647D01*
X7377277Y-6268364D01*
X7255320Y-6268364D01*
X7255713Y-6269228D01*
X7255509Y-6276035D01*
X7253427Y-6285992D01*
X7240168Y-6337858D01*
X7235952Y-6352743D01*
X7232142Y-6364833D01*
X7228789Y-6373876D01*
X7223404Y-6386017D01*
X7217359Y-6398209D01*
X7211009Y-6409842D01*
X7204608Y-6420408D01*
X7198563Y-6429400D01*
X7193076Y-6436207D01*
X7188301Y-6441541D01*
X7185152Y-6445605D01*
X7183780Y-6448704D01*
X7184288Y-6450939D01*
X7186879Y-6452514D01*
X7191705Y-6453632D01*
X7198969Y-6454495D01*
X7249871Y-6458762D01*
X7281011Y-6461709D01*
X7285837Y-6457340D01*
X7287564Y-6455410D01*
X7289901Y-6452260D01*
X7295946Y-6442862D01*
X7303312Y-6430365D01*
X7311288Y-6416040D01*
X7319162Y-6401155D01*
X7332675Y-6373876D01*
X7335062Y-6370472D01*
X7337247Y-6369050D01*
X7339431Y-6369507D01*
X7341920Y-6371844D01*
X7344918Y-6376009D01*
X7352487Y-6387693D01*
X7360462Y-6399174D01*
X7368946Y-6410502D01*
X7377938Y-6421628D01*
X7387336Y-6432550D01*
X7397089Y-6443218D01*
X7407198Y-6453530D01*
X7417562Y-6463538D01*
X7428128Y-6473139D01*
X7438898Y-6482283D01*
X7449769Y-6491020D01*
X7460691Y-6499250D01*
X7471664Y-6506921D01*
X7482586Y-6513982D01*
X7493406Y-6520484D01*
X7504125Y-6526326D01*
X7514590Y-6531406D01*
X7524851Y-6535826D01*
X7534808Y-6539433D01*
X7544460Y-6542278D01*
X7553655Y-6544208D01*
X7562443Y-6545275D01*
X7569657Y-6545783D01*
X7573213Y-6546545D01*
X7576870Y-6547612D01*
X7580274Y-6548881D01*
X7587640Y-6552184D01*
X7567777Y-6561175D01*
X7559598Y-6564630D01*
X7556601Y-6565595D01*
X7521397Y-6580784D01*
X7501432Y-6588963D01*
X7479893Y-6597294D01*
X7457033Y-6605828D01*
X7433056Y-6614414D01*
X7408164Y-6623050D01*
X7376058Y-6633768D01*
X7329982Y-6648399D01*
X7303414Y-6656527D01*
X7276998Y-6664299D01*
X7250836Y-6671716D01*
X7218832Y-6680453D01*
X7188047Y-6688378D01*
X7164527Y-6694068D01*
X7142225Y-6699097D01*
X7121296Y-6703466D01*
X7090613Y-6709409D01*
X7062317Y-6714439D01*
X7025589Y-6720281D01*
X7002576Y-6723176D01*
X6973316Y-6726174D01*
X6941159Y-6728917D01*
X6909612Y-6731101D01*
X6882130Y-6732524D01*
X6871004Y-6732828D01*
X6858304Y-6732828D01*
X6843014Y-6732524D01*
X6828434Y-6731762D01*
X6814515Y-6730644D01*
X6801307Y-6729171D01*
X6788658Y-6727240D01*
X6776618Y-6724903D01*
X6765086Y-6722160D01*
X6754063Y-6718960D01*
X6743496Y-6715302D01*
X6733336Y-6711238D01*
X6723583Y-6706666D01*
X6714134Y-6701637D01*
X6704990Y-6696151D01*
X6695490Y-6689648D01*
X6686092Y-6682333D01*
X6677507Y-6674510D01*
X6673545Y-6670446D01*
X6666230Y-6661810D01*
X6662826Y-6657289D01*
X6656679Y-6647789D01*
X6653834Y-6642760D01*
X6648703Y-6632143D01*
X6644284Y-6620764D01*
X6640474Y-6608470D01*
X6637223Y-6595262D01*
X6634581Y-6581089D01*
X6632498Y-6565849D01*
X6628942Y-6535775D01*
X6585051Y-6535826D01*
X6585864Y-6556705D01*
X6588252Y-6600901D01*
X6579920Y-6601714D01*
X6573316Y-6601714D01*
X6569608Y-6599986D01*
X6568643Y-6596075D01*
X6569964Y-6589674D01*
X6573062Y-6578295D01*
X6575348Y-6566916D01*
X6576822Y-6555587D01*
X6577533Y-6544309D01*
X6577482Y-6533134D01*
X6576618Y-6522059D01*
X6575044Y-6511137D01*
X6572707Y-6500418D01*
X6569709Y-6489852D01*
X6565950Y-6479540D01*
X6561480Y-6469430D01*
X6559042Y-6464503D01*
X6553555Y-6454851D01*
X6547408Y-6445554D01*
X6540652Y-6436563D01*
X6533235Y-6427927D01*
X6525209Y-6419748D01*
X6516522Y-6411925D01*
X6507276Y-6404610D01*
X6497421Y-6397752D01*
X6487007Y-6391402D01*
X6476034Y-6385560D01*
X6465316Y-6380734D01*
X6454292Y-6376974D01*
X6442202Y-6373926D01*
X6429400Y-6371539D01*
X6416243Y-6369862D01*
X6402984Y-6368897D01*
X6390081Y-6368643D01*
X6377736Y-6369050D01*
X6366408Y-6370218D01*
X6361226Y-6371082D01*
X6351981Y-6373368D01*
X6348018Y-6374739D01*
X6344513Y-6376365D01*
X6341567Y-6378143D01*
X6337808Y-6381038D01*
X6335776Y-6381800D01*
X6333439Y-6382308D01*
X6330950Y-6382512D01*
X6278517Y-6382512D01*
X6276492Y-6391351D01*
X6274054Y-6403746D01*
X6272428Y-6414871D01*
X6270904Y-6428740D01*
X6253155Y-6451955D01*
X6320536Y-6451955D01*
X6320536Y-6448094D01*
X6321450Y-6445656D01*
X6324041Y-6442557D01*
X6328003Y-6439052D01*
X6333134Y-6435191D01*
X6339078Y-6431280D01*
X6345682Y-6427419D01*
X6352540Y-6423863D01*
X6359499Y-6420764D01*
X6364427Y-6418935D01*
X6374384Y-6416040D01*
X6384391Y-6414109D01*
X6394450Y-6413195D01*
X6404508Y-6413195D01*
X6414516Y-6414058D01*
X6424422Y-6415786D01*
X6434175Y-6418275D01*
X6443726Y-6421577D01*
X6453073Y-6425539D01*
X6462115Y-6430162D01*
X6470853Y-6435445D01*
X6479184Y-6441287D01*
X6487109Y-6447688D01*
X6494576Y-6454597D01*
X6501536Y-6461912D01*
X6507937Y-6469684D01*
X6513728Y-6477812D01*
X6518859Y-6486296D01*
X6523278Y-6495034D01*
X6526987Y-6504025D01*
X6529882Y-6513169D01*
X6531965Y-6522516D01*
X6533134Y-6531965D01*
X6533388Y-6541516D01*
X6532676Y-6551066D01*
X6530898Y-6560616D01*
X6528104Y-6570116D01*
X6526276Y-6574790D01*
X6523228Y-6580174D01*
X6520281Y-6580581D01*
X6516928Y-6575602D01*
X6510781Y-6559803D01*
X6506260Y-6549694D01*
X6500926Y-6539839D01*
X6494780Y-6530289D01*
X6487972Y-6521145D01*
X6480505Y-6512306D01*
X6472428Y-6503974D01*
X6463842Y-6496050D01*
X6454749Y-6488633D01*
X6445250Y-6481724D01*
X6435344Y-6475425D01*
X6425133Y-6469684D01*
X6414668Y-6464604D01*
X6404000Y-6460185D01*
X6393180Y-6456476D01*
X6382258Y-6453530D01*
X6371285Y-6451346D01*
X6360363Y-6449974D01*
X6349492Y-6449466D01*
X6344107Y-6449517D01*
X6338773Y-6449822D01*
X6320536Y-6451955D01*
X6253155Y-6451955D01*
X6244386Y-6463893D01*
X6237579Y-6474358D01*
X6234582Y-6478066D01*
X6229045Y-6483096D01*
X6221730Y-6488887D01*
X6196330Y-6506260D01*
X6185662Y-6513779D01*
X6175349Y-6521399D01*
X6165291Y-6529171D01*
X6155283Y-6537248D01*
X6145123Y-6545834D01*
X6123686Y-6564985D01*
X6102400Y-6584899D01*
X6099454Y-6587236D01*
X6096355Y-6588658D01*
X6092596Y-6589115D01*
X6087516Y-6588709D01*
X6080607Y-6587337D01*
X6028080Y-6574028D01*
X5966409Y-6573774D01*
X5956096Y-6580428D01*
X5951067Y-6584137D01*
X5946546Y-6588302D01*
X5942584Y-6592925D01*
X5939129Y-6597853D01*
X5936284Y-6603136D01*
X5933948Y-6608724D01*
X5932220Y-6614515D01*
X5931052Y-6620459D01*
X5930442Y-6626555D01*
X5930442Y-6628485D01*
X5965647Y-6628485D01*
X5965698Y-6625437D01*
X5966155Y-6622491D01*
X5967069Y-6619697D01*
X5968390Y-6616953D01*
X5970168Y-6614312D01*
X5972403Y-6611823D01*
X5979617Y-6604609D01*
X6002324Y-6604711D01*
X6011316Y-6605371D01*
X6023051Y-6606692D01*
X6053480Y-6611112D01*
X6111798Y-6621018D01*
X6130036Y-6623761D01*
X6146495Y-6625945D01*
X6161278Y-6627571D01*
X6174486Y-6628638D01*
X6186119Y-6629146D01*
X6196279Y-6629044D01*
X6204966Y-6628434D01*
X6212230Y-6627266D01*
X6215380Y-6626504D01*
X6220714Y-6624472D01*
X6222898Y-6623303D01*
X6224778Y-6621932D01*
X6228537Y-6618173D01*
X6227775Y-6615582D01*
X6221577Y-6613702D01*
X6209080Y-6611823D01*
X6182868Y-6608419D01*
X6165596Y-6605778D01*
X6159804Y-6604558D01*
X6155690Y-6603339D01*
X6153048Y-6601968D01*
X6151676Y-6600393D01*
X6151372Y-6598564D01*
X6151930Y-6596430D01*
X6154978Y-6590792D01*
X6157468Y-6586829D01*
X6163462Y-6578803D01*
X6170726Y-6570675D01*
X6179108Y-6562547D01*
X6188456Y-6554419D01*
X6198717Y-6546443D01*
X6209792Y-6538671D01*
X6221476Y-6531203D01*
X6233668Y-6524040D01*
X6246317Y-6517335D01*
X6259271Y-6511137D01*
X6272377Y-6505549D01*
X6285585Y-6500571D01*
X6298692Y-6496354D01*
X6305194Y-6494526D01*
X6315964Y-6492189D01*
X6326733Y-6490766D01*
X6337503Y-6490258D01*
X6342888Y-6490309D01*
X6353556Y-6491122D01*
X6364071Y-6492748D01*
X6374434Y-6495135D01*
X6384594Y-6498285D01*
X6394450Y-6502196D01*
X6404051Y-6506768D01*
X6413347Y-6512001D01*
X6422237Y-6517843D01*
X6430670Y-6524345D01*
X6438646Y-6531356D01*
X6446164Y-6538925D01*
X6453073Y-6546951D01*
X6459423Y-6555486D01*
X6465112Y-6564426D01*
X6467754Y-6569049D01*
X6472377Y-6578600D01*
X6476339Y-6588506D01*
X6479489Y-6598716D01*
X6481775Y-6609232D01*
X6482638Y-6614566D01*
X6483604Y-6625437D01*
X6483705Y-6639915D01*
X6483197Y-6646519D01*
X6482080Y-6650939D01*
X6480048Y-6653225D01*
X6476949Y-6653580D01*
X6472529Y-6652056D01*
X6466535Y-6648805D01*
X6452717Y-6640169D01*
X6447485Y-6637274D01*
X6443776Y-6635496D01*
X6442100Y-6635191D01*
X6441389Y-6639356D01*
X6443980Y-6646062D01*
X6449415Y-6654241D01*
X6457035Y-6662877D01*
X6469786Y-6675628D01*
X6499402Y-6684568D01*
X6512661Y-6687972D01*
X6518554Y-6688886D01*
X6528765Y-6691579D01*
X6541973Y-6695795D01*
X6554419Y-6700266D01*
X6559143Y-6702298D01*
X6564884Y-6705244D01*
X6569913Y-6708597D01*
X6574180Y-6712254D01*
X6577787Y-6716166D01*
X6580733Y-6720331D01*
X6582918Y-6724650D01*
X6584492Y-6729120D01*
X6585356Y-6733641D01*
X6585559Y-6738264D01*
X6585102Y-6742836D01*
X6583984Y-6747408D01*
X6582257Y-6751878D01*
X6579870Y-6756247D01*
X6576822Y-6760413D01*
X6573215Y-6764375D01*
X6568948Y-6768084D01*
X6564122Y-6771487D01*
X6558686Y-6774484D01*
X6552641Y-6777177D01*
X6546037Y-6779361D01*
X6541566Y-6780428D01*
X6536893Y-6781139D01*
X6531965Y-6781495D01*
X6526784Y-6781546D01*
X6521450Y-6781292D01*
X6515912Y-6780733D01*
X6510172Y-6779869D01*
X6504330Y-6778701D01*
X6492240Y-6775500D01*
X6486042Y-6773519D01*
X6473494Y-6768693D01*
X6460845Y-6762902D01*
X6448196Y-6756146D01*
X6435750Y-6748525D01*
X6423660Y-6740093D01*
X6412077Y-6730847D01*
X6400292Y-6720382D01*
X6388608Y-6710781D01*
X6383121Y-6706717D01*
X6377838Y-6703161D01*
X6372707Y-6700062D01*
X6367627Y-6697472D01*
X6362649Y-6695338D01*
X6357620Y-6693662D01*
X6352590Y-6692442D01*
X6347510Y-6691680D01*
X6342278Y-6691325D01*
X6336893Y-6691426D01*
X6331254Y-6691934D01*
X6325412Y-6692849D01*
X6319266Y-6694170D01*
X6312814Y-6695846D01*
X6298641Y-6700418D01*
X6262878Y-6713677D01*
X6247688Y-6719062D01*
X6234684Y-6723380D01*
X6223457Y-6726681D01*
X6213449Y-6729171D01*
X6204204Y-6730898D01*
X6195212Y-6732016D01*
X6185966Y-6732625D01*
X6176060Y-6732879D01*
X6161328Y-6732828D01*
X6146596Y-6732270D01*
X6140348Y-6731609D01*
X6134201Y-6730593D01*
X6120485Y-6727444D01*
X6103772Y-6722770D01*
X6087770Y-6717639D01*
X6072428Y-6712051D01*
X6057798Y-6706108D01*
X6044031Y-6699859D01*
X6031128Y-6693306D01*
X6019139Y-6686550D01*
X6008166Y-6679641D01*
X5998311Y-6672580D01*
X5989624Y-6665518D01*
X5982157Y-6658508D01*
X5975959Y-6651498D01*
X5971184Y-6644640D01*
X5969304Y-6641287D01*
X5967831Y-6637985D01*
X5966714Y-6634734D01*
X5965952Y-6631584D01*
X5965647Y-6628485D01*
X5930442Y-6628485D01*
X5930442Y-6632752D01*
X5931052Y-6639001D01*
X5932220Y-6645198D01*
X5934049Y-6651396D01*
X5936488Y-6657441D01*
X5939536Y-6663385D01*
X5945682Y-6672884D01*
X5947105Y-6676085D01*
X5947206Y-6678930D01*
X5945886Y-6681622D01*
X5942888Y-6684416D01*
X5938062Y-6687566D01*
X5931154Y-6691325D01*
X5915456Y-6699250D01*
X5903569Y-6706158D01*
X5898286Y-6709714D01*
X5893460Y-6713372D01*
X5889091Y-6717080D01*
X5885180Y-6720840D01*
X5881674Y-6724700D01*
X5878626Y-6728612D01*
X5875985Y-6732625D01*
X5873800Y-6736740D01*
X5872022Y-6740956D01*
X5870702Y-6745274D01*
X5869787Y-6749694D01*
X5869279Y-6754215D01*
X5869234Y-6758330D01*
X5908294Y-6758330D01*
X5909005Y-6754977D01*
X5910834Y-6751574D01*
X5913882Y-6748119D01*
X5918149Y-6744512D01*
X5923788Y-6740601D01*
X5930747Y-6736435D01*
X5939129Y-6731812D01*
X5970117Y-6716115D01*
X5978144Y-6712712D01*
X5981090Y-6712000D01*
X5983630Y-6711950D01*
X5986018Y-6712458D01*
X5988405Y-6713524D01*
X6003544Y-6722668D01*
X6015990Y-6729374D01*
X6030163Y-6736486D01*
X6044793Y-6743344D01*
X6058357Y-6749338D01*
X6069533Y-6753758D01*
X6080709Y-6757365D01*
X6085687Y-6759346D01*
X6088684Y-6761175D01*
X6089751Y-6763054D01*
X6088888Y-6765137D01*
X6086043Y-6767423D01*
X6081268Y-6770217D01*
X6074562Y-6773519D01*
X6061252Y-6779310D01*
X6047740Y-6784238D01*
X6034125Y-6788251D01*
X6020663Y-6791350D01*
X6007303Y-6793585D01*
X5994298Y-6794906D01*
X5981750Y-6795312D01*
X5975654Y-6795211D01*
X5963920Y-6794296D01*
X5958332Y-6793534D01*
X5952947Y-6792518D01*
X5947765Y-6791248D01*
X5942838Y-6789775D01*
X5938113Y-6788099D01*
X5933694Y-6786219D01*
X5929528Y-6784086D01*
X5925616Y-6781698D01*
X5922060Y-6779107D01*
X5918758Y-6776313D01*
X5915863Y-6773265D01*
X5912510Y-6769150D01*
X5910122Y-6765340D01*
X5908700Y-6761784D01*
X5908294Y-6758330D01*
X5869234Y-6758330D01*
X5869533Y-6763613D01*
X5870295Y-6768490D01*
X5871464Y-6773519D01*
X5873038Y-6778650D01*
X5874562Y-6782612D01*
X5876340Y-6786473D01*
X5878372Y-6790131D01*
X5880658Y-6793636D01*
X5883198Y-6797040D01*
X5885942Y-6800240D01*
X5892139Y-6806285D01*
X5895543Y-6809079D01*
X5902960Y-6814159D01*
X5911138Y-6818680D01*
X5919978Y-6822592D01*
X5929477Y-6825945D01*
X5939536Y-6828637D01*
X5950102Y-6830720D01*
X5961126Y-6832244D01*
X5972556Y-6833158D01*
X5984240Y-6833412D01*
X5996228Y-6833108D01*
X6008420Y-6832142D01*
X6020714Y-6830618D01*
X6033109Y-6828434D01*
X6045555Y-6825640D01*
X6057900Y-6822236D01*
X6070193Y-6818223D01*
X6082284Y-6813600D01*
X6094120Y-6808317D01*
X6105702Y-6802424D01*
X6116929Y-6795922D01*
X6127750Y-6788759D01*
X6143193Y-6777786D01*
X6146901Y-6775602D01*
X6148933Y-6774789D01*
X6178042Y-6773722D01*
X6190386Y-6772960D01*
X6201562Y-6771944D01*
X6211976Y-6770573D01*
X6221882Y-6768896D01*
X6231585Y-6766763D01*
X6241338Y-6764121D01*
X6251498Y-6760972D01*
X6262319Y-6757263D01*
X6305550Y-6740550D01*
X6319926Y-6735470D01*
X6325920Y-6733743D01*
X6331305Y-6732574D01*
X6336182Y-6731965D01*
X6340602Y-6731914D01*
X6344818Y-6732422D01*
X6348831Y-6733489D01*
X6352844Y-6735165D01*
X6356908Y-6737400D01*
X6361176Y-6740245D01*
X6370777Y-6747713D01*
X6382512Y-6757365D01*
X6394856Y-6766864D01*
X6407302Y-6775551D01*
X6419697Y-6783425D01*
X6432092Y-6790436D01*
X6444386Y-6796633D01*
X6456629Y-6802018D01*
X6468719Y-6806539D01*
X6480606Y-6810248D01*
X6492341Y-6813042D01*
X6503822Y-6815023D01*
X6514998Y-6816140D01*
X6525869Y-6816344D01*
X6536435Y-6815734D01*
X6541516Y-6815074D01*
X6551472Y-6813092D01*
X6556298Y-6811772D01*
X6565544Y-6808419D01*
X6570014Y-6806438D01*
X6578549Y-6801764D01*
X6586524Y-6796176D01*
X6590284Y-6793026D01*
X6597853Y-6785508D01*
X6601459Y-6781342D01*
X6604660Y-6777075D01*
X6607505Y-6772808D01*
X6609994Y-6768439D01*
X6612128Y-6764070D01*
X6613906Y-6759702D01*
X6615328Y-6755333D01*
X6616344Y-6750913D01*
X6617055Y-6746544D01*
X6617462Y-6742175D01*
X6617462Y-6737807D01*
X6617157Y-6733540D01*
X6616496Y-6729272D01*
X6615531Y-6725107D01*
X6614210Y-6720941D01*
X6612585Y-6716928D01*
X6610654Y-6712966D01*
X6608368Y-6709054D01*
X6605828Y-6705295D01*
X6602933Y-6701688D01*
X6599732Y-6698132D01*
X6596227Y-6694779D01*
X6592417Y-6691528D01*
X6588353Y-6688429D01*
X6583934Y-6685483D01*
X6579260Y-6682740D01*
X6574332Y-6680200D01*
X6569049Y-6677812D01*
X6563563Y-6675628D01*
X6541109Y-6668516D01*
X6535877Y-6664807D01*
X6535470Y-6659829D01*
X6539179Y-6652615D01*
X6543192Y-6646570D01*
X6604203Y-6646570D01*
X6611772Y-6661353D01*
X6616649Y-6669735D01*
X6622034Y-6677914D01*
X6628130Y-6686092D01*
X6635089Y-6694525D01*
X6643166Y-6703517D01*
X6665417Y-6726732D01*
X6667804Y-6757670D01*
X6669594Y-6775602D01*
X6715252Y-6775602D01*
X6715506Y-6771944D01*
X6716471Y-6769353D01*
X6718198Y-6767728D01*
X6720789Y-6766814D01*
X6724294Y-6766610D01*
X6734454Y-6767677D01*
X6758025Y-6770979D01*
X6780580Y-6773519D01*
X6809130Y-6775856D01*
X6838238Y-6777228D01*
X6861962Y-6777685D01*
X6879996Y-6777634D01*
X6910730Y-6776720D01*
X6935927Y-6775348D01*
X6961682Y-6773367D01*
X6981393Y-6771436D01*
X7015175Y-6767525D01*
X7050074Y-6762597D01*
X7078878Y-6757974D01*
X7123734Y-6749846D01*
X7144664Y-6745528D01*
X7168591Y-6740245D01*
X7208266Y-6730644D01*
X7232294Y-6724446D01*
X7292340Y-6708038D01*
X7375093Y-6682028D01*
X7396378Y-6675018D01*
X7417206Y-6667855D01*
X7443673Y-6658406D01*
X7465872Y-6650228D01*
X7515656Y-6631025D01*
X7567218Y-6610350D01*
X7610602Y-6592163D01*
X7648092Y-6575348D01*
X7653223Y-6582968D01*
X7654442Y-6585356D01*
X7655204Y-6587540D01*
X7655915Y-6591858D01*
X7657033Y-6594957D01*
X7658912Y-6598462D01*
X7661402Y-6602374D01*
X7664500Y-6606540D01*
X7672324Y-6615633D01*
X7681925Y-6625336D01*
X7692948Y-6635292D01*
X7704988Y-6645097D01*
X7717586Y-6654292D01*
X7729016Y-6661912D01*
X7732674Y-6664858D01*
X7735062Y-6667652D01*
X7736230Y-6670446D01*
X7736179Y-6673494D01*
X7735011Y-6676948D01*
X7732674Y-6681063D01*
X7727238Y-6688734D01*
X7722819Y-6694322D01*
X7712709Y-6705447D01*
X7707020Y-6711086D01*
X7694574Y-6722262D01*
X7680604Y-6733489D01*
X7669174Y-6741871D01*
X7652715Y-6752996D01*
X7634884Y-6764070D01*
X7615834Y-6774992D01*
X7595565Y-6785864D01*
X7574127Y-6796531D01*
X7551572Y-6807047D01*
X7528052Y-6817359D01*
X7503515Y-6827418D01*
X7478064Y-6837222D01*
X7458456Y-6844436D01*
X7431582Y-6853732D01*
X7396937Y-6864908D01*
X7368489Y-6873443D01*
X7346746Y-6879590D01*
X7309815Y-6889343D01*
X7279741Y-6896658D01*
X7241590Y-6905142D01*
X7195108Y-6914286D01*
X7166660Y-6919366D01*
X7120991Y-6926935D01*
X7097217Y-6930339D01*
X7057491Y-6935216D01*
X7018070Y-6939127D01*
X6994804Y-6941007D01*
X6957059Y-6943293D01*
X6928103Y-6944410D01*
X6900570Y-6944868D01*
X6868566Y-6944512D01*
X6845249Y-6943445D01*
X6824218Y-6941718D01*
X6814667Y-6940600D01*
X6805777Y-6939280D01*
X6797649Y-6937806D01*
X6790232Y-6936181D01*
X6783679Y-6934352D01*
X6777888Y-6932320D01*
X6772351Y-6929780D01*
X6769455Y-6927951D01*
X6766610Y-6925767D01*
X6761073Y-6920382D01*
X6758381Y-6917181D01*
X6753148Y-6909765D01*
X6748119Y-6901027D01*
X6743293Y-6890969D01*
X6738721Y-6879590D01*
X6734352Y-6866940D01*
X6730238Y-6852920D01*
X6726326Y-6837629D01*
X6722668Y-6821068D01*
X6719265Y-6803237D01*
X6716369Y-6786524D01*
X6715556Y-6780428D01*
X6715252Y-6775602D01*
X6669594Y-6775602D01*
X6671411Y-6790893D01*
X6673596Y-6806539D01*
X6676085Y-6821474D01*
X6678879Y-6835800D01*
X6681978Y-6849465D01*
X6685330Y-6862470D01*
X6689039Y-6874814D01*
X6692950Y-6886498D01*
X6697218Y-6897573D01*
X6701739Y-6907936D01*
X6706514Y-6917639D01*
X6711594Y-6926681D01*
X6716979Y-6935114D01*
X6722668Y-6942836D01*
X6728612Y-6949897D01*
X6734860Y-6956298D01*
X6741414Y-6962089D01*
X6748221Y-6967169D01*
X6755282Y-6971588D01*
X6762699Y-6975348D01*
X6770370Y-6978446D01*
X6778294Y-6980885D01*
X6787997Y-6983272D01*
X6792925Y-6984847D01*
X6796633Y-6986473D01*
X6798564Y-6987844D01*
X6799275Y-6989114D01*
X6801658Y-6996328D01*
X6850786Y-6996328D01*
X6851142Y-6993636D01*
X6851954Y-6991908D01*
X6853174Y-6990994D01*
X6854901Y-6990791D01*
X6857136Y-6991146D01*
X6861454Y-6992366D01*
X6866534Y-6993280D01*
X6882993Y-6995261D01*
X6906158Y-6997344D01*
X6933895Y-6999376D01*
X6964121Y-7001205D01*
X6994804Y-7002780D01*
X7023862Y-7003846D01*
X7049160Y-7004354D01*
X7077405Y-7004151D01*
X7101890Y-7003440D01*
X7127798Y-7002373D01*
X7154672Y-7000900D01*
X7189165Y-6998512D01*
X7217105Y-6996277D01*
X7251750Y-6993026D01*
X7285583Y-6989368D01*
X7311593Y-6986168D01*
X7336231Y-6982764D01*
X7363155Y-6978599D01*
X7395667Y-6973163D01*
X7427061Y-6967626D01*
X7450581Y-6963206D01*
X7475981Y-6957669D01*
X7504379Y-6951116D01*
X7531760Y-6944461D01*
X7557363Y-6937959D01*
X7601864Y-6925614D01*
X7621320Y-6919874D01*
X7642301Y-6913270D01*
X7662925Y-6906463D01*
X7683906Y-6899249D01*
X7686903Y-6837172D01*
X7688580Y-6811416D01*
X7689646Y-6801358D01*
X7690408Y-6796836D01*
X7691272Y-6794042D01*
X7692237Y-6792874D01*
X7693253Y-6793433D01*
X7694472Y-6795668D01*
X7695793Y-6799529D01*
X7698435Y-6809384D01*
X7705953Y-6834276D01*
X7715808Y-6864553D01*
X7720685Y-6878828D01*
X7726832Y-6895846D01*
X7733030Y-6910324D01*
X7735062Y-6916013D01*
X7739634Y-6925411D01*
X7759446Y-6963562D01*
X7788249Y-7017715D01*
X7831023Y-7096861D01*
X7853527Y-7137501D01*
X7858861Y-7145883D01*
X7862519Y-7149287D01*
X7864348Y-7147661D01*
X7864195Y-7140905D01*
X7862366Y-7123836D01*
X7861401Y-7108494D01*
X7861350Y-7097420D01*
X7861706Y-7094321D01*
X7862316Y-7093203D01*
X7863331Y-7093508D01*
X7865059Y-7094524D01*
X7871409Y-7099452D01*
X7901076Y-7124953D01*
X7916468Y-7137806D01*
X7935417Y-7152741D01*
X7978952Y-7185355D01*
X7990484Y-7194245D01*
X7996072Y-7198918D01*
X7995970Y-7247788D01*
X7995564Y-7262266D01*
X7994853Y-7276287D01*
X7993837Y-7290003D01*
X7992414Y-7303312D01*
X7990687Y-7316216D01*
X7988604Y-7328763D01*
X7986115Y-7340904D01*
X7983321Y-7352690D01*
X7980222Y-7364120D01*
X7976717Y-7375144D01*
X7972856Y-7385812D01*
X7968691Y-7396073D01*
X7964170Y-7405979D01*
X7959242Y-7415530D01*
X7954009Y-7424674D01*
X7948422Y-7433462D01*
X7942478Y-7441844D01*
X7936179Y-7449870D01*
X7929524Y-7457541D01*
X7922564Y-7464856D01*
X7915198Y-7471765D01*
X7907477Y-7478318D01*
X7899400Y-7484465D01*
X7890967Y-7490256D01*
X7882229Y-7495692D01*
X7873085Y-7500772D01*
X7863586Y-7505446D01*
X7853730Y-7509814D01*
X7843520Y-7513726D01*
X7833004Y-7517333D01*
X7822082Y-7520533D01*
X7810804Y-7523429D01*
X7799171Y-7525918D01*
X7787131Y-7528001D01*
X7774787Y-7529779D01*
X7762087Y-7531150D01*
X7748981Y-7532217D01*
X7735570Y-7532878D01*
X7721752Y-7533131D01*
X7694218Y-7533030D01*
X7670342Y-7532420D01*
X7659674Y-7531811D01*
X7649718Y-7530896D01*
X7640320Y-7529626D01*
X7631480Y-7528001D01*
X7622946Y-7525867D01*
X7614767Y-7523175D01*
X7606690Y-7519924D01*
X7598714Y-7516012D01*
X7590739Y-7511389D01*
X7582560Y-7505953D01*
X7574178Y-7499705D01*
X7565440Y-7492593D01*
X7556195Y-7484465D01*
X7546441Y-7475372D01*
X7535976Y-7465161D01*
X7512659Y-7441234D01*
X7455357Y-7380071D01*
X7384643Y-7305802D01*
X7319111Y-7236104D01*
X7299147Y-7214260D01*
X7279995Y-7192670D01*
X7265162Y-7175550D01*
X7246213Y-7153148D01*
X7236764Y-7142734D01*
X7227112Y-7132828D01*
X7217257Y-7123531D01*
X7207148Y-7114794D01*
X7196836Y-7106615D01*
X7186371Y-7099046D01*
X7175703Y-7092086D01*
X7164882Y-7085685D01*
X7153909Y-7079945D01*
X7142784Y-7074763D01*
X7131558Y-7070242D01*
X7120229Y-7066280D01*
X7108748Y-7063028D01*
X7097217Y-7060387D01*
X7085634Y-7058355D01*
X7073950Y-7057034D01*
X7062216Y-7056323D01*
X7051040Y-7056221D01*
X7043724Y-7056678D01*
X7041845Y-7057237D01*
X7041235Y-7058101D01*
X7041997Y-7059371D01*
X7044181Y-7061149D01*
X7053021Y-7066229D01*
X7105548Y-7092746D01*
X7120940Y-7101027D01*
X7134352Y-7108698D01*
X7145985Y-7115911D01*
X7155942Y-7122617D01*
X7164222Y-7129018D01*
X7170978Y-7135063D01*
X7176363Y-7140905D01*
X7178548Y-7143750D01*
X7181951Y-7149338D01*
X7205878Y-7194042D01*
X7237628Y-7251903D01*
X7253274Y-7279538D01*
X7259624Y-7291781D01*
X7284923Y-7336281D01*
X7303363Y-7369200D01*
X7308240Y-7377531D01*
X7311796Y-7383119D01*
X7314387Y-7386523D01*
X7316317Y-7388148D01*
X7317943Y-7388504D01*
X7325156Y-7386421D01*
X7333945Y-7384338D01*
X7355078Y-7380274D01*
X7359192Y-7379766D01*
X7361986Y-7379766D01*
X7363409Y-7380478D01*
X7363459Y-7382002D01*
X7362037Y-7384389D01*
X7359192Y-7387793D01*
X7348931Y-7398207D01*
X7339533Y-7406944D01*
X7329881Y-7415275D01*
X7319975Y-7423200D01*
X7309764Y-7430770D01*
X7299350Y-7437983D01*
X7288682Y-7444740D01*
X7277811Y-7451090D01*
X7266787Y-7457033D01*
X7255560Y-7462570D01*
X7244130Y-7467701D01*
X7232650Y-7472425D01*
X7220966Y-7476642D01*
X7209231Y-7480503D01*
X7197394Y-7483856D01*
X7185507Y-7486802D01*
X7173518Y-7489291D01*
X7161530Y-7491272D01*
X7149490Y-7492847D01*
X7137450Y-7493965D01*
X7125462Y-7494574D01*
X7113473Y-7494676D01*
X7101535Y-7494371D01*
X7089698Y-7493508D01*
X7077913Y-7492187D01*
X7066229Y-7490358D01*
X7054646Y-7488021D01*
X7041642Y-7484821D01*
X7028535Y-7481062D01*
X7015429Y-7476794D01*
X7002424Y-7472019D01*
X6989572Y-7466838D01*
X6977024Y-7461351D01*
X6964832Y-7455509D01*
X6953097Y-7449413D01*
X6941972Y-7443114D01*
X6931456Y-7436713D01*
X6921753Y-7430160D01*
X6912914Y-7423556D01*
X6904990Y-7417003D01*
X6898131Y-7410500D01*
X6892442Y-7404100D01*
X6890054Y-7400950D01*
X6882638Y-7389164D01*
X6886295Y-7303008D01*
X6888378Y-7241489D01*
X6890105Y-7177430D01*
X6891223Y-7121499D01*
X6891477Y-7099960D01*
X6891426Y-7079335D01*
X6891172Y-7075576D01*
X6889750Y-7072020D01*
X6887718Y-7071715D01*
X6884568Y-7075017D01*
X6877456Y-7085736D01*
X6875475Y-7088378D01*
X6873748Y-7090054D01*
X6872173Y-7090664D01*
X6870750Y-7090003D01*
X6869328Y-7088073D01*
X6867855Y-7084618D01*
X6866331Y-7079538D01*
X6862724Y-7064197D01*
X6853885Y-7019747D01*
X6851446Y-7005218D01*
X6850888Y-7000138D01*
X6850786Y-6996328D01*
X6801658Y-6996328D01*
X6805980Y-7013651D01*
X6812280Y-7043623D01*
X6822033Y-7091781D01*
X6829348Y-7130542D01*
X6837222Y-7175347D01*
X6838238Y-7189216D01*
X6839051Y-7210856D01*
X6839610Y-7238034D01*
X6839966Y-7268616D01*
X6839915Y-7323328D01*
X6839458Y-7351471D01*
X6838696Y-7374483D01*
X6837476Y-7400391D01*
X6845706Y-7416444D01*
X6850481Y-7424013D01*
X6856171Y-7431582D01*
X6862724Y-7439050D01*
X6870039Y-7446467D01*
X6878167Y-7453731D01*
X6886956Y-7460894D01*
X6896455Y-7467904D01*
X6906514Y-7474712D01*
X6917181Y-7481316D01*
X6928307Y-7487716D01*
X6939889Y-7493812D01*
X6951929Y-7499654D01*
X6964273Y-7505192D01*
X6976973Y-7510424D01*
X6989876Y-7515301D01*
X7003034Y-7519771D01*
X7016343Y-7523886D01*
X7029805Y-7527544D01*
X7043267Y-7530744D01*
X7056780Y-7533538D01*
X7074340Y-7536332D01*
X7193991Y-7536332D01*
X7193991Y-7535062D01*
X7195362Y-7533640D01*
X7197801Y-7532166D01*
X7201306Y-7530592D01*
X7211314Y-7527239D01*
X7225233Y-7523632D01*
X7242759Y-7519873D01*
X7263739Y-7515961D01*
X7334351Y-7504430D01*
X7349388Y-7502296D01*
X7352690Y-7510221D01*
X7359903Y-7533081D01*
X7385608Y-7618780D01*
X7387488Y-7626146D01*
X7388809Y-7634173D01*
X7389571Y-7642606D01*
X7389774Y-7651038D01*
X7389418Y-7659217D01*
X7388504Y-7666786D01*
X7387031Y-7673492D01*
X7384999Y-7678978D01*
X7382764Y-7683296D01*
X7380833Y-7686141D01*
X7379055Y-7687513D01*
X7377379Y-7687309D01*
X7375702Y-7685430D01*
X7373924Y-7681874D01*
X7371842Y-7676540D01*
X7366609Y-7661351D01*
X7363307Y-7653832D01*
X7359903Y-7647584D01*
X7356754Y-7643317D01*
X7349998Y-7636052D01*
X7321042Y-7636103D01*
X7310069Y-7636459D01*
X7299147Y-7637068D01*
X7289647Y-7637932D01*
X7277811Y-7639354D01*
X7258151Y-7641336D01*
X7228484Y-7643317D01*
X7223404Y-7631175D01*
X7219137Y-7619288D01*
X7208672Y-7587488D01*
X7203440Y-7570724D01*
X7195616Y-7543546D01*
X7193991Y-7536332D01*
X7074340Y-7536332D01*
X7083602Y-7537500D01*
X7096810Y-7538720D01*
X7123988Y-7540294D01*
X7128509Y-7540955D01*
X7132116Y-7541869D01*
X7134961Y-7543190D01*
X7137298Y-7544968D01*
X7139178Y-7547356D01*
X7140803Y-7550403D01*
X7144054Y-7558989D01*
X7152182Y-7582865D01*
X7140600Y-7601254D01*
X7124649Y-7628839D01*
X7117130Y-7640675D01*
X7114184Y-7644688D01*
X7108139Y-7652105D01*
X7083856Y-7652359D01*
X7076795Y-7652613D01*
X7070293Y-7653223D01*
X7064248Y-7654239D01*
X7058761Y-7655559D01*
X7053834Y-7657287D01*
X7049363Y-7659370D01*
X7045452Y-7661757D01*
X7042099Y-7664500D01*
X7039254Y-7667650D01*
X7036917Y-7671053D01*
X7035139Y-7674864D01*
X7033920Y-7678978D01*
X7033209Y-7683449D01*
X7033056Y-7688224D01*
X7033463Y-7693304D01*
X7034377Y-7698740D01*
X7035850Y-7704531D01*
X7037882Y-7710576D01*
X7040473Y-7716977D01*
X7049516Y-7736179D01*
X7052614Y-7744510D01*
X7053072Y-7749844D01*
X7051344Y-7753400D01*
X7050074Y-7755483D01*
X7048195Y-7759395D01*
X7033158Y-7797495D01*
X7030110Y-7806131D01*
X7023811Y-7826959D01*
X7017410Y-7851190D01*
X7010023Y-7883296D01*
X7069785Y-7883296D01*
X7069886Y-7879080D01*
X7070598Y-7874812D01*
X7071766Y-7870545D01*
X7073493Y-7866227D01*
X7075728Y-7861909D01*
X7078573Y-7857540D01*
X7080046Y-7855762D01*
X7081723Y-7854238D01*
X7083653Y-7853121D01*
X7085990Y-7852308D01*
X7088682Y-7851851D01*
X7091883Y-7851749D01*
X7095642Y-7852054D01*
X7099960Y-7852765D01*
X7110730Y-7855407D01*
X7124750Y-7859775D01*
X7142480Y-7865973D01*
X7188606Y-7883296D01*
X7197445Y-7886801D01*
X7204354Y-7889798D01*
X7209434Y-7892288D01*
X7212838Y-7894421D01*
X7214717Y-7896301D01*
X7215174Y-7898079D01*
X7214362Y-7899806D01*
X7212431Y-7901584D01*
X7192721Y-7914182D01*
X7166254Y-7932623D01*
X7162342Y-7935061D01*
X7158736Y-7936839D01*
X7155332Y-7938058D01*
X7151878Y-7938617D01*
X7148169Y-7938668D01*
X7144003Y-7938109D01*
X7139178Y-7936992D01*
X7126782Y-7933181D01*
X7112304Y-7928203D01*
X7106259Y-7925714D01*
X7100671Y-7922971D01*
X7095490Y-7920024D01*
X7090765Y-7916976D01*
X7086549Y-7913725D01*
X7082739Y-7910322D01*
X7079437Y-7906766D01*
X7076592Y-7903108D01*
X7074255Y-7899349D01*
X7072375Y-7895437D01*
X7071004Y-7891475D01*
X7070140Y-7887411D01*
X7069785Y-7883296D01*
X7010023Y-7883296D01*
X7005980Y-7903565D01*
X7003694Y-7916316D01*
X7000138Y-7939989D01*
X6999011Y-7949539D01*
X7176770Y-7949539D01*
X7177125Y-7948675D01*
X7179614Y-7945983D01*
X7184440Y-7942173D01*
X7191248Y-7937398D01*
X7210094Y-7925460D01*
X7234174Y-7911236D01*
X7261606Y-7895742D01*
X7290409Y-7880146D01*
X7318705Y-7865414D01*
X7344562Y-7852765D01*
X7355992Y-7847482D01*
X7366050Y-7843164D01*
X7378649Y-7838287D01*
X7385710Y-7835849D01*
X7391806Y-7834122D01*
X7397038Y-7833106D01*
X7401509Y-7832801D01*
X7405268Y-7833309D01*
X7408519Y-7834528D01*
X7411313Y-7836611D01*
X7413752Y-7839506D01*
X7415936Y-7843266D01*
X7417917Y-7847888D01*
X7424064Y-7865973D01*
X7419746Y-7881010D01*
X7418222Y-7884566D01*
X7416393Y-7887868D01*
X7414056Y-7891018D01*
X7411212Y-7893964D01*
X7407656Y-7896910D01*
X7403338Y-7899908D01*
X7398156Y-7903006D01*
X7384745Y-7909814D01*
X7366609Y-7918094D01*
X7328560Y-7934807D01*
X7263180Y-7941665D01*
X7236917Y-7944764D01*
X7215784Y-7947507D01*
X7202017Y-7949590D01*
X7187895Y-7951368D01*
X7183323Y-7951724D01*
X7180173Y-7951673D01*
X7178141Y-7951317D01*
X7177074Y-7950606D01*
X7176770Y-7949539D01*
X6999011Y-7949539D01*
X6997039Y-7969859D01*
X6995464Y-7994751D01*
X6994702Y-8020405D01*
X6994601Y-8033054D01*
X7079945Y-8033054D01*
X7081926Y-8021421D01*
X7083450Y-8016240D01*
X7085685Y-8011312D01*
X7088682Y-8006740D01*
X7092442Y-8002371D01*
X7097064Y-7998256D01*
X7102602Y-7994396D01*
X7109104Y-7990687D01*
X7116622Y-7987233D01*
X7125208Y-7983931D01*
X7134859Y-7980781D01*
X7145731Y-7977784D01*
X7157821Y-7974939D01*
X7171181Y-7972145D01*
X7185863Y-7969503D01*
X7201916Y-7966913D01*
X7238441Y-7961884D01*
X7281113Y-7956905D01*
X7300417Y-7954924D01*
X7316520Y-7953603D01*
X7332218Y-7952587D01*
X7345578Y-7952028D01*
X7372959Y-7951978D01*
X7388961Y-7959953D01*
X7396327Y-7963966D01*
X7401966Y-7967827D01*
X7405979Y-7971536D01*
X7408468Y-7975244D01*
X7411974Y-7982559D01*
X7404912Y-7994954D01*
X7402322Y-7998358D01*
X7399426Y-8001406D01*
X7396022Y-8004149D01*
X7392060Y-8006689D01*
X7387437Y-8009077D01*
X7382002Y-8011414D01*
X7371994Y-8015020D01*
X7363561Y-8017459D01*
X7353960Y-8019897D01*
X7343292Y-8022285D01*
X7319111Y-8026857D01*
X7291831Y-8031022D01*
X7262368Y-8034629D01*
X7231532Y-8037575D01*
X7137603Y-8044586D01*
X7113828Y-8045653D01*
X7093610Y-8045703D01*
X7079945Y-8033054D01*
X6994601Y-8033054D01*
X6994804Y-8053222D01*
X6995718Y-8079943D01*
X6997395Y-8106867D01*
X6998512Y-8120329D01*
X7002068Y-8154009D01*
X7006742Y-8187334D01*
X7012482Y-8219998D01*
X7017816Y-8245449D01*
X7023811Y-8270138D01*
X7029339Y-8290052D01*
X7089140Y-8290052D01*
X7089241Y-8287715D01*
X7090511Y-8287562D01*
X7092899Y-8289594D01*
X7096556Y-8293811D01*
X7104634Y-8304174D01*
X7111238Y-8312048D01*
X7118197Y-8319617D01*
X7125512Y-8326729D01*
X7133081Y-8333536D01*
X7141006Y-8339886D01*
X7149185Y-8345931D01*
X7157669Y-8351570D01*
X7166356Y-8356803D01*
X7175296Y-8361730D01*
X7184491Y-8366252D01*
X7193889Y-8370417D01*
X7203490Y-8374176D01*
X7213244Y-8377631D01*
X7223201Y-8380679D01*
X7233259Y-8383422D01*
X7243470Y-8385759D01*
X7253833Y-8387791D01*
X7264298Y-8389416D01*
X7274864Y-8390737D01*
X7285481Y-8391652D01*
X7296150Y-8392261D01*
X7306919Y-8392515D01*
X7317689Y-8392414D01*
X7328509Y-8392007D01*
X7339279Y-8391245D01*
X7350099Y-8390128D01*
X7360869Y-8388705D01*
X7371588Y-8386927D01*
X7382306Y-8384844D01*
X7392924Y-8382406D01*
X7403439Y-8379612D01*
X7413853Y-8376564D01*
X7424216Y-8373109D01*
X7434376Y-8369401D01*
X7444435Y-8365337D01*
X7454341Y-8360968D01*
X7464094Y-8356295D01*
X7473645Y-8351316D01*
X7482992Y-8345982D01*
X7492136Y-8340394D01*
X7501026Y-8334451D01*
X7509713Y-8328202D01*
X7518095Y-8321700D01*
X7526223Y-8314842D01*
X7534097Y-8307730D01*
X7541615Y-8300262D01*
X7548829Y-8292541D01*
X7555738Y-8284514D01*
X7562291Y-8276183D01*
X7568488Y-8267598D01*
X7574280Y-8258708D01*
X7579715Y-8249513D01*
X7584744Y-8240014D01*
X7589215Y-8230920D01*
X7591094Y-8227669D01*
X7592720Y-8225485D01*
X7594142Y-8224418D01*
X7595311Y-8224469D01*
X7596276Y-8225739D01*
X7597089Y-8228177D01*
X7597698Y-8231835D01*
X7598460Y-8242960D01*
X7598714Y-8259318D01*
X7598562Y-8275015D01*
X7598105Y-8289798D01*
X7597241Y-8303818D01*
X7595971Y-8317026D01*
X7594295Y-8329574D01*
X7592263Y-8341410D01*
X7589723Y-8352586D01*
X7586725Y-8363203D01*
X7583220Y-8373313D01*
X7579258Y-8382863D01*
X7574737Y-8391956D01*
X7569657Y-8400694D01*
X7564069Y-8408974D01*
X7557871Y-8417001D01*
X7551064Y-8424722D01*
X7543596Y-8432190D01*
X7535519Y-8439454D01*
X7526781Y-8446566D01*
X7517333Y-8453577D01*
X7507224Y-8460486D01*
X7496759Y-8467140D01*
X7486192Y-8473236D01*
X7475524Y-8478926D01*
X7464704Y-8484108D01*
X7453833Y-8488832D01*
X7442860Y-8493048D01*
X7431786Y-8496757D01*
X7420660Y-8500008D01*
X7409434Y-8502802D01*
X7398156Y-8505088D01*
X7386828Y-8506866D01*
X7375398Y-8508187D01*
X7363968Y-8509000D01*
X7352436Y-8509355D01*
X7340904Y-8509203D01*
X7329322Y-8508593D01*
X7317740Y-8507425D01*
X7306106Y-8505850D01*
X7294422Y-8503716D01*
X7282789Y-8501126D01*
X7271105Y-8498027D01*
X7259472Y-8494420D01*
X7248093Y-8490356D01*
X7237069Y-8485835D01*
X7226401Y-8480755D01*
X7216140Y-8475218D01*
X7206183Y-8469122D01*
X7196581Y-8462518D01*
X7187336Y-8455355D01*
X7178446Y-8447684D01*
X7169861Y-8439454D01*
X7161580Y-8430666D01*
X7153656Y-8421319D01*
X7146036Y-8411464D01*
X7138670Y-8400999D01*
X7131659Y-8389924D01*
X7124953Y-8378291D01*
X7118502Y-8366099D01*
X7112304Y-8353298D01*
X7106462Y-8339836D01*
X7100824Y-8325815D01*
X7095490Y-8311184D01*
X7092289Y-8301786D01*
X7090156Y-8294725D01*
X7089140Y-8290052D01*
X7029339Y-8290052D01*
X7032193Y-8299653D01*
X7040676Y-8325205D01*
X7050938Y-8352231D01*
X7056323Y-8365134D01*
X7061911Y-8377580D01*
X7067702Y-8389569D01*
X7073646Y-8401151D01*
X7079792Y-8412276D01*
X7086193Y-8422995D01*
X7092746Y-8433308D01*
X7099503Y-8443163D01*
X7106513Y-8452662D01*
X7113727Y-8461705D01*
X7121144Y-8470341D01*
X7128814Y-8478621D01*
X7136688Y-8486444D01*
X7144816Y-8493912D01*
X7153148Y-8500973D01*
X7161733Y-8507679D01*
X7170572Y-8513978D01*
X7179665Y-8519871D01*
X7189012Y-8525459D01*
X7198614Y-8530590D01*
X7208469Y-8535416D01*
X7218629Y-8539835D01*
X7228992Y-8543899D01*
X7239711Y-8547608D01*
X7250633Y-8550960D01*
X7261859Y-8553958D01*
X7273391Y-8556599D01*
X7285228Y-8558936D01*
X7297318Y-8560866D01*
X7309713Y-8562492D01*
X7322413Y-8563813D01*
X7334961Y-8564676D01*
X7347458Y-8565032D01*
X7359954Y-8564880D01*
X7372350Y-8564321D01*
X7384745Y-8563254D01*
X7397038Y-8561730D01*
X7409230Y-8559800D01*
X7421321Y-8557463D01*
X7433259Y-8554669D01*
X7445095Y-8551468D01*
X7456728Y-8547912D01*
X7468209Y-8543950D01*
X7479436Y-8539581D01*
X7490510Y-8534857D01*
X7501331Y-8529828D01*
X7511897Y-8524392D01*
X7522209Y-8518652D01*
X7532268Y-8512606D01*
X7541971Y-8506206D01*
X7551420Y-8499551D01*
X7560513Y-8492591D01*
X7569250Y-8485327D01*
X7577632Y-8477808D01*
X7585608Y-8470036D01*
X7593228Y-8462010D01*
X7600442Y-8453729D01*
X7607198Y-8445246D01*
X7613497Y-8436559D01*
X7619339Y-8427618D01*
X7624673Y-8418525D01*
X7629550Y-8409228D01*
X7633919Y-8399780D01*
X7637729Y-8390128D01*
X7640980Y-8380323D01*
X7643723Y-8370417D01*
X7645857Y-8360308D01*
X7647940Y-8347659D01*
X7649819Y-8334502D01*
X7651394Y-8320989D01*
X7653274Y-8300161D01*
X7654188Y-8286089D01*
X7655001Y-8264906D01*
X7655204Y-8250885D01*
X7655102Y-8237016D01*
X7654696Y-8223402D01*
X7654036Y-8210194D01*
X7653070Y-8197443D01*
X7647076Y-8135518D01*
X7644892Y-8115655D01*
X7643114Y-8102447D01*
X7634935Y-8049869D01*
X7630566Y-8025231D01*
X7625638Y-7999018D01*
X7620609Y-7973720D01*
X7611465Y-7930946D01*
X7606334Y-7907934D01*
X7599984Y-7882178D01*
X7592618Y-7854391D01*
X7584440Y-7825231D01*
X7573467Y-7787741D01*
X7561935Y-7750352D01*
X7552588Y-7721346D01*
X7543393Y-7693863D01*
X7534554Y-7668564D01*
X7526223Y-7646060D01*
X7518653Y-7627061D01*
X7512050Y-7612176D01*
X7509154Y-7606487D01*
X7503515Y-7596733D01*
X7497368Y-7587437D01*
X7490714Y-7578648D01*
X7483500Y-7570266D01*
X7475778Y-7562291D01*
X7467498Y-7554772D01*
X7458709Y-7547660D01*
X7449312Y-7540955D01*
X7439406Y-7534656D01*
X7420203Y-7523835D01*
X7414107Y-7519720D01*
X7410297Y-7516063D01*
X7408418Y-7512710D01*
X7385354Y-7435799D01*
X7384135Y-7430668D01*
X7386878Y-7426096D01*
X7393178Y-7418781D01*
X7400036Y-7412024D01*
X7404353Y-7409027D01*
X7407554Y-7411364D01*
X7425334Y-7427010D01*
X7451090Y-7450581D01*
X7475931Y-7474000D01*
X7508595Y-7505852D01*
X7519263Y-7515656D01*
X7529372Y-7524445D01*
X7539126Y-7532319D01*
X7548575Y-7539380D01*
X7557922Y-7545628D01*
X7567218Y-7551115D01*
X7576667Y-7555941D01*
X7586319Y-7560106D01*
X7596327Y-7563764D01*
X7606893Y-7566914D01*
X7618018Y-7569606D01*
X7631518Y-7572197D01*
X7815783Y-7572197D01*
X7817459Y-7568234D01*
X7823200Y-7566964D01*
X7826248Y-7566761D01*
X7830007Y-7566050D01*
X7839354Y-7563408D01*
X7850581Y-7559294D01*
X7863230Y-7554112D01*
X7876641Y-7547965D01*
X7890256Y-7541310D01*
X7903464Y-7534249D01*
X7915706Y-7527188D01*
X7926425Y-7520381D01*
X7934959Y-7514031D01*
X7945170Y-7505496D01*
X7947761Y-7503668D01*
X7950047Y-7502398D01*
X7952181Y-7501788D01*
X7954264Y-7501890D01*
X7956397Y-7502753D01*
X7958632Y-7504379D01*
X7961122Y-7506919D01*
X7967167Y-7514844D01*
X7986217Y-7543546D01*
X7995716Y-7558278D01*
X8003692Y-7571689D01*
X8010245Y-7583982D01*
X8015325Y-7595209D01*
X8018983Y-7605572D01*
X8020303Y-7610449D01*
X8021269Y-7615174D01*
X8021878Y-7619746D01*
X8022132Y-7624165D01*
X8022081Y-7628483D01*
X8021726Y-7632700D01*
X8020964Y-7636865D01*
X8019948Y-7640929D01*
X8018576Y-7644942D01*
X8016900Y-7648905D01*
X8014868Y-7652918D01*
X8009890Y-7660894D01*
X8004048Y-7668615D01*
X8001660Y-7671053D01*
X7999526Y-7672120D01*
X7997494Y-7671714D01*
X7995361Y-7669682D01*
X7992821Y-7665923D01*
X7978648Y-7638643D01*
X7971993Y-7626654D01*
X7965643Y-7616748D01*
X7959445Y-7608722D01*
X7956296Y-7605420D01*
X7953095Y-7602474D01*
X7949793Y-7599984D01*
X7946390Y-7597902D01*
X7942884Y-7596174D01*
X7939176Y-7594853D01*
X7935264Y-7593838D01*
X7931099Y-7593177D01*
X7926679Y-7592822D01*
X7922006Y-7592771D01*
X7911642Y-7593533D01*
X7899806Y-7595311D01*
X7868005Y-7601712D01*
X7849260Y-7605217D01*
X7836611Y-7606995D01*
X7825079Y-7590281D01*
X7818323Y-7579410D01*
X7815783Y-7572197D01*
X7631518Y-7572197D01*
X7642707Y-7573924D01*
X7656525Y-7575702D01*
X7687614Y-7578648D01*
X7711033Y-7580528D01*
X7710170Y-7591501D01*
X7708595Y-7600035D01*
X7706512Y-7608062D01*
X7704429Y-7617459D01*
X7702956Y-7625283D01*
X7701788Y-7628178D01*
X7699857Y-7630312D01*
X7696657Y-7631887D01*
X7691881Y-7633055D01*
X7685176Y-7633919D01*
X7676032Y-7634681D01*
X7637018Y-7636814D01*
X7620965Y-7652867D01*
X7621016Y-7667244D01*
X7621270Y-7670393D01*
X7621778Y-7673492D01*
X7623556Y-7679639D01*
X7626858Y-7686344D01*
X7631938Y-7694117D01*
X7639202Y-7703464D01*
X7649006Y-7715046D01*
X7695184Y-7766405D01*
X7713268Y-7787284D01*
X7717942Y-7794244D01*
X7717159Y-7841742D01*
X7765338Y-7841742D01*
X7765389Y-7836662D01*
X7766202Y-7831531D01*
X7767777Y-7826451D01*
X7770114Y-7821472D01*
X7773263Y-7816646D01*
X7774889Y-7814716D01*
X7776718Y-7813141D01*
X7778800Y-7811871D01*
X7781188Y-7810957D01*
X7783982Y-7810398D01*
X7787233Y-7810246D01*
X7790942Y-7810449D01*
X7795209Y-7811058D01*
X7805674Y-7813497D01*
X7819085Y-7817662D01*
X7835900Y-7823606D01*
X7874711Y-7838389D01*
X7886192Y-7843418D01*
X7889697Y-7845399D01*
X7891780Y-7847228D01*
X7892542Y-7848955D01*
X7892084Y-7850631D01*
X7890459Y-7852460D01*
X7887766Y-7854492D01*
X7872069Y-7864195D01*
X7854188Y-7875727D01*
X7827873Y-7893608D01*
X7807299Y-7886903D01*
X7800594Y-7884414D01*
X7794447Y-7881467D01*
X7788808Y-7878114D01*
X7783677Y-7874406D01*
X7779207Y-7870393D01*
X7775295Y-7866075D01*
X7771993Y-7861503D01*
X7769301Y-7856778D01*
X7767320Y-7851851D01*
X7765948Y-7846872D01*
X7765338Y-7841742D01*
X7717159Y-7841742D01*
X7716181Y-7900009D01*
X7854797Y-7900009D01*
X7855813Y-7898434D01*
X7858048Y-7896352D01*
X7865872Y-7890713D01*
X7873085Y-7885988D01*
X7892846Y-7874000D01*
X7917637Y-7859826D01*
X7951724Y-7841081D01*
X7978444Y-7826959D01*
X8002016Y-7815072D01*
X8019897Y-7806740D01*
X8056016Y-7791856D01*
X8061096Y-7790383D01*
X8065922Y-7790078D01*
X8070443Y-7790840D01*
X8074558Y-7792618D01*
X8078317Y-7795259D01*
X8081568Y-7798663D01*
X8084362Y-7802727D01*
X8086598Y-7807350D01*
X8088223Y-7812430D01*
X8089239Y-7817866D01*
X8089595Y-7823504D01*
X8089290Y-7829296D01*
X8088172Y-7835138D01*
X8086293Y-7840878D01*
X8083550Y-7846415D01*
X8079943Y-7851698D01*
X8076641Y-7854340D01*
X8070443Y-7858150D01*
X8062214Y-7862570D01*
X8023656Y-7881061D01*
X8019389Y-7882280D01*
X8012277Y-7883601D01*
X8001609Y-7885125D01*
X7934248Y-7892592D01*
X7907578Y-7895996D01*
X7871510Y-7901076D01*
X7860080Y-7901940D01*
X7856829Y-7901736D01*
X7855102Y-7901127D01*
X7854797Y-7900009D01*
X7716181Y-7900009D01*
X7715351Y-7934604D01*
X7713761Y-7979156D01*
X7766100Y-7979156D01*
X7766253Y-7975803D01*
X7767066Y-7972094D01*
X7768488Y-7968030D01*
X7770520Y-7963509D01*
X7773619Y-7958328D01*
X7777429Y-7953502D01*
X7782102Y-7948930D01*
X7787690Y-7944713D01*
X7794244Y-7940700D01*
X7801914Y-7936992D01*
X7810703Y-7933436D01*
X7820761Y-7930134D01*
X7832090Y-7926984D01*
X7844891Y-7923987D01*
X7859115Y-7921091D01*
X7874914Y-7918297D01*
X7892338Y-7915605D01*
X7911541Y-7912912D01*
X7955330Y-7907629D01*
X7998155Y-7903209D01*
X8014665Y-7901940D01*
X8028431Y-7901228D01*
X8039963Y-7901178D01*
X8049615Y-7901736D01*
X8057896Y-7902956D01*
X8065211Y-7904835D01*
X8072018Y-7907324D01*
X8078724Y-7910525D01*
X8084870Y-7914335D01*
X8089646Y-7918450D01*
X8092998Y-7922920D01*
X8094980Y-7927594D01*
X8095538Y-7932470D01*
X8094624Y-7937398D01*
X8092236Y-7942376D01*
X8088375Y-7947253D01*
X8085124Y-7950403D01*
X8081314Y-7953349D01*
X8076996Y-7956143D01*
X8072069Y-7958836D01*
X8066481Y-7961375D01*
X8060181Y-7963763D01*
X8053120Y-7966100D01*
X8045246Y-7968284D01*
X8036458Y-7970418D01*
X8026806Y-7972450D01*
X8004454Y-7976260D01*
X7977835Y-7979867D01*
X7946440Y-7983321D01*
X7909864Y-7986674D01*
X7867751Y-7990027D01*
X7819593Y-7993430D01*
X7803134Y-7994091D01*
X7796123Y-7993989D01*
X7789824Y-7993634D01*
X7784338Y-7992973D01*
X7779613Y-7991957D01*
X7775600Y-7990687D01*
X7772298Y-7989062D01*
X7769707Y-7987080D01*
X7767828Y-7984794D01*
X7766659Y-7982153D01*
X7766100Y-7979156D01*
X7713761Y-7979156D01*
X7712964Y-7994497D01*
X7711338Y-8013953D01*
X7708747Y-8049259D01*
X7706918Y-8084261D01*
X7705953Y-8111134D01*
X7705445Y-8136229D01*
X7705496Y-8158734D01*
X7706055Y-8178038D01*
X7706512Y-8186267D01*
X7708900Y-8208467D01*
X7710779Y-8222284D01*
X7712862Y-8234984D01*
X7715250Y-8246821D01*
X7718044Y-8257997D01*
X7721193Y-8268716D01*
X7724902Y-8279231D01*
X7729169Y-8289696D01*
X7734096Y-8300364D01*
X7739684Y-8311438D01*
X7746085Y-8323122D01*
X7753350Y-8335670D01*
X7761528Y-8349234D01*
X7769707Y-8362188D01*
X7777835Y-8374532D01*
X7786014Y-8386318D01*
X7794193Y-8397544D01*
X7799146Y-8403996D01*
X7872730Y-8403996D01*
X7950403Y-8406638D01*
X7982000Y-8400237D01*
X7993227Y-8397595D01*
X8004302Y-8394649D01*
X8015122Y-8391347D01*
X8025739Y-8387740D01*
X8036153Y-8383828D01*
X8046364Y-8379561D01*
X8056321Y-8374989D01*
X8066125Y-8370112D01*
X8075675Y-8364931D01*
X8084972Y-8359444D01*
X8094065Y-8353653D01*
X8102955Y-8347608D01*
X8111591Y-8341258D01*
X8119973Y-8334603D01*
X8128152Y-8327694D01*
X8136077Y-8320531D01*
X8143748Y-8313064D01*
X8151215Y-8305342D01*
X8158429Y-8297367D01*
X8165338Y-8289137D01*
X8172043Y-8280653D01*
X8178495Y-8271916D01*
X8184642Y-8262975D01*
X8190585Y-8253730D01*
X8196224Y-8244281D01*
X8201659Y-8234629D01*
X8206740Y-8224723D01*
X8211616Y-8214614D01*
X8216188Y-8204250D01*
X8220506Y-8193735D01*
X8224520Y-8182965D01*
X8228279Y-8171992D01*
X8231733Y-8160816D01*
X8234934Y-8149488D01*
X8240420Y-8126222D01*
X8242706Y-8114284D01*
X8244687Y-8102244D01*
X8246414Y-8089950D01*
X8247786Y-8077555D01*
X8248903Y-8064957D01*
X8249716Y-8052206D01*
X8250174Y-8039303D01*
X8250326Y-8019643D01*
X8250021Y-8006384D01*
X8248446Y-7979409D01*
X8247176Y-7965744D01*
X8243722Y-7937957D01*
X8239658Y-7910118D01*
X8233918Y-7875778D01*
X8227466Y-7841996D01*
X8220303Y-7808823D01*
X8212429Y-7776362D01*
X8209127Y-7763560D01*
X8202168Y-7738414D01*
X8194751Y-7713827D01*
X8187029Y-7689850D01*
X8178850Y-7666481D01*
X8168131Y-7638237D01*
X8156905Y-7611160D01*
X8147507Y-7590383D01*
X8130336Y-7554061D01*
X8129320Y-7551267D01*
X8130387Y-7550200D01*
X8133334Y-7550912D01*
X8137804Y-7553096D01*
X8143392Y-7556601D01*
X8149742Y-7561072D01*
X8156498Y-7566304D01*
X8163204Y-7572044D01*
X8172246Y-7580782D01*
X8177580Y-7586827D01*
X8183016Y-7593584D01*
X8188502Y-7601051D01*
X8194040Y-7609179D01*
X8205165Y-7627416D01*
X8216341Y-7647940D01*
X8221929Y-7659014D01*
X8232902Y-7682585D01*
X8243671Y-7707934D01*
X8248954Y-7721142D01*
X8259165Y-7748574D01*
X8268868Y-7777124D01*
X8277910Y-7806537D01*
X8282228Y-7821523D01*
X8290204Y-7851800D01*
X8296656Y-7878724D01*
X8301126Y-7899196D01*
X8309356Y-7942122D01*
X8313420Y-7967776D01*
X8316569Y-7994243D01*
X8318906Y-8021269D01*
X8320074Y-8041690D01*
X8320582Y-8055254D01*
X8320938Y-8075523D01*
X8320684Y-8102041D01*
X8320227Y-8115046D01*
X8318652Y-8140192D01*
X8316214Y-8164068D01*
X8314690Y-8175345D01*
X8312912Y-8186216D01*
X8308797Y-8206333D01*
X8300567Y-8237931D01*
X8296960Y-8249666D01*
X8292947Y-8261146D01*
X8288477Y-8272424D01*
X8283549Y-8283448D01*
X8278215Y-8294217D01*
X8272475Y-8304784D01*
X8266328Y-8315045D01*
X8259825Y-8325002D01*
X8252917Y-8334756D01*
X8245703Y-8344153D01*
X8238134Y-8353298D01*
X8230260Y-8362086D01*
X8222081Y-8370570D01*
X8213598Y-8378748D01*
X8204860Y-8386622D01*
X8195818Y-8394090D01*
X8186572Y-8401253D01*
X8177072Y-8408009D01*
X8167370Y-8414461D01*
X8157464Y-8420455D01*
X8147354Y-8426145D01*
X8137093Y-8431377D01*
X8126679Y-8436203D01*
X8116062Y-8440674D01*
X8105343Y-8444687D01*
X8094522Y-8448243D01*
X8083600Y-8451392D01*
X8072577Y-8454085D01*
X8061502Y-8456320D01*
X8050326Y-8458098D01*
X8039150Y-8459368D01*
X8027924Y-8460181D01*
X8016646Y-8460486D01*
X8005419Y-8460333D01*
X7994192Y-8459622D01*
X7983016Y-8458403D01*
X7971840Y-8456676D01*
X7960715Y-8454390D01*
X7949692Y-8451545D01*
X7936788Y-8447430D01*
X7929321Y-8444585D01*
X7914741Y-8437981D01*
X7907781Y-8434324D01*
X7901178Y-8430564D01*
X7895081Y-8426704D01*
X7889544Y-8422843D01*
X7884668Y-8419033D01*
X7880603Y-8415324D01*
X7877403Y-8411819D01*
X7875168Y-8408517D01*
X7872730Y-8403996D01*
X7799146Y-8403996D01*
X7806537Y-8413292D01*
X7814818Y-8423046D01*
X7823149Y-8432292D01*
X7831581Y-8441029D01*
X7840065Y-8449157D01*
X7848650Y-8456828D01*
X7857388Y-8463940D01*
X7866176Y-8470544D01*
X7875168Y-8476691D01*
X7884261Y-8482330D01*
X7893507Y-8487460D01*
X7902956Y-8492134D01*
X7912557Y-8496300D01*
X7922361Y-8500059D01*
X7932420Y-8503361D01*
X7942630Y-8506206D01*
X7953095Y-8508644D01*
X7963814Y-8510625D01*
X7974736Y-8512200D01*
X7985963Y-8513318D01*
X7997494Y-8514080D01*
X8009280Y-8514486D01*
X8021015Y-8514486D01*
X8032292Y-8514080D01*
X8043468Y-8513419D01*
X8054543Y-8512352D01*
X8065465Y-8510981D01*
X8076234Y-8509304D01*
X8086852Y-8507272D01*
X8097316Y-8504936D01*
X8107680Y-8502294D01*
X8117840Y-8499348D01*
X8127898Y-8496046D01*
X8137753Y-8492439D01*
X8147456Y-8488578D01*
X8157006Y-8484362D01*
X8166404Y-8479891D01*
X8175650Y-8475116D01*
X8184692Y-8470087D01*
X8193582Y-8464753D01*
X8202269Y-8459114D01*
X8210803Y-8453221D01*
X8223250Y-8443874D01*
X8231327Y-8437270D01*
X8239201Y-8430463D01*
X8246922Y-8423351D01*
X8254390Y-8416036D01*
X8265312Y-8404555D01*
X8272272Y-8396579D01*
X8282431Y-8384184D01*
X8288934Y-8375599D01*
X8295182Y-8366810D01*
X8301278Y-8357768D01*
X8307120Y-8348522D01*
X8312759Y-8339074D01*
X8323376Y-8319465D01*
X8328304Y-8309356D01*
X8333028Y-8299043D01*
X8337550Y-8288528D01*
X8341817Y-8277809D01*
X8349640Y-8255812D01*
X8354872Y-8238794D01*
X8359546Y-8221370D01*
X8362340Y-8209534D01*
X8364880Y-8197545D01*
X8367166Y-8185403D01*
X8369198Y-8173059D01*
X8370976Y-8160562D01*
X8373719Y-8135112D01*
X8374684Y-8122158D01*
X8375345Y-8109051D01*
X8375751Y-8095792D01*
X8375903Y-8082432D01*
X8375751Y-8068919D01*
X8374583Y-8041487D01*
X8372500Y-8015325D01*
X8369757Y-7988858D01*
X8366556Y-7962087D01*
X8363254Y-7937652D01*
X8360206Y-7918246D01*
X8348573Y-7862265D01*
X8342884Y-7838236D01*
X8335009Y-7808417D01*
X8328101Y-7784693D01*
X8316671Y-7749336D01*
X8306155Y-7719923D01*
X8299399Y-7702245D01*
X8288020Y-7674457D01*
X8281924Y-7660589D01*
X8275726Y-7647228D01*
X8269478Y-7634427D01*
X8263077Y-7622133D01*
X8256574Y-7610398D01*
X8249970Y-7599172D01*
X8243214Y-7588402D01*
X8236305Y-7578191D01*
X8229244Y-7568438D01*
X8222030Y-7559141D01*
X8214614Y-7550302D01*
X8206994Y-7541920D01*
X8199221Y-7534046D01*
X8191195Y-7526528D01*
X8182965Y-7519466D01*
X8174532Y-7512862D01*
X8165795Y-7506614D01*
X8156854Y-7500823D01*
X8147608Y-7495387D01*
X8138109Y-7490307D01*
X8128304Y-7485634D01*
X8118246Y-7481316D01*
X8107832Y-7477353D01*
X8097113Y-7473746D01*
X8086039Y-7470444D01*
X8074659Y-7467498D01*
X8062925Y-7464856D01*
X8050834Y-7462469D01*
X8038338Y-7460437D01*
X8002320Y-7455814D01*
X7997647Y-7454493D01*
X7995005Y-7452664D01*
X7994243Y-7449921D01*
X7995158Y-7446111D01*
X7997444Y-7440777D01*
X8003590Y-7428433D01*
X8008569Y-7417816D01*
X8013141Y-7407300D01*
X8017306Y-7396784D01*
X8021116Y-7386167D01*
X8024520Y-7375499D01*
X8027568Y-7364628D01*
X8030260Y-7353503D01*
X8032597Y-7342174D01*
X8034578Y-7330440D01*
X8036306Y-7318400D01*
X8037677Y-7305903D01*
X8038795Y-7292898D01*
X8039608Y-7279335D01*
X8040116Y-7265212D01*
X8040420Y-7233970D01*
X8040319Y-7206081D01*
X8039760Y-7195667D01*
X8038490Y-7187082D01*
X8037575Y-7183272D01*
X8036356Y-7179767D01*
X8034934Y-7176465D01*
X8033156Y-7173315D01*
X8031022Y-7170267D01*
X8028533Y-7167219D01*
X8022386Y-7161072D01*
X8014411Y-7154418D01*
X8004454Y-7146798D01*
X7978851Y-7127798D01*
X7954822Y-7109307D01*
X7932572Y-7091273D01*
X7911947Y-7073544D01*
X7902194Y-7064806D01*
X7883855Y-7047331D01*
X7870952Y-7034275D01*
X7862773Y-7025589D01*
X7854899Y-7016851D01*
X7840014Y-6999224D01*
X7832953Y-6990334D01*
X7826146Y-6981342D01*
X7813243Y-6963054D01*
X7801609Y-6945071D01*
X7791805Y-6928358D01*
X7787284Y-6919874D01*
X7782966Y-6911086D01*
X7778699Y-6901738D01*
X7774431Y-6891578D01*
X7765491Y-6868058D01*
X7755483Y-6838848D01*
X7743596Y-6802170D01*
X7728864Y-6755231D01*
X7749438Y-6733133D01*
X7759496Y-6721449D01*
X7767828Y-6710629D01*
X7771384Y-6705447D01*
X7774482Y-6700469D01*
X7779410Y-6690969D01*
X7781188Y-6686448D01*
X7782610Y-6682028D01*
X7783575Y-6677710D01*
X7784084Y-6673494D01*
X7784185Y-6669379D01*
X7783880Y-6665315D01*
X7783118Y-6661302D01*
X7781950Y-6657390D01*
X7780324Y-6653479D01*
X7778292Y-6649618D01*
X7775803Y-6645808D01*
X7772908Y-6641947D01*
X7769555Y-6638086D01*
X7761579Y-6630365D01*
X7751876Y-6622440D01*
X7732877Y-6609029D01*
X7726019Y-6603847D01*
X7719872Y-6598767D01*
X7714386Y-6593738D01*
X7709560Y-6588759D01*
X7705394Y-6583781D01*
X7701838Y-6578853D01*
X7698994Y-6573977D01*
X7696758Y-6569100D01*
X7695184Y-6564223D01*
X7694218Y-6559296D01*
X7693914Y-6554419D01*
X7694218Y-6549440D01*
X7695133Y-6544462D01*
X7696657Y-6539382D01*
X7703362Y-6523431D01*
X7706817Y-6512966D01*
X7708087Y-6508038D01*
X7709001Y-6503416D01*
X7709560Y-6499148D01*
X7709763Y-6495338D01*
X7710373Y-6491579D01*
X7711846Y-6486347D01*
X7714132Y-6480403D01*
X7719872Y-6468110D01*
X7725257Y-6455562D01*
X7726984Y-6450838D01*
X7730083Y-6443675D01*
X7733893Y-6440424D01*
X7739075Y-6440881D01*
X7746288Y-6444792D01*
X7755483Y-6450888D01*
X7774584Y-6495796D01*
X7780832Y-6509359D01*
X7787233Y-6522059D01*
X7793888Y-6533946D01*
X7800695Y-6545072D01*
X7807807Y-6555486D01*
X7815224Y-6565239D01*
X7822946Y-6574281D01*
X7831023Y-6582714D01*
X7839456Y-6590588D01*
X7848346Y-6597903D01*
X7857693Y-6604711D01*
X7867497Y-6611010D01*
X7877809Y-6616903D01*
X7888884Y-6622745D01*
X7893050Y-6625285D01*
X7895640Y-6627368D01*
X7896656Y-6629044D01*
X7896098Y-6630263D01*
X7894015Y-6631076D01*
X7890357Y-6631584D01*
X7878978Y-6631889D01*
X7867345Y-6632905D01*
X7856626Y-6634937D01*
X7851648Y-6636258D01*
X7846872Y-6637832D01*
X7838084Y-6641541D01*
X7834071Y-6643674D01*
X7830261Y-6646011D01*
X7826705Y-6648500D01*
X7820406Y-6653936D01*
X7817612Y-6656831D01*
X7815072Y-6659880D01*
X7810804Y-6666331D01*
X7809077Y-6669684D01*
X7806385Y-6676694D01*
X7804759Y-6684009D01*
X7804255Y-6691375D01*
X7836814Y-6691375D01*
X7837170Y-6688734D01*
X7837931Y-6686143D01*
X7839100Y-6683603D01*
X7840725Y-6681216D01*
X7842707Y-6678930D01*
X7845145Y-6676745D01*
X7847939Y-6674662D01*
X7851140Y-6672783D01*
X7854746Y-6671005D01*
X7858759Y-6669430D01*
X7863179Y-6668008D01*
X7873187Y-6665722D01*
X7884718Y-6664299D01*
X7891068Y-6663944D01*
X7905750Y-6663740D01*
X7912658Y-6663385D01*
X7918754Y-6662724D01*
X7924139Y-6661556D01*
X7929016Y-6659930D01*
X7933486Y-6657644D01*
X7937753Y-6654647D01*
X7941970Y-6650837D01*
X7946237Y-6646113D01*
X7950809Y-6640423D01*
X7971078Y-6611670D01*
X7980883Y-6599072D01*
X7990586Y-6587642D01*
X8000390Y-6577431D01*
X8010245Y-6568389D01*
X8020151Y-6560413D01*
X8030260Y-6553555D01*
X8040522Y-6547764D01*
X8050987Y-6542989D01*
X8061706Y-6539230D01*
X8065770Y-6538264D01*
X8071002Y-6537452D01*
X8084007Y-6536283D01*
X8098942Y-6535775D01*
X8113928Y-6535928D01*
X8127136Y-6536690D01*
X8132521Y-6537350D01*
X8136686Y-6538214D01*
X8151774Y-6542531D01*
X8165388Y-6547307D01*
X8171789Y-6549847D01*
X8183930Y-6555536D01*
X8195513Y-6562039D01*
X8201152Y-6565595D01*
X8212480Y-6573621D01*
X8220608Y-6580174D01*
X8228685Y-6587642D01*
X8236712Y-6595922D01*
X8244535Y-6605016D01*
X8252256Y-6614769D01*
X8259775Y-6625183D01*
X8267039Y-6636258D01*
X8274100Y-6647891D01*
X8280806Y-6660032D01*
X8287258Y-6672630D01*
X8293303Y-6685686D01*
X8298992Y-6699046D01*
X8304275Y-6712762D01*
X8309102Y-6726732D01*
X8314385Y-6743852D01*
X8317534Y-6756653D01*
X8318347Y-6761276D01*
X8318550Y-6764680D01*
X8318246Y-6766763D01*
X8317331Y-6767474D01*
X8314994Y-6766255D01*
X8311134Y-6762953D01*
X8306206Y-6758076D01*
X8300720Y-6752183D01*
X8295131Y-6745782D01*
X8289899Y-6739381D01*
X8285480Y-6733489D01*
X8277707Y-6721602D01*
X8274913Y-6719824D01*
X8274303Y-6723176D01*
X8276183Y-6731508D01*
X8278926Y-6739331D01*
X8282330Y-6747205D01*
X8286546Y-6755231D01*
X8291525Y-6763308D01*
X8297265Y-6771487D01*
X8303818Y-6779869D01*
X8311184Y-6788403D01*
X8319414Y-6797141D01*
X8328507Y-6806082D01*
X8338464Y-6815277D01*
X8349335Y-6824675D01*
X8361121Y-6834378D01*
X8373821Y-6844334D01*
X8393277Y-6859066D01*
X8398510Y-6863384D01*
X8403183Y-6867601D01*
X8407298Y-6871665D01*
X8410854Y-6875627D01*
X8413851Y-6879488D01*
X8416290Y-6883146D01*
X8418220Y-6886651D01*
X8419541Y-6890054D01*
X8420354Y-6893255D01*
X8420608Y-6896252D01*
X8420303Y-6899097D01*
X8419490Y-6901738D01*
X8418118Y-6904177D01*
X8416188Y-6906463D01*
X8413750Y-6908495D01*
X8410752Y-6910324D01*
X8407196Y-6911898D01*
X8403132Y-6913270D01*
X8398560Y-6914388D01*
X8393430Y-6915251D01*
X8387740Y-6915912D01*
X8381542Y-6916267D01*
X8369960Y-6916166D01*
X8360206Y-6915251D01*
X8350402Y-6913473D01*
X8340547Y-6910831D01*
X8330641Y-6907275D01*
X8320633Y-6902907D01*
X8310524Y-6897624D01*
X8300364Y-6891477D01*
X8290102Y-6884466D01*
X8279739Y-6876542D01*
X8269274Y-6867702D01*
X8258708Y-6858000D01*
X8248040Y-6847433D01*
X8237270Y-6835952D01*
X8211261Y-6806539D01*
X8195462Y-6765036D01*
X8191855Y-6754368D01*
X8189417Y-6746138D01*
X8188502Y-6741515D01*
X8187893Y-6736588D01*
X8186216Y-6734556D01*
X8183727Y-6735521D01*
X8180882Y-6739534D01*
X8179612Y-6742430D01*
X8178546Y-6745833D01*
X8177733Y-6749745D01*
X8176818Y-6758940D01*
X8176818Y-6769862D01*
X8177631Y-6782358D01*
X8179308Y-6796125D01*
X8181797Y-6811111D01*
X8185150Y-6827062D01*
X8189214Y-6843775D01*
X8194040Y-6861048D01*
X8200644Y-6883095D01*
X8202980Y-6894068D01*
X8203742Y-6899300D01*
X8204453Y-6910374D01*
X8204555Y-6919264D01*
X8262569Y-6919264D01*
X8264194Y-6917842D01*
X8268665Y-6918147D01*
X8275218Y-6919874D01*
X8282990Y-6922719D01*
X8291322Y-6926376D01*
X8299399Y-6930542D01*
X8306511Y-6934911D01*
X8311794Y-6939127D01*
X8315452Y-6942683D01*
X8311134Y-6947001D01*
X8304631Y-6950252D01*
X8295741Y-6951116D01*
X8286597Y-6949744D01*
X8279485Y-6946138D01*
X8273948Y-6939991D01*
X8268462Y-6932168D01*
X8264245Y-6924598D01*
X8262569Y-6919264D01*
X8204555Y-6919264D01*
X8204555Y-6938975D01*
X8196021Y-6953554D01*
X8193227Y-6957415D01*
X8190280Y-6960819D01*
X8187283Y-6963714D01*
X8184235Y-6966153D01*
X8181035Y-6968083D01*
X8177834Y-6969556D01*
X8174532Y-6970623D01*
X8171230Y-6971182D01*
X8167827Y-6971334D01*
X8164423Y-6970979D01*
X8160969Y-6970217D01*
X8157514Y-6969048D01*
X8154009Y-6967423D01*
X8150504Y-6965442D01*
X8143544Y-6960108D01*
X8140090Y-6956856D01*
X8136636Y-6953199D01*
X8133232Y-6949186D01*
X8126526Y-6939940D01*
X8120075Y-6929221D01*
X8113877Y-6917080D01*
X8110880Y-6910425D01*
X8105241Y-6896201D01*
X8102549Y-6888581D01*
X8097570Y-6872325D01*
X8080095Y-6810552D01*
X8076184Y-6799122D01*
X8047228Y-6726783D01*
X8041081Y-6712305D01*
X8034781Y-6698640D01*
X8028533Y-6686194D01*
X8022691Y-6675577D01*
X8017459Y-6667246D01*
X8013192Y-6661708D01*
X8011464Y-6660184D01*
X8010093Y-6659524D01*
X8009077Y-6659829D01*
X8009229Y-6661505D01*
X8012074Y-6670852D01*
X8017306Y-6684975D01*
X8019186Y-6690614D01*
X8020151Y-6694627D01*
X8019948Y-6697218D01*
X8018525Y-6698691D01*
X8015833Y-6699250D01*
X8011668Y-6699250D01*
X7991348Y-6697776D01*
X7962290Y-6717436D01*
X7949133Y-6725615D01*
X7943240Y-6728917D01*
X7937753Y-6731711D01*
X7932521Y-6733946D01*
X7927594Y-6735775D01*
X7922768Y-6737045D01*
X7918094Y-6737908D01*
X7913471Y-6738315D01*
X7908848Y-6738315D01*
X7904175Y-6737858D01*
X7899298Y-6737045D01*
X7894269Y-6735825D01*
X7888935Y-6734251D01*
X7877098Y-6729882D01*
X7871358Y-6727444D01*
X7866075Y-6724853D01*
X7861249Y-6722211D01*
X7852867Y-6716725D01*
X7849362Y-6713931D01*
X7846263Y-6711086D01*
X7843621Y-6708241D01*
X7841437Y-6705396D01*
X7839659Y-6702501D01*
X7838287Y-6699707D01*
X7837373Y-6696862D01*
X7836916Y-6694119D01*
X7836814Y-6691375D01*
X7804251Y-6691477D01*
X7804403Y-6695287D01*
X7805572Y-6702958D01*
X7807858Y-6710629D01*
X7809433Y-6714439D01*
X7811312Y-6718198D01*
X7815935Y-6725666D01*
X7818678Y-6729323D01*
X7821777Y-6732930D01*
X7828788Y-6739890D01*
X7832750Y-6743242D01*
X7841589Y-6749592D01*
X7846466Y-6752590D01*
X7857185Y-6758228D01*
X7868818Y-6763207D01*
X7879943Y-6767169D01*
X7890713Y-6769963D01*
X7895996Y-6770979D01*
X7906308Y-6772148D01*
X7911388Y-6772300D01*
X7916468Y-6772148D01*
X7921447Y-6771741D01*
X7926476Y-6771030D01*
X7931454Y-6770065D01*
X7936484Y-6768795D01*
X7946491Y-6765391D01*
X7951571Y-6763258D01*
X7961782Y-6758076D01*
X7972298Y-6751777D01*
X7989316Y-6739890D01*
X7994903Y-6736283D01*
X7999171Y-6733844D01*
X8001609Y-6732930D01*
X8003336Y-6733438D01*
X8005368Y-6734860D01*
X8007603Y-6737197D01*
X8010042Y-6740347D01*
X8012633Y-6744208D01*
X8018272Y-6754012D01*
X8024317Y-6766102D01*
X8030464Y-6779971D01*
X8036559Y-6795109D01*
X8042402Y-6811060D01*
X8047685Y-6827266D01*
X8052257Y-6843318D01*
X8064906Y-6895896D01*
X8069173Y-6911441D01*
X8073440Y-6925208D01*
X8076793Y-6934403D01*
X8078673Y-6937552D01*
X8079790Y-6940499D01*
X8079943Y-6941972D01*
X8080705Y-6944766D01*
X8082838Y-6949287D01*
X8089950Y-6961530D01*
X8098739Y-6974840D01*
X8103057Y-6980631D01*
X8106816Y-6985203D01*
X8111032Y-6989521D01*
X8115503Y-6993432D01*
X8120125Y-6996988D01*
X8124901Y-7000138D01*
X8129879Y-7002932D01*
X8134959Y-7005320D01*
X8140141Y-7007352D01*
X8145424Y-7009028D01*
X8150809Y-7010298D01*
X8156194Y-7011212D01*
X8161629Y-7011771D01*
X8167065Y-7011974D01*
X8172500Y-7011771D01*
X8177885Y-7011263D01*
X8183219Y-7010400D01*
X8188452Y-7009130D01*
X8193582Y-7007555D01*
X8198662Y-7005675D01*
X8203539Y-7003389D01*
X8208264Y-7000798D01*
X8212836Y-6997852D01*
X8217153Y-6994550D01*
X8221319Y-6990943D01*
X8225180Y-6987031D01*
X8228787Y-6982764D01*
X8232140Y-6978192D01*
X8235188Y-6973265D01*
X8237880Y-6968032D01*
X8241944Y-6960870D01*
X8245805Y-6958075D01*
X8250377Y-6959447D01*
X8260791Y-6969099D01*
X8265261Y-6972655D01*
X8269935Y-6975703D01*
X8274710Y-6978142D01*
X8279638Y-6980072D01*
X8284667Y-6981444D01*
X8289696Y-6982256D01*
X8294827Y-6982510D01*
X8299958Y-6982256D01*
X8305139Y-6981444D01*
X8310219Y-6980021D01*
X8315299Y-6978142D01*
X8320328Y-6975652D01*
X8325205Y-6972604D01*
X8330031Y-6969048D01*
X8334705Y-6964883D01*
X8349691Y-6950506D01*
X8355634Y-6952742D01*
X8360054Y-6954113D01*
X8364778Y-6955078D01*
X8369757Y-6955586D01*
X8374989Y-6955688D01*
X8380425Y-6955434D01*
X8385962Y-6954824D01*
X8391601Y-6953859D01*
X8397240Y-6952538D01*
X8402929Y-6950913D01*
X8408517Y-6949033D01*
X8413953Y-6946849D01*
X8419287Y-6944410D01*
X8424418Y-6941718D01*
X8429244Y-6938822D01*
X8433765Y-6935724D01*
X8437981Y-6932422D01*
X8441740Y-6928967D01*
X8445093Y-6925360D01*
X8447938Y-6921601D01*
X8450224Y-6917791D01*
X8452459Y-6912914D01*
X8454186Y-6908139D01*
X8455456Y-6903466D01*
X8456218Y-6898792D01*
X8456422Y-6894220D01*
X8456117Y-6889648D01*
X8455253Y-6885076D01*
X8453831Y-6880555D01*
X8451900Y-6875983D01*
X8449360Y-6871411D01*
X8446312Y-6866788D01*
X8442655Y-6862114D01*
X8438388Y-6857390D01*
X8433562Y-6852564D01*
X8428126Y-6847687D01*
X8415375Y-6837578D01*
X8408111Y-6832346D01*
X8391601Y-6821474D01*
X8357565Y-6799986D01*
X8352231Y-6769760D01*
X8349488Y-6756095D01*
X8346541Y-6743090D01*
X8343341Y-6730644D01*
X8339785Y-6718553D01*
X8335822Y-6706768D01*
X8331453Y-6695084D01*
X8326577Y-6683298D01*
X8321243Y-6671360D01*
X8315248Y-6659067D01*
X8308594Y-6646164D01*
X8301532Y-6633464D01*
X8294217Y-6621272D01*
X8286699Y-6609689D01*
X8279028Y-6598716D01*
X8271256Y-6588455D01*
X8263381Y-6578904D01*
X8255508Y-6570167D01*
X8247583Y-6562293D01*
X8239709Y-6555333D01*
X8222640Y-6541973D01*
X8224621Y-6531762D01*
X8230260Y-6506057D01*
X8231936Y-6496304D01*
X8233105Y-6486398D01*
X8233867Y-6476288D01*
X8234121Y-6466027D01*
X8233867Y-6455664D01*
X8233206Y-6445097D01*
X8232089Y-6434480D01*
X8230514Y-6423710D01*
X8228533Y-6412890D01*
X8226094Y-6401968D01*
X8223199Y-6390995D01*
X8219897Y-6379972D01*
X8216188Y-6368897D01*
X8212074Y-6357772D01*
X8207552Y-6346698D01*
X8202625Y-6335572D01*
X8197342Y-6324498D01*
X8191652Y-6313474D01*
X8185556Y-6302451D01*
X8179104Y-6291478D01*
X8172297Y-6280607D01*
X8165084Y-6269837D01*
X8157565Y-6259118D01*
X8149640Y-6248552D01*
X8141411Y-6238087D01*
X8132876Y-6227775D01*
X8123936Y-6217615D01*
X8114741Y-6207607D01*
X8105190Y-6197803D01*
X8095335Y-6188151D01*
X8057235Y-6153505D01*
X8044484Y-6141262D01*
X8033867Y-6130442D01*
X8025688Y-6121298D01*
X8020050Y-6114135D01*
X8018272Y-6111341D01*
X8017256Y-6109106D01*
X8016951Y-6107480D01*
X8017459Y-6106464D01*
X8020659Y-6105753D01*
X8028025Y-6102858D01*
X8039252Y-6097625D01*
X8053070Y-6090818D01*
X8083296Y-6074867D01*
X8097266Y-6066993D01*
X8108848Y-6060084D01*
X8119262Y-6053074D01*
X8125053Y-6048908D01*
X8135823Y-6040374D01*
X8145627Y-6031687D01*
X8154517Y-6022848D01*
X8162442Y-6013856D01*
X8169351Y-6004712D01*
X8175345Y-5995466D01*
X8180324Y-5986068D01*
X8184388Y-5976569D01*
X8187436Y-5966917D01*
X8188604Y-5962091D01*
X8190230Y-5952286D01*
X8190839Y-5942431D01*
X8190534Y-5932474D01*
X8189214Y-5922467D01*
X8186877Y-5912408D01*
X8185403Y-5907328D01*
X8181644Y-5897219D01*
X8176869Y-5887008D01*
X8171129Y-5876798D01*
X8167928Y-5871667D01*
X8160715Y-5861405D01*
X8152536Y-5851144D01*
X8143240Y-5840069D01*
X8142325Y-5836666D01*
X8145576Y-5835091D01*
X8157565Y-5834583D01*
X8165998Y-5833821D01*
X8174583Y-5832398D01*
X8183270Y-5830214D01*
X8192058Y-5827369D01*
X8200898Y-5823864D01*
X8209788Y-5819698D01*
X8218678Y-5814923D01*
X8227568Y-5809589D01*
X8236458Y-5803595D01*
X8245297Y-5797042D01*
X8254085Y-5789930D01*
X8262823Y-5782310D01*
X8271459Y-5774182D01*
X8279993Y-5765495D01*
X8288375Y-5756402D01*
X8296656Y-5746800D01*
X8304733Y-5736742D01*
X8312607Y-5726277D01*
X8320278Y-5715406D01*
X8327745Y-5704179D01*
X8334959Y-5692495D01*
X8341868Y-5680506D01*
X8348522Y-5668213D01*
X8354923Y-5655564D01*
X8360918Y-5642610D01*
X8366252Y-5630113D01*
X8370620Y-5617921D01*
X8374329Y-5605373D01*
X8377377Y-5592622D01*
X8379714Y-5579770D01*
X8381390Y-5566918D01*
X8382355Y-5554268D01*
X8382609Y-5541873D01*
X8382203Y-5529834D01*
X8381136Y-5518353D01*
X8379307Y-5507532D01*
X8376818Y-5497474D01*
X8373618Y-5488330D01*
X8371738Y-5484114D01*
X8369706Y-5480202D01*
X8361578Y-5467604D01*
X8370773Y-5437124D01*
X8374075Y-5425186D01*
X8379866Y-5401462D01*
X8385048Y-5376468D01*
X8389569Y-5350560D01*
X8390991Y-5339537D01*
X8392058Y-5328107D01*
X8392769Y-5316372D01*
X8393125Y-5304383D01*
X8393176Y-5292191D01*
X8392820Y-5279796D01*
X8392160Y-5267248D01*
X8391194Y-5254599D01*
X8389874Y-5241899D01*
X8388248Y-5229148D01*
X8386368Y-5216499D01*
X8384133Y-5203850D01*
X8381593Y-5191302D01*
X8378799Y-5178907D01*
X8375700Y-5166715D01*
X8372348Y-5154726D01*
X8366759Y-5137302D01*
X8362746Y-5126075D01*
X8358428Y-5115255D01*
X8353907Y-5104790D01*
X8349132Y-5094833D01*
X8341410Y-5080254D01*
X8333790Y-5067452D01*
X8326170Y-5056378D01*
X8322360Y-5051450D01*
X8318550Y-5046980D01*
X8314740Y-5042916D01*
X8310930Y-5039258D01*
X8307120Y-5036058D01*
X8303259Y-5033213D01*
X8299348Y-5030825D01*
X8295436Y-5028793D01*
X8291525Y-5027218D01*
X8287562Y-5025999D01*
X8283549Y-5025186D01*
X8279485Y-5024780D01*
X8275370Y-5024780D01*
X8271205Y-5025136D01*
X8266988Y-5025898D01*
X8262721Y-5027066D01*
X8258403Y-5028590D01*
X8249005Y-5032705D01*
X8245094Y-5034026D01*
X8241944Y-5034178D01*
X8239302Y-5032806D01*
X8236864Y-5029809D01*
X8234273Y-5024780D01*
X8231327Y-5017617D01*
X8220964Y-4990642D01*
X8211312Y-4968036D01*
X8203641Y-4951425D01*
X8192719Y-4929733D01*
X8184083Y-4913782D01*
X8171942Y-4892954D01*
X8159089Y-4872736D01*
X8145576Y-4853025D01*
X8131403Y-4833874D01*
X8116570Y-4815281D01*
X8101126Y-4797247D01*
X8085023Y-4779873D01*
X8072577Y-4767173D01*
X8059775Y-4754880D01*
X8042198Y-4738979D01*
X8028635Y-4727448D01*
X8010042Y-4712665D01*
X7990941Y-4698542D01*
X7971281Y-4685030D01*
X7956194Y-4675378D01*
X7935620Y-4663033D01*
X7914589Y-4651400D01*
X7903870Y-4645812D01*
X7887563Y-4637786D01*
X7865414Y-4627727D01*
X7842859Y-4618380D01*
X7819847Y-4609744D01*
X7796377Y-4601819D01*
X7778496Y-4596384D01*
X7760411Y-4591405D01*
X7735976Y-4585360D01*
X7711135Y-4580128D01*
X7685938Y-4575657D01*
X7660436Y-4572000D01*
X7647533Y-4570425D01*
X7628890Y-4568596D01*
X7605877Y-4567174D01*
G37*
G36*
X3254197Y168249D02*
G01*
X3254197Y-151688D01*
X3293262Y-151688D01*
X3293262Y-10820D01*
X3299104Y-5842D01*
X3304844Y-1422D01*
X3310432Y2489D01*
X3316020Y5943D01*
X3321456Y8940D01*
X3326942Y11480D01*
X3332327Y13563D01*
X3337763Y15240D01*
X3343198Y16560D01*
X3348685Y17475D01*
X3354222Y17983D01*
X3359861Y18186D01*
X3365347Y17932D01*
X3370732Y17272D01*
X3375964Y16205D01*
X3381095Y14681D01*
X3386074Y12801D01*
X3390900Y10515D01*
X3395522Y7823D01*
X3399993Y4775D01*
X3404260Y1371D01*
X3408324Y-2387D01*
X3412185Y-6502D01*
X3415842Y-10922D01*
X3419246Y-15646D01*
X3422446Y-20726D01*
X3425342Y-26060D01*
X3427984Y-31648D01*
X3430371Y-37592D01*
X3432454Y-43738D01*
X3434283Y-50139D01*
X3435756Y-56794D01*
X3436975Y-63703D01*
X3437839Y-70764D01*
X3438347Y-78079D01*
X3438550Y-85598D01*
X3438398Y-93472D01*
X3437280Y-108458D01*
X3436315Y-115519D01*
X3435045Y-122326D01*
X3433572Y-128828D01*
X3431794Y-135026D01*
X3429762Y-140919D01*
X3427476Y-146507D01*
X3424885Y-151739D01*
X3422091Y-156667D01*
X3419043Y-161290D01*
X3415741Y-165608D01*
X3412185Y-169519D01*
X3408375Y-173126D01*
X3404362Y-176377D01*
X3400094Y-179222D01*
X3395573Y-181762D01*
X3390849Y-183896D01*
X3385870Y-185674D01*
X3380638Y-187045D01*
X3375253Y-188061D01*
X3369564Y-188671D01*
X3363722Y-188874D01*
X3357524Y-188620D01*
X3351377Y-187807D01*
X3345383Y-186537D01*
X3339439Y-184708D01*
X3333597Y-182372D01*
X3327755Y-179527D01*
X3322015Y-176174D01*
X3316224Y-172262D01*
X3310534Y-167894D01*
X3304794Y-163017D01*
X3299053Y-157632D01*
X3293262Y-151688D01*
X3254197Y-151688D01*
X3254197Y-215900D01*
X3286506Y-215900D01*
X3289909Y-184505D01*
X3291332Y-184505D01*
X3299460Y-192125D01*
X3308197Y-199186D01*
X3317544Y-205536D01*
X3322421Y-208483D01*
X3332632Y-213563D01*
X3337915Y-215747D01*
X3343300Y-217627D01*
X3348837Y-219202D01*
X3354425Y-220471D01*
X3360165Y-221386D01*
X3366008Y-221996D01*
X3377336Y-222046D01*
X3382619Y-221742D01*
X3392881Y-220370D01*
X3402685Y-218135D01*
X3411982Y-214985D01*
X3420770Y-211023D01*
X3429000Y-206197D01*
X3436670Y-200507D01*
X3440328Y-197358D01*
X3447135Y-190398D01*
X3453384Y-182676D01*
X3459022Y-174142D01*
X3464001Y-164795D01*
X3468319Y-154686D01*
X3471976Y-143764D01*
X3473551Y-138074D01*
X3476142Y-126034D01*
X3478022Y-113283D01*
X3479139Y-99822D01*
X3479546Y-85598D01*
X3479444Y-78689D01*
X3478479Y-65278D01*
X3476548Y-52476D01*
X3473805Y-40284D01*
X3470249Y-28752D01*
X3465880Y-17932D01*
X3463442Y-12750D01*
X3458006Y-2946D01*
X3451961Y6096D01*
X3448710Y10363D01*
X3441750Y18288D01*
X3434232Y25400D01*
X3430320Y28702D01*
X3422142Y34594D01*
X3413556Y39624D01*
X3404565Y43840D01*
X3399993Y45618D01*
X3390595Y48463D01*
X3380943Y50342D01*
X3371087Y51358D01*
X3366109Y51460D01*
X3358642Y51206D01*
X3351529Y50495D01*
X3344722Y49326D01*
X3338271Y47752D01*
X3332022Y45720D01*
X3326028Y43230D01*
X3320135Y40386D01*
X3314395Y37185D01*
X3302914Y29565D01*
X3291332Y20574D01*
X3293262Y65938D01*
X3293262Y168249D01*
G37*
G36*
X3918712Y143662D02*
G01*
X3910787Y143408D01*
X3903065Y142697D01*
X3895648Y141579D01*
X3888435Y140055D01*
X3881475Y138125D01*
X3874770Y135890D01*
X3868369Y133350D01*
X3862171Y130505D01*
X3856278Y127355D01*
X3850640Y124053D01*
X3845255Y120497D01*
X3840175Y116738D01*
X3830878Y108915D01*
X3826611Y104851D01*
X3822649Y100685D01*
X3844848Y74625D01*
X3849573Y79552D01*
X3854551Y84175D01*
X3859733Y88442D01*
X3865168Y92405D01*
X3870858Y95961D01*
X3876852Y99110D01*
X3883050Y101854D01*
X3889552Y104139D01*
X3896309Y105968D01*
X3903319Y107289D01*
X3910634Y108153D01*
X3918254Y108407D01*
X3929532Y107899D01*
X3940352Y106375D01*
X3950665Y103835D01*
X3955643Y102209D01*
X3960520Y100330D01*
X3969816Y95910D01*
X3978554Y90525D01*
X3982720Y87528D01*
X3986733Y84277D01*
X3994302Y77114D01*
X3997909Y73202D01*
X4004564Y64769D01*
X4010558Y55473D01*
X4015892Y45415D01*
X4020515Y34544D01*
X4024426Y22910D01*
X4027627Y10515D01*
X4028948Y4064D01*
X4030979Y-9398D01*
X4032199Y-23520D01*
X4032605Y-38303D01*
X4032199Y-53187D01*
X4031030Y-67411D01*
X4029049Y-80975D01*
X4027830Y-87528D01*
X4024731Y-100025D01*
X4020921Y-111760D01*
X4018787Y-117398D01*
X4013911Y-128016D01*
X4008374Y-137820D01*
X4005376Y-142443D01*
X3998874Y-151028D01*
X3991711Y-158750D01*
X3983939Y-165608D01*
X3975608Y-171551D01*
X3966616Y-176530D01*
X3961942Y-178714D01*
X3952189Y-182270D01*
X3947058Y-183692D01*
X3941876Y-184861D01*
X3936492Y-185775D01*
X3931005Y-186436D01*
X3919677Y-186944D01*
X3913327Y-186791D01*
X3907180Y-186283D01*
X3901236Y-185420D01*
X3895445Y-184251D01*
X3889806Y-182778D01*
X3884320Y-181000D01*
X3878986Y-178866D01*
X3873754Y-176428D01*
X3868674Y-173736D01*
X3863746Y-170688D01*
X3858920Y-167335D01*
X3854196Y-163728D01*
X3845001Y-155651D01*
X3836162Y-146405D01*
X3814013Y-171500D01*
X3822446Y-180797D01*
X3826814Y-185115D01*
X3835958Y-193040D01*
X3840683Y-196697D01*
X3850538Y-203301D01*
X3855669Y-206248D01*
X3866286Y-211429D01*
X3871823Y-213664D01*
X3883355Y-217322D01*
X3889298Y-218795D01*
X3895445Y-220014D01*
X3908196Y-221640D01*
X3914800Y-222046D01*
X3927043Y-222097D01*
X3937711Y-221386D01*
X3948125Y-219964D01*
X3958234Y-217881D01*
X3968089Y-215087D01*
X3977589Y-211632D01*
X3986733Y-207568D01*
X3995572Y-202793D01*
X4004005Y-197408D01*
X4012082Y-191363D01*
X4019702Y-184708D01*
X4026915Y-177444D01*
X4033723Y-169621D01*
X4040022Y-161137D01*
X4045813Y-152146D01*
X4051147Y-142544D01*
X4055973Y-132384D01*
X4060240Y-121666D01*
X4063949Y-110388D01*
X4067098Y-98602D01*
X4069638Y-86309D01*
X4071569Y-73507D01*
X4072890Y-60147D01*
X4073550Y-46380D01*
X4073550Y-32258D01*
X4072890Y-18542D01*
X4071518Y-5283D01*
X4069587Y7467D01*
X4066997Y19710D01*
X4063796Y31495D01*
X4060037Y42722D01*
X4055668Y53390D01*
X4050792Y63550D01*
X4045356Y73202D01*
X4039463Y82245D01*
X4033012Y90678D01*
X4026154Y98602D01*
X4018787Y105867D01*
X4011015Y112572D01*
X4002786Y118618D01*
X3994200Y124053D01*
X3985209Y128828D01*
X3975862Y132994D01*
X3966159Y136499D01*
X3956151Y139293D01*
X3945788Y141427D01*
X3935171Y142849D01*
X3924249Y143560D01*
G37*
G36*
X2266289Y137363D02*
G01*
X2266289Y-215900D01*
X2303424Y-215900D01*
X2303322Y-50D01*
X2302408Y25603D01*
X2298649Y90576D01*
X2300579Y90576D01*
X2328570Y10464D01*
X2397556Y-179679D01*
X2425090Y-179679D01*
X2494584Y10464D01*
X2522575Y90576D01*
X2524506Y90576D01*
X2521000Y32308D01*
X2519934Y6146D01*
X2519680Y-5994D01*
X2519629Y-215900D01*
X2555849Y-215900D01*
X2555849Y137363D01*
X2506624Y137363D01*
X2434945Y-61925D01*
X2411577Y-130962D01*
X2409139Y-130962D01*
X2400706Y-105867D01*
X2384501Y-55676D01*
X2315514Y137363D01*
G37*
G36*
X3650843Y51460D02*
G01*
X3645560Y51358D01*
X3635146Y50444D01*
X3624884Y48615D01*
X3614877Y45872D01*
X3610000Y44196D01*
X3600500Y40132D01*
X3591407Y35255D01*
X3582720Y29464D01*
X3578555Y26314D01*
X3570630Y19304D01*
X3563315Y11480D01*
X3559860Y7315D01*
X3553409Y-1676D01*
X3550462Y-6451D01*
X3545128Y-16611D01*
X3540506Y-27533D01*
X3536746Y-39166D01*
X3535172Y-45262D01*
X3532733Y-58013D01*
X3531209Y-71475D01*
X3530701Y-85598D01*
X3571240Y-85598D01*
X3571392Y-77978D01*
X3571900Y-70561D01*
X3572764Y-63398D01*
X3573881Y-56438D01*
X3575354Y-49784D01*
X3577082Y-43332D01*
X3579164Y-37134D01*
X3581501Y-31242D01*
X3584092Y-25603D01*
X3586987Y-20269D01*
X3590086Y-15290D01*
X3593490Y-10566D01*
X3597148Y-6146D01*
X3601008Y-2082D01*
X3605123Y1625D01*
X3609441Y4978D01*
X3613962Y7975D01*
X3618687Y10617D01*
X3623614Y12903D01*
X3628694Y14782D01*
X3634028Y16256D01*
X3639464Y17322D01*
X3645103Y17932D01*
X3650843Y18186D01*
X3656634Y17932D01*
X3662273Y17322D01*
X3667709Y16256D01*
X3672992Y14782D01*
X3678072Y12903D01*
X3683000Y10617D01*
X3687673Y7975D01*
X3692194Y4978D01*
X3696462Y1625D01*
X3700576Y-2082D01*
X3704386Y-6146D01*
X3707993Y-10566D01*
X3711346Y-15290D01*
X3714445Y-20269D01*
X3717340Y-25603D01*
X3719880Y-31242D01*
X3722217Y-37134D01*
X3724249Y-43332D01*
X3725976Y-49784D01*
X3727399Y-56438D01*
X3728516Y-63398D01*
X3729329Y-70561D01*
X3729837Y-77978D01*
X3729990Y-85598D01*
X3729837Y-93268D01*
X3729329Y-100736D01*
X3728516Y-107950D01*
X3727399Y-114909D01*
X3725976Y-121615D01*
X3724249Y-128066D01*
X3722217Y-134264D01*
X3719880Y-140157D01*
X3717340Y-145796D01*
X3714445Y-151130D01*
X3711346Y-156108D01*
X3707993Y-160832D01*
X3704386Y-165201D01*
X3700576Y-169265D01*
X3696462Y-172923D01*
X3692194Y-176276D01*
X3687673Y-179273D01*
X3683000Y-181914D01*
X3678072Y-184150D01*
X3672992Y-185978D01*
X3667709Y-187452D01*
X3662273Y-188518D01*
X3656634Y-189128D01*
X3650843Y-189331D01*
X3645103Y-189128D01*
X3639464Y-188518D01*
X3634028Y-187452D01*
X3628694Y-185978D01*
X3623614Y-184150D01*
X3618687Y-181914D01*
X3613962Y-179273D01*
X3609441Y-176276D01*
X3605123Y-172923D01*
X3601008Y-169265D01*
X3597148Y-165201D01*
X3593490Y-160832D01*
X3590086Y-156108D01*
X3586987Y-151130D01*
X3584092Y-145796D01*
X3581501Y-140157D01*
X3579164Y-134264D01*
X3577082Y-128066D01*
X3575354Y-121615D01*
X3573881Y-114909D01*
X3572764Y-107950D01*
X3571900Y-100736D01*
X3571392Y-93268D01*
X3571240Y-85598D01*
X3530701Y-85598D01*
X3531209Y-99669D01*
X3532733Y-113030D01*
X3535172Y-125730D01*
X3538524Y-137668D01*
X3540506Y-143357D01*
X3545128Y-154228D01*
X3550462Y-164388D01*
X3556558Y-173736D01*
X3563315Y-182270D01*
X3570630Y-190093D01*
X3578555Y-197053D01*
X3586987Y-203200D01*
X3595928Y-208534D01*
X3605225Y-213004D01*
X3614877Y-216560D01*
X3624884Y-219303D01*
X3635146Y-221132D01*
X3645560Y-222046D01*
X3656177Y-222046D01*
X3666591Y-221132D01*
X3676853Y-219303D01*
X3686810Y-216560D01*
X3696462Y-213004D01*
X3705707Y-208534D01*
X3714597Y-203200D01*
X3722979Y-197053D01*
X3730853Y-190093D01*
X3734612Y-186283D01*
X3741623Y-178104D01*
X3744874Y-173736D01*
X3750919Y-164388D01*
X3756253Y-154228D01*
X3758641Y-148894D01*
X3762806Y-137668D01*
X3766108Y-125730D01*
X3768547Y-113030D01*
X3769410Y-106426D01*
X3770426Y-92710D01*
X3770579Y-85598D01*
X3770426Y-78435D01*
X3769410Y-64668D01*
X3768547Y-58013D01*
X3766108Y-45262D01*
X3762806Y-33274D01*
X3760825Y-27533D01*
X3756253Y-16611D01*
X3750919Y-6451D01*
X3744874Y2895D01*
X3741623Y7315D01*
X3734612Y15494D01*
X3726992Y22910D01*
X3722979Y26314D01*
X3714597Y32461D01*
X3710228Y35255D01*
X3701135Y40132D01*
X3691686Y44196D01*
X3681831Y47345D01*
X3676853Y48615D01*
X3666591Y50444D01*
X3656177Y51358D01*
G37*
G36*
X3066897Y51460D02*
G01*
X3060903Y51308D01*
X3055010Y50901D01*
X3049320Y50241D01*
X3043783Y49326D01*
X3038449Y48107D01*
X3033268Y46634D01*
X3023362Y42976D01*
X3018688Y40741D01*
X3014218Y38303D01*
X3009900Y35610D01*
X3001822Y29514D01*
X2994456Y22504D01*
X2987903Y14579D01*
X2984906Y10312D01*
X2979470Y1066D01*
X2974848Y-8940D01*
X2972816Y-14274D01*
X2969412Y-25501D01*
X2966872Y-37490D01*
X2965856Y-43789D01*
X2965094Y-50241D01*
X2964206Y-65328D01*
X2998876Y-65328D01*
X2999079Y-57200D01*
X2999638Y-49479D01*
X3000552Y-42113D01*
X3001822Y-35204D01*
X3003448Y-28651D01*
X3005429Y-22504D01*
X3007766Y-16764D01*
X3010408Y-11430D01*
X3013405Y-6553D01*
X3016758Y-2032D01*
X3020364Y2032D01*
X3024327Y5689D01*
X3028543Y8940D01*
X3033115Y11734D01*
X3037941Y14122D01*
X3043123Y16103D01*
X3048508Y17627D01*
X3054248Y18745D01*
X3060192Y19405D01*
X3066440Y19608D01*
X3072180Y19354D01*
X3077870Y18694D01*
X3083458Y17526D01*
X3088894Y15900D01*
X3094177Y13868D01*
X3099358Y11379D01*
X3104337Y8483D01*
X3109112Y5130D01*
X3113684Y1371D01*
X3118002Y-2794D01*
X3122117Y-7315D01*
X3125927Y-12293D01*
X3129483Y-17627D01*
X3132683Y-23368D01*
X3135579Y-29464D01*
X3138170Y-35915D01*
X3140354Y-42773D01*
X3142183Y-49936D01*
X3143605Y-57454D01*
X3144621Y-65328D01*
X2964206Y-65328D01*
X2964230Y-77114D01*
X2964535Y-83362D01*
X2965145Y-89154D01*
X2966059Y-94284D01*
X3144113Y-94284D01*
X3143656Y-101396D01*
X3142894Y-108356D01*
X3141726Y-115062D01*
X3140303Y-121564D01*
X3138576Y-127812D01*
X3136493Y-133807D01*
X3134156Y-139547D01*
X3131515Y-145034D01*
X3128568Y-150266D01*
X3125368Y-155244D01*
X3121863Y-159867D01*
X3118154Y-164287D01*
X3114141Y-168351D01*
X3109874Y-172110D01*
X3105353Y-175514D01*
X3100628Y-178663D01*
X3095650Y-181406D01*
X3090468Y-183845D01*
X3085033Y-185928D01*
X3079394Y-187655D01*
X3073552Y-189026D01*
X3067507Y-189992D01*
X3061258Y-190601D01*
X3054858Y-190804D01*
X3048558Y-190652D01*
X3042412Y-190144D01*
X3036468Y-189331D01*
X3030626Y-188214D01*
X3024987Y-186791D01*
X3019450Y-185064D01*
X3014065Y-183083D01*
X3003600Y-178409D01*
X2993593Y-172720D01*
X2988767Y-169570D01*
X2974238Y-195630D01*
X2982976Y-200914D01*
X2992069Y-205892D01*
X3001721Y-210413D01*
X3011881Y-214325D01*
X3022752Y-217576D01*
X3028391Y-218948D01*
X3040329Y-220979D01*
X3046526Y-221640D01*
X3053029Y-222046D01*
X3065373Y-222046D01*
X3076498Y-221132D01*
X3087370Y-219303D01*
X3097834Y-216560D01*
X3107893Y-212902D01*
X3117545Y-208432D01*
X3126689Y-203098D01*
X3135325Y-196900D01*
X3143351Y-189890D01*
X3150819Y-182118D01*
X3157575Y-173532D01*
X3163671Y-164134D01*
X3169005Y-154025D01*
X3171393Y-148691D01*
X3175558Y-137464D01*
X3178860Y-125526D01*
X3180181Y-119329D01*
X3182112Y-106324D01*
X3183128Y-92659D01*
X3183229Y-85598D01*
X3182721Y-71831D01*
X3181197Y-58674D01*
X3178759Y-46126D01*
X3177235Y-40081D01*
X3173476Y-28549D01*
X3171291Y-23012D01*
X3166364Y-12547D01*
X3163620Y-7518D01*
X3157677Y1879D01*
X3151022Y10566D01*
X3143859Y18440D01*
X3136138Y25552D01*
X3127908Y31851D01*
X3119323Y37338D01*
X3110331Y41910D01*
X3101035Y45669D01*
X3096310Y47193D01*
X3086658Y49530D01*
X3081782Y50393D01*
X3071876Y51358D01*
G37*
G36*
X2075688Y51460D02*
G01*
X2069033Y51308D01*
X2062683Y50800D01*
X2056638Y49987D01*
X2050846Y48920D01*
X2045360Y47498D01*
X2040128Y45770D01*
X2035200Y43789D01*
X2030526Y41503D01*
X2026107Y38912D01*
X2021941Y36068D01*
X2018030Y32969D01*
X2014372Y29616D01*
X2010968Y26009D01*
X2007819Y22148D01*
X2004872Y18034D01*
X2002180Y13716D01*
X1999742Y9144D01*
X1997557Y4368D01*
X1995576Y-609D01*
X1993798Y-5842D01*
X1992274Y-11226D01*
X1989836Y-22656D01*
X1988210Y-34798D01*
X1987448Y-47599D01*
X1987346Y-77876D01*
X2026412Y-77876D01*
X2045258Y-80314D01*
X2062327Y-83159D01*
X2077618Y-86309D01*
X2091232Y-89865D01*
X2097430Y-91744D01*
X2108708Y-95859D01*
X2118461Y-100330D01*
X2122779Y-102717D01*
X2130399Y-107797D01*
X2133650Y-110439D01*
X2136648Y-113233D01*
X2139289Y-116078D01*
X2141626Y-119075D01*
X2143658Y-122123D01*
X2145385Y-125272D01*
X2146808Y-128574D01*
X2147976Y-131927D01*
X2148890Y-135382D01*
X2149500Y-138938D01*
X2150008Y-146405D01*
X2149551Y-153873D01*
X2148230Y-160528D01*
X2146198Y-166522D01*
X2143353Y-171754D01*
X2139899Y-176276D01*
X2135784Y-180136D01*
X2131161Y-183337D01*
X2126030Y-185928D01*
X2120442Y-187858D01*
X2114499Y-189230D01*
X2108250Y-190042D01*
X2101697Y-190296D01*
X2095195Y-190042D01*
X2088794Y-189280D01*
X2082495Y-188010D01*
X2076297Y-186182D01*
X2070201Y-183896D01*
X2064054Y-181102D01*
X2057958Y-177800D01*
X2051862Y-174040D01*
X2045665Y-169773D01*
X2039366Y-164998D01*
X2032965Y-159816D01*
X2026412Y-154127D01*
X2026412Y-77876D01*
X1987346Y-77876D01*
X1987346Y-215900D01*
X2019655Y-215900D01*
X2023059Y-184048D01*
X2024481Y-184048D01*
X2034133Y-191770D01*
X2044192Y-198983D01*
X2054656Y-205435D01*
X2060041Y-208381D01*
X2065528Y-211074D01*
X2071116Y-213512D01*
X2076754Y-215696D01*
X2082495Y-217627D01*
X2088286Y-219202D01*
X2094179Y-220471D01*
X2100173Y-221386D01*
X2106218Y-221996D01*
X2112365Y-222148D01*
X2118715Y-221996D01*
X2124913Y-221386D01*
X2130907Y-220421D01*
X2136698Y-219100D01*
X2142286Y-217373D01*
X2147671Y-215290D01*
X2152751Y-212801D01*
X2157577Y-209956D01*
X2162098Y-206806D01*
X2166315Y-203250D01*
X2170226Y-199339D01*
X2173782Y-195072D01*
X2177034Y-190449D01*
X2179878Y-185521D01*
X2182317Y-180238D01*
X2184349Y-174599D01*
X2185974Y-168656D01*
X2187143Y-162356D01*
X2187854Y-155752D01*
X2188108Y-148793D01*
X2188006Y-144119D01*
X2187651Y-139598D01*
X2186228Y-130911D01*
X2185212Y-126746D01*
X2182368Y-118770D01*
X2178608Y-111302D01*
X2173833Y-104343D01*
X2171090Y-101041D01*
X2164842Y-94742D01*
X2157526Y-88849D01*
X2149246Y-83413D01*
X2139950Y-78384D01*
X2129536Y-73761D01*
X2118106Y-69545D01*
X2105609Y-65633D01*
X2091994Y-62128D01*
X2077313Y-58978D01*
X2061464Y-56083D01*
X2044547Y-53593D01*
X2026412Y-51358D01*
X2026666Y-40792D01*
X2027072Y-35610D01*
X2028596Y-25552D01*
X2029714Y-20675D01*
X2031136Y-16002D01*
X2032863Y-11480D01*
X2034844Y-7213D01*
X2037181Y-3149D01*
X2039823Y660D01*
X2042871Y4165D01*
X2046274Y7366D01*
X2050084Y10210D01*
X2054250Y12649D01*
X2058873Y14732D01*
X2063953Y16408D01*
X2069439Y17627D01*
X2075434Y18389D01*
X2081936Y18643D01*
X2089708Y18338D01*
X2097328Y17475D01*
X2104745Y16103D01*
X2112010Y14224D01*
X2119020Y11988D01*
X2125827Y9398D01*
X2132431Y6553D01*
X2144776Y101D01*
X2155952Y-6807D01*
X2161082Y-10312D01*
X2176983Y17221D01*
X2167839Y22961D01*
X2157526Y28854D01*
X2146046Y34594D01*
X2139950Y37338D01*
X2126996Y42367D01*
X2113229Y46532D01*
X2106015Y48209D01*
X2098649Y49580D01*
X2091131Y50596D01*
X2083460Y51257D01*
G37*
G36*
X1797710Y51460D02*
G01*
X1789328Y51155D01*
X1781403Y50292D01*
X1773885Y48920D01*
X1766773Y47091D01*
X1760016Y44805D01*
X1753565Y42113D01*
X1747520Y39065D01*
X1741728Y35712D01*
X1736242Y32105D01*
X1731060Y28295D01*
X1721459Y20116D01*
X1742186Y-5486D01*
X1748028Y-457D01*
X1754073Y4114D01*
X1760372Y8128D01*
X1766874Y11582D01*
X1773682Y14376D01*
X1780793Y16459D01*
X1788312Y17729D01*
X1796237Y18186D01*
X1801418Y17983D01*
X1806498Y17526D01*
X1811426Y16764D01*
X1816303Y15646D01*
X1821027Y14274D01*
X1825599Y12598D01*
X1830070Y10617D01*
X1834388Y8382D01*
X1838553Y5892D01*
X1842566Y3098D01*
X1846427Y50D01*
X1850136Y-3251D01*
X1853641Y-6756D01*
X1856993Y-10566D01*
X1860143Y-14579D01*
X1863089Y-18846D01*
X1868424Y-27990D01*
X1870760Y-32918D01*
X1874774Y-43332D01*
X1877822Y-54508D01*
X1879041Y-60401D01*
X1879955Y-66446D01*
X1880616Y-72694D01*
X1881022Y-79044D01*
X1881174Y-85598D01*
X1880666Y-98602D01*
X1880057Y-104851D01*
X1878025Y-116839D01*
X1876704Y-122580D01*
X1875129Y-128066D01*
X1873300Y-133400D01*
X1871268Y-138531D01*
X1869033Y-143408D01*
X1866595Y-148082D01*
X1861057Y-156819D01*
X1858010Y-160832D01*
X1854758Y-164592D01*
X1847697Y-171399D01*
X1839925Y-177190D01*
X1835810Y-179679D01*
X1831492Y-181914D01*
X1827022Y-183845D01*
X1822399Y-185521D01*
X1817674Y-186893D01*
X1812747Y-187960D01*
X1807718Y-188722D01*
X1802536Y-189179D01*
X1797202Y-189331D01*
X1791106Y-189128D01*
X1785112Y-188417D01*
X1779270Y-187248D01*
X1773529Y-185674D01*
X1767941Y-183794D01*
X1762506Y-181508D01*
X1757273Y-178968D01*
X1752193Y-176123D01*
X1747316Y-173075D01*
X1742643Y-169824D01*
X1733956Y-162814D01*
X1716633Y-188874D01*
X1721002Y-192684D01*
X1730248Y-199644D01*
X1735023Y-202844D01*
X1744980Y-208534D01*
X1755343Y-213309D01*
X1760677Y-215341D01*
X1766112Y-217119D01*
X1771650Y-218643D01*
X1777288Y-219913D01*
X1782978Y-220878D01*
X1788769Y-221589D01*
X1794662Y-222046D01*
X1806244Y-222046D01*
X1817370Y-221132D01*
X1828139Y-219303D01*
X1838502Y-216560D01*
X1848408Y-213004D01*
X1857908Y-208534D01*
X1866849Y-203200D01*
X1875282Y-197053D01*
X1883156Y-190093D01*
X1886864Y-186283D01*
X1893773Y-178104D01*
X1896973Y-173736D01*
X1902866Y-164388D01*
X1905558Y-159410D01*
X1910334Y-148894D01*
X1914347Y-137668D01*
X1917496Y-125730D01*
X1919833Y-113030D01*
X1921256Y-99669D01*
X1921611Y-92710D01*
X1921560Y-78435D01*
X1921205Y-71475D01*
X1920544Y-64668D01*
X1918512Y-51562D01*
X1917141Y-45262D01*
X1913686Y-33274D01*
X1911654Y-27533D01*
X1906930Y-16611D01*
X1901393Y-6451D01*
X1895144Y2895D01*
X1891741Y7315D01*
X1884476Y15494D01*
X1876602Y22910D01*
X1872437Y26314D01*
X1863750Y32461D01*
X1859229Y35255D01*
X1849831Y40132D01*
X1840026Y44196D01*
X1829816Y47345D01*
X1824634Y48615D01*
X1814017Y50444D01*
X1803196Y51358D01*
G37*
G36*
X1546250Y51460D02*
G01*
X1538478Y51155D01*
X1531569Y50190D01*
X1525168Y48412D01*
X1518767Y45669D01*
X1526489Y11430D01*
X1532534Y13309D01*
X1538224Y14681D01*
X1544167Y15494D01*
X1551076Y15747D01*
X1555292Y15544D01*
X1559610Y14935D01*
X1563979Y13919D01*
X1568399Y12496D01*
X1572869Y10566D01*
X1577340Y8178D01*
X1581810Y5283D01*
X1586230Y1879D01*
X1590649Y-2082D01*
X1594916Y-6553D01*
X1599133Y-11582D01*
X1603248Y-17221D01*
X1607261Y-23469D01*
X1611071Y-30327D01*
X1614728Y-37846D01*
X1618132Y-46024D01*
X1618132Y-215900D01*
X1657248Y-215900D01*
X1657248Y44704D01*
X1625396Y44704D01*
X1621536Y-3098D01*
X1620062Y-3098D01*
X1616659Y2946D01*
X1613001Y8686D01*
X1605178Y19304D01*
X1600962Y24130D01*
X1596644Y28600D01*
X1592173Y32715D01*
X1587500Y36474D01*
X1582724Y39878D01*
X1577848Y42875D01*
X1572818Y45415D01*
X1567688Y47548D01*
X1562455Y49225D01*
X1557121Y50444D01*
X1551736Y51206D01*
G37*
G36*
X1380236Y51460D02*
G01*
X1369669Y51003D01*
X1364488Y50444D01*
X1354226Y48615D01*
X1344269Y45872D01*
X1339392Y44196D01*
X1329893Y40132D01*
X1320749Y35255D01*
X1312113Y29464D01*
X1307947Y26314D01*
X1300022Y19304D01*
X1292656Y11480D01*
X1289202Y7315D01*
X1282801Y-1676D01*
X1279855Y-6451D01*
X1274470Y-16611D01*
X1269898Y-27533D01*
X1266088Y-39166D01*
X1263192Y-51562D01*
X1262075Y-58013D01*
X1261211Y-64668D01*
X1260195Y-78435D01*
X1260043Y-85598D01*
X1300581Y-85598D01*
X1300784Y-77978D01*
X1301292Y-70561D01*
X1302105Y-63398D01*
X1303274Y-56438D01*
X1304696Y-49784D01*
X1306474Y-43332D01*
X1308506Y-37134D01*
X1310843Y-31242D01*
X1313434Y-25603D01*
X1316329Y-20269D01*
X1319479Y-15290D01*
X1322882Y-10566D01*
X1326489Y-6146D01*
X1330350Y-2082D01*
X1334465Y1625D01*
X1338783Y4978D01*
X1343304Y7975D01*
X1348028Y10617D01*
X1352956Y12903D01*
X1358087Y14782D01*
X1363370Y16256D01*
X1368856Y17322D01*
X1374444Y17932D01*
X1380236Y18186D01*
X1386027Y17932D01*
X1391615Y17322D01*
X1397101Y16256D01*
X1402334Y14782D01*
X1407464Y12903D01*
X1412341Y10617D01*
X1417066Y7975D01*
X1421536Y4978D01*
X1425854Y1625D01*
X1429918Y-2082D01*
X1433779Y-6146D01*
X1437386Y-10566D01*
X1440738Y-15290D01*
X1443837Y-20269D01*
X1446682Y-25603D01*
X1449273Y-31242D01*
X1451559Y-37134D01*
X1453591Y-43332D01*
X1455318Y-49784D01*
X1456791Y-56438D01*
X1457909Y-63398D01*
X1458722Y-70561D01*
X1459230Y-77978D01*
X1459382Y-85598D01*
X1459230Y-93268D01*
X1458722Y-100736D01*
X1457909Y-107950D01*
X1456791Y-114909D01*
X1455318Y-121615D01*
X1453591Y-128066D01*
X1451559Y-134264D01*
X1449273Y-140157D01*
X1446682Y-145796D01*
X1443837Y-151130D01*
X1440738Y-156108D01*
X1437386Y-160832D01*
X1433779Y-165201D01*
X1429918Y-169265D01*
X1425854Y-172923D01*
X1421536Y-176276D01*
X1417066Y-179273D01*
X1412341Y-181914D01*
X1407464Y-184150D01*
X1402334Y-185978D01*
X1397101Y-187452D01*
X1391615Y-188518D01*
X1386027Y-189128D01*
X1380236Y-189331D01*
X1374444Y-189128D01*
X1368856Y-188518D01*
X1363370Y-187452D01*
X1358087Y-185978D01*
X1352956Y-184150D01*
X1348028Y-181914D01*
X1343304Y-179273D01*
X1338783Y-176276D01*
X1334465Y-172923D01*
X1330350Y-169265D01*
X1326489Y-165201D01*
X1322882Y-160832D01*
X1319479Y-156108D01*
X1316329Y-151130D01*
X1313434Y-145796D01*
X1310843Y-140157D01*
X1308506Y-134264D01*
X1306474Y-128066D01*
X1304696Y-121615D01*
X1303274Y-114909D01*
X1302105Y-107950D01*
X1301292Y-100736D01*
X1300784Y-93268D01*
X1300581Y-85598D01*
X1260043Y-85598D01*
X1260195Y-92710D01*
X1261211Y-106426D01*
X1262075Y-113030D01*
X1263192Y-119481D01*
X1266088Y-131775D01*
X1269898Y-143357D01*
X1272082Y-148894D01*
X1277061Y-159410D01*
X1279855Y-164388D01*
X1285900Y-173736D01*
X1292656Y-182270D01*
X1300022Y-190093D01*
X1307947Y-197053D01*
X1316380Y-203200D01*
X1325270Y-208534D01*
X1334566Y-213004D01*
X1344269Y-216560D01*
X1354226Y-219303D01*
X1364488Y-221132D01*
X1374952Y-222046D01*
X1385519Y-222046D01*
X1395984Y-221132D01*
X1406194Y-219303D01*
X1416151Y-216560D01*
X1425803Y-213004D01*
X1435100Y-208534D01*
X1443939Y-203200D01*
X1452372Y-197053D01*
X1460246Y-190093D01*
X1467561Y-182270D01*
X1474266Y-173736D01*
X1480312Y-164388D01*
X1483055Y-159410D01*
X1487982Y-148894D01*
X1492148Y-137668D01*
X1495501Y-125730D01*
X1496822Y-119481D01*
X1498803Y-106426D01*
X1499412Y-99669D01*
X1499920Y-85598D01*
X1499412Y-71475D01*
X1498803Y-64668D01*
X1496822Y-51562D01*
X1495501Y-45262D01*
X1492148Y-33274D01*
X1490167Y-27533D01*
X1485595Y-16611D01*
X1480312Y-6451D01*
X1474266Y2895D01*
X1467561Y11480D01*
X1460246Y19304D01*
X1452372Y26314D01*
X1443939Y32461D01*
X1439570Y35255D01*
X1430477Y40132D01*
X1421028Y44196D01*
X1411224Y47345D01*
X1406194Y48615D01*
X1395984Y50444D01*
X1385519Y51358D01*
G37*
G36*
X2726690Y44704D02*
G01*
X2805836Y-83667D01*
X2719933Y-215900D01*
X2762859Y-215900D01*
X2802940Y-152654D01*
X2817012Y-128828D01*
X2831388Y-105359D01*
X2833827Y-105359D01*
X2847746Y-128828D01*
X2861310Y-152654D01*
X2898495Y-215900D01*
X2939999Y-215900D01*
X2853588Y-79806D01*
X2933242Y44704D01*
X2890774Y44704D01*
X2854096Y-14681D01*
X2847797Y-25501D01*
X2827528Y-58064D01*
X2825597Y-58064D01*
X2804566Y-20066D01*
X2767228Y44704D01*
G37*
G36*
X2188565Y-7972450D02*
G01*
X2188565Y-8292388D01*
X2227681Y-8292388D01*
X2227681Y-8151520D01*
X2233523Y-8146542D01*
X2239213Y-8142122D01*
X2244852Y-8138210D01*
X2250389Y-8134756D01*
X2255875Y-8131759D01*
X2261311Y-8129219D01*
X2266746Y-8127136D01*
X2272182Y-8125459D01*
X2277618Y-8124139D01*
X2283104Y-8123224D01*
X2288641Y-8122716D01*
X2294229Y-8122513D01*
X2299766Y-8122767D01*
X2305151Y-8123428D01*
X2310384Y-8124494D01*
X2315514Y-8126018D01*
X2320442Y-8127898D01*
X2325268Y-8130184D01*
X2329942Y-8132876D01*
X2334361Y-8135924D01*
X2338679Y-8139328D01*
X2342743Y-8143087D01*
X2346604Y-8147202D01*
X2350211Y-8151622D01*
X2353665Y-8156346D01*
X2356815Y-8161426D01*
X2359710Y-8166760D01*
X2362403Y-8172348D01*
X2364790Y-8178292D01*
X2366873Y-8184438D01*
X2368651Y-8190839D01*
X2370175Y-8197494D01*
X2371344Y-8204403D01*
X2372207Y-8211464D01*
X2372766Y-8218779D01*
X2372918Y-8226298D01*
X2372766Y-8234172D01*
X2372360Y-8241792D01*
X2371648Y-8249158D01*
X2370683Y-8256219D01*
X2369464Y-8263026D01*
X2367940Y-8269528D01*
X2366162Y-8275726D01*
X2364130Y-8281619D01*
X2361844Y-8287207D01*
X2359304Y-8292439D01*
X2356510Y-8297367D01*
X2353411Y-8301990D01*
X2350109Y-8306308D01*
X2346553Y-8310219D01*
X2342794Y-8313826D01*
X2338730Y-8317077D01*
X2334463Y-8319922D01*
X2329942Y-8322462D01*
X2325217Y-8324596D01*
X2320239Y-8326374D01*
X2315057Y-8327745D01*
X2309622Y-8328761D01*
X2303983Y-8329371D01*
X2298090Y-8329574D01*
X2291892Y-8329320D01*
X2285796Y-8328507D01*
X2279802Y-8327237D01*
X2273858Y-8325408D01*
X2267966Y-8323072D01*
X2262174Y-8320227D01*
X2256383Y-8316874D01*
X2250643Y-8312962D01*
X2244902Y-8308594D01*
X2239162Y-8303717D01*
X2233422Y-8298332D01*
X2227681Y-8292388D01*
X2188565Y-8292388D01*
X2188565Y-8356600D01*
X2220874Y-8356600D01*
X2224278Y-8325205D01*
X2225751Y-8325205D01*
X2233828Y-8332825D01*
X2242616Y-8339886D01*
X2251964Y-8346236D01*
X2256840Y-8349183D01*
X2267000Y-8354263D01*
X2272284Y-8356447D01*
X2277668Y-8358327D01*
X2283206Y-8359902D01*
X2288844Y-8361172D01*
X2294585Y-8362086D01*
X2300376Y-8362696D01*
X2311755Y-8362746D01*
X2317038Y-8362442D01*
X2327300Y-8361070D01*
X2337104Y-8358835D01*
X2346350Y-8355685D01*
X2355138Y-8351723D01*
X2363368Y-8346897D01*
X2367330Y-8344153D01*
X2374696Y-8338058D01*
X2381554Y-8331098D01*
X2387803Y-8323376D01*
X2393391Y-8314842D01*
X2395982Y-8310270D01*
X2400604Y-8300516D01*
X2404618Y-8290052D01*
X2407920Y-8278774D01*
X2410510Y-8266734D01*
X2411577Y-8260435D01*
X2413050Y-8247329D01*
X2413863Y-8233511D01*
X2413965Y-8226298D01*
X2413457Y-8212581D01*
X2412034Y-8199475D01*
X2409698Y-8186978D01*
X2408224Y-8180984D01*
X2404618Y-8169452D01*
X2400300Y-8158632D01*
X2395220Y-8148472D01*
X2389479Y-8139023D01*
X2383078Y-8130336D01*
X2376119Y-8122412D01*
X2368651Y-8115300D01*
X2364740Y-8111998D01*
X2356510Y-8106105D01*
X2352294Y-8103463D01*
X2343505Y-8098840D01*
X2334361Y-8095081D01*
X2324963Y-8092236D01*
X2320188Y-8091170D01*
X2310434Y-8089747D01*
X2305507Y-8089341D01*
X2300528Y-8089239D01*
X2293010Y-8089493D01*
X2285898Y-8090204D01*
X2279142Y-8091373D01*
X2272639Y-8092948D01*
X2266442Y-8094980D01*
X2260396Y-8097469D01*
X2254554Y-8100314D01*
X2248763Y-8103514D01*
X2243023Y-8107172D01*
X2237333Y-8111134D01*
X2225751Y-8120125D01*
X2227681Y-8074761D01*
X2227681Y-7972450D01*
G37*
G36*
X1894636Y-7985963D02*
G01*
X1889048Y-7986471D01*
X1883918Y-7987893D01*
X1879346Y-7990179D01*
X1875383Y-7993278D01*
X1872132Y-7997088D01*
X1869693Y-8001660D01*
X1868170Y-8006791D01*
X1867662Y-8012480D01*
X1868170Y-8018525D01*
X1869693Y-8023910D01*
X1872132Y-8028635D01*
X1875332Y-8032597D01*
X1879346Y-8035747D01*
X1883918Y-8038084D01*
X1889048Y-8039506D01*
X1894636Y-8040014D01*
X1900580Y-8039506D01*
X1905863Y-8038084D01*
X1910588Y-8035747D01*
X1914550Y-8032597D01*
X1917801Y-8028635D01*
X1920189Y-8023910D01*
X1921662Y-8018525D01*
X1922170Y-8012480D01*
X1921662Y-8006791D01*
X1920189Y-8001660D01*
X1917801Y-7997088D01*
X1914550Y-7993278D01*
X1910588Y-7990179D01*
X1905863Y-7987893D01*
X1900580Y-7986471D01*
G37*
G36*
X2845866Y-7997037D02*
G01*
X2839567Y-7997190D01*
X2833319Y-7997596D01*
X2821178Y-7999120D01*
X2815285Y-8000238D01*
X2803804Y-8003184D01*
X2798267Y-8004962D01*
X2787599Y-8009178D01*
X2777439Y-8014157D01*
X2767888Y-8019846D01*
X2763316Y-8022894D01*
X2754731Y-8029549D01*
X2746806Y-8036712D01*
X2743047Y-8040471D01*
X2764332Y-8066074D01*
X2772664Y-8058658D01*
X2781452Y-8052053D01*
X2790748Y-8046262D01*
X2800553Y-8041386D01*
X2810916Y-8037525D01*
X2816352Y-8035950D01*
X2821940Y-8034629D01*
X2827680Y-8033613D01*
X2833573Y-8032902D01*
X2839618Y-8032445D01*
X2845866Y-8032292D01*
X2853385Y-8032546D01*
X2860598Y-8033258D01*
X2867406Y-8034426D01*
X2873857Y-8036052D01*
X2879953Y-8038134D01*
X2885592Y-8040624D01*
X2890774Y-8043519D01*
X2895498Y-8046821D01*
X2899765Y-8050530D01*
X2903524Y-8054594D01*
X2906776Y-8059064D01*
X2909468Y-8063839D01*
X2911602Y-8068970D01*
X2913126Y-8074456D01*
X2914091Y-8080248D01*
X2914396Y-8086344D01*
X2914040Y-8092846D01*
X2912973Y-8098891D01*
X2911297Y-8104428D01*
X2909011Y-8109559D01*
X2906166Y-8114284D01*
X2902915Y-8118602D01*
X2899156Y-8122564D01*
X2895092Y-8126222D01*
X2890672Y-8129574D01*
X2886049Y-8132673D01*
X2876143Y-8138261D01*
X2865831Y-8143138D01*
X2804363Y-8169351D01*
X2792476Y-8174939D01*
X2781147Y-8180984D01*
X2770632Y-8187690D01*
X2765704Y-8191347D01*
X2761030Y-8195208D01*
X2756611Y-8199272D01*
X2752496Y-8203641D01*
X2748635Y-8208213D01*
X2745130Y-8213039D01*
X2741980Y-8218220D01*
X2739186Y-8223707D01*
X2736748Y-8229498D01*
X2734767Y-8235594D01*
X2733141Y-8242096D01*
X2731973Y-8249005D01*
X2731262Y-8256270D01*
X2731008Y-8263940D01*
X2731516Y-8274202D01*
X2732176Y-8279180D01*
X2734310Y-8288934D01*
X2735732Y-8293658D01*
X2739288Y-8302802D01*
X2743860Y-8311489D01*
X2749346Y-8319617D01*
X2755747Y-8327237D01*
X2763062Y-8334197D01*
X2767025Y-8337499D01*
X2775559Y-8343493D01*
X2784906Y-8348725D01*
X2789885Y-8351113D01*
X2800451Y-8355228D01*
X2811729Y-8358479D01*
X2823718Y-8360918D01*
X2836367Y-8362391D01*
X2842971Y-8362746D01*
X2855976Y-8362746D01*
X2868168Y-8361934D01*
X2880004Y-8360308D01*
X2891485Y-8357920D01*
X2902559Y-8354771D01*
X2913227Y-8350910D01*
X2923540Y-8346338D01*
X2933395Y-8341106D01*
X2942844Y-8335264D01*
X2951835Y-8328812D01*
X2960370Y-8321802D01*
X2968447Y-8314232D01*
X2972308Y-8310270D01*
X2948178Y-8282736D01*
X2940202Y-8290712D01*
X2931668Y-8297976D01*
X2922625Y-8304580D01*
X2917952Y-8307628D01*
X2908249Y-8313064D01*
X2898140Y-8317738D01*
X2892958Y-8319770D01*
X2882392Y-8323173D01*
X2871520Y-8325612D01*
X2860446Y-8327136D01*
X2849270Y-8327644D01*
X2842158Y-8327440D01*
X2835351Y-8326932D01*
X2828848Y-8326018D01*
X2822651Y-8324799D01*
X2816758Y-8323224D01*
X2811170Y-8321344D01*
X2805938Y-8319160D01*
X2801061Y-8316671D01*
X2796489Y-8313877D01*
X2792323Y-8310829D01*
X2788462Y-8307476D01*
X2785008Y-8303869D01*
X2781909Y-8300008D01*
X2779217Y-8295944D01*
X2776880Y-8291626D01*
X2775000Y-8287054D01*
X2773476Y-8282279D01*
X2772410Y-8277352D01*
X2771749Y-8272170D01*
X2771546Y-8266836D01*
X2771851Y-8259978D01*
X2772765Y-8253679D01*
X2774238Y-8247938D01*
X2776220Y-8242655D01*
X2778709Y-8237829D01*
X2781706Y-8233409D01*
X2785160Y-8229346D01*
X2789021Y-8225586D01*
X2793288Y-8222081D01*
X2797962Y-8218830D01*
X2802890Y-8215731D01*
X2813761Y-8209991D01*
X2825648Y-8204453D01*
X2893009Y-8174481D01*
X2903118Y-8169249D01*
X2913024Y-8163204D01*
X2917850Y-8159851D01*
X2922524Y-8156244D01*
X2926994Y-8152384D01*
X2931261Y-8148218D01*
X2935325Y-8143798D01*
X2939084Y-8139125D01*
X2942488Y-8134096D01*
X2945587Y-8128762D01*
X2948330Y-8123072D01*
X2950616Y-8117078D01*
X2952445Y-8110677D01*
X2953816Y-8103920D01*
X2954629Y-8096758D01*
X2954934Y-8089239D01*
X2954782Y-8083550D01*
X2954223Y-8078012D01*
X2953359Y-8072577D01*
X2952191Y-8067243D01*
X2950667Y-8062112D01*
X2948838Y-8057083D01*
X2946704Y-8052257D01*
X2944266Y-8047532D01*
X2941574Y-8043011D01*
X2938576Y-8038642D01*
X2931769Y-8030464D01*
X2927959Y-8026653D01*
X2923946Y-8023047D01*
X2919628Y-8019643D01*
X2915158Y-8016494D01*
X2910382Y-8013496D01*
X2905455Y-8010753D01*
X2894939Y-8005978D01*
X2889351Y-8003946D01*
X2883662Y-8002168D01*
X2877718Y-8000644D01*
X2871673Y-7999374D01*
X2865424Y-7998358D01*
X2859024Y-7997647D01*
X2852521Y-7997190D01*
G37*
G36*
X3506063Y-8003336D02*
G01*
X3491026Y-8003743D01*
X3483762Y-8004200D01*
X3469894Y-8005825D01*
X3463290Y-8006892D01*
X3450691Y-8009737D01*
X3444748Y-8011464D01*
X3439058Y-8013446D01*
X3433572Y-8015630D01*
X3428390Y-8018018D01*
X3423462Y-8020659D01*
X3418789Y-8023555D01*
X3414369Y-8026653D01*
X3410254Y-8030006D01*
X3406444Y-8033562D01*
X3402888Y-8037423D01*
X3399688Y-8041487D01*
X3396742Y-8045805D01*
X3394151Y-8050377D01*
X3391865Y-8055203D01*
X3389934Y-8060283D01*
X3388309Y-8065617D01*
X3387039Y-8071256D01*
X3386175Y-8077149D01*
X3385616Y-8083296D01*
X3385413Y-8089696D01*
X3385563Y-8094522D01*
X3424986Y-8094522D01*
X3425190Y-8088223D01*
X3425850Y-8082330D01*
X3426968Y-8076844D01*
X3428492Y-8071713D01*
X3430473Y-8066938D01*
X3432911Y-8062569D01*
X3435756Y-8058556D01*
X3439007Y-8054898D01*
X3442715Y-8051546D01*
X3446881Y-8048599D01*
X3451453Y-8045907D01*
X3456482Y-8043570D01*
X3461918Y-8041538D01*
X3467760Y-8039811D01*
X3474059Y-8038338D01*
X3480765Y-8037169D01*
X3487928Y-8036306D01*
X3503472Y-8035290D01*
X3568293Y-8035188D01*
X3568293Y-8154873D01*
X3514242Y-8154873D01*
X3504996Y-8154720D01*
X3496310Y-8154212D01*
X3488131Y-8153349D01*
X3480511Y-8152180D01*
X3473450Y-8150656D01*
X3466896Y-8148878D01*
X3460851Y-8146745D01*
X3455314Y-8144357D01*
X3450285Y-8141614D01*
X3445713Y-8138668D01*
X3441649Y-8135366D01*
X3438042Y-8131860D01*
X3434943Y-8128050D01*
X3432251Y-8123986D01*
X3429965Y-8119668D01*
X3428136Y-8115096D01*
X3426764Y-8110270D01*
X3425748Y-8105292D01*
X3425190Y-8100009D01*
X3424986Y-8094522D01*
X3385563Y-8094522D01*
X3386277Y-8102701D01*
X3387394Y-8108950D01*
X3388868Y-8114995D01*
X3390798Y-8120888D01*
X3393135Y-8126577D01*
X3395878Y-8131962D01*
X3399028Y-8137144D01*
X3402584Y-8142020D01*
X3406546Y-8146592D01*
X3410864Y-8150859D01*
X3415537Y-8154720D01*
X3420618Y-8158276D01*
X3426053Y-8161426D01*
X3431844Y-8164169D01*
X3437991Y-8166455D01*
X3437991Y-8168386D01*
X3431590Y-8169757D01*
X3425393Y-8171434D01*
X3419449Y-8173466D01*
X3413709Y-8175752D01*
X3408222Y-8178342D01*
X3403041Y-8181238D01*
X3398062Y-8184438D01*
X3393440Y-8187944D01*
X3389071Y-8191753D01*
X3385058Y-8195818D01*
X3381349Y-8200237D01*
X3377996Y-8204962D01*
X3374948Y-8209940D01*
X3372307Y-8215223D01*
X3370021Y-8220862D01*
X3368141Y-8226755D01*
X3366617Y-8232952D01*
X3365550Y-8239455D01*
X3364890Y-8246211D01*
X3364689Y-8251850D01*
X3403752Y-8251850D01*
X3403955Y-8246313D01*
X3404514Y-8241030D01*
X3405428Y-8236000D01*
X3406749Y-8231225D01*
X3408426Y-8226704D01*
X3410508Y-8222386D01*
X3412896Y-8218373D01*
X3415639Y-8214563D01*
X3418738Y-8211007D01*
X3422192Y-8207705D01*
X3426002Y-8204657D01*
X3430117Y-8201812D01*
X3434587Y-8199221D01*
X3439363Y-8196834D01*
X3444494Y-8194700D01*
X3449929Y-8192820D01*
X3455720Y-8191144D01*
X3461765Y-8189722D01*
X3474872Y-8187486D01*
X3481832Y-8186724D01*
X3496716Y-8185861D01*
X3568293Y-8185759D01*
X3568293Y-8324748D01*
X3496919Y-8324646D01*
X3489451Y-8324291D01*
X3482289Y-8323681D01*
X3468725Y-8321751D01*
X3462375Y-8320430D01*
X3456330Y-8318855D01*
X3450590Y-8317026D01*
X3445154Y-8314944D01*
X3439972Y-8312607D01*
X3435146Y-8309965D01*
X3430676Y-8307120D01*
X3426460Y-8304022D01*
X3422650Y-8300618D01*
X3419144Y-8297011D01*
X3415944Y-8293100D01*
X3413150Y-8288883D01*
X3410712Y-8284413D01*
X3408578Y-8279688D01*
X3406851Y-8274710D01*
X3405530Y-8269427D01*
X3404514Y-8263839D01*
X3403955Y-8257997D01*
X3403752Y-8251850D01*
X3364689Y-8251850D01*
X3364839Y-8259673D01*
X3365296Y-8265871D01*
X3366058Y-8271814D01*
X3367176Y-8277555D01*
X3368548Y-8283143D01*
X3370224Y-8288477D01*
X3372154Y-8293608D01*
X3374440Y-8298586D01*
X3376929Y-8303310D01*
X3379724Y-8307831D01*
X3382772Y-8312200D01*
X3386074Y-8316315D01*
X3389680Y-8320278D01*
X3393490Y-8323986D01*
X3397504Y-8327491D01*
X3401822Y-8330844D01*
X3406343Y-8333943D01*
X3411118Y-8336889D01*
X3421278Y-8342122D01*
X3426663Y-8344458D01*
X3438093Y-8348472D01*
X3450234Y-8351672D01*
X3463137Y-8354110D01*
X3476751Y-8355685D01*
X3490976Y-8356498D01*
X3608374Y-8356600D01*
X3608374Y-8003336D01*
G37*
G36*
X1738274Y-8022183D02*
G01*
X1738274Y-8095996D01*
X1666392Y-8095996D01*
X1666392Y-8128304D01*
X1738274Y-8128304D01*
X1738274Y-8279384D01*
X1738071Y-8287105D01*
X1737461Y-8294217D01*
X1736293Y-8300821D01*
X1734616Y-8306816D01*
X1732381Y-8312150D01*
X1729536Y-8316925D01*
X1726031Y-8320989D01*
X1721866Y-8324342D01*
X1716938Y-8327034D01*
X1711198Y-8328964D01*
X1704695Y-8330133D01*
X1697278Y-8330539D01*
X1689658Y-8329930D01*
X1681734Y-8328355D01*
X1673910Y-8326069D01*
X1666900Y-8323275D01*
X1659128Y-8353247D01*
X1670456Y-8356752D01*
X1682292Y-8359851D01*
X1694180Y-8362035D01*
X1699920Y-8362645D01*
X1705457Y-8362848D01*
X1712112Y-8362696D01*
X1718360Y-8362188D01*
X1724253Y-8361324D01*
X1729739Y-8360105D01*
X1734921Y-8358581D01*
X1739747Y-8356752D01*
X1744218Y-8354568D01*
X1748383Y-8352129D01*
X1752193Y-8349335D01*
X1755749Y-8346338D01*
X1758950Y-8342985D01*
X1761896Y-8339429D01*
X1764538Y-8335568D01*
X1766925Y-8331453D01*
X1769008Y-8327085D01*
X1770888Y-8322462D01*
X1773834Y-8312607D01*
X1775866Y-8301837D01*
X1777034Y-8290255D01*
X1777390Y-8277910D01*
X1777390Y-8128304D01*
X1816963Y-8128304D01*
X1816963Y-8098434D01*
X1775917Y-8095996D01*
X1771091Y-8022183D01*
G37*
G36*
X2568397Y-8089239D02*
G01*
X2561742Y-8089392D01*
X2555392Y-8089900D01*
X2549347Y-8090712D01*
X2543556Y-8091779D01*
X2538069Y-8093202D01*
X2532837Y-8094929D01*
X2527909Y-8096910D01*
X2523236Y-8099196D01*
X2518816Y-8101787D01*
X2514650Y-8104631D01*
X2510739Y-8107730D01*
X2507081Y-8111083D01*
X2503678Y-8114690D01*
X2500528Y-8118551D01*
X2497582Y-8122666D01*
X2494889Y-8126984D01*
X2492451Y-8131556D01*
X2490266Y-8136331D01*
X2488285Y-8141309D01*
X2486507Y-8146542D01*
X2484983Y-8151926D01*
X2482545Y-8163356D01*
X2480919Y-8175498D01*
X2480157Y-8188299D01*
X2480056Y-8218576D01*
X2519172Y-8218576D01*
X2537968Y-8221014D01*
X2555036Y-8223859D01*
X2570327Y-8227009D01*
X2583942Y-8230565D01*
X2590139Y-8232444D01*
X2601417Y-8236559D01*
X2611170Y-8241030D01*
X2615488Y-8243417D01*
X2623108Y-8248497D01*
X2626360Y-8251139D01*
X2629357Y-8253933D01*
X2631998Y-8256778D01*
X2634335Y-8259775D01*
X2636367Y-8262823D01*
X2638094Y-8265972D01*
X2639517Y-8269274D01*
X2640685Y-8272627D01*
X2641600Y-8276081D01*
X2642209Y-8279638D01*
X2642565Y-8283346D01*
X2642666Y-8287105D01*
X2642260Y-8294573D01*
X2640939Y-8301228D01*
X2638907Y-8307222D01*
X2636062Y-8312454D01*
X2632608Y-8316975D01*
X2628493Y-8320836D01*
X2623870Y-8324037D01*
X2618740Y-8326628D01*
X2613152Y-8328558D01*
X2607208Y-8329930D01*
X2600960Y-8330742D01*
X2594457Y-8330996D01*
X2587904Y-8330742D01*
X2581503Y-8329980D01*
X2575204Y-8328710D01*
X2569006Y-8326881D01*
X2562910Y-8324596D01*
X2556814Y-8321802D01*
X2550668Y-8318500D01*
X2544572Y-8314740D01*
X2538374Y-8310473D01*
X2532075Y-8305698D01*
X2525674Y-8300516D01*
X2519172Y-8294827D01*
X2519172Y-8218576D01*
X2480056Y-8218576D01*
X2480056Y-8356600D01*
X2512364Y-8356600D01*
X2515768Y-8324748D01*
X2517241Y-8324748D01*
X2526842Y-8332470D01*
X2536901Y-8339683D01*
X2547366Y-8346135D01*
X2552750Y-8349081D01*
X2558237Y-8351774D01*
X2563825Y-8354212D01*
X2569464Y-8356396D01*
X2575204Y-8358327D01*
X2580995Y-8359902D01*
X2586888Y-8361172D01*
X2592882Y-8362086D01*
X2598928Y-8362696D01*
X2605024Y-8362848D01*
X2611424Y-8362696D01*
X2617622Y-8362086D01*
X2623616Y-8361121D01*
X2629408Y-8359800D01*
X2634996Y-8358073D01*
X2640380Y-8355990D01*
X2645460Y-8353501D01*
X2650286Y-8350656D01*
X2654808Y-8347506D01*
X2659024Y-8343950D01*
X2662936Y-8340039D01*
X2666492Y-8335772D01*
X2669743Y-8331149D01*
X2672588Y-8326221D01*
X2675026Y-8320938D01*
X2677058Y-8315299D01*
X2678684Y-8309356D01*
X2679852Y-8303056D01*
X2680563Y-8296452D01*
X2680817Y-8289493D01*
X2680716Y-8284819D01*
X2680360Y-8280298D01*
X2678938Y-8271611D01*
X2677922Y-8267446D01*
X2675077Y-8259470D01*
X2671318Y-8252002D01*
X2666542Y-8245043D01*
X2663799Y-8241741D01*
X2657551Y-8235442D01*
X2650236Y-8229549D01*
X2641955Y-8224113D01*
X2632659Y-8219084D01*
X2622245Y-8214461D01*
X2610815Y-8210245D01*
X2598318Y-8206333D01*
X2584704Y-8202828D01*
X2570022Y-8199678D01*
X2554173Y-8196783D01*
X2537256Y-8194294D01*
X2519172Y-8192058D01*
X2519375Y-8181492D01*
X2519781Y-8176310D01*
X2521305Y-8166252D01*
X2522423Y-8161375D01*
X2523845Y-8156702D01*
X2525572Y-8152180D01*
X2527554Y-8147913D01*
X2529890Y-8143849D01*
X2532532Y-8140039D01*
X2535580Y-8136534D01*
X2538984Y-8133334D01*
X2542794Y-8130489D01*
X2546959Y-8128050D01*
X2551582Y-8125968D01*
X2556662Y-8124291D01*
X2562148Y-8123072D01*
X2568143Y-8122310D01*
X2574645Y-8122056D01*
X2582418Y-8122361D01*
X2590038Y-8123224D01*
X2597454Y-8124596D01*
X2604719Y-8126475D01*
X2611729Y-8128711D01*
X2618536Y-8131302D01*
X2625140Y-8134146D01*
X2637485Y-8140598D01*
X2648661Y-8147507D01*
X2653792Y-8151012D01*
X2669692Y-8123478D01*
X2660548Y-8117738D01*
X2650236Y-8111845D01*
X2638755Y-8106105D01*
X2626309Y-8100771D01*
X2619705Y-8098332D01*
X2605938Y-8094167D01*
X2598724Y-8092490D01*
X2591358Y-8091119D01*
X2583840Y-8090103D01*
X2576169Y-8089442D01*
G37*
G36*
X1986330Y-8089239D02*
G01*
X1978609Y-8089544D01*
X1971700Y-8090509D01*
X1965248Y-8092287D01*
X1958848Y-8095030D01*
X1966569Y-8129270D01*
X1972665Y-8127390D01*
X1978355Y-8126018D01*
X1984298Y-8125206D01*
X1991207Y-8124952D01*
X1995373Y-8125155D01*
X1999691Y-8125764D01*
X2004110Y-8126780D01*
X2008530Y-8128203D01*
X2013000Y-8130133D01*
X2017471Y-8132521D01*
X2021941Y-8135416D01*
X2026361Y-8138820D01*
X2030730Y-8142782D01*
X2035048Y-8147253D01*
X2039264Y-8152282D01*
X2043379Y-8157921D01*
X2047341Y-8164169D01*
X2051151Y-8171027D01*
X2054809Y-8178546D01*
X2058263Y-8186724D01*
X2058263Y-8356600D01*
X2097328Y-8356600D01*
X2097328Y-8095996D01*
X2065477Y-8095996D01*
X2061616Y-8143798D01*
X2060193Y-8143798D01*
X2056739Y-8137753D01*
X2053082Y-8132013D01*
X2049272Y-8126577D01*
X2045258Y-8121396D01*
X2041093Y-8116570D01*
X2036724Y-8112099D01*
X2032254Y-8107984D01*
X2027631Y-8104225D01*
X2022856Y-8100822D01*
X2017928Y-8097824D01*
X2012950Y-8095284D01*
X2007819Y-8093151D01*
X2002586Y-8091474D01*
X1997252Y-8090255D01*
X1991817Y-8089493D01*
G37*
G36*
X1522577Y-8089239D02*
G01*
X1515973Y-8089392D01*
X1509623Y-8089900D01*
X1503578Y-8090712D01*
X1497787Y-8091779D01*
X1492300Y-8093202D01*
X1487068Y-8094929D01*
X1482090Y-8096910D01*
X1477416Y-8099196D01*
X1472996Y-8101787D01*
X1468831Y-8104631D01*
X1464919Y-8107730D01*
X1461262Y-8111083D01*
X1457858Y-8114690D01*
X1454708Y-8118551D01*
X1451813Y-8122666D01*
X1449120Y-8126984D01*
X1446682Y-8131556D01*
X1444447Y-8136331D01*
X1442466Y-8141309D01*
X1440688Y-8146542D01*
X1439164Y-8151926D01*
X1436725Y-8163356D01*
X1435811Y-8169300D01*
X1434642Y-8181797D01*
X1434338Y-8188299D01*
X1434287Y-8218576D01*
X1473352Y-8218576D01*
X1492199Y-8221014D01*
X1509217Y-8223859D01*
X1524508Y-8227009D01*
X1538173Y-8230565D01*
X1544370Y-8232444D01*
X1555597Y-8236559D01*
X1560677Y-8238744D01*
X1565351Y-8241030D01*
X1573682Y-8245906D01*
X1580591Y-8251139D01*
X1586179Y-8256778D01*
X1588516Y-8259775D01*
X1590548Y-8262823D01*
X1592275Y-8265972D01*
X1593748Y-8269274D01*
X1594916Y-8272627D01*
X1595780Y-8276081D01*
X1596796Y-8283346D01*
X1596898Y-8287105D01*
X1596440Y-8294573D01*
X1595170Y-8301228D01*
X1593088Y-8307222D01*
X1590294Y-8312454D01*
X1586788Y-8316975D01*
X1582724Y-8320836D01*
X1578102Y-8324037D01*
X1572971Y-8326628D01*
X1567383Y-8328558D01*
X1561439Y-8329930D01*
X1555140Y-8330742D01*
X1548638Y-8330996D01*
X1542084Y-8330742D01*
X1535684Y-8329980D01*
X1529384Y-8328710D01*
X1523238Y-8326881D01*
X1517091Y-8324596D01*
X1510995Y-8321802D01*
X1504899Y-8318500D01*
X1498752Y-8314740D01*
X1492605Y-8310473D01*
X1486306Y-8305698D01*
X1479905Y-8300516D01*
X1473352Y-8294827D01*
X1473352Y-8218576D01*
X1434287Y-8218576D01*
X1434287Y-8356600D01*
X1466596Y-8356600D01*
X1469999Y-8324748D01*
X1471422Y-8324748D01*
X1481074Y-8332470D01*
X1491132Y-8339683D01*
X1501597Y-8346135D01*
X1506982Y-8349081D01*
X1518005Y-8354212D01*
X1523644Y-8356396D01*
X1529384Y-8358327D01*
X1535226Y-8359902D01*
X1541119Y-8361172D01*
X1547063Y-8362086D01*
X1553159Y-8362696D01*
X1559255Y-8362848D01*
X1565605Y-8362696D01*
X1571802Y-8362086D01*
X1577848Y-8361121D01*
X1583639Y-8359800D01*
X1589227Y-8358073D01*
X1594561Y-8355990D01*
X1599641Y-8353501D01*
X1604467Y-8350656D01*
X1609039Y-8347506D01*
X1613255Y-8343950D01*
X1617167Y-8340039D01*
X1620723Y-8335772D01*
X1623923Y-8331149D01*
X1626768Y-8326221D01*
X1629206Y-8320938D01*
X1631289Y-8315299D01*
X1632864Y-8309356D01*
X1634083Y-8303056D01*
X1634794Y-8296452D01*
X1635048Y-8289493D01*
X1634540Y-8280298D01*
X1633982Y-8275878D01*
X1633169Y-8271611D01*
X1630832Y-8263381D01*
X1629308Y-8259470D01*
X1625498Y-8252002D01*
X1623263Y-8248497D01*
X1617980Y-8241741D01*
X1611731Y-8235442D01*
X1604467Y-8229549D01*
X1596186Y-8224113D01*
X1586839Y-8219084D01*
X1576476Y-8214461D01*
X1565046Y-8210245D01*
X1552498Y-8206333D01*
X1538884Y-8202828D01*
X1524203Y-8199678D01*
X1508404Y-8196783D01*
X1491437Y-8194294D01*
X1473352Y-8192058D01*
X1473555Y-8181492D01*
X1474622Y-8171230D01*
X1475486Y-8166252D01*
X1476654Y-8161375D01*
X1478076Y-8156702D01*
X1479753Y-8152180D01*
X1481785Y-8147913D01*
X1484071Y-8143849D01*
X1486763Y-8140039D01*
X1489811Y-8136534D01*
X1493164Y-8133334D01*
X1496974Y-8130489D01*
X1501190Y-8128050D01*
X1505813Y-8125968D01*
X1510842Y-8124291D01*
X1516380Y-8123072D01*
X1522374Y-8122310D01*
X1528826Y-8122056D01*
X1536598Y-8122361D01*
X1544218Y-8123224D01*
X1551686Y-8124596D01*
X1558899Y-8126475D01*
X1565960Y-8128711D01*
X1572768Y-8131302D01*
X1579321Y-8134146D01*
X1585671Y-8137296D01*
X1597456Y-8144002D01*
X1607972Y-8151012D01*
X1623923Y-8123478D01*
X1614779Y-8117738D01*
X1604416Y-8111845D01*
X1592935Y-8106105D01*
X1580489Y-8100771D01*
X1573885Y-8098332D01*
X1567129Y-8096148D01*
X1560118Y-8094167D01*
X1552956Y-8092490D01*
X1545590Y-8091119D01*
X1538071Y-8090103D01*
X1530400Y-8089442D01*
G37*
G36*
X3109366Y-8095996D02*
G01*
X3211017Y-8386876D01*
X3215792Y-8398865D01*
X3221024Y-8410244D01*
X3223818Y-8415731D01*
X3229914Y-8426094D01*
X3233115Y-8430971D01*
X3236518Y-8435644D01*
X3243834Y-8444230D01*
X3247745Y-8448192D01*
X3251809Y-8451850D01*
X3256076Y-8455202D01*
X3260547Y-8458250D01*
X3265220Y-8461044D01*
X3270046Y-8463483D01*
X3275126Y-8465566D01*
X3280410Y-8467293D01*
X3285947Y-8468664D01*
X3291687Y-8469680D01*
X3297631Y-8470290D01*
X3303879Y-8470493D01*
X3312261Y-8470138D01*
X3320084Y-8469122D01*
X3327247Y-8467445D01*
X3333800Y-8465210D01*
X3325571Y-8433358D01*
X3321202Y-8434730D01*
X3316173Y-8436000D01*
X3310788Y-8436864D01*
X3305301Y-8437168D01*
X3299815Y-8436914D01*
X3294583Y-8436051D01*
X3289554Y-8434679D01*
X3284829Y-8432749D01*
X3280257Y-8430361D01*
X3275990Y-8427466D01*
X3271875Y-8424164D01*
X3268014Y-8420404D01*
X3264357Y-8416290D01*
X3260953Y-8411768D01*
X3257702Y-8406942D01*
X3254654Y-8401761D01*
X3249218Y-8390534D01*
X3244494Y-8378291D01*
X3238703Y-8358022D01*
X3343910Y-8095996D01*
X3302863Y-8095996D01*
X3245307Y-8250885D01*
X3221329Y-8318449D01*
X3218942Y-8318449D01*
X3196691Y-8245094D01*
X3147974Y-8095996D01*
G37*
G36*
X1875383Y-8095996D02*
G01*
X1875383Y-8356600D01*
X1914448Y-8356600D01*
X1914448Y-8095996D01*
G37*
D10*
X7378700Y623315D02*
G01*
X7378700Y545337D01*
X7373620Y529844D01*
X7363206Y519429D01*
X7347458Y514350D01*
X7337043Y514350D01*
X7321550Y519429D01*
X7311136Y529844D01*
X7306056Y545337D01*
X7306056Y623315D01*
X7271765Y602487D02*
G01*
X7261352Y607821D01*
X7245604Y623315D01*
X7245604Y514350D01*
D11*
X5867400Y-2070100D02*
G01*
X5359400Y-2070100D01*
X5359400Y-2324100D01*
X5867400Y-2324100D01*
X5867400Y-2070100D01*
X5867400Y-2197100D02*
G01*
X5994400Y-2197100D01*
X5359400Y-2197100D02*
G01*
X5232400Y-2197100D01*
X4064000Y-2082800D02*
G01*
X3556000Y-2082800D01*
X3556000Y-2336800D01*
X4064000Y-2336800D01*
X4064000Y-2082800D01*
X4064000Y-2209800D02*
G01*
X4191000Y-2209800D01*
X3556000Y-2209800D02*
G01*
X3429000Y-2209800D01*
D12*
X7612806Y-287792D02*
G01*
X7012805Y-287792D01*
X7762806Y-287792D02*
G01*
X7612806Y-287792D01*
X7762806Y-287792D02*
G01*
X7762806Y452206D01*
X7662806Y-1187787D02*
G01*
X6962805Y-1187787D01*
X6962805Y-487786D01*
X7662806Y-487786D01*
X7662806Y-1187787D01*
X6412811Y57315D02*
G01*
X6412811Y95087D01*
X6412811Y-196684D02*
G01*
X6412811Y-158912D01*
X6412811Y-450684D02*
G01*
X6412811Y-412912D01*
X6412811Y-704684D02*
G01*
X6412811Y-666912D01*
X6412811Y-958684D02*
G01*
X6412811Y-920912D01*
X6412811Y-1212684D02*
G01*
X6412811Y-1174912D01*
X6412811Y-1466684D02*
G01*
X6412811Y-1428912D01*
X6412811Y-1720684D02*
G01*
X6412811Y-1682912D01*
X6512811Y-1987788D02*
G01*
X6699087Y-1987788D01*
X8112787Y-1987677D02*
G01*
X7931310Y-1987677D01*
X6953087Y-1987788D02*
G01*
X6915310Y-1987788D01*
X7207087Y-1987788D02*
G01*
X7169317Y-1987788D01*
X7461087Y-1987788D02*
G01*
X7423310Y-1987788D01*
X7715087Y-1987788D02*
G01*
X7677310Y-1987788D01*
X8212099Y-153288D02*
G01*
X8212099Y-191388D01*
X8212800Y-1682912D02*
G01*
X8212800Y-1720684D01*
X8212800Y-1428912D02*
G01*
X8212800Y-1466684D01*
X8212800Y-1174912D02*
G01*
X8212800Y-1212684D01*
X8212800Y-920912D02*
G01*
X8212800Y-958684D01*
X8212800Y-666912D02*
G01*
X8212800Y-704684D01*
X8212800Y-412912D02*
G01*
X8212800Y-450684D01*
X8212099Y100711D02*
G01*
X8212099Y56261D01*
X6512811Y362214D02*
G01*
X8112805Y362214D01*
X6862810Y-287792D02*
G01*
X6862810Y452206D01*
X7762806Y452206D02*
G01*
X6862810Y452206D01*
X7472801Y-1637781D02*
G01*
X7152802Y-1637781D01*
X7152802Y-1387787D01*
X7472801Y-1387787D01*
X7472801Y-1637781D01*
X7012805Y-287792D02*
G01*
X6862810Y-287792D01*
X7497805Y-87792D02*
G01*
X7127806Y-87792D01*
X7127806Y212206D01*
X7497805Y212206D01*
X7497805Y-87792D01*
G75*
G01*
X8112803Y362212D02*
G02*
X8210573Y283213I0J-100000D01*
G75*
G01*
X6415037Y283213D02*
G02*
X6512806Y362212I97769J-21001D01*
G75*
G01*
X6512806Y-1987784D02*
G02*
X6415037Y-1908782I1J100000D01*
G75*
G01*
X8210573Y-1908782D02*
G02*
X8112803Y-1987784I-97770J20998D01*
M02*
