G04 Layer: TopLayer*
G04 EasyEDA v6.5.57, 2026-07-28 23:04:53*
G04 6e20ac815a004ef09f6275fc184b8e62,47083fb59e924f2e982a52276fdf08c8,10*
G04 Gerber Generator version 0.2*
G04 Scale: 100 percent, Rotated: No, Reflected: No *
G04 Dimensions in millimeters *
G04 leading zeros omitted , absolute positions ,4 integer and 5 decimal *
%FSLAX45Y45*%
%MOMM*%

%AMMACRO1*21,1,$1,$2,0,0,$3*%
%ADD10C,0.3300*%
%ADD11R,1.6000X1.3000*%
%ADD12MACRO1,0.8X0.8X69.0002*%
%ADD13MACRO1,0.8X0.8X110.9998*%
%ADD14C,1.9990*%
%ADD15R,2.0000X2.0000*%
%ADD16C,1.5240*%
%ADD17C,0.0131*%
%ADD18C,1.4000*%
%ADD19O,1.524X2.999994*%
%ADD20C,3.3000*%
%ADD21C,0.6100*%

%LPD*%
G36*
X976884Y-8676233D02*
G01*
X948182Y-8673541D01*
X919022Y-8668918D01*
X890219Y-8662517D01*
X861821Y-8654338D01*
X834034Y-8644382D01*
X806907Y-8632748D01*
X780542Y-8619439D01*
X755091Y-8604504D01*
X730554Y-8587994D01*
X707136Y-8570010D01*
X684885Y-8550656D01*
X663905Y-8529878D01*
X644245Y-8507882D01*
X625957Y-8484666D01*
X609193Y-8460384D01*
X593953Y-8435086D01*
X580288Y-8408924D01*
X568350Y-8381898D01*
X558038Y-8354212D01*
X549503Y-8325967D01*
X542747Y-8297214D01*
X537819Y-8268106D01*
X534670Y-8238744D01*
X533806Y-8218220D01*
X534314Y-7122668D01*
X535127Y-7118756D01*
X537311Y-7115505D01*
X540613Y-7113270D01*
X544474Y-7112508D01*
X624992Y-7112508D01*
X629158Y-7113422D01*
X632612Y-7115962D01*
X634695Y-7119721D01*
X635050Y-7124039D01*
X633577Y-7128052D01*
X630783Y-7132523D01*
X628853Y-7138009D01*
X628142Y-7144308D01*
X628142Y-7282891D01*
X628853Y-7289190D01*
X630783Y-7294676D01*
X633831Y-7299553D01*
X637946Y-7303668D01*
X642823Y-7306716D01*
X648309Y-7308646D01*
X654608Y-7309358D01*
X793191Y-7309358D01*
X799490Y-7308646D01*
X804976Y-7306716D01*
X809447Y-7303922D01*
X813460Y-7302449D01*
X817778Y-7302804D01*
X821537Y-7304887D01*
X824077Y-7308342D01*
X824992Y-7312507D01*
X824992Y-7428941D01*
X825703Y-7435240D01*
X827633Y-7440726D01*
X830681Y-7445603D01*
X834796Y-7449718D01*
X839673Y-7452766D01*
X845159Y-7454696D01*
X851458Y-7455408D01*
X977341Y-7455408D01*
X983640Y-7454696D01*
X989126Y-7452766D01*
X994003Y-7449718D01*
X998118Y-7445603D01*
X1001166Y-7440726D01*
X1003096Y-7435240D01*
X1003808Y-7428941D01*
X1003808Y-7303058D01*
X1003096Y-7296759D01*
X1001166Y-7291273D01*
X998118Y-7286396D01*
X994003Y-7282281D01*
X989126Y-7279233D01*
X983640Y-7277303D01*
X977341Y-7276592D01*
X851458Y-7276592D01*
X845159Y-7277303D01*
X839673Y-7279233D01*
X835202Y-7282027D01*
X831189Y-7283500D01*
X826871Y-7283145D01*
X823112Y-7281062D01*
X820572Y-7277608D01*
X819658Y-7273442D01*
X819658Y-7144308D01*
X818946Y-7138009D01*
X817016Y-7132523D01*
X813968Y-7127646D01*
X809853Y-7123531D01*
X804976Y-7120483D01*
X799490Y-7118553D01*
X793191Y-7117842D01*
X676757Y-7117842D01*
X672592Y-7116927D01*
X669137Y-7114387D01*
X667054Y-7110628D01*
X666699Y-7106310D01*
X668172Y-7102297D01*
X670966Y-7097826D01*
X672896Y-7092340D01*
X673608Y-7086041D01*
X673608Y-6947458D01*
X672896Y-6941159D01*
X670966Y-6935673D01*
X667918Y-6930796D01*
X663803Y-6926681D01*
X658926Y-6923633D01*
X653440Y-6921703D01*
X647141Y-6920992D01*
X544576Y-6920992D01*
X540715Y-6920230D01*
X537413Y-6917994D01*
X535178Y-6914692D01*
X534416Y-6910831D01*
X537057Y-99009D01*
X536244Y-91287D01*
X538276Y-59537D01*
X542086Y-30429D01*
X547674Y-1676D01*
X554990Y26720D01*
X564083Y54610D01*
X574903Y81838D01*
X587349Y108407D01*
X601421Y134112D01*
X617067Y158902D01*
X634238Y182727D01*
X652780Y205384D01*
X672744Y226872D01*
X693978Y247091D01*
X716432Y265938D01*
X740003Y283362D01*
X764590Y299313D01*
X790143Y313740D01*
X816559Y326542D01*
X843686Y337667D01*
X871423Y347065D01*
X899718Y354787D01*
X928420Y360730D01*
X957478Y364896D01*
X986688Y367233D01*
X1016304Y367792D01*
X8454339Y367792D01*
X8457692Y367233D01*
X8460130Y366369D01*
X8466175Y365607D01*
X8496401Y365404D01*
X8525662Y363423D01*
X8554770Y359613D01*
X8583523Y354025D01*
X8611920Y346710D01*
X8639810Y337616D01*
X8667038Y326796D01*
X8693607Y314350D01*
X8719312Y300278D01*
X8744102Y284632D01*
X8767927Y267462D01*
X8790584Y248920D01*
X8812072Y228955D01*
X8832291Y207721D01*
X8851138Y185267D01*
X8868562Y161696D01*
X8884513Y137109D01*
X8898940Y111556D01*
X8911742Y85140D01*
X8922867Y58013D01*
X8932316Y30276D01*
X8939987Y1981D01*
X8945930Y-26720D01*
X8950096Y-55778D01*
X8952433Y-84988D01*
X8952992Y-114401D01*
X8953347Y-118160D01*
X8954566Y-124256D01*
X8951874Y-7050531D01*
X8951061Y-7054443D01*
X8948877Y-7057694D01*
X8945575Y-7059930D01*
X8941714Y-7060692D01*
X8852458Y-7060692D01*
X8846159Y-7061403D01*
X8840673Y-7063333D01*
X8835796Y-7066381D01*
X8831681Y-7070496D01*
X8828633Y-7075373D01*
X8826703Y-7080859D01*
X8825992Y-7087158D01*
X8825992Y-7225741D01*
X8826703Y-7232040D01*
X8828887Y-7238288D01*
X8829446Y-7242352D01*
X8828328Y-7246264D01*
X8825788Y-7249464D01*
X8822232Y-7251395D01*
X8818168Y-7251750D01*
X8813241Y-7251192D01*
X8674658Y-7251192D01*
X8668359Y-7251903D01*
X8662873Y-7253833D01*
X8657996Y-7256881D01*
X8653881Y-7260996D01*
X8650833Y-7265873D01*
X8648903Y-7271359D01*
X8648192Y-7277658D01*
X8648141Y-7421575D01*
X8646617Y-7424877D01*
X8644077Y-7427417D01*
X8640775Y-7428941D01*
X8458758Y-7428992D01*
X8452459Y-7429703D01*
X8446973Y-7431633D01*
X8442096Y-7434681D01*
X8437981Y-7438796D01*
X8434933Y-7443673D01*
X8433003Y-7449159D01*
X8432292Y-7455458D01*
X8432292Y-7584948D01*
X8431377Y-7589113D01*
X8428888Y-7592568D01*
X8425129Y-7594650D01*
X8420912Y-7595057D01*
X8413140Y-7594092D01*
X8261908Y-7594092D01*
X8255609Y-7594803D01*
X8250123Y-7596733D01*
X8245246Y-7599781D01*
X8241131Y-7603896D01*
X8238083Y-7608773D01*
X8236153Y-7614259D01*
X8235442Y-7620558D01*
X8235442Y-7733741D01*
X8236153Y-7740040D01*
X8238337Y-7746288D01*
X8238896Y-7750352D01*
X8237778Y-7754264D01*
X8235238Y-7757464D01*
X8231682Y-7759395D01*
X8227618Y-7759750D01*
X8222691Y-7759192D01*
X8084108Y-7759192D01*
X8077809Y-7759903D01*
X8072323Y-7761833D01*
X8067446Y-7764881D01*
X8063331Y-7768996D01*
X8060283Y-7773873D01*
X8058353Y-7779359D01*
X8057642Y-7785658D01*
X8057642Y-7886141D01*
X8058353Y-7892440D01*
X8060283Y-7897926D01*
X8063331Y-7902803D01*
X8067446Y-7906918D01*
X8072323Y-7909966D01*
X8077809Y-7911896D01*
X8084108Y-7912608D01*
X8222691Y-7912608D01*
X8228990Y-7911896D01*
X8234476Y-7909966D01*
X8239353Y-7906918D01*
X8243468Y-7902803D01*
X8246516Y-7897926D01*
X8248446Y-7892440D01*
X8249158Y-7886141D01*
X8249158Y-7785658D01*
X8248446Y-7779359D01*
X8246262Y-7773111D01*
X8245703Y-7769047D01*
X8246821Y-7765135D01*
X8249361Y-7761935D01*
X8252917Y-7760004D01*
X8256981Y-7759649D01*
X8261908Y-7760208D01*
X8413191Y-7760208D01*
X8419490Y-7759496D01*
X8424976Y-7757566D01*
X8429853Y-7754518D01*
X8433968Y-7750403D01*
X8437016Y-7745526D01*
X8438946Y-7740040D01*
X8439658Y-7733741D01*
X8439658Y-7629652D01*
X8440572Y-7625486D01*
X8443061Y-7622031D01*
X8446820Y-7619949D01*
X8451037Y-7619542D01*
X8458809Y-7620508D01*
X8635441Y-7620508D01*
X8641740Y-7619796D01*
X8647226Y-7617866D01*
X8652103Y-7614818D01*
X8656218Y-7610703D01*
X8659266Y-7605826D01*
X8661196Y-7600340D01*
X8661908Y-7594041D01*
X8661958Y-7450124D01*
X8663482Y-7446822D01*
X8666022Y-7444282D01*
X8669324Y-7442758D01*
X8813241Y-7442708D01*
X8819540Y-7441996D01*
X8825026Y-7440066D01*
X8829903Y-7437018D01*
X8834018Y-7432903D01*
X8837066Y-7428026D01*
X8838996Y-7422540D01*
X8839708Y-7416241D01*
X8839708Y-7277658D01*
X8838996Y-7271359D01*
X8836812Y-7265111D01*
X8836253Y-7261047D01*
X8837371Y-7257135D01*
X8839911Y-7253935D01*
X8843467Y-7252004D01*
X8847531Y-7251649D01*
X8852458Y-7252208D01*
X8941612Y-7252208D01*
X8945524Y-7252970D01*
X8948775Y-7255205D01*
X8951010Y-7258507D01*
X8951772Y-7262368D01*
X8951417Y-8198713D01*
X8952484Y-8206282D01*
X8954668Y-8212480D01*
X8954719Y-8214918D01*
X8952941Y-8233918D01*
X8948318Y-8263077D01*
X8941917Y-8291880D01*
X8933738Y-8320278D01*
X8923782Y-8348065D01*
X8912148Y-8375192D01*
X8898839Y-8401558D01*
X8883904Y-8427008D01*
X8867394Y-8451545D01*
X8849410Y-8474964D01*
X8830056Y-8497214D01*
X8809278Y-8518194D01*
X8787282Y-8537854D01*
X8764066Y-8556142D01*
X8739784Y-8572906D01*
X8714486Y-8588146D01*
X8688324Y-8601811D01*
X8661298Y-8613749D01*
X8633612Y-8624062D01*
X8605367Y-8632596D01*
X8576614Y-8639352D01*
X8547506Y-8644280D01*
X8518144Y-8647430D01*
X8497570Y-8648293D01*
X991108Y-8673592D01*
X984605Y-8674404D01*
X979220Y-8676182D01*
G37*

%LPC*%
G36*
X6953808Y-8525408D02*
G01*
X7041591Y-8525408D01*
X7047890Y-8524646D01*
X7053376Y-8522766D01*
X7058253Y-8519668D01*
X7062368Y-8515604D01*
X7065416Y-8510676D01*
X7067346Y-8505240D01*
X7068058Y-8498890D01*
X7068058Y-8417509D01*
X7067346Y-8411159D01*
X7065416Y-8405723D01*
X7062368Y-8400796D01*
X7058253Y-8396732D01*
X7053376Y-8393633D01*
X7047890Y-8391753D01*
X7041591Y-8391042D01*
X6953808Y-8391042D01*
X6947509Y-8391753D01*
X6942023Y-8393633D01*
X6937146Y-8396732D01*
X6933031Y-8400796D01*
X6929983Y-8405723D01*
X6929069Y-8408314D01*
X6926986Y-8411768D01*
X6923735Y-8414156D01*
X6919772Y-8415121D01*
X6915810Y-8414410D01*
X6912406Y-8412226D01*
X6910120Y-8408924D01*
X6909308Y-8404961D01*
X6909308Y-8344458D01*
X6908596Y-8338159D01*
X6906666Y-8332673D01*
X6903618Y-8327796D01*
X6899503Y-8323681D01*
X6894626Y-8320633D01*
X6889140Y-8318703D01*
X6882841Y-8317992D01*
X6795058Y-8317992D01*
X6788759Y-8318703D01*
X6783273Y-8320633D01*
X6778396Y-8323681D01*
X6774281Y-8327796D01*
X6771233Y-8332673D01*
X6770319Y-8335264D01*
X6768236Y-8338769D01*
X6764985Y-8341156D01*
X6761022Y-8342071D01*
X6757060Y-8341410D01*
X6753656Y-8339226D01*
X6751370Y-8335873D01*
X6750558Y-8331911D01*
X6750558Y-8268258D01*
X6749846Y-8261959D01*
X6747916Y-8256473D01*
X6744868Y-8251596D01*
X6740753Y-8247481D01*
X6735876Y-8244433D01*
X6730390Y-8242503D01*
X6724091Y-8241792D01*
X6636359Y-8241792D01*
X6628587Y-8242757D01*
X6624370Y-8242350D01*
X6620611Y-8240268D01*
X6618122Y-8236813D01*
X6617208Y-8232648D01*
X6617208Y-8179358D01*
X6616496Y-8173059D01*
X6614566Y-8167573D01*
X6611518Y-8162696D01*
X6607403Y-8158581D01*
X6602526Y-8155533D01*
X6597040Y-8153603D01*
X6590741Y-8152892D01*
X6497624Y-8152841D01*
X6494322Y-8151317D01*
X6491782Y-8148777D01*
X6490258Y-8145475D01*
X6490208Y-8065058D01*
X6489496Y-8058759D01*
X6487566Y-8053273D01*
X6484518Y-8048396D01*
X6480403Y-8044281D01*
X6475526Y-8041233D01*
X6470040Y-8039303D01*
X6463741Y-8038592D01*
X6375958Y-8038592D01*
X6369659Y-8039303D01*
X6364020Y-8041284D01*
X6360210Y-8041843D01*
X6356451Y-8040928D01*
X6353302Y-8038693D01*
X6351219Y-8035442D01*
X6350508Y-8031683D01*
X6350508Y-7950758D01*
X6349796Y-7944459D01*
X6347866Y-7938973D01*
X6344818Y-7934096D01*
X6340703Y-7929981D01*
X6335826Y-7926933D01*
X6330340Y-7925003D01*
X6324041Y-7924292D01*
X6236258Y-7924292D01*
X6229959Y-7925003D01*
X6224473Y-7926933D01*
X6219596Y-7929981D01*
X6215481Y-7934096D01*
X6212433Y-7938973D01*
X6210503Y-7944459D01*
X6209792Y-7950758D01*
X6209792Y-8038541D01*
X6210503Y-8044840D01*
X6212433Y-8050326D01*
X6215481Y-8055203D01*
X6219596Y-8059318D01*
X6224473Y-8062366D01*
X6229959Y-8064296D01*
X6236258Y-8065008D01*
X6324041Y-8065008D01*
X6330340Y-8064296D01*
X6335979Y-8062315D01*
X6339789Y-8061756D01*
X6343548Y-8062671D01*
X6346698Y-8064906D01*
X6348780Y-8068157D01*
X6349492Y-8071916D01*
X6349492Y-8140141D01*
X6350203Y-8146440D01*
X6352133Y-8151926D01*
X6355181Y-8156803D01*
X6359296Y-8160918D01*
X6364173Y-8163966D01*
X6369659Y-8165896D01*
X6375958Y-8166608D01*
X6469075Y-8166658D01*
X6472377Y-8168182D01*
X6474917Y-8170722D01*
X6476441Y-8174024D01*
X6476492Y-8254441D01*
X6477203Y-8260740D01*
X6479133Y-8266226D01*
X6482181Y-8271103D01*
X6486296Y-8275218D01*
X6491173Y-8278266D01*
X6496659Y-8280196D01*
X6502958Y-8280908D01*
X6590690Y-8280908D01*
X6598462Y-8279942D01*
X6602679Y-8280349D01*
X6606438Y-8282431D01*
X6608927Y-8285886D01*
X6609842Y-8290052D01*
X6609842Y-8343341D01*
X6610553Y-8349640D01*
X6612483Y-8355126D01*
X6615531Y-8360003D01*
X6619646Y-8364118D01*
X6624523Y-8367166D01*
X6630009Y-8369096D01*
X6636308Y-8369808D01*
X6724091Y-8369808D01*
X6730390Y-8369096D01*
X6735876Y-8367166D01*
X6740753Y-8364118D01*
X6744868Y-8360003D01*
X6747916Y-8355126D01*
X6748830Y-8352536D01*
X6750913Y-8349030D01*
X6754164Y-8346643D01*
X6758127Y-8345728D01*
X6762089Y-8346389D01*
X6765493Y-8348573D01*
X6767779Y-8351926D01*
X6768592Y-8355888D01*
X6768592Y-8432241D01*
X6769303Y-8438540D01*
X6771233Y-8444026D01*
X6774281Y-8448903D01*
X6778396Y-8453018D01*
X6783273Y-8456066D01*
X6788759Y-8457996D01*
X6795058Y-8458708D01*
X6882841Y-8458708D01*
X6889140Y-8457996D01*
X6894626Y-8456066D01*
X6899503Y-8453018D01*
X6903618Y-8448903D01*
X6906666Y-8444026D01*
X6907580Y-8441436D01*
X6909663Y-8437930D01*
X6912914Y-8435543D01*
X6916877Y-8434628D01*
X6920839Y-8435289D01*
X6924243Y-8437473D01*
X6926529Y-8440826D01*
X6927342Y-8444788D01*
X6927342Y-8498890D01*
X6928053Y-8505240D01*
X6929983Y-8510676D01*
X6933031Y-8515604D01*
X6937146Y-8519668D01*
X6942023Y-8522766D01*
X6947509Y-8524646D01*
G37*
G36*
X896924Y-8496655D02*
G01*
X915974Y-8496147D01*
X934872Y-8493810D01*
X953414Y-8489543D01*
X971448Y-8483498D01*
X988771Y-8475675D01*
X1005281Y-8466175D01*
X1020724Y-8455050D01*
X1034999Y-8442452D01*
X1047953Y-8428482D01*
X1059434Y-8413343D01*
X1069340Y-8397087D01*
X1077620Y-8379968D01*
X1084122Y-8362086D01*
X1088796Y-8343646D01*
X1091641Y-8324799D01*
X1092606Y-8305800D01*
X1091641Y-8286800D01*
X1088796Y-8267953D01*
X1084122Y-8249513D01*
X1077620Y-8231631D01*
X1069340Y-8214512D01*
X1059434Y-8198256D01*
X1047953Y-8183118D01*
X1034999Y-8169148D01*
X1020724Y-8156549D01*
X1005281Y-8145424D01*
X988771Y-8135924D01*
X971448Y-8128101D01*
X953414Y-8122056D01*
X934872Y-8117789D01*
X915974Y-8115452D01*
X896924Y-8114944D01*
X877976Y-8116366D01*
X859231Y-8119668D01*
X840892Y-8124850D01*
X823163Y-8131809D01*
X806246Y-8140496D01*
X790244Y-8150809D01*
X775411Y-8162645D01*
X761746Y-8175955D01*
X749554Y-8190534D01*
X738835Y-8206282D01*
X729691Y-8222996D01*
X722325Y-8240522D01*
X716686Y-8258708D01*
X712927Y-8277352D01*
X711047Y-8296300D01*
X711047Y-8315299D01*
X712927Y-8334248D01*
X716686Y-8352891D01*
X722325Y-8371078D01*
X729691Y-8388603D01*
X738835Y-8405317D01*
X749554Y-8421065D01*
X761746Y-8435644D01*
X775411Y-8448954D01*
X790244Y-8460790D01*
X806246Y-8471103D01*
X823163Y-8479790D01*
X840892Y-8486749D01*
X859231Y-8491931D01*
X877976Y-8495233D01*
G37*
G36*
X8605824Y-8496655D02*
G01*
X8624874Y-8496147D01*
X8643772Y-8493810D01*
X8662314Y-8489543D01*
X8680348Y-8483498D01*
X8697671Y-8475675D01*
X8714181Y-8466175D01*
X8729624Y-8455050D01*
X8743899Y-8442452D01*
X8756853Y-8428482D01*
X8768334Y-8413343D01*
X8778240Y-8397087D01*
X8786520Y-8379968D01*
X8793022Y-8362086D01*
X8797696Y-8343646D01*
X8800541Y-8324799D01*
X8801506Y-8305800D01*
X8800541Y-8286800D01*
X8797696Y-8267953D01*
X8793022Y-8249513D01*
X8786520Y-8231631D01*
X8778240Y-8214512D01*
X8768334Y-8198256D01*
X8756853Y-8183118D01*
X8743899Y-8169148D01*
X8729624Y-8156549D01*
X8714181Y-8145424D01*
X8697671Y-8135924D01*
X8680348Y-8128101D01*
X8662314Y-8122056D01*
X8643772Y-8117789D01*
X8624874Y-8115452D01*
X8605824Y-8114944D01*
X8586876Y-8116366D01*
X8568131Y-8119668D01*
X8549792Y-8124850D01*
X8532063Y-8131809D01*
X8515146Y-8140496D01*
X8499144Y-8150809D01*
X8484311Y-8162645D01*
X8470646Y-8175955D01*
X8458454Y-8190534D01*
X8447735Y-8206282D01*
X8438591Y-8222996D01*
X8431225Y-8240522D01*
X8425586Y-8258708D01*
X8421827Y-8277352D01*
X8419947Y-8296300D01*
X8419947Y-8315299D01*
X8421827Y-8334248D01*
X8425586Y-8352891D01*
X8431225Y-8371078D01*
X8438591Y-8388603D01*
X8447735Y-8405317D01*
X8458454Y-8421065D01*
X8470646Y-8435644D01*
X8484311Y-8448954D01*
X8499144Y-8460790D01*
X8515146Y-8471103D01*
X8532063Y-8479790D01*
X8549792Y-8486749D01*
X8568131Y-8491931D01*
X8586876Y-8495233D01*
G37*
G36*
X4451908Y-8490458D02*
G01*
X4565091Y-8490458D01*
X4571390Y-8489746D01*
X4576876Y-8487816D01*
X4581753Y-8484768D01*
X4585868Y-8480653D01*
X4588916Y-8475776D01*
X4590846Y-8470290D01*
X4591558Y-8463991D01*
X4591558Y-8350808D01*
X4590846Y-8344509D01*
X4588916Y-8339023D01*
X4585868Y-8334146D01*
X4581753Y-8330031D01*
X4576876Y-8326983D01*
X4571390Y-8325053D01*
X4565091Y-8324342D01*
X4451908Y-8324342D01*
X4445609Y-8325053D01*
X4440123Y-8326983D01*
X4435246Y-8330031D01*
X4431131Y-8334146D01*
X4428083Y-8339023D01*
X4426153Y-8344509D01*
X4425442Y-8350808D01*
X4425442Y-8463991D01*
X4426153Y-8470290D01*
X4428083Y-8475776D01*
X4431131Y-8480653D01*
X4435246Y-8484768D01*
X4440123Y-8487816D01*
X4445609Y-8489746D01*
G37*
G36*
X7125258Y-8484108D02*
G01*
X7213041Y-8484108D01*
X7219340Y-8483396D01*
X7224826Y-8481466D01*
X7229703Y-8478418D01*
X7233818Y-8474303D01*
X7236866Y-8469426D01*
X7238796Y-8463940D01*
X7239508Y-8457641D01*
X7239508Y-8382558D01*
X7238796Y-8376259D01*
X7236866Y-8370773D01*
X7233818Y-8365896D01*
X7229703Y-8361781D01*
X7224826Y-8358733D01*
X7219340Y-8356803D01*
X7213041Y-8356092D01*
X7125258Y-8356092D01*
X7118959Y-8356803D01*
X7113473Y-8358733D01*
X7108596Y-8361781D01*
X7104481Y-8365896D01*
X7101433Y-8370773D01*
X7099503Y-8376259D01*
X7098792Y-8382558D01*
X7098792Y-8457641D01*
X7099503Y-8463940D01*
X7101433Y-8469426D01*
X7104481Y-8474303D01*
X7108596Y-8478418D01*
X7113473Y-8481466D01*
X7118959Y-8483396D01*
G37*
G36*
X4699558Y-8484108D02*
G01*
X4825441Y-8484108D01*
X4831740Y-8483396D01*
X4837226Y-8481466D01*
X4842103Y-8478418D01*
X4846218Y-8474303D01*
X4849266Y-8469426D01*
X4851196Y-8463940D01*
X4851908Y-8457641D01*
X4851908Y-8357158D01*
X4851196Y-8350859D01*
X4849266Y-8345373D01*
X4846218Y-8340496D01*
X4842103Y-8336381D01*
X4837226Y-8333333D01*
X4831740Y-8331403D01*
X4825441Y-8330692D01*
X4699558Y-8330692D01*
X4693259Y-8331403D01*
X4687773Y-8333333D01*
X4682896Y-8336381D01*
X4678781Y-8340496D01*
X4675733Y-8345373D01*
X4673803Y-8350859D01*
X4673092Y-8357158D01*
X4673092Y-8457641D01*
X4673803Y-8463940D01*
X4675733Y-8469426D01*
X4678781Y-8474303D01*
X4682896Y-8478418D01*
X4687773Y-8481466D01*
X4693259Y-8483396D01*
G37*
G36*
X7296708Y-8407908D02*
G01*
X7384491Y-8407908D01*
X7390790Y-8407196D01*
X7396276Y-8405266D01*
X7401153Y-8402218D01*
X7405268Y-8398103D01*
X7408316Y-8393226D01*
X7410246Y-8387740D01*
X7410958Y-8381441D01*
X7410958Y-8328507D01*
X7411872Y-8324342D01*
X7414412Y-8320887D01*
X7418171Y-8318804D01*
X7422489Y-8318449D01*
X7426502Y-8319922D01*
X7430973Y-8322716D01*
X7436459Y-8324646D01*
X7442758Y-8325358D01*
X7517841Y-8325358D01*
X7524140Y-8324646D01*
X7529626Y-8322716D01*
X7534503Y-8319668D01*
X7538618Y-8315553D01*
X7541666Y-8310676D01*
X7543596Y-8305190D01*
X7544308Y-8298891D01*
X7544308Y-8236508D01*
X7543596Y-8230209D01*
X7541666Y-8224723D01*
X7538618Y-8219846D01*
X7534503Y-8215731D01*
X7529626Y-8212683D01*
X7524140Y-8210753D01*
X7517841Y-8210042D01*
X7442758Y-8210042D01*
X7436459Y-8210753D01*
X7430973Y-8212683D01*
X7426096Y-8215731D01*
X7421981Y-8219846D01*
X7418933Y-8224723D01*
X7417003Y-8230209D01*
X7416292Y-8236508D01*
X7416292Y-8276742D01*
X7415377Y-8280908D01*
X7412837Y-8284362D01*
X7409078Y-8286445D01*
X7404760Y-8286800D01*
X7400747Y-8285327D01*
X7396276Y-8282533D01*
X7390790Y-8280603D01*
X7384491Y-8279892D01*
X7296708Y-8279892D01*
X7290409Y-8280603D01*
X7284923Y-8282533D01*
X7280046Y-8285581D01*
X7275931Y-8289696D01*
X7272883Y-8294573D01*
X7270953Y-8300059D01*
X7270242Y-8306358D01*
X7270242Y-8381441D01*
X7270953Y-8387740D01*
X7272883Y-8393226D01*
X7275931Y-8398103D01*
X7280046Y-8402218D01*
X7284923Y-8405266D01*
X7290409Y-8407196D01*
G37*
G36*
X4921808Y-8395208D02*
G01*
X5034991Y-8395208D01*
X5041290Y-8394496D01*
X5046776Y-8392566D01*
X5051653Y-8389518D01*
X5055768Y-8385403D01*
X5058816Y-8380526D01*
X5060746Y-8375040D01*
X5061458Y-8368741D01*
X5061458Y-8268258D01*
X5060746Y-8261959D01*
X5058816Y-8256473D01*
X5055768Y-8251596D01*
X5051653Y-8247481D01*
X5046776Y-8244433D01*
X5041290Y-8242503D01*
X5034991Y-8241792D01*
X4921808Y-8241792D01*
X4915509Y-8242503D01*
X4910023Y-8244433D01*
X4905146Y-8247481D01*
X4901031Y-8251596D01*
X4897983Y-8256473D01*
X4896053Y-8261959D01*
X4895342Y-8268258D01*
X4895342Y-8368741D01*
X4896053Y-8375040D01*
X4897983Y-8380526D01*
X4901031Y-8385403D01*
X4905146Y-8389518D01*
X4910023Y-8392566D01*
X4915509Y-8394496D01*
G37*
G36*
X2172258Y-8395208D02*
G01*
X2298141Y-8395208D01*
X2304440Y-8394496D01*
X2309926Y-8392566D01*
X2314803Y-8389518D01*
X2318918Y-8385403D01*
X2321966Y-8380526D01*
X2323896Y-8375040D01*
X2324608Y-8368741D01*
X2324608Y-8242858D01*
X2323896Y-8236559D01*
X2321966Y-8231073D01*
X2318918Y-8226196D01*
X2314803Y-8222081D01*
X2309926Y-8219033D01*
X2304440Y-8217103D01*
X2298141Y-8216392D01*
X2172258Y-8216392D01*
X2165959Y-8217103D01*
X2160473Y-8219033D01*
X2155596Y-8222081D01*
X2151481Y-8226196D01*
X2148433Y-8231073D01*
X2146503Y-8236559D01*
X2145792Y-8242858D01*
X2145792Y-8368741D01*
X2146503Y-8375040D01*
X2148433Y-8380526D01*
X2151481Y-8385403D01*
X2155596Y-8389518D01*
X2160473Y-8392566D01*
X2165959Y-8394496D01*
G37*
G36*
X2553258Y-8363458D02*
G01*
X2679141Y-8363458D01*
X2685440Y-8362746D01*
X2690926Y-8360816D01*
X2695803Y-8357768D01*
X2699918Y-8353653D01*
X2702966Y-8348776D01*
X2704896Y-8343290D01*
X2705608Y-8336991D01*
X2705608Y-8223808D01*
X2704896Y-8217509D01*
X2702966Y-8212023D01*
X2699918Y-8207146D01*
X2695803Y-8203031D01*
X2690926Y-8199983D01*
X2685440Y-8198053D01*
X2679141Y-8197342D01*
X2553258Y-8197342D01*
X2546959Y-8198053D01*
X2541473Y-8199983D01*
X2536596Y-8203031D01*
X2532481Y-8207146D01*
X2529433Y-8212023D01*
X2527503Y-8217509D01*
X2526792Y-8223808D01*
X2526792Y-8336991D01*
X2527503Y-8343290D01*
X2529433Y-8348776D01*
X2532481Y-8353653D01*
X2536596Y-8357768D01*
X2541473Y-8360816D01*
X2546959Y-8362746D01*
G37*
G36*
X4204258Y-8357108D02*
G01*
X4317441Y-8357108D01*
X4323740Y-8356396D01*
X4329226Y-8354466D01*
X4334103Y-8351418D01*
X4338218Y-8347303D01*
X4341266Y-8342426D01*
X4343196Y-8336940D01*
X4343908Y-8330641D01*
X4343908Y-8242858D01*
X4343196Y-8236559D01*
X4341266Y-8231073D01*
X4338218Y-8226196D01*
X4334103Y-8222081D01*
X4329226Y-8219033D01*
X4323740Y-8217103D01*
X4317441Y-8216392D01*
X4204258Y-8216392D01*
X4197959Y-8217103D01*
X4192473Y-8219033D01*
X4187596Y-8222081D01*
X4183481Y-8226196D01*
X4180433Y-8231073D01*
X4178503Y-8236559D01*
X4177792Y-8242858D01*
X4177792Y-8330641D01*
X4178503Y-8336940D01*
X4180433Y-8342426D01*
X4183481Y-8347303D01*
X4187596Y-8351418D01*
X4192473Y-8354466D01*
X4197959Y-8356396D01*
G37*
G36*
X5125008Y-8280908D02*
G01*
X5238191Y-8280908D01*
X5244490Y-8280196D01*
X5249976Y-8278266D01*
X5254853Y-8275218D01*
X5258968Y-8271103D01*
X5262016Y-8266226D01*
X5263946Y-8260740D01*
X5264658Y-8254441D01*
X5264658Y-8153958D01*
X5263946Y-8147659D01*
X5262016Y-8142173D01*
X5258968Y-8137296D01*
X5254853Y-8133181D01*
X5249976Y-8130133D01*
X5244490Y-8128203D01*
X5238191Y-8127492D01*
X5125008Y-8127492D01*
X5118709Y-8128203D01*
X5113223Y-8130133D01*
X5108346Y-8133181D01*
X5104231Y-8137296D01*
X5101183Y-8142173D01*
X5099253Y-8147659D01*
X5098542Y-8153958D01*
X5098542Y-8254441D01*
X5099253Y-8260740D01*
X5101183Y-8266226D01*
X5104231Y-8271103D01*
X5108346Y-8275218D01*
X5113223Y-8278266D01*
X5118709Y-8280196D01*
G37*
G36*
X1924608Y-8249158D02*
G01*
X2037791Y-8249158D01*
X2044090Y-8248446D01*
X2049576Y-8246516D01*
X2054453Y-8243468D01*
X2058568Y-8239353D01*
X2061616Y-8234476D01*
X2063546Y-8228990D01*
X2064257Y-8222691D01*
X2064257Y-8109508D01*
X2063546Y-8103209D01*
X2061616Y-8097723D01*
X2058568Y-8092846D01*
X2054453Y-8088731D01*
X2049576Y-8085683D01*
X2044090Y-8083753D01*
X2037791Y-8083042D01*
X1924608Y-8083042D01*
X1918309Y-8083753D01*
X1912823Y-8085683D01*
X1907946Y-8088731D01*
X1903831Y-8092846D01*
X1900783Y-8097723D01*
X1898853Y-8103209D01*
X1898142Y-8109508D01*
X1898142Y-8222691D01*
X1898853Y-8228990D01*
X1900783Y-8234476D01*
X1903831Y-8239353D01*
X1907946Y-8243468D01*
X1912823Y-8246516D01*
X1918309Y-8248446D01*
G37*
G36*
X7588808Y-8242808D02*
G01*
X7676591Y-8242808D01*
X7682890Y-8242096D01*
X7688376Y-8240166D01*
X7693253Y-8237118D01*
X7697368Y-8233003D01*
X7700416Y-8228126D01*
X7702346Y-8222640D01*
X7703058Y-8216341D01*
X7703058Y-8148116D01*
X7703769Y-8144357D01*
X7705852Y-8141106D01*
X7709001Y-8138871D01*
X7712760Y-8137956D01*
X7716570Y-8138515D01*
X7722209Y-8140496D01*
X7728508Y-8141208D01*
X7828991Y-8141208D01*
X7835290Y-8140496D01*
X7840776Y-8138566D01*
X7845653Y-8135518D01*
X7849768Y-8131403D01*
X7852816Y-8126526D01*
X7854746Y-8121040D01*
X7855458Y-8114741D01*
X7855458Y-8026958D01*
X7854746Y-8020659D01*
X7852816Y-8015173D01*
X7849768Y-8010296D01*
X7845653Y-8006181D01*
X7840776Y-8003133D01*
X7835290Y-8001203D01*
X7828991Y-8000492D01*
X7728508Y-8000492D01*
X7722209Y-8001203D01*
X7716723Y-8003133D01*
X7711846Y-8006181D01*
X7707731Y-8010296D01*
X7704683Y-8015173D01*
X7702753Y-8020659D01*
X7702042Y-8026958D01*
X7702042Y-8107883D01*
X7701330Y-8111642D01*
X7699248Y-8114893D01*
X7696098Y-8117128D01*
X7692339Y-8118043D01*
X7688529Y-8117484D01*
X7682890Y-8115503D01*
X7676591Y-8114792D01*
X7588808Y-8114792D01*
X7582509Y-8115503D01*
X7577023Y-8117433D01*
X7572146Y-8120481D01*
X7568031Y-8124596D01*
X7564983Y-8129473D01*
X7563053Y-8134959D01*
X7562342Y-8141258D01*
X7562342Y-8216341D01*
X7563053Y-8222640D01*
X7564983Y-8228126D01*
X7568031Y-8233003D01*
X7572146Y-8237118D01*
X7577023Y-8240166D01*
X7582509Y-8242096D01*
G37*
G36*
X4026458Y-8204708D02*
G01*
X4139641Y-8204708D01*
X4145940Y-8203996D01*
X4151426Y-8202066D01*
X4156303Y-8199018D01*
X4160418Y-8194903D01*
X4163466Y-8190026D01*
X4165396Y-8184540D01*
X4166108Y-8178241D01*
X4166108Y-8077758D01*
X4165396Y-8071459D01*
X4163466Y-8065973D01*
X4160418Y-8061096D01*
X4156303Y-8056981D01*
X4151426Y-8053933D01*
X4145940Y-8052003D01*
X4139641Y-8051292D01*
X4026458Y-8051292D01*
X4020159Y-8052003D01*
X4014673Y-8053933D01*
X4009796Y-8056981D01*
X4005681Y-8061096D01*
X4002633Y-8065973D01*
X4000703Y-8071459D01*
X3999992Y-8077758D01*
X3999992Y-8178241D01*
X4000703Y-8184540D01*
X4002633Y-8190026D01*
X4005681Y-8194903D01*
X4009796Y-8199018D01*
X4014673Y-8202066D01*
X4020159Y-8203996D01*
G37*
G36*
X2819958Y-8185658D02*
G01*
X2945841Y-8185658D01*
X2952140Y-8184946D01*
X2957626Y-8183016D01*
X2962503Y-8179968D01*
X2966618Y-8175853D01*
X2969666Y-8170976D01*
X2971596Y-8165490D01*
X2972308Y-8159191D01*
X2972308Y-8046008D01*
X2971596Y-8039709D01*
X2969666Y-8034223D01*
X2966618Y-8029346D01*
X2962503Y-8025231D01*
X2957626Y-8022183D01*
X2952140Y-8020253D01*
X2945841Y-8019542D01*
X2819958Y-8019542D01*
X2813659Y-8020253D01*
X2808173Y-8022183D01*
X2803296Y-8025231D01*
X2799181Y-8029346D01*
X2796133Y-8034223D01*
X2794203Y-8039709D01*
X2793492Y-8046008D01*
X2793492Y-8159191D01*
X2794203Y-8165490D01*
X2796133Y-8170976D01*
X2799181Y-8175853D01*
X2803296Y-8179968D01*
X2808173Y-8183016D01*
X2813659Y-8184946D01*
G37*
G36*
X1689658Y-8115808D02*
G01*
X1828241Y-8115808D01*
X1834540Y-8115096D01*
X1840026Y-8113166D01*
X1844903Y-8110118D01*
X1849018Y-8106003D01*
X1852066Y-8101126D01*
X1853996Y-8095640D01*
X1854707Y-8089341D01*
X1854707Y-7950758D01*
X1853996Y-7944459D01*
X1852066Y-7938973D01*
X1849018Y-7934096D01*
X1844903Y-7929981D01*
X1840026Y-7926933D01*
X1834540Y-7925003D01*
X1828241Y-7924292D01*
X1689658Y-7924292D01*
X1683359Y-7925003D01*
X1677873Y-7926933D01*
X1672996Y-7929981D01*
X1668881Y-7934096D01*
X1665833Y-7938973D01*
X1663903Y-7944459D01*
X1663192Y-7950758D01*
X1663192Y-8089341D01*
X1663903Y-8095640D01*
X1665833Y-8101126D01*
X1668881Y-8106003D01*
X1672996Y-8110118D01*
X1677873Y-8113166D01*
X1683359Y-8115096D01*
G37*
G36*
X5283758Y-8103108D02*
G01*
X5396941Y-8103108D01*
X5403240Y-8102396D01*
X5408726Y-8100466D01*
X5413603Y-8097418D01*
X5417718Y-8093303D01*
X5420766Y-8088426D01*
X5422696Y-8082940D01*
X5423408Y-8076641D01*
X5423408Y-7976158D01*
X5422696Y-7969859D01*
X5420715Y-7964220D01*
X5420156Y-7960410D01*
X5421071Y-7956651D01*
X5423306Y-7953502D01*
X5426557Y-7951419D01*
X5430316Y-7950708D01*
X5511241Y-7950708D01*
X5517540Y-7949996D01*
X5523026Y-7948066D01*
X5527903Y-7945018D01*
X5532018Y-7940903D01*
X5535066Y-7936026D01*
X5536996Y-7930540D01*
X5537708Y-7924241D01*
X5537708Y-7843316D01*
X5538419Y-7839557D01*
X5540502Y-7836306D01*
X5543651Y-7834071D01*
X5547410Y-7833156D01*
X5551220Y-7833715D01*
X5556859Y-7835696D01*
X5563158Y-7836408D01*
X5650941Y-7836408D01*
X5657240Y-7835696D01*
X5662726Y-7833766D01*
X5667603Y-7830718D01*
X5671718Y-7826603D01*
X5674766Y-7821726D01*
X5676696Y-7816240D01*
X5677408Y-7809941D01*
X5677408Y-7722158D01*
X5676696Y-7715859D01*
X5674766Y-7710373D01*
X5671718Y-7705496D01*
X5667603Y-7701381D01*
X5662726Y-7698333D01*
X5657240Y-7696403D01*
X5650941Y-7695692D01*
X5563158Y-7695692D01*
X5556859Y-7696403D01*
X5551373Y-7698333D01*
X5546496Y-7701381D01*
X5542381Y-7705496D01*
X5539333Y-7710373D01*
X5537403Y-7715859D01*
X5536692Y-7722158D01*
X5536692Y-7790383D01*
X5535980Y-7794142D01*
X5533898Y-7797393D01*
X5530748Y-7799628D01*
X5526989Y-7800543D01*
X5523179Y-7799984D01*
X5517540Y-7798003D01*
X5511241Y-7797292D01*
X5410758Y-7797292D01*
X5404459Y-7798003D01*
X5398973Y-7799933D01*
X5394096Y-7802981D01*
X5389981Y-7807096D01*
X5386933Y-7811973D01*
X5385003Y-7817459D01*
X5384292Y-7823758D01*
X5384292Y-7924241D01*
X5385003Y-7930540D01*
X5386984Y-7936179D01*
X5387543Y-7939989D01*
X5386628Y-7943748D01*
X5384393Y-7946898D01*
X5381142Y-7948980D01*
X5377383Y-7949692D01*
X5283758Y-7949692D01*
X5277459Y-7950403D01*
X5271973Y-7952333D01*
X5267096Y-7955381D01*
X5262981Y-7959496D01*
X5259933Y-7964373D01*
X5258003Y-7969859D01*
X5257292Y-7976158D01*
X5257292Y-8076641D01*
X5258003Y-8082940D01*
X5259933Y-8088426D01*
X5262981Y-8093303D01*
X5267096Y-8097418D01*
X5271973Y-8100466D01*
X5277459Y-8102396D01*
G37*
G36*
X7919008Y-8026908D02*
G01*
X8019491Y-8026908D01*
X8025790Y-8026196D01*
X8031276Y-8024266D01*
X8036153Y-8021218D01*
X8040268Y-8017103D01*
X8043316Y-8012226D01*
X8045246Y-8006740D01*
X8045958Y-8000441D01*
X8045958Y-7925358D01*
X8045246Y-7919059D01*
X8043316Y-7913573D01*
X8040268Y-7908696D01*
X8036153Y-7904581D01*
X8031276Y-7901533D01*
X8025790Y-7899603D01*
X8019491Y-7898892D01*
X7919008Y-7898892D01*
X7912709Y-7899603D01*
X7907223Y-7901533D01*
X7902346Y-7904581D01*
X7898231Y-7908696D01*
X7895183Y-7913573D01*
X7893253Y-7919059D01*
X7892542Y-7925358D01*
X7892542Y-8000441D01*
X7893253Y-8006740D01*
X7895183Y-8012226D01*
X7898231Y-8017103D01*
X7902346Y-8021218D01*
X7907223Y-8024266D01*
X7912709Y-8026196D01*
G37*
G36*
X3835958Y-8026908D02*
G01*
X3949141Y-8026908D01*
X3955440Y-8026196D01*
X3960926Y-8024266D01*
X3965803Y-8021218D01*
X3969918Y-8017103D01*
X3972966Y-8012226D01*
X3974896Y-8006740D01*
X3975608Y-8000441D01*
X3975608Y-7899958D01*
X3974896Y-7893659D01*
X3972966Y-7888173D01*
X3969918Y-7883296D01*
X3965803Y-7879181D01*
X3960926Y-7876133D01*
X3955440Y-7874203D01*
X3949141Y-7873492D01*
X3835958Y-7873492D01*
X3829659Y-7874203D01*
X3824173Y-7876133D01*
X3819296Y-7879181D01*
X3815181Y-7883296D01*
X3812133Y-7888173D01*
X3810203Y-7893659D01*
X3809492Y-7899958D01*
X3809492Y-8000441D01*
X3810203Y-8006740D01*
X3812133Y-8012226D01*
X3815181Y-8017103D01*
X3819296Y-8021218D01*
X3824173Y-8024266D01*
X3829659Y-8026196D01*
G37*
G36*
X3029508Y-8007858D02*
G01*
X3142691Y-8007858D01*
X3148990Y-8007146D01*
X3154476Y-8005216D01*
X3159353Y-8002168D01*
X3163468Y-7998053D01*
X3166516Y-7993176D01*
X3168446Y-7987690D01*
X3169158Y-7981391D01*
X3169158Y-7868208D01*
X3168446Y-7861909D01*
X3166516Y-7856423D01*
X3163468Y-7851546D01*
X3159353Y-7847431D01*
X3154476Y-7844383D01*
X3148990Y-7842453D01*
X3142691Y-7841742D01*
X3029508Y-7841742D01*
X3023209Y-7842453D01*
X3017723Y-7844383D01*
X3012846Y-7847431D01*
X3008731Y-7851546D01*
X3005683Y-7856423D01*
X3003753Y-7861909D01*
X3003042Y-7868208D01*
X3003042Y-7981391D01*
X3003753Y-7987690D01*
X3005683Y-7993176D01*
X3008731Y-7998053D01*
X3012846Y-8002168D01*
X3017723Y-8005216D01*
X3023209Y-8007146D01*
G37*
G36*
X6071158Y-7963408D02*
G01*
X6158941Y-7963408D01*
X6165240Y-7962696D01*
X6170726Y-7960766D01*
X6175603Y-7957718D01*
X6179718Y-7953603D01*
X6182766Y-7948726D01*
X6184696Y-7943240D01*
X6185408Y-7936941D01*
X6185408Y-7849158D01*
X6184696Y-7842859D01*
X6182766Y-7837373D01*
X6179718Y-7832496D01*
X6175603Y-7828381D01*
X6170726Y-7825333D01*
X6165240Y-7823403D01*
X6158941Y-7822692D01*
X6071158Y-7822692D01*
X6064859Y-7823403D01*
X6059373Y-7825333D01*
X6054496Y-7828381D01*
X6050381Y-7832496D01*
X6047333Y-7837373D01*
X6045403Y-7842859D01*
X6044692Y-7849158D01*
X6044692Y-7936941D01*
X6045403Y-7943240D01*
X6047333Y-7948726D01*
X6050381Y-7953603D01*
X6054496Y-7957718D01*
X6059373Y-7960766D01*
X6064859Y-7962696D01*
G37*
G36*
X1486458Y-7963408D02*
G01*
X1612341Y-7963408D01*
X1618640Y-7962696D01*
X1624126Y-7960766D01*
X1629003Y-7957718D01*
X1633118Y-7953603D01*
X1636166Y-7948726D01*
X1638096Y-7943240D01*
X1638807Y-7936941D01*
X1638807Y-7811058D01*
X1638096Y-7804759D01*
X1636166Y-7799273D01*
X1633118Y-7794396D01*
X1629003Y-7790281D01*
X1624126Y-7787233D01*
X1618640Y-7785303D01*
X1612341Y-7784592D01*
X1486458Y-7784592D01*
X1480159Y-7785303D01*
X1474673Y-7787233D01*
X1469796Y-7790281D01*
X1465630Y-7794447D01*
X1462379Y-7796631D01*
X1458468Y-7797393D01*
X1454556Y-7796631D01*
X1451305Y-7794447D01*
X1449070Y-7791145D01*
X1448308Y-7787233D01*
X1448308Y-7645958D01*
X1447596Y-7639659D01*
X1445666Y-7634173D01*
X1442618Y-7629296D01*
X1438503Y-7625181D01*
X1433626Y-7622133D01*
X1428140Y-7620203D01*
X1421841Y-7619492D01*
X1257858Y-7619492D01*
X1251559Y-7620203D01*
X1246073Y-7622133D01*
X1241196Y-7625181D01*
X1237081Y-7629296D01*
X1234033Y-7634173D01*
X1232103Y-7639659D01*
X1231392Y-7645958D01*
X1231392Y-7797241D01*
X1232103Y-7803540D01*
X1234033Y-7809026D01*
X1237081Y-7813903D01*
X1241196Y-7818018D01*
X1246073Y-7821066D01*
X1251559Y-7822996D01*
X1257858Y-7823708D01*
X1421841Y-7823708D01*
X1428140Y-7822996D01*
X1433626Y-7821066D01*
X1438503Y-7818018D01*
X1442669Y-7813852D01*
X1445920Y-7811668D01*
X1449832Y-7810906D01*
X1453743Y-7811668D01*
X1456994Y-7813852D01*
X1459230Y-7817154D01*
X1459992Y-7821066D01*
X1459992Y-7936941D01*
X1460703Y-7943240D01*
X1462633Y-7948726D01*
X1465681Y-7953603D01*
X1469796Y-7957718D01*
X1474673Y-7960766D01*
X1480159Y-7962696D01*
G37*
G36*
X3594658Y-7925308D02*
G01*
X3707841Y-7925308D01*
X3714140Y-7924596D01*
X3719626Y-7922666D01*
X3724503Y-7919618D01*
X3728618Y-7915503D01*
X3731666Y-7910626D01*
X3733596Y-7905140D01*
X3734308Y-7898841D01*
X3734308Y-7798358D01*
X3733596Y-7792059D01*
X3731666Y-7786573D01*
X3728618Y-7781696D01*
X3724503Y-7777581D01*
X3719626Y-7774533D01*
X3714140Y-7772603D01*
X3707841Y-7771892D01*
X3594658Y-7771892D01*
X3588359Y-7772603D01*
X3582873Y-7774533D01*
X3577996Y-7777581D01*
X3573881Y-7781696D01*
X3570833Y-7786573D01*
X3568903Y-7792059D01*
X3568192Y-7798358D01*
X3568192Y-7898841D01*
X3568903Y-7905140D01*
X3570833Y-7910626D01*
X3573881Y-7915503D01*
X3577996Y-7919618D01*
X3582873Y-7922666D01*
X3588359Y-7924596D01*
G37*
G36*
X3296208Y-7887208D02*
G01*
X3409391Y-7887208D01*
X3415690Y-7886496D01*
X3421176Y-7884566D01*
X3426053Y-7881518D01*
X3430168Y-7877403D01*
X3433216Y-7872526D01*
X3435146Y-7867040D01*
X3435858Y-7860741D01*
X3435858Y-7760258D01*
X3435146Y-7753959D01*
X3433216Y-7748473D01*
X3430168Y-7743596D01*
X3426053Y-7739481D01*
X3421176Y-7736433D01*
X3415690Y-7734503D01*
X3409391Y-7733792D01*
X3296208Y-7733792D01*
X3289909Y-7734503D01*
X3284423Y-7736433D01*
X3279546Y-7739481D01*
X3275431Y-7743596D01*
X3272383Y-7748473D01*
X3270453Y-7753959D01*
X3269742Y-7760258D01*
X3269742Y-7860741D01*
X3270453Y-7867040D01*
X3272383Y-7872526D01*
X3275431Y-7877403D01*
X3279546Y-7881518D01*
X3284423Y-7884566D01*
X3289909Y-7886496D01*
G37*
G36*
X5899708Y-7887208D02*
G01*
X5987491Y-7887208D01*
X5993790Y-7886496D01*
X5999276Y-7884566D01*
X6004153Y-7881518D01*
X6008268Y-7877403D01*
X6011316Y-7872526D01*
X6013246Y-7867040D01*
X6013958Y-7860741D01*
X6013958Y-7785658D01*
X6013246Y-7779359D01*
X6011316Y-7773873D01*
X6008268Y-7768996D01*
X6004153Y-7764881D01*
X5999276Y-7761833D01*
X5993790Y-7759903D01*
X5987491Y-7759192D01*
X5899708Y-7759192D01*
X5893409Y-7759903D01*
X5887923Y-7761833D01*
X5883046Y-7764881D01*
X5878931Y-7768996D01*
X5875883Y-7773873D01*
X5874969Y-7776464D01*
X5872886Y-7779969D01*
X5869635Y-7782356D01*
X5865672Y-7783271D01*
X5861710Y-7782610D01*
X5858306Y-7780426D01*
X5856020Y-7777073D01*
X5855208Y-7773111D01*
X5855208Y-7722158D01*
X5854496Y-7715859D01*
X5852566Y-7710373D01*
X5849518Y-7705496D01*
X5845403Y-7701381D01*
X5840526Y-7698333D01*
X5835040Y-7696403D01*
X5828741Y-7695692D01*
X5728258Y-7695692D01*
X5721959Y-7696403D01*
X5716473Y-7698333D01*
X5711596Y-7701381D01*
X5707481Y-7705496D01*
X5704433Y-7710373D01*
X5702503Y-7715859D01*
X5701792Y-7722158D01*
X5701792Y-7797241D01*
X5702503Y-7803540D01*
X5704433Y-7809026D01*
X5707481Y-7813903D01*
X5711596Y-7818018D01*
X5716473Y-7821066D01*
X5721959Y-7822996D01*
X5728258Y-7823708D01*
X5828741Y-7823708D01*
X5835040Y-7822996D01*
X5840526Y-7821066D01*
X5845403Y-7818018D01*
X5849518Y-7813903D01*
X5852566Y-7809026D01*
X5853480Y-7806436D01*
X5855563Y-7802930D01*
X5858814Y-7800543D01*
X5862777Y-7799628D01*
X5866739Y-7800289D01*
X5870143Y-7802473D01*
X5872429Y-7805826D01*
X5873242Y-7809788D01*
X5873242Y-7860741D01*
X5873953Y-7867040D01*
X5875883Y-7872526D01*
X5878931Y-7877403D01*
X5883046Y-7881518D01*
X5887923Y-7884566D01*
X5893409Y-7886496D01*
G37*
G36*
X1029258Y-7645908D02*
G01*
X1167841Y-7645908D01*
X1174140Y-7645196D01*
X1179626Y-7643266D01*
X1184503Y-7640218D01*
X1188618Y-7636103D01*
X1191666Y-7631226D01*
X1193596Y-7625740D01*
X1194308Y-7619441D01*
X1194308Y-7480858D01*
X1193596Y-7474559D01*
X1191666Y-7469073D01*
X1188618Y-7464196D01*
X1184503Y-7460081D01*
X1179626Y-7457033D01*
X1174140Y-7455103D01*
X1167841Y-7454392D01*
X1029258Y-7454392D01*
X1022959Y-7455103D01*
X1017473Y-7457033D01*
X1012596Y-7460081D01*
X1008481Y-7464196D01*
X1005433Y-7469073D01*
X1003503Y-7474559D01*
X1002792Y-7480858D01*
X1002792Y-7619441D01*
X1003503Y-7625740D01*
X1005433Y-7631226D01*
X1008481Y-7636103D01*
X1012596Y-7640218D01*
X1017473Y-7643266D01*
X1022959Y-7645196D01*
G37*
G36*
X5638647Y-7537856D02*
G01*
X5651754Y-7537856D01*
X5664708Y-7536078D01*
X5677306Y-7532573D01*
X5689295Y-7527340D01*
X5700471Y-7520533D01*
X5710631Y-7512253D01*
X5719572Y-7502702D01*
X5727141Y-7492034D01*
X5733135Y-7480401D01*
X5737504Y-7468057D01*
X5740196Y-7455255D01*
X5741060Y-7442200D01*
X5740196Y-7429144D01*
X5737504Y-7416292D01*
X5737402Y-7412990D01*
X5738368Y-7409789D01*
X5740298Y-7407046D01*
X6134709Y-7012635D01*
X6140297Y-7005878D01*
X6144209Y-6998512D01*
X6146596Y-6990588D01*
X6147460Y-6981799D01*
X6147460Y-5566816D01*
X6147917Y-5563768D01*
X6149289Y-5561025D01*
X6153861Y-5554472D01*
X6158026Y-5545582D01*
X6160566Y-5536082D01*
X6161430Y-5526278D01*
X6160566Y-5516473D01*
X6158026Y-5506974D01*
X6153861Y-5498084D01*
X6148273Y-5490057D01*
X6141313Y-5483098D01*
X6133236Y-5477459D01*
X6124346Y-5473293D01*
X6114846Y-5470753D01*
X6105093Y-5469890D01*
X6095288Y-5470753D01*
X6085789Y-5473293D01*
X6076899Y-5477459D01*
X6068822Y-5483098D01*
X6061862Y-5490057D01*
X6056274Y-5498084D01*
X6052108Y-5506974D01*
X6049568Y-5516473D01*
X6048705Y-5526278D01*
X6049568Y-5536082D01*
X6052108Y-5545582D01*
X6056274Y-5554472D01*
X6060795Y-5560974D01*
X6062167Y-5563768D01*
X6062675Y-5566816D01*
X6062675Y-6960565D01*
X6061862Y-6964425D01*
X6059678Y-6967728D01*
X5680151Y-7347254D01*
X5677204Y-7349286D01*
X5673750Y-7350201D01*
X5670194Y-7349845D01*
X5664708Y-7348321D01*
X5651754Y-7346543D01*
X5638647Y-7346543D01*
X5625693Y-7348321D01*
X5613095Y-7351877D01*
X5601106Y-7357059D01*
X5589930Y-7363866D01*
X5579770Y-7372146D01*
X5570829Y-7381697D01*
X5563260Y-7392365D01*
X5557266Y-7403998D01*
X5552897Y-7416342D01*
X5550204Y-7429144D01*
X5549341Y-7442200D01*
X5550204Y-7455255D01*
X5552897Y-7468057D01*
X5557266Y-7480401D01*
X5563260Y-7492034D01*
X5570829Y-7502702D01*
X5579770Y-7512253D01*
X5589930Y-7520533D01*
X5601106Y-7527340D01*
X5613095Y-7532573D01*
X5625693Y-7536078D01*
G37*
G36*
X6438646Y-7537856D02*
G01*
X6451752Y-7537856D01*
X6464706Y-7536078D01*
X6477304Y-7532573D01*
X6489293Y-7527340D01*
X6500469Y-7520533D01*
X6510629Y-7512253D01*
X6519570Y-7502702D01*
X6527139Y-7492034D01*
X6533134Y-7480401D01*
X6537502Y-7468057D01*
X6540195Y-7455255D01*
X6541058Y-7442200D01*
X6540195Y-7429144D01*
X6537502Y-7416342D01*
X6533134Y-7403998D01*
X6527139Y-7392365D01*
X6519570Y-7381697D01*
X6510629Y-7372146D01*
X6500469Y-7363866D01*
X6489293Y-7357059D01*
X6481013Y-7353452D01*
X6477812Y-7351268D01*
X6475628Y-7347966D01*
X6474917Y-7344156D01*
X6474917Y-7267397D01*
X6475476Y-7263993D01*
X6477152Y-7260996D01*
X6479794Y-7258710D01*
X6487769Y-7253833D01*
X6497929Y-7245553D01*
X6506870Y-7236002D01*
X6514439Y-7225334D01*
X6520434Y-7213701D01*
X6524802Y-7201357D01*
X6527495Y-7188555D01*
X6528358Y-7175500D01*
X6527495Y-7162444D01*
X6524802Y-7149592D01*
X6524701Y-7146290D01*
X6525666Y-7143089D01*
X6527596Y-7140346D01*
X6565138Y-7102805D01*
X6570725Y-7096048D01*
X6574637Y-7088682D01*
X6577025Y-7080758D01*
X6577888Y-7071969D01*
X6577888Y-6478879D01*
X6577025Y-6470142D01*
X6574637Y-6462166D01*
X6570725Y-6454851D01*
X6565138Y-6448044D01*
X6527596Y-6410502D01*
X6525666Y-6407810D01*
X6524701Y-6404610D01*
X6524853Y-6401257D01*
X6527495Y-6388455D01*
X6528358Y-6375400D01*
X6527495Y-6362344D01*
X6524802Y-6349542D01*
X6520434Y-6337198D01*
X6514439Y-6325565D01*
X6506870Y-6314897D01*
X6497929Y-6305346D01*
X6487769Y-6297066D01*
X6479794Y-6292189D01*
X6477152Y-6289903D01*
X6475476Y-6286906D01*
X6474917Y-6283502D01*
X6474917Y-6187897D01*
X6475476Y-6184493D01*
X6477152Y-6181496D01*
X6479794Y-6179210D01*
X6487769Y-6174333D01*
X6497929Y-6166053D01*
X6506870Y-6156502D01*
X6514439Y-6145834D01*
X6520434Y-6134201D01*
X6524802Y-6121857D01*
X6527495Y-6109055D01*
X6528358Y-6096000D01*
X6527495Y-6082944D01*
X6524802Y-6070142D01*
X6520434Y-6057798D01*
X6514439Y-6046165D01*
X6506870Y-6035497D01*
X6497929Y-6025946D01*
X6487769Y-6017666D01*
X6476593Y-6010859D01*
X6464604Y-6005677D01*
X6452006Y-6002121D01*
X6439052Y-6000343D01*
X6425946Y-6000343D01*
X6412992Y-6002121D01*
X6400393Y-6005677D01*
X6383324Y-6012891D01*
X6379057Y-6012535D01*
X6375349Y-6010452D01*
X6372809Y-6006998D01*
X6371894Y-6002832D01*
X6371894Y-1914855D01*
X6372656Y-1910994D01*
X6374892Y-1907692D01*
X6716268Y-1566316D01*
X6719519Y-1564132D01*
X6723430Y-1563370D01*
X6727291Y-1564132D01*
X6730593Y-1566316D01*
X6732828Y-1569618D01*
X6733590Y-1573530D01*
X6733590Y-1646732D01*
X6734302Y-1653032D01*
X6736232Y-1658518D01*
X6739280Y-1663395D01*
X6743395Y-1667510D01*
X6748272Y-1670557D01*
X6753758Y-1672488D01*
X6760057Y-1673199D01*
X6787235Y-1673199D01*
X6790893Y-1673910D01*
X6794042Y-1675841D01*
X6796278Y-1678787D01*
X6797344Y-1682394D01*
X6797954Y-1688592D01*
X6800342Y-1696567D01*
X6804253Y-1703882D01*
X6809536Y-1710283D01*
X6815988Y-1715566D01*
X6823303Y-1719478D01*
X6831228Y-1721916D01*
X6840016Y-1722780D01*
X7136485Y-1722780D01*
X7140244Y-1723491D01*
X7143445Y-1725523D01*
X7145680Y-1728622D01*
X7150150Y-1738122D01*
X7155738Y-1746199D01*
X7162698Y-1753158D01*
X7170775Y-1758746D01*
X7179665Y-1762912D01*
X7189165Y-1765452D01*
X7191298Y-1765655D01*
X7194702Y-1766570D01*
X7197598Y-1768602D01*
X7764881Y-2335834D01*
X7767066Y-2339136D01*
X7767878Y-2343048D01*
X7767878Y-6123584D01*
X7768691Y-6132372D01*
X7771130Y-6140297D01*
X7775041Y-6147663D01*
X7780629Y-6154420D01*
X7872018Y-6245860D01*
X7874203Y-6249111D01*
X7875016Y-6253022D01*
X7874203Y-6256883D01*
X7872018Y-6260185D01*
X7868716Y-6262420D01*
X7864856Y-6263182D01*
X7842758Y-6263182D01*
X7836408Y-6263894D01*
X7830972Y-6265824D01*
X7826095Y-6268872D01*
X7821980Y-6272987D01*
X7818881Y-6277864D01*
X7817002Y-6283350D01*
X7816291Y-6289649D01*
X7816291Y-6488531D01*
X7817002Y-6494830D01*
X7818881Y-6500317D01*
X7821980Y-6505194D01*
X7826095Y-6509308D01*
X7830972Y-6512356D01*
X7836408Y-6514287D01*
X7842758Y-6514998D01*
X8041589Y-6514998D01*
X8047939Y-6514287D01*
X8053374Y-6512356D01*
X8058302Y-6509308D01*
X8062366Y-6505194D01*
X8065465Y-6500317D01*
X8067395Y-6494830D01*
X8068106Y-6488531D01*
X8068106Y-6289649D01*
X8067395Y-6283350D01*
X8065465Y-6277864D01*
X8062366Y-6272987D01*
X8058302Y-6268872D01*
X8053374Y-6265824D01*
X8047939Y-6263894D01*
X8041589Y-6263182D01*
X7994446Y-6263182D01*
X7990789Y-6262522D01*
X7987588Y-6260541D01*
X7985353Y-6257594D01*
X7984337Y-6254038D01*
X7983728Y-6247739D01*
X7981289Y-6239814D01*
X7977378Y-6232499D01*
X7971790Y-6225692D01*
X7855661Y-6109512D01*
X7853425Y-6106210D01*
X7852664Y-6102350D01*
X7852664Y-4696358D01*
X7853425Y-4692446D01*
X7855661Y-4689195D01*
X7858963Y-4686960D01*
X7862824Y-4686198D01*
X8041589Y-4686198D01*
X8047939Y-4685487D01*
X8053374Y-4683556D01*
X8058302Y-4680508D01*
X8062366Y-4676394D01*
X8065465Y-4671517D01*
X8067395Y-4666030D01*
X8068106Y-4659731D01*
X8068106Y-4460849D01*
X8067395Y-4454550D01*
X8065465Y-4449064D01*
X8062366Y-4444187D01*
X8058302Y-4440072D01*
X8053374Y-4437024D01*
X8047939Y-4435094D01*
X8041589Y-4434382D01*
X7994751Y-4434382D01*
X7990840Y-4433620D01*
X7987538Y-4431385D01*
X7985353Y-4428134D01*
X7984591Y-4424222D01*
X7984591Y-2854858D01*
X7985353Y-2850997D01*
X7987538Y-2847695D01*
X7990840Y-2845460D01*
X7994751Y-2844698D01*
X8041589Y-2844698D01*
X8047939Y-2843987D01*
X8053374Y-2842056D01*
X8058302Y-2839008D01*
X8062366Y-2834894D01*
X8065465Y-2830017D01*
X8067395Y-2824530D01*
X8068106Y-2818231D01*
X8068106Y-2619349D01*
X8067395Y-2613050D01*
X8065465Y-2607564D01*
X8062366Y-2602687D01*
X8058302Y-2598572D01*
X8053374Y-2595524D01*
X8047939Y-2593594D01*
X8041589Y-2592882D01*
X7948625Y-2592882D01*
X7944764Y-2592120D01*
X7941462Y-2589936D01*
X7939227Y-2586634D01*
X7938465Y-2582722D01*
X7938465Y-1840026D01*
X7937601Y-1831238D01*
X7935214Y-1823313D01*
X7931302Y-1815998D01*
X7925714Y-1809191D01*
X7911998Y-1795475D01*
X7909661Y-1791868D01*
X7909052Y-1787652D01*
X7910220Y-1783537D01*
X7912353Y-1780946D01*
X7909763Y-1783130D01*
X7905648Y-1784299D01*
X7901431Y-1783638D01*
X7897875Y-1781302D01*
X7876641Y-1760118D01*
X7874457Y-1756816D01*
X7873695Y-1752955D01*
X7873695Y-853338D01*
X7874152Y-850290D01*
X7875524Y-847547D01*
X7880096Y-840994D01*
X7884261Y-832103D01*
X7886801Y-822604D01*
X7887665Y-812800D01*
X7886801Y-802995D01*
X7884261Y-793496D01*
X7880096Y-784606D01*
X7874457Y-776579D01*
X7867497Y-769620D01*
X7859471Y-763981D01*
X7850581Y-759815D01*
X7841081Y-757275D01*
X7831277Y-756412D01*
X7821472Y-757275D01*
X7811973Y-759815D01*
X7803083Y-763981D01*
X7795056Y-769620D01*
X7788097Y-776579D01*
X7782458Y-784606D01*
X7778292Y-793496D01*
X7775752Y-802995D01*
X7774889Y-812800D01*
X7775752Y-822604D01*
X7778292Y-832103D01*
X7782458Y-840994D01*
X7787030Y-847496D01*
X7788402Y-850290D01*
X7788859Y-853338D01*
X7788859Y-1620215D01*
X7787944Y-1624431D01*
X7785404Y-1627886D01*
X7781645Y-1629968D01*
X7777378Y-1630324D01*
X7773314Y-1629765D01*
X7770164Y-1628800D01*
X7767472Y-1626870D01*
X7758531Y-1617929D01*
X7751724Y-1612341D01*
X7744358Y-1608429D01*
X7736433Y-1605991D01*
X7727645Y-1605127D01*
X7173620Y-1605127D01*
X7164882Y-1605991D01*
X7156907Y-1608429D01*
X7149592Y-1612341D01*
X7142784Y-1617929D01*
X7125766Y-1634947D01*
X7122464Y-1637182D01*
X7118553Y-1637944D01*
X6955586Y-1637944D01*
X6951675Y-1637182D01*
X6948373Y-1634947D01*
X6946188Y-1631645D01*
X6945426Y-1627784D01*
X6945426Y-1517853D01*
X6944715Y-1511554D01*
X6942785Y-1506067D01*
X6939686Y-1501190D01*
X6935622Y-1497076D01*
X6930694Y-1494028D01*
X6924446Y-1491843D01*
X6921093Y-1489862D01*
X6918706Y-1486763D01*
X6917690Y-1483004D01*
X6918147Y-1479092D01*
X6920026Y-1475689D01*
X6923074Y-1473250D01*
X6926834Y-1472133D01*
X6929526Y-1471879D01*
X6937451Y-1469440D01*
X6944817Y-1465529D01*
X6951624Y-1459941D01*
X7003948Y-1407566D01*
X7009536Y-1400810D01*
X7013448Y-1393444D01*
X7015886Y-1385519D01*
X7016750Y-1376730D01*
X7016750Y-73253D01*
X7017054Y-70612D01*
X7019747Y-60604D01*
X7020610Y-50800D01*
X7019747Y-40995D01*
X7017207Y-31495D01*
X7013041Y-22606D01*
X7007453Y-14579D01*
X7000494Y-7620D01*
X6992416Y-1981D01*
X6983526Y2184D01*
X6974027Y4724D01*
X6964273Y5588D01*
X6954469Y4724D01*
X6944969Y2184D01*
X6936079Y-1981D01*
X6928002Y-7620D01*
X6921042Y-14579D01*
X6915454Y-22606D01*
X6911289Y-31495D01*
X6908749Y-40995D01*
X6907885Y-50800D01*
X6908749Y-60604D01*
X6911289Y-70104D01*
X6915454Y-78994D01*
X6921042Y-87020D01*
X6928916Y-94792D01*
X6931152Y-98094D01*
X6931914Y-102006D01*
X6931914Y-831494D01*
X6931050Y-835660D01*
X6928510Y-839063D01*
X6924852Y-841146D01*
X6920636Y-841603D01*
X6918909Y-841400D01*
X6760057Y-841400D01*
X6753758Y-842111D01*
X6748272Y-843991D01*
X6743395Y-847090D01*
X6739280Y-851204D01*
X6736232Y-856081D01*
X6734302Y-861568D01*
X6733590Y-867867D01*
X6733590Y-996746D01*
X6734302Y-1003046D01*
X6736232Y-1008532D01*
X6739280Y-1013409D01*
X6743395Y-1017524D01*
X6748272Y-1020571D01*
X6753758Y-1022502D01*
X6760057Y-1023213D01*
X6762140Y-1023213D01*
X6766052Y-1023975D01*
X6769353Y-1026160D01*
X6771538Y-1029462D01*
X6772300Y-1033373D01*
X6771538Y-1037234D01*
X6769353Y-1040536D01*
X6722821Y-1087069D01*
X6717233Y-1093876D01*
X6713321Y-1101191D01*
X6711340Y-1107744D01*
X6709918Y-1110640D01*
X6703618Y-1119530D01*
X6699503Y-1128420D01*
X6696964Y-1137920D01*
X6696100Y-1147724D01*
X6696964Y-1157528D01*
X6699503Y-1167028D01*
X6703669Y-1175918D01*
X6709257Y-1183944D01*
X6716217Y-1190904D01*
X6724294Y-1196543D01*
X6733184Y-1200708D01*
X6737146Y-1201775D01*
X6740906Y-1203655D01*
X6743598Y-1206957D01*
X6744665Y-1211021D01*
X6744004Y-1215237D01*
X6741718Y-1218742D01*
X6739280Y-1221181D01*
X6736232Y-1226108D01*
X6734302Y-1231544D01*
X6733590Y-1237894D01*
X6733590Y-1366723D01*
X6734302Y-1373073D01*
X6736232Y-1378508D01*
X6739280Y-1383436D01*
X6743395Y-1387500D01*
X6748272Y-1390599D01*
X6750608Y-1391412D01*
X6754114Y-1393494D01*
X6756501Y-1396796D01*
X6757416Y-1400759D01*
X6756704Y-1404772D01*
X6754469Y-1408176D01*
X6340856Y-1821738D01*
X6337554Y-1823974D01*
X6333693Y-1824736D01*
X6329781Y-1823974D01*
X6326479Y-1821738D01*
X6324295Y-1818487D01*
X6323533Y-1814575D01*
X6323533Y-436727D01*
X6322669Y-427990D01*
X6320231Y-420014D01*
X6316319Y-412699D01*
X6310731Y-405892D01*
X6305346Y-400507D01*
X6303314Y-397611D01*
X6302400Y-394208D01*
X6302197Y-392023D01*
X6299657Y-382524D01*
X6295491Y-373634D01*
X6290564Y-366572D01*
X6288887Y-362508D01*
X6289090Y-358089D01*
X6291072Y-354177D01*
X6294577Y-351536D01*
X6298895Y-350570D01*
X6673392Y-350570D01*
X6676440Y-351028D01*
X6679234Y-352399D01*
X6685788Y-356971D01*
X6694678Y-361137D01*
X6704177Y-363677D01*
X6713981Y-364540D01*
X6723735Y-363677D01*
X6733235Y-361137D01*
X6742125Y-356971D01*
X6750202Y-351383D01*
X6757162Y-344424D01*
X6762750Y-336346D01*
X6766915Y-327456D01*
X6769455Y-317957D01*
X6770319Y-308203D01*
X6769455Y-298399D01*
X6766915Y-288899D01*
X6762750Y-280009D01*
X6757162Y-271932D01*
X6750202Y-264972D01*
X6742125Y-259384D01*
X6733235Y-255219D01*
X6723735Y-252679D01*
X6713981Y-251815D01*
X6704177Y-252679D01*
X6694678Y-255219D01*
X6685788Y-259384D01*
X6679285Y-263906D01*
X6676491Y-265277D01*
X6673443Y-265734D01*
X6252616Y-265734D01*
X6243878Y-266598D01*
X6235903Y-269036D01*
X6228588Y-272948D01*
X6221780Y-278536D01*
X6068568Y-431749D01*
X6065266Y-433984D01*
X6061354Y-434746D01*
X6057493Y-433984D01*
X6054191Y-431749D01*
X6051956Y-428498D01*
X6051194Y-424586D01*
X6051194Y109982D01*
X6050330Y118719D01*
X6047943Y126695D01*
X6044031Y134010D01*
X6038443Y140817D01*
X5875020Y304241D01*
X5868212Y309829D01*
X5860897Y313740D01*
X5852922Y316128D01*
X5844184Y316992D01*
X5633516Y316992D01*
X5624779Y316128D01*
X5616803Y313740D01*
X5609488Y309829D01*
X5602681Y304241D01*
X4465929Y-832510D01*
X4462678Y-834694D01*
X4458766Y-835507D01*
X4454855Y-834694D01*
X4451604Y-832510D01*
X4449368Y-829208D01*
X4448606Y-825347D01*
X4448606Y-803249D01*
X4447895Y-796950D01*
X4445965Y-791464D01*
X4442917Y-786587D01*
X4438802Y-782472D01*
X4433925Y-779424D01*
X4428439Y-777494D01*
X4422140Y-776782D01*
X4223258Y-776782D01*
X4216958Y-777494D01*
X4211472Y-779424D01*
X4206595Y-782472D01*
X4202480Y-786587D01*
X4199432Y-791464D01*
X4197502Y-796950D01*
X4196791Y-803249D01*
X4196791Y-1002131D01*
X4197502Y-1008430D01*
X4199432Y-1013917D01*
X4202480Y-1018794D01*
X4206595Y-1022908D01*
X4211472Y-1026007D01*
X4216958Y-1027887D01*
X4223258Y-1028598D01*
X4422140Y-1028598D01*
X4428439Y-1027887D01*
X4433925Y-1026007D01*
X4438802Y-1022908D01*
X4442917Y-1018794D01*
X4445965Y-1013917D01*
X4447895Y-1008430D01*
X4448606Y-1002131D01*
X4448606Y-954938D01*
X4449267Y-951280D01*
X4451248Y-948131D01*
X4454194Y-945896D01*
X4457750Y-944829D01*
X4463999Y-944219D01*
X4471974Y-941832D01*
X4479290Y-937920D01*
X4486097Y-932332D01*
X5647639Y229209D01*
X5650890Y231394D01*
X5654802Y232156D01*
X5746902Y232156D01*
X5750509Y231495D01*
X5753709Y229565D01*
X5755944Y226618D01*
X5757011Y223062D01*
X5756706Y219405D01*
X5754979Y213004D01*
X5754116Y203200D01*
X5754979Y193395D01*
X5757519Y183896D01*
X5761685Y175006D01*
X5766257Y168503D01*
X5767628Y165709D01*
X5768086Y162661D01*
X5768086Y-563321D01*
X5767171Y-567537D01*
X5764530Y-570992D01*
X5760720Y-573074D01*
X5756402Y-573328D01*
X5752338Y-571804D01*
X5749340Y-568706D01*
X5746292Y-563880D01*
X5742178Y-559816D01*
X5737301Y-556717D01*
X5731865Y-554786D01*
X5725515Y-554075D01*
X5526684Y-554075D01*
X5520334Y-554786D01*
X5514898Y-556717D01*
X5509971Y-559816D01*
X5505907Y-563880D01*
X5502808Y-568807D01*
X5500878Y-574243D01*
X5500166Y-580593D01*
X5500166Y-627430D01*
X5499404Y-631291D01*
X5497220Y-634593D01*
X5493918Y-636828D01*
X5490006Y-637590D01*
X5392318Y-637590D01*
X5383580Y-638454D01*
X5375605Y-640842D01*
X5368290Y-644753D01*
X5361482Y-650341D01*
X3127146Y-2884728D01*
X3121558Y-2891536D01*
X3117646Y-2898851D01*
X3115208Y-2906776D01*
X3114395Y-2915564D01*
X3114395Y-6010452D01*
X3113684Y-6014161D01*
X3111652Y-6017361D01*
X3108553Y-6019596D01*
X3104896Y-6020562D01*
X3101136Y-6020104D01*
X3088995Y-6012789D01*
X3086354Y-6010503D01*
X3084677Y-6007506D01*
X3084118Y-6004102D01*
X3084118Y-1628546D01*
X3084880Y-1624634D01*
X3087065Y-1621332D01*
X3558641Y-1149807D01*
X3561943Y-1147572D01*
X3565855Y-1146860D01*
X3569817Y-1147673D01*
X3573068Y-1149908D01*
X3575253Y-1153261D01*
X3575964Y-1157224D01*
X3575100Y-1161135D01*
X3566160Y-1181150D01*
X3558590Y-1202944D01*
X3552850Y-1225346D01*
X3548989Y-1248105D01*
X3547059Y-1271168D01*
X3547059Y-1294231D01*
X3548989Y-1317294D01*
X3552850Y-1340053D01*
X3558590Y-1362456D01*
X3566160Y-1384249D01*
X3575558Y-1405382D01*
X3586683Y-1425600D01*
X3599484Y-1444853D01*
X3613861Y-1462989D01*
X3629660Y-1479804D01*
X3646830Y-1495298D01*
X3665220Y-1509268D01*
X3684727Y-1521612D01*
X3705250Y-1532331D01*
X3726535Y-1541272D01*
X3748481Y-1548434D01*
X3770985Y-1553718D01*
X3793845Y-1557070D01*
X3816908Y-1558544D01*
X3840022Y-1558036D01*
X3862984Y-1555648D01*
X3885692Y-1551330D01*
X3907942Y-1545082D01*
X3929634Y-1537055D01*
X3950512Y-1527200D01*
X3970528Y-1515668D01*
X3989527Y-1502460D01*
X4007307Y-1487728D01*
X4023817Y-1471574D01*
X4038904Y-1454099D01*
X4052519Y-1435404D01*
X4064457Y-1415592D01*
X4074769Y-1394917D01*
X4083253Y-1373428D01*
X4089908Y-1351330D01*
X4094734Y-1328724D01*
X4097629Y-1305763D01*
X4098594Y-1282700D01*
X4097629Y-1259636D01*
X4094734Y-1236675D01*
X4089908Y-1214069D01*
X4083253Y-1191971D01*
X4074769Y-1170482D01*
X4064457Y-1149807D01*
X4052519Y-1129995D01*
X4038904Y-1111351D01*
X4023817Y-1093825D01*
X4007307Y-1077671D01*
X3989527Y-1062939D01*
X3970528Y-1049731D01*
X3950512Y-1038199D01*
X3929634Y-1028344D01*
X3907942Y-1020318D01*
X3885692Y-1014069D01*
X3862984Y-1009751D01*
X3840022Y-1007364D01*
X3816908Y-1006856D01*
X3793845Y-1008329D01*
X3770985Y-1011682D01*
X3748481Y-1016965D01*
X3726535Y-1024128D01*
X3705250Y-1033068D01*
X3701491Y-1034999D01*
X3697579Y-1036116D01*
X3693515Y-1035608D01*
X3690010Y-1033526D01*
X3687572Y-1030224D01*
X3686657Y-1026261D01*
X3687368Y-1022248D01*
X3689604Y-1018794D01*
X3852316Y-856081D01*
X3857904Y-849325D01*
X3861815Y-841959D01*
X3864254Y-834034D01*
X3864864Y-827786D01*
X3865879Y-824179D01*
X3868115Y-821232D01*
X3871315Y-819302D01*
X3874973Y-818591D01*
X3922115Y-818591D01*
X3928465Y-817880D01*
X3933901Y-816000D01*
X3938828Y-812901D01*
X3942892Y-808837D01*
X3945991Y-803910D01*
X3947871Y-798474D01*
X3948633Y-792124D01*
X3948633Y-639318D01*
X3949395Y-635406D01*
X3951579Y-632104D01*
X3954881Y-629920D01*
X3958793Y-629158D01*
X3962654Y-629920D01*
X3965956Y-632104D01*
X4057142Y-723341D01*
X4059174Y-726236D01*
X4060088Y-729640D01*
X4059783Y-733145D01*
X4057040Y-743356D01*
X4056176Y-753160D01*
X4057040Y-762914D01*
X4059580Y-772414D01*
X4063746Y-781304D01*
X4069384Y-789381D01*
X4076344Y-796340D01*
X4084370Y-801928D01*
X4093260Y-806094D01*
X4102760Y-808634D01*
X4112564Y-809498D01*
X4122369Y-808634D01*
X4131868Y-806094D01*
X4140758Y-801928D01*
X4148785Y-796340D01*
X4155744Y-789381D01*
X4161383Y-781304D01*
X4165549Y-772414D01*
X4168089Y-762914D01*
X4168952Y-753160D01*
X4168089Y-743356D01*
X4165549Y-733856D01*
X4161383Y-724966D01*
X4156100Y-717397D01*
X4154881Y-715111D01*
X4154119Y-710488D01*
X4151680Y-702564D01*
X4147769Y-695248D01*
X4142181Y-688441D01*
X3984955Y-531164D01*
X3978148Y-525576D01*
X3970782Y-521665D01*
X3962857Y-519226D01*
X3954068Y-518363D01*
X3691331Y-518363D01*
X3682542Y-519226D01*
X3674618Y-521665D01*
X3667302Y-525576D01*
X3660495Y-531164D01*
X2779471Y-1412138D01*
X2775661Y-1414526D01*
X2771190Y-1415034D01*
X2766923Y-1413560D01*
X2763723Y-1410411D01*
X2762199Y-1406194D01*
X2762707Y-1401673D01*
X2766466Y-1390548D01*
X2769057Y-1377442D01*
X2769971Y-1363776D01*
X2769971Y-1216863D01*
X2769057Y-1203198D01*
X2766466Y-1190091D01*
X2762199Y-1177442D01*
X2756255Y-1165453D01*
X2748838Y-1154379D01*
X2740050Y-1144320D01*
X2729992Y-1135532D01*
X2718917Y-1128115D01*
X2706928Y-1122222D01*
X2694279Y-1117904D01*
X2681173Y-1115314D01*
X2667863Y-1114450D01*
X2654554Y-1115314D01*
X2641447Y-1117904D01*
X2628798Y-1122222D01*
X2616809Y-1128115D01*
X2605735Y-1135532D01*
X2595676Y-1144320D01*
X2586888Y-1154379D01*
X2579471Y-1165453D01*
X2573528Y-1177442D01*
X2569260Y-1190091D01*
X2566670Y-1203198D01*
X2565755Y-1216863D01*
X2565755Y-1363776D01*
X2566670Y-1377442D01*
X2569260Y-1390548D01*
X2573528Y-1403197D01*
X2579471Y-1415186D01*
X2586888Y-1426260D01*
X2595676Y-1436319D01*
X2605735Y-1445107D01*
X2616809Y-1452524D01*
X2628798Y-1458417D01*
X2641447Y-1462735D01*
X2654554Y-1465326D01*
X2667863Y-1466189D01*
X2681173Y-1465326D01*
X2694279Y-1462735D01*
X2705455Y-1458925D01*
X2709926Y-1458468D01*
X2714142Y-1459992D01*
X2717342Y-1463192D01*
X2718816Y-1467459D01*
X2718308Y-1471930D01*
X2715869Y-1475740D01*
X2489657Y-1702003D01*
X2484069Y-1708810D01*
X2480157Y-1716125D01*
X2477719Y-1724050D01*
X2476906Y-1732838D01*
X2476906Y-2595422D01*
X2476093Y-2599334D01*
X2473909Y-2602636D01*
X2470607Y-2604820D01*
X2466746Y-2605582D01*
X2419858Y-2605582D01*
X2413558Y-2606294D01*
X2408072Y-2608224D01*
X2403195Y-2611272D01*
X2399080Y-2615387D01*
X2396032Y-2620264D01*
X2394102Y-2625750D01*
X2393391Y-2632049D01*
X2393391Y-2830931D01*
X2394102Y-2837230D01*
X2396032Y-2842717D01*
X2399080Y-2847594D01*
X2403195Y-2851708D01*
X2408072Y-2854807D01*
X2413558Y-2856687D01*
X2419858Y-2857398D01*
X2466746Y-2857398D01*
X2470607Y-2858160D01*
X2473909Y-2860395D01*
X2476093Y-2863697D01*
X2476906Y-2867558D01*
X2476906Y-4424222D01*
X2476093Y-4428134D01*
X2473909Y-4431385D01*
X2470607Y-4433620D01*
X2466746Y-4434382D01*
X2419858Y-4434382D01*
X2413558Y-4435094D01*
X2408072Y-4437024D01*
X2403195Y-4440072D01*
X2399080Y-4444187D01*
X2396032Y-4449064D01*
X2394102Y-4454550D01*
X2393391Y-4460849D01*
X2393391Y-4659731D01*
X2394102Y-4666030D01*
X2396032Y-4671517D01*
X2399080Y-4676394D01*
X2403195Y-4680508D01*
X2408072Y-4683556D01*
X2413558Y-4685487D01*
X2419858Y-4686198D01*
X2618740Y-4686198D01*
X2625039Y-4685487D01*
X2630525Y-4683556D01*
X2635402Y-4680508D01*
X2639517Y-4676394D01*
X2642565Y-4671517D01*
X2644495Y-4666030D01*
X2645206Y-4659731D01*
X2645206Y-4460849D01*
X2644495Y-4454550D01*
X2642565Y-4449064D01*
X2639517Y-4444187D01*
X2635402Y-4440072D01*
X2630525Y-4437024D01*
X2625039Y-4435094D01*
X2618740Y-4434382D01*
X2571851Y-4434382D01*
X2567990Y-4433620D01*
X2564688Y-4431385D01*
X2562453Y-4428134D01*
X2561691Y-4424222D01*
X2561691Y-2867558D01*
X2562453Y-2863697D01*
X2564688Y-2860395D01*
X2567990Y-2858160D01*
X2571851Y-2857398D01*
X2618740Y-2857398D01*
X2625039Y-2856687D01*
X2630525Y-2854807D01*
X2635402Y-2851708D01*
X2639517Y-2847594D01*
X2642565Y-2842717D01*
X2644495Y-2837230D01*
X2645206Y-2830931D01*
X2645206Y-2632049D01*
X2644495Y-2625750D01*
X2642565Y-2620264D01*
X2639517Y-2615387D01*
X2635402Y-2611272D01*
X2630525Y-2608224D01*
X2625039Y-2606294D01*
X2618740Y-2605582D01*
X2571851Y-2605582D01*
X2567990Y-2604820D01*
X2564688Y-2602636D01*
X2562453Y-2599334D01*
X2561691Y-2595422D01*
X2561691Y-1754073D01*
X2562453Y-1750212D01*
X2564688Y-1746910D01*
X3679444Y-632155D01*
X3682746Y-629920D01*
X3686657Y-629158D01*
X3690518Y-629920D01*
X3693820Y-632155D01*
X3696004Y-635406D01*
X3696766Y-639318D01*
X3696766Y-792124D01*
X3697528Y-798474D01*
X3699408Y-803910D01*
X3702507Y-808837D01*
X3706571Y-812901D01*
X3711498Y-816000D01*
X3716934Y-817880D01*
X3723284Y-818591D01*
X3745331Y-818591D01*
X3749243Y-819403D01*
X3752545Y-821588D01*
X3754729Y-824890D01*
X3755491Y-828751D01*
X3754729Y-832662D01*
X3752545Y-835964D01*
X3012033Y-1576425D01*
X3006445Y-1583232D01*
X3002534Y-1590548D01*
X3000146Y-1598523D01*
X2999282Y-1607261D01*
X2999282Y-6004102D01*
X2998673Y-6007506D01*
X2996996Y-6010554D01*
X2994406Y-6012789D01*
X2986430Y-6017666D01*
X2976270Y-6025946D01*
X2967329Y-6035497D01*
X2959760Y-6046165D01*
X2953766Y-6057798D01*
X2949397Y-6070142D01*
X2946704Y-6082944D01*
X2945841Y-6096000D01*
X2946704Y-6109055D01*
X2949397Y-6121857D01*
X2953766Y-6134201D01*
X2959760Y-6145834D01*
X2967329Y-6156502D01*
X2976270Y-6166053D01*
X2986430Y-6174333D01*
X2997606Y-6181140D01*
X3009595Y-6186373D01*
X3022193Y-6189878D01*
X3035147Y-6191656D01*
X3048254Y-6191656D01*
X3061208Y-6189878D01*
X3073806Y-6186373D01*
X3085795Y-6181140D01*
X3101136Y-6171895D01*
X3104896Y-6171438D01*
X3108553Y-6172403D01*
X3111652Y-6174638D01*
X3113684Y-6177838D01*
X3114395Y-6181547D01*
X3114395Y-6225844D01*
X3113582Y-6229705D01*
X3111398Y-6233007D01*
X3076651Y-6267754D01*
X3073704Y-6269786D01*
X3070250Y-6270701D01*
X3066694Y-6270345D01*
X3061208Y-6268821D01*
X3048254Y-6267043D01*
X3035147Y-6267043D01*
X3022193Y-6268821D01*
X3009595Y-6272377D01*
X2997606Y-6277559D01*
X2986430Y-6284366D01*
X2976270Y-6292646D01*
X2967329Y-6302197D01*
X2959760Y-6312865D01*
X2953766Y-6324498D01*
X2949397Y-6336842D01*
X2946704Y-6349644D01*
X2945841Y-6362700D01*
X2946704Y-6375755D01*
X2949397Y-6388557D01*
X2953766Y-6400901D01*
X2959760Y-6412534D01*
X2967329Y-6423202D01*
X2976270Y-6432753D01*
X2986430Y-6441033D01*
X2990291Y-6444488D01*
X2991916Y-6448552D01*
X2991662Y-6452920D01*
X2989630Y-6456781D01*
X2986125Y-6459423D01*
X2981858Y-6460337D01*
X2959252Y-6460337D01*
X2950464Y-6461201D01*
X2942539Y-6463588D01*
X2935224Y-6467500D01*
X2928416Y-6473088D01*
X2891332Y-6510172D01*
X2888437Y-6512204D01*
X2885033Y-6513118D01*
X2882900Y-6513271D01*
X2873400Y-6515811D01*
X2864510Y-6519976D01*
X2856484Y-6525615D01*
X2849524Y-6532575D01*
X2843885Y-6540601D01*
X2839720Y-6549491D01*
X2837180Y-6558991D01*
X2836316Y-6568795D01*
X2837180Y-6578600D01*
X2839720Y-6588099D01*
X2843885Y-6596989D01*
X2849524Y-6605016D01*
X2856484Y-6611975D01*
X2864510Y-6617614D01*
X2873400Y-6621780D01*
X2882900Y-6624320D01*
X2892704Y-6625183D01*
X2902508Y-6624320D01*
X2912008Y-6621780D01*
X2920898Y-6617614D01*
X2932582Y-6609486D01*
X2936595Y-6608775D01*
X2940558Y-6609689D01*
X2943860Y-6612077D01*
X2945942Y-6615582D01*
X2946501Y-6619646D01*
X2945841Y-6629400D01*
X2946704Y-6642455D01*
X2949397Y-6655257D01*
X2953766Y-6667601D01*
X2959760Y-6679234D01*
X2967329Y-6689902D01*
X2976270Y-6699453D01*
X2979724Y-6702298D01*
X2982315Y-6705498D01*
X2983433Y-6709460D01*
X2982874Y-6713575D01*
X2980740Y-6717080D01*
X2977337Y-6719468D01*
X2973324Y-6720331D01*
X2486761Y-6720331D01*
X2483256Y-6719722D01*
X2480208Y-6717944D01*
X2473553Y-6712305D01*
X2462072Y-6704990D01*
X2449677Y-6699250D01*
X2436672Y-6695186D01*
X2423210Y-6692950D01*
X2409596Y-6692493D01*
X2396032Y-6693814D01*
X2382774Y-6697014D01*
X2370023Y-6701891D01*
X2358085Y-6708444D01*
X2347112Y-6716522D01*
X2337308Y-6726021D01*
X2328824Y-6736740D01*
X2321864Y-6748475D01*
X2316581Y-6761022D01*
X2314752Y-6767626D01*
X2312822Y-6771386D01*
X2309520Y-6774027D01*
X2305456Y-6775094D01*
X2301290Y-6774434D01*
X2297785Y-6772148D01*
X1773021Y-6247384D01*
X1770786Y-6244082D01*
X1770024Y-6240170D01*
X1770024Y-5096916D01*
X1770938Y-5092700D01*
X1773478Y-5089245D01*
X1777238Y-5087162D01*
X1781556Y-5086807D01*
X1785569Y-5088280D01*
X1788668Y-5091277D01*
X1796084Y-5102453D01*
X1810461Y-5120589D01*
X1826260Y-5137404D01*
X1843430Y-5152898D01*
X1861820Y-5166868D01*
X1881327Y-5179212D01*
X1901850Y-5189931D01*
X1923135Y-5198872D01*
X1945081Y-5206034D01*
X1967585Y-5211318D01*
X1990445Y-5214670D01*
X2013508Y-5216144D01*
X2036622Y-5215636D01*
X2059584Y-5213248D01*
X2082292Y-5208930D01*
X2104542Y-5202682D01*
X2126234Y-5194655D01*
X2147112Y-5184800D01*
X2167128Y-5173268D01*
X2186127Y-5160060D01*
X2203907Y-5145328D01*
X2220417Y-5129174D01*
X2235504Y-5111699D01*
X2249119Y-5093004D01*
X2261057Y-5073192D01*
X2271369Y-5052517D01*
X2279853Y-5031028D01*
X2286508Y-5008930D01*
X2291334Y-4986324D01*
X2294229Y-4963363D01*
X2295194Y-4940300D01*
X2294229Y-4917236D01*
X2291334Y-4894275D01*
X2286508Y-4871669D01*
X2279853Y-4849571D01*
X2271369Y-4828082D01*
X2261057Y-4807407D01*
X2249119Y-4787595D01*
X2235504Y-4768951D01*
X2220417Y-4751425D01*
X2203907Y-4735271D01*
X2186127Y-4720539D01*
X2167128Y-4707331D01*
X2147112Y-4695799D01*
X2126234Y-4685944D01*
X2104542Y-4677918D01*
X2082292Y-4671669D01*
X2059584Y-4667351D01*
X2036622Y-4664964D01*
X2013508Y-4664456D01*
X1990445Y-4665929D01*
X1967585Y-4669282D01*
X1945081Y-4674565D01*
X1923135Y-4681728D01*
X1901850Y-4690668D01*
X1898040Y-4692650D01*
X1894128Y-4693767D01*
X1890064Y-4693259D01*
X1886508Y-4691176D01*
X1884121Y-4687874D01*
X1883206Y-4683912D01*
X1883918Y-4679848D01*
X1886153Y-4676444D01*
X2048916Y-4513681D01*
X2054504Y-4506874D01*
X2058416Y-4499559D01*
X2060854Y-4491583D01*
X2061464Y-4485386D01*
X2062480Y-4481779D01*
X2064715Y-4478832D01*
X2067915Y-4476902D01*
X2071573Y-4476191D01*
X2118715Y-4476191D01*
X2125065Y-4475480D01*
X2130501Y-4473600D01*
X2135428Y-4470501D01*
X2139492Y-4466386D01*
X2142591Y-4461510D01*
X2144471Y-4456023D01*
X2145182Y-4449724D01*
X2145182Y-4250842D01*
X2144471Y-4244543D01*
X2142591Y-4239056D01*
X2139492Y-4234180D01*
X2135428Y-4230065D01*
X2130501Y-4227017D01*
X2125065Y-4225086D01*
X2118715Y-4224375D01*
X1919884Y-4224375D01*
X1913534Y-4225086D01*
X1908098Y-4227017D01*
X1903171Y-4230065D01*
X1899107Y-4234180D01*
X1896008Y-4239056D01*
X1894078Y-4244543D01*
X1893366Y-4250842D01*
X1893366Y-4449724D01*
X1894078Y-4456023D01*
X1896008Y-4461510D01*
X1899107Y-4466386D01*
X1903171Y-4470501D01*
X1908098Y-4473600D01*
X1913534Y-4475480D01*
X1919884Y-4476191D01*
X1941931Y-4476191D01*
X1945843Y-4476953D01*
X1949094Y-4479188D01*
X1951329Y-4482490D01*
X1952091Y-4486351D01*
X1951329Y-4490262D01*
X1949094Y-4493564D01*
X1697989Y-4744669D01*
X1692402Y-4751476D01*
X1688490Y-4758791D01*
X1686052Y-4766767D01*
X1685239Y-4775504D01*
X1685239Y-6261455D01*
X1686052Y-6270193D01*
X1688490Y-6278168D01*
X1692402Y-6285484D01*
X1697989Y-6292291D01*
X2339746Y-6934047D01*
X2346553Y-6939635D01*
X2354021Y-6943598D01*
X2355900Y-6944258D01*
X2359660Y-6946544D01*
X2362047Y-6950202D01*
X2362708Y-6954520D01*
X2361488Y-6958736D01*
X2358593Y-6962038D01*
X2347112Y-6970522D01*
X2337308Y-6980021D01*
X2328824Y-6990740D01*
X2321864Y-7002475D01*
X2316581Y-7015022D01*
X2312974Y-7028180D01*
X2311146Y-7041692D01*
X2311146Y-7055307D01*
X2312974Y-7068820D01*
X2316581Y-7081977D01*
X2321864Y-7094524D01*
X2328824Y-7106259D01*
X2337308Y-7116978D01*
X2347112Y-7126478D01*
X2358085Y-7134555D01*
X2370023Y-7141108D01*
X2382774Y-7145985D01*
X2396032Y-7149185D01*
X2409596Y-7150506D01*
X2423210Y-7150049D01*
X2436672Y-7147814D01*
X2449677Y-7143750D01*
X2462072Y-7138009D01*
X2473553Y-7130694D01*
X2483967Y-7121906D01*
X2493111Y-7111746D01*
X2500833Y-7100519D01*
X2506980Y-7088378D01*
X2511450Y-7075474D01*
X2514193Y-7062114D01*
X2515108Y-7048500D01*
X2514193Y-7034885D01*
X2511450Y-7021525D01*
X2506980Y-7008622D01*
X2500833Y-6996480D01*
X2493111Y-6985253D01*
X2483967Y-6975094D01*
X2473553Y-6966305D01*
X2472334Y-6965543D01*
X2469235Y-6962495D01*
X2467711Y-6958431D01*
X2468016Y-6954113D01*
X2470099Y-6950303D01*
X2473553Y-6947712D01*
X2477770Y-6946798D01*
X2632862Y-6946798D01*
X2636723Y-6947560D01*
X2640025Y-6949795D01*
X2749346Y-7059066D01*
X2756154Y-7064654D01*
X2763469Y-7068566D01*
X2771394Y-7071004D01*
X2780182Y-7071868D01*
X2973324Y-7071868D01*
X2977388Y-7072680D01*
X2980740Y-7075068D01*
X2982925Y-7078624D01*
X2983484Y-7082688D01*
X2982366Y-7086701D01*
X2979724Y-7089902D01*
X2976270Y-7092746D01*
X2967329Y-7102297D01*
X2959760Y-7112965D01*
X2953766Y-7124598D01*
X2949397Y-7136942D01*
X2946704Y-7149744D01*
X2945841Y-7162800D01*
X2946704Y-7175855D01*
X2949397Y-7188657D01*
X2953766Y-7201001D01*
X2957728Y-7208672D01*
X2958846Y-7212634D01*
X2958287Y-7216749D01*
X2956153Y-7220254D01*
X2952750Y-7222642D01*
X2948686Y-7223506D01*
X1221740Y-7223506D01*
X1217828Y-7222744D01*
X1214577Y-7220508D01*
X1121359Y-7127341D01*
X1119073Y-7123734D01*
X1118412Y-7119518D01*
X1119581Y-7115403D01*
X1122375Y-7112101D01*
X1126236Y-7110272D01*
X1130503Y-7110222D01*
X1136853Y-7111441D01*
X1142644Y-7111288D01*
X1148791Y-7109663D01*
X1222451Y-7081418D01*
X1228090Y-7078472D01*
X1232509Y-7074763D01*
X1235964Y-7070140D01*
X1238300Y-7064806D01*
X1239418Y-7059168D01*
X1239266Y-7053376D01*
X1237691Y-7047230D01*
X1232001Y-7032498D01*
X1231341Y-7028688D01*
X1232154Y-7024878D01*
X1234338Y-7021677D01*
X1321612Y-6934352D01*
X1327200Y-6927596D01*
X1331112Y-6920230D01*
X1333500Y-6912305D01*
X1334363Y-6903516D01*
X1334363Y-2645867D01*
X1335125Y-2641955D01*
X1337360Y-2638653D01*
X1940966Y-2035048D01*
X1946554Y-2028240D01*
X1949450Y-2024329D01*
X1952650Y-2022449D01*
X1956358Y-2021890D01*
X1960016Y-2022652D01*
X1963115Y-2024735D01*
X1972462Y-2033778D01*
X1983435Y-2041855D01*
X1993900Y-2047595D01*
X1993900Y-2000250D01*
X1963928Y-2000250D01*
X1960016Y-1999488D01*
X1956714Y-1997252D01*
X1954530Y-1994001D01*
X1953768Y-1990089D01*
X1953768Y-1921510D01*
X1954530Y-1917598D01*
X1956714Y-1914347D01*
X1960016Y-1912112D01*
X1963928Y-1911350D01*
X1993900Y-1911350D01*
X1993900Y-1864004D01*
X1983435Y-1869744D01*
X1972462Y-1877822D01*
X1970989Y-1879244D01*
X1967687Y-1881378D01*
X1963775Y-1882139D01*
X1959965Y-1881327D01*
X1956663Y-1879092D01*
X1954530Y-1875840D01*
X1953768Y-1871980D01*
X1953768Y-825855D01*
X1954530Y-821944D01*
X1956714Y-818641D01*
X2232660Y-542747D01*
X2235962Y-540512D01*
X2239822Y-539750D01*
X2247900Y-539750D01*
X2247900Y-531672D01*
X2248662Y-527812D01*
X2250897Y-524510D01*
X2261717Y-513689D01*
X2265019Y-511454D01*
X2268880Y-510692D01*
X2326640Y-510692D01*
X2330551Y-511454D01*
X2333802Y-513689D01*
X2336038Y-516991D01*
X2336800Y-520852D01*
X2336800Y-539750D01*
X2371191Y-539750D01*
X2375458Y-540715D01*
X2378964Y-543356D01*
X2380996Y-547268D01*
X2383332Y-556107D01*
X2387498Y-564997D01*
X2393137Y-573024D01*
X2400096Y-579983D01*
X2408123Y-585622D01*
X2417013Y-589788D01*
X2426512Y-592328D01*
X2436317Y-593191D01*
X2446121Y-592328D01*
X2455621Y-589788D01*
X2464511Y-585622D01*
X2472537Y-579983D01*
X2479497Y-573024D01*
X2485136Y-564997D01*
X2489301Y-556107D01*
X2491841Y-546608D01*
X2492705Y-536803D01*
X2491841Y-526999D01*
X2489301Y-517499D01*
X2485136Y-508609D01*
X2479497Y-500583D01*
X2472537Y-493623D01*
X2464511Y-487984D01*
X2455621Y-483819D01*
X2446121Y-481279D01*
X2443937Y-481126D01*
X2440533Y-480212D01*
X2437638Y-478180D01*
X2398166Y-438658D01*
X2391359Y-433070D01*
X2383993Y-429158D01*
X2376068Y-426720D01*
X2367280Y-425856D01*
X2247646Y-425856D01*
X2238857Y-426720D01*
X2230932Y-429158D01*
X2223617Y-433070D01*
X2216810Y-438658D01*
X1881682Y-773734D01*
X1876094Y-780542D01*
X1872183Y-787857D01*
X1869795Y-795832D01*
X1868932Y-804570D01*
X1868932Y-1872030D01*
X1868220Y-1875789D01*
X1866138Y-1878990D01*
X1863039Y-1881225D01*
X1859330Y-1882190D01*
X1855571Y-1881682D01*
X1852218Y-1879803D01*
X1844903Y-1873605D01*
X1833422Y-1866290D01*
X1821027Y-1860550D01*
X1808022Y-1856486D01*
X1794560Y-1854250D01*
X1780946Y-1853793D01*
X1767382Y-1855114D01*
X1754124Y-1858314D01*
X1741373Y-1863191D01*
X1729435Y-1869744D01*
X1718462Y-1877822D01*
X1708657Y-1887321D01*
X1700174Y-1898040D01*
X1693214Y-1909775D01*
X1687931Y-1922322D01*
X1684324Y-1935480D01*
X1682496Y-1948992D01*
X1682496Y-1962607D01*
X1684324Y-1976120D01*
X1687931Y-1989277D01*
X1693214Y-2001824D01*
X1700174Y-2013559D01*
X1708657Y-2024278D01*
X1718462Y-2033778D01*
X1729435Y-2041855D01*
X1741373Y-2048408D01*
X1754124Y-2053285D01*
X1767382Y-2056485D01*
X1775358Y-2057247D01*
X1778965Y-2058365D01*
X1781962Y-2060702D01*
X1783892Y-2063953D01*
X1784502Y-2067712D01*
X1783638Y-2071420D01*
X1781505Y-2074570D01*
X1262329Y-2593746D01*
X1256741Y-2600553D01*
X1252829Y-2607868D01*
X1250391Y-2615844D01*
X1249578Y-2624582D01*
X1249578Y-6620205D01*
X1248816Y-6623964D01*
X1246784Y-6627164D01*
X1243685Y-6629400D01*
X1239926Y-6630314D01*
X1236167Y-6629806D01*
X1232814Y-6627926D01*
X1228344Y-6624116D01*
X1222705Y-6621221D01*
X1217320Y-6619138D01*
X1213916Y-6616953D01*
X1211630Y-6613652D01*
X1210818Y-6609689D01*
X1210818Y-2148738D01*
X1211275Y-2145690D01*
X1212646Y-2142896D01*
X1217218Y-2136394D01*
X1221384Y-2127504D01*
X1223924Y-2118004D01*
X1224788Y-2108200D01*
X1223924Y-2098395D01*
X1221384Y-2088896D01*
X1217218Y-2080006D01*
X1211580Y-2071979D01*
X1204620Y-2065020D01*
X1196594Y-2059381D01*
X1187704Y-2055215D01*
X1178204Y-2052675D01*
X1168400Y-2051812D01*
X1158595Y-2052675D01*
X1149096Y-2055215D01*
X1140206Y-2059381D01*
X1132179Y-2065020D01*
X1125220Y-2071979D01*
X1119581Y-2080006D01*
X1115415Y-2088896D01*
X1112875Y-2098395D01*
X1112012Y-2108200D01*
X1112875Y-2118004D01*
X1115415Y-2127504D01*
X1119581Y-2136394D01*
X1124153Y-2142896D01*
X1125524Y-2145690D01*
X1125982Y-2148738D01*
X1125982Y-6387287D01*
X1125220Y-6391148D01*
X1123035Y-6394450D01*
X1119733Y-6396634D01*
X1115822Y-6397447D01*
X1111961Y-6396634D01*
X1099972Y-6388201D01*
X1091082Y-6384036D01*
X1081582Y-6381496D01*
X1071778Y-6380632D01*
X1061974Y-6381496D01*
X1052474Y-6384036D01*
X1043584Y-6388201D01*
X1035558Y-6393789D01*
X1028598Y-6400749D01*
X1022959Y-6408826D01*
X1018794Y-6417716D01*
X1016253Y-6427216D01*
X1015390Y-6437020D01*
X1016253Y-6446774D01*
X1018794Y-6456273D01*
X1022959Y-6465163D01*
X1027531Y-6471716D01*
X1028903Y-6474460D01*
X1029360Y-6477508D01*
X1029360Y-6532981D01*
X1028598Y-6536791D01*
X1026464Y-6540093D01*
X1023213Y-6542278D01*
X1019403Y-6543141D01*
X1015542Y-6542430D01*
X1008989Y-6539941D01*
X1002792Y-6538315D01*
X997051Y-6538163D01*
X991362Y-6539280D01*
X986078Y-6541617D01*
X981456Y-6545072D01*
X977696Y-6549491D01*
X974750Y-6555130D01*
X946505Y-6628790D01*
X944880Y-6634937D01*
X944727Y-6640728D01*
X945845Y-6646418D01*
X948182Y-6651701D01*
X951687Y-6656324D01*
X956106Y-6660032D01*
X961745Y-6662978D01*
X1035354Y-6691223D01*
X1041501Y-6692849D01*
X1047292Y-6693001D01*
X1052982Y-6691884D01*
X1058265Y-6689547D01*
X1062888Y-6686092D01*
X1067104Y-6681114D01*
X1070356Y-6678574D01*
X1074369Y-6677507D01*
X1078484Y-6678168D01*
X1081989Y-6680453D01*
X1084275Y-6683908D01*
X1084986Y-6687972D01*
X1084834Y-6693763D01*
X1085951Y-6699402D01*
X1088288Y-6704685D01*
X1091793Y-6709359D01*
X1096162Y-6713067D01*
X1101852Y-6716014D01*
X1175461Y-6744258D01*
X1181608Y-6745884D01*
X1187399Y-6746036D01*
X1193088Y-6744919D01*
X1198372Y-6742582D01*
X1202994Y-6739077D01*
X1206754Y-6734708D01*
X1209649Y-6729018D01*
X1229918Y-6676288D01*
X1232052Y-6672935D01*
X1235354Y-6670649D01*
X1239266Y-6669786D01*
X1243177Y-6670497D01*
X1246530Y-6672681D01*
X1248765Y-6676034D01*
X1249578Y-6679946D01*
X1249578Y-6882282D01*
X1248765Y-6886143D01*
X1246581Y-6889445D01*
X1180490Y-6955536D01*
X1178356Y-6957161D01*
X1101598Y-6986625D01*
X1095908Y-6989572D01*
X1091539Y-6993280D01*
X1088034Y-6997903D01*
X1085697Y-7003186D01*
X1084580Y-7008875D01*
X1084783Y-7015378D01*
X1084021Y-7019493D01*
X1081735Y-7022947D01*
X1078230Y-7025182D01*
X1074166Y-7025843D01*
X1070152Y-7024827D01*
X1066850Y-7022287D01*
X1063142Y-7017867D01*
X1058519Y-7014413D01*
X1053236Y-7012025D01*
X1047546Y-7010908D01*
X1041755Y-7011111D01*
X1035608Y-7012686D01*
X961999Y-7040981D01*
X956310Y-7043877D01*
X951890Y-7047636D01*
X948436Y-7052259D01*
X946099Y-7057542D01*
X944981Y-7063231D01*
X945134Y-7069023D01*
X946759Y-7075170D01*
X975004Y-7148779D01*
X977950Y-7154418D01*
X981659Y-7158837D01*
X986332Y-7162342D01*
X991616Y-7164679D01*
X997254Y-7165797D01*
X1003046Y-7165644D01*
X1009192Y-7164019D01*
X1023924Y-7158380D01*
X1027734Y-7157720D01*
X1031544Y-7158481D01*
X1034745Y-7160666D01*
X1169619Y-7295540D01*
X1176426Y-7301128D01*
X1183741Y-7305040D01*
X1191717Y-7307478D01*
X1200454Y-7308342D01*
X3560419Y-7308342D01*
X3569157Y-7307478D01*
X3577132Y-7305040D01*
X3584448Y-7301128D01*
X3591255Y-7295540D01*
X3728618Y-7158177D01*
X3731818Y-7156043D01*
X3735578Y-7155230D01*
X3739387Y-7155840D01*
X3742639Y-7157872D01*
X3744976Y-7160971D01*
X3745941Y-7164679D01*
X3746703Y-7175855D01*
X3749395Y-7188657D01*
X3753764Y-7201001D01*
X3759758Y-7212634D01*
X3767328Y-7223302D01*
X3776268Y-7232853D01*
X3786428Y-7241133D01*
X3794404Y-7246010D01*
X3796995Y-7248245D01*
X3798671Y-7251293D01*
X3799281Y-7254697D01*
X3799281Y-7337602D01*
X3798671Y-7341006D01*
X3796995Y-7344054D01*
X3794404Y-7346289D01*
X3786428Y-7351166D01*
X3776268Y-7359446D01*
X3767328Y-7368997D01*
X3759758Y-7379665D01*
X3753764Y-7391298D01*
X3749395Y-7403642D01*
X3746703Y-7416444D01*
X3745839Y-7429500D01*
X3746703Y-7442555D01*
X3749395Y-7455357D01*
X3753764Y-7467701D01*
X3759758Y-7479334D01*
X3767328Y-7490002D01*
X3776268Y-7499553D01*
X3786428Y-7507833D01*
X3797604Y-7514640D01*
X3809593Y-7519873D01*
X3822192Y-7523378D01*
X3835146Y-7525156D01*
X3848252Y-7525156D01*
X3861206Y-7523378D01*
X3873804Y-7519873D01*
X3885793Y-7514640D01*
X3896969Y-7507833D01*
X3907129Y-7499553D01*
X3916070Y-7490002D01*
X3923639Y-7479334D01*
X3929634Y-7467701D01*
X3934002Y-7455357D01*
X3936695Y-7442555D01*
X3937558Y-7429500D01*
X3936695Y-7416444D01*
X3934002Y-7403642D01*
X3929634Y-7391298D01*
X3923639Y-7379665D01*
X3916070Y-7368997D01*
X3907129Y-7359446D01*
X3896969Y-7351166D01*
X3888994Y-7346289D01*
X3886352Y-7344003D01*
X3884676Y-7341006D01*
X3884117Y-7337602D01*
X3884117Y-7254697D01*
X3884676Y-7251293D01*
X3886352Y-7248296D01*
X3888994Y-7246010D01*
X3896969Y-7241133D01*
X3907129Y-7232853D01*
X3916070Y-7223302D01*
X3923639Y-7212634D01*
X3929634Y-7201001D01*
X3934002Y-7188657D01*
X3936695Y-7175855D01*
X3937558Y-7162800D01*
X3936695Y-7149744D01*
X3934002Y-7136942D01*
X3929634Y-7124598D01*
X3923639Y-7112965D01*
X3916070Y-7102297D01*
X3907129Y-7092746D01*
X3896969Y-7084466D01*
X3893515Y-7082332D01*
X3890416Y-7079437D01*
X3888790Y-7075525D01*
X3888892Y-7071258D01*
X3890721Y-7067448D01*
X3900881Y-7059066D01*
X4214012Y-6745884D01*
X4219600Y-6739128D01*
X4223512Y-6731762D01*
X4225950Y-6723837D01*
X4226814Y-6715048D01*
X4226814Y-4696358D01*
X4227576Y-4692446D01*
X4229760Y-4689195D01*
X4233062Y-4686960D01*
X4236974Y-4686198D01*
X4271060Y-4686198D01*
X4275175Y-4687062D01*
X4278579Y-4689551D01*
X4280712Y-4693158D01*
X4281170Y-4697374D01*
X4280306Y-4706569D01*
X4280306Y-5341112D01*
X4281119Y-5349849D01*
X4283557Y-5357825D01*
X4287469Y-5365140D01*
X4293057Y-5371947D01*
X5166918Y-6245860D01*
X5169154Y-6249111D01*
X5169916Y-6253022D01*
X5169154Y-6256883D01*
X5166918Y-6260185D01*
X5163667Y-6262420D01*
X5159756Y-6263182D01*
X5137658Y-6263182D01*
X5131358Y-6263894D01*
X5125872Y-6265824D01*
X5120995Y-6268872D01*
X5116880Y-6272987D01*
X5113782Y-6277864D01*
X5111902Y-6283350D01*
X5111191Y-6289649D01*
X5111191Y-6488531D01*
X5111902Y-6494830D01*
X5113782Y-6500317D01*
X5116880Y-6505194D01*
X5120995Y-6509308D01*
X5125872Y-6512356D01*
X5131358Y-6514287D01*
X5137658Y-6514998D01*
X5336540Y-6514998D01*
X5342839Y-6514287D01*
X5348325Y-6512356D01*
X5353202Y-6509308D01*
X5357317Y-6505194D01*
X5360365Y-6500317D01*
X5362295Y-6494830D01*
X5363006Y-6488531D01*
X5363006Y-6342024D01*
X5363768Y-6338112D01*
X5365953Y-6334810D01*
X5369255Y-6332626D01*
X5373166Y-6331864D01*
X5377027Y-6332626D01*
X5380329Y-6334810D01*
X5583885Y-6538366D01*
X5587746Y-6541516D01*
X5590184Y-6544513D01*
X5591403Y-6548170D01*
X5591098Y-6552031D01*
X5589422Y-6555486D01*
X5586577Y-6558076D01*
X5577230Y-6563766D01*
X5567070Y-6572046D01*
X5558129Y-6581597D01*
X5550560Y-6592265D01*
X5544566Y-6603898D01*
X5540197Y-6616242D01*
X5537504Y-6629044D01*
X5536641Y-6642100D01*
X5537504Y-6655155D01*
X5540197Y-6667957D01*
X5544566Y-6680301D01*
X5550560Y-6691934D01*
X5558129Y-6702602D01*
X5567070Y-6712153D01*
X5577230Y-6720433D01*
X5588406Y-6727240D01*
X5600395Y-6732473D01*
X5612993Y-6735978D01*
X5625947Y-6737756D01*
X5639054Y-6737756D01*
X5652008Y-6735978D01*
X5664606Y-6732473D01*
X5676595Y-6727240D01*
X5680202Y-6725056D01*
X5684215Y-6723634D01*
X5688482Y-6724040D01*
X5692190Y-6726123D01*
X5694730Y-6729577D01*
X5695645Y-6733743D01*
X5695645Y-6781444D01*
X5694883Y-6785356D01*
X5692648Y-6788658D01*
X5667451Y-6813854D01*
X5664504Y-6815886D01*
X5661050Y-6816801D01*
X5657494Y-6816445D01*
X5652008Y-6814921D01*
X5639054Y-6813143D01*
X5625947Y-6813143D01*
X5612993Y-6814921D01*
X5600395Y-6818477D01*
X5588406Y-6823659D01*
X5577230Y-6830466D01*
X5567070Y-6838746D01*
X5558129Y-6848297D01*
X5550560Y-6858965D01*
X5544566Y-6870598D01*
X5540197Y-6882942D01*
X5537504Y-6895744D01*
X5536641Y-6908800D01*
X5537504Y-6921855D01*
X5540197Y-6934657D01*
X5544566Y-6947001D01*
X5550560Y-6958634D01*
X5558129Y-6969302D01*
X5567070Y-6978853D01*
X5577230Y-6987133D01*
X5588406Y-6993940D01*
X5600395Y-6999173D01*
X5612993Y-7002678D01*
X5625947Y-7004456D01*
X5639054Y-7004456D01*
X5652008Y-7002678D01*
X5664606Y-6999173D01*
X5676595Y-6993940D01*
X5687771Y-6987133D01*
X5697931Y-6978853D01*
X5706872Y-6969302D01*
X5714441Y-6958634D01*
X5720435Y-6947001D01*
X5724804Y-6934657D01*
X5727496Y-6921855D01*
X5728360Y-6908800D01*
X5727496Y-6895744D01*
X5724804Y-6882892D01*
X5724702Y-6879590D01*
X5725668Y-6876389D01*
X5727598Y-6873646D01*
X5767679Y-6833565D01*
X5773267Y-6826758D01*
X5777179Y-6819442D01*
X5779617Y-6811467D01*
X5780481Y-6802729D01*
X5780481Y-6598869D01*
X5779617Y-6590131D01*
X5777179Y-6582156D01*
X5773267Y-6574840D01*
X5767679Y-6568033D01*
X5678779Y-6479082D01*
X5675934Y-6476796D01*
X5673445Y-6473799D01*
X5672277Y-6470142D01*
X5672531Y-6466281D01*
X5674258Y-6462826D01*
X5677103Y-6460236D01*
X5687771Y-6453733D01*
X5697931Y-6445453D01*
X5706872Y-6435902D01*
X5714441Y-6425234D01*
X5720435Y-6413601D01*
X5724804Y-6401257D01*
X5727496Y-6388455D01*
X5728360Y-6375400D01*
X5727496Y-6362344D01*
X5724804Y-6349542D01*
X5720435Y-6337198D01*
X5714441Y-6325565D01*
X5706872Y-6314897D01*
X5697931Y-6305346D01*
X5687771Y-6297066D01*
X5676595Y-6290259D01*
X5664606Y-6285077D01*
X5652008Y-6281521D01*
X5639054Y-6279743D01*
X5625947Y-6279743D01*
X5612993Y-6281521D01*
X5600395Y-6285077D01*
X5588406Y-6290259D01*
X5577230Y-6297066D01*
X5567070Y-6305346D01*
X5558129Y-6314897D01*
X5550560Y-6325565D01*
X5544566Y-6337198D01*
X5540197Y-6349542D01*
X5539689Y-6351930D01*
X5537911Y-6355892D01*
X5534660Y-6358788D01*
X5530494Y-6360007D01*
X5526176Y-6359398D01*
X5522518Y-6357061D01*
X4430471Y-5265013D01*
X4428236Y-5261711D01*
X4427474Y-5257800D01*
X4427474Y-4941722D01*
X4427931Y-4938674D01*
X4429302Y-4935931D01*
X4433874Y-4929378D01*
X4438040Y-4920488D01*
X4440580Y-4910988D01*
X4441444Y-4901184D01*
X4440580Y-4891379D01*
X4438040Y-4881880D01*
X4433874Y-4872990D01*
X4428286Y-4864963D01*
X4421327Y-4858004D01*
X4413250Y-4852365D01*
X4404360Y-4848199D01*
X4394860Y-4845659D01*
X4385056Y-4844796D01*
X4376166Y-4845608D01*
X4372000Y-4845100D01*
X4368393Y-4842967D01*
X4365955Y-4839563D01*
X4365091Y-4835499D01*
X4365091Y-4727244D01*
X4365701Y-4723790D01*
X4367377Y-4720793D01*
X4370628Y-4716881D01*
X4374540Y-4709566D01*
X4376928Y-4701590D01*
X4377537Y-4695342D01*
X4378604Y-4691786D01*
X4380839Y-4688840D01*
X4383989Y-4686858D01*
X4387646Y-4686198D01*
X4434840Y-4686198D01*
X4441139Y-4685487D01*
X4446625Y-4683556D01*
X4451502Y-4680508D01*
X4455617Y-4676394D01*
X4458665Y-4671517D01*
X4460595Y-4666030D01*
X4461306Y-4659731D01*
X4461306Y-4460849D01*
X4460595Y-4454550D01*
X4458665Y-4449064D01*
X4455617Y-4444187D01*
X4451502Y-4440072D01*
X4446625Y-4437024D01*
X4441139Y-4435094D01*
X4434840Y-4434382D01*
X4236974Y-4434382D01*
X4233062Y-4433620D01*
X4229760Y-4431385D01*
X4227576Y-4428134D01*
X4226814Y-4424222D01*
X4226814Y-4175404D01*
X4227576Y-4171492D01*
X4229760Y-4168190D01*
X5336235Y-3061766D01*
X5339791Y-3059430D01*
X5344007Y-3058769D01*
X5348071Y-3059887D01*
X5351373Y-3062579D01*
X5353253Y-3066389D01*
X5353456Y-3070606D01*
X5352389Y-3076905D01*
X5350459Y-3099968D01*
X5350459Y-3123031D01*
X5352389Y-3146094D01*
X5356250Y-3168853D01*
X5361990Y-3191256D01*
X5369560Y-3213049D01*
X5378958Y-3234182D01*
X5390083Y-3254400D01*
X5402884Y-3273653D01*
X5417261Y-3291789D01*
X5433060Y-3308604D01*
X5450230Y-3324098D01*
X5468620Y-3338068D01*
X5488127Y-3350412D01*
X5508650Y-3361131D01*
X5529935Y-3370072D01*
X5551881Y-3377234D01*
X5574385Y-3382518D01*
X5597245Y-3385870D01*
X5620308Y-3387344D01*
X5643422Y-3386836D01*
X5666384Y-3384448D01*
X5689092Y-3380130D01*
X5711342Y-3373882D01*
X5733034Y-3365855D01*
X5753912Y-3356000D01*
X5773928Y-3344468D01*
X5792927Y-3331260D01*
X5810707Y-3316528D01*
X5827217Y-3300374D01*
X5842304Y-3282899D01*
X5855919Y-3264204D01*
X5867857Y-3244392D01*
X5878169Y-3223717D01*
X5886653Y-3202228D01*
X5893308Y-3180130D01*
X5898134Y-3157524D01*
X5901029Y-3134563D01*
X5901994Y-3111500D01*
X5901029Y-3088436D01*
X5898134Y-3065475D01*
X5893308Y-3042869D01*
X5886653Y-3020771D01*
X5878169Y-2999282D01*
X5867857Y-2978607D01*
X5855919Y-2958795D01*
X5842304Y-2940151D01*
X5827217Y-2922625D01*
X5810707Y-2906471D01*
X5792927Y-2891739D01*
X5773928Y-2878531D01*
X5753912Y-2866999D01*
X5733034Y-2857144D01*
X5711342Y-2849118D01*
X5689092Y-2842869D01*
X5666384Y-2838551D01*
X5643422Y-2836164D01*
X5620308Y-2835656D01*
X5597245Y-2837129D01*
X5584952Y-2838907D01*
X5580735Y-2838653D01*
X5577027Y-2836722D01*
X5574385Y-2833420D01*
X5573318Y-2829356D01*
X5573979Y-2825242D01*
X5576265Y-2821686D01*
X5628233Y-2769768D01*
X5631484Y-2767584D01*
X5635396Y-2766822D01*
X5682030Y-2766822D01*
X5690768Y-2765958D01*
X5698744Y-2763520D01*
X5706059Y-2759608D01*
X5712866Y-2754020D01*
X6144514Y-2322372D01*
X6146952Y-2320594D01*
X6166002Y-2314752D01*
X6179870Y-2308504D01*
X6192875Y-2300681D01*
X6204864Y-2291283D01*
X6215583Y-2280564D01*
X6220561Y-2274214D01*
X6223711Y-2271572D01*
X6227724Y-2270353D01*
X6231839Y-2270912D01*
X6235446Y-2273046D01*
X6237833Y-2276398D01*
X6238697Y-2280513D01*
X6238697Y-2595727D01*
X6237833Y-2599842D01*
X6235293Y-2603296D01*
X6231636Y-2605379D01*
X6227419Y-2605786D01*
X6225540Y-2605582D01*
X6026658Y-2605582D01*
X6020358Y-2606294D01*
X6014872Y-2608224D01*
X6009995Y-2611272D01*
X6005880Y-2615387D01*
X6002782Y-2620264D01*
X6000902Y-2625750D01*
X6000191Y-2632049D01*
X6000191Y-2830931D01*
X6000902Y-2837230D01*
X6002782Y-2842717D01*
X6005880Y-2847594D01*
X6009995Y-2851708D01*
X6014872Y-2854756D01*
X6020358Y-2856687D01*
X6026658Y-2857398D01*
X6073546Y-2857398D01*
X6077407Y-2858160D01*
X6080709Y-2860395D01*
X6082893Y-2863697D01*
X6083706Y-2867558D01*
X6083706Y-4424222D01*
X6082893Y-4428134D01*
X6080709Y-4431385D01*
X6077407Y-4433620D01*
X6073546Y-4434382D01*
X6026658Y-4434382D01*
X6020358Y-4435094D01*
X6014872Y-4437024D01*
X6009995Y-4440072D01*
X6005880Y-4444187D01*
X6002782Y-4449064D01*
X6000902Y-4454550D01*
X6000191Y-4460849D01*
X6000191Y-4659731D01*
X6000902Y-4666030D01*
X6002782Y-4671517D01*
X6005880Y-4676394D01*
X6009995Y-4680508D01*
X6014872Y-4683556D01*
X6020358Y-4685487D01*
X6026658Y-4686198D01*
X6225540Y-4686198D01*
X6227419Y-4685995D01*
X6231636Y-4686401D01*
X6235293Y-4688484D01*
X6237833Y-4691938D01*
X6238697Y-4696104D01*
X6238697Y-7023608D01*
X6239560Y-7032345D01*
X6241948Y-7040321D01*
X6245860Y-7047636D01*
X6251448Y-7054443D01*
X6337401Y-7140397D01*
X6339332Y-7143089D01*
X6340297Y-7146290D01*
X6340195Y-7149642D01*
X6337503Y-7162444D01*
X6336639Y-7175500D01*
X6337503Y-7188555D01*
X6340195Y-7201357D01*
X6344564Y-7213701D01*
X6350558Y-7225334D01*
X6358128Y-7236002D01*
X6367068Y-7245553D01*
X6377228Y-7253833D01*
X6385204Y-7258710D01*
X6387795Y-7260945D01*
X6389471Y-7263993D01*
X6390081Y-7267397D01*
X6390081Y-7358888D01*
X6389116Y-7363256D01*
X6386322Y-7366762D01*
X6379768Y-7372146D01*
X6370828Y-7381697D01*
X6363258Y-7392365D01*
X6357264Y-7403998D01*
X6352895Y-7416342D01*
X6350203Y-7429144D01*
X6349339Y-7442200D01*
X6350203Y-7455255D01*
X6352895Y-7468057D01*
X6357264Y-7480401D01*
X6363258Y-7492034D01*
X6370828Y-7502702D01*
X6379768Y-7512253D01*
X6389928Y-7520533D01*
X6401104Y-7527340D01*
X6413093Y-7532573D01*
X6425692Y-7536078D01*
G37*
G36*
X3035147Y-7525156D02*
G01*
X3048254Y-7525156D01*
X3061208Y-7523378D01*
X3073806Y-7519873D01*
X3085795Y-7514640D01*
X3096971Y-7507833D01*
X3107131Y-7499553D01*
X3116072Y-7490002D01*
X3123641Y-7479334D01*
X3129635Y-7467701D01*
X3134004Y-7455357D01*
X3136696Y-7442555D01*
X3137560Y-7429500D01*
X3136696Y-7416444D01*
X3134004Y-7403642D01*
X3129635Y-7391298D01*
X3123641Y-7379665D01*
X3116072Y-7368997D01*
X3107131Y-7359446D01*
X3096971Y-7351166D01*
X3085795Y-7344359D01*
X3073806Y-7339177D01*
X3061208Y-7335621D01*
X3048254Y-7333843D01*
X3035147Y-7333843D01*
X3022193Y-7335621D01*
X3009595Y-7339177D01*
X2997606Y-7344359D01*
X2986430Y-7351166D01*
X2976270Y-7359446D01*
X2967329Y-7368997D01*
X2959760Y-7379665D01*
X2953766Y-7391298D01*
X2949397Y-7403642D01*
X2946704Y-7416444D01*
X2945841Y-7429500D01*
X2946704Y-7442555D01*
X2949397Y-7455357D01*
X2953766Y-7467701D01*
X2959760Y-7479334D01*
X2967329Y-7490002D01*
X2976270Y-7499553D01*
X2986430Y-7507833D01*
X2997606Y-7514640D01*
X3009595Y-7519873D01*
X3022193Y-7523378D01*
G37*
G36*
X6942175Y-7389977D02*
G01*
X6955993Y-7389114D01*
X6969556Y-7386370D01*
X6982714Y-7381951D01*
X6995109Y-7375804D01*
X7006640Y-7368133D01*
X7017054Y-7358989D01*
X7026198Y-7348575D01*
X7033869Y-7337044D01*
X7040016Y-7324648D01*
X7044436Y-7311491D01*
X7047179Y-7297928D01*
X7048042Y-7284110D01*
X7047179Y-7270292D01*
X7044436Y-7256729D01*
X7040016Y-7243572D01*
X7033869Y-7231176D01*
X7026198Y-7219645D01*
X7017054Y-7209231D01*
X7006640Y-7200087D01*
X6995109Y-7192416D01*
X6982714Y-7186269D01*
X6969556Y-7181850D01*
X6955993Y-7179106D01*
X6942175Y-7178243D01*
X6928358Y-7179106D01*
X6914794Y-7181850D01*
X6901637Y-7186269D01*
X6889242Y-7192416D01*
X6877710Y-7200087D01*
X6867296Y-7209231D01*
X6858152Y-7219645D01*
X6850481Y-7231176D01*
X6844334Y-7243572D01*
X6839915Y-7256729D01*
X6837172Y-7270292D01*
X6836308Y-7284110D01*
X6837172Y-7297928D01*
X6839915Y-7311491D01*
X6844334Y-7324648D01*
X6850481Y-7337044D01*
X6858152Y-7348575D01*
X6867296Y-7358989D01*
X6877710Y-7368133D01*
X6889242Y-7375804D01*
X6901637Y-7381951D01*
X6914794Y-7386370D01*
X6928358Y-7389114D01*
G37*
G36*
X4237075Y-7389977D02*
G01*
X4250944Y-7389114D01*
X4264507Y-7386370D01*
X4277614Y-7381951D01*
X4290060Y-7375804D01*
X4301540Y-7368133D01*
X4311954Y-7358989D01*
X4321098Y-7348575D01*
X4328820Y-7337044D01*
X4334916Y-7324648D01*
X4339386Y-7311491D01*
X4342079Y-7297928D01*
X4342993Y-7284110D01*
X4342079Y-7270292D01*
X4339386Y-7256729D01*
X4334916Y-7243572D01*
X4328820Y-7231176D01*
X4321098Y-7219645D01*
X4311954Y-7209231D01*
X4301540Y-7200087D01*
X4290060Y-7192416D01*
X4277614Y-7186269D01*
X4264507Y-7181850D01*
X4250944Y-7179106D01*
X4237075Y-7178243D01*
X4223258Y-7179106D01*
X4209694Y-7181850D01*
X4196588Y-7186269D01*
X4184142Y-7192416D01*
X4172661Y-7200087D01*
X4162247Y-7209231D01*
X4153103Y-7219645D01*
X4145381Y-7231176D01*
X4139285Y-7243572D01*
X4134815Y-7256729D01*
X4132122Y-7270292D01*
X4131208Y-7284110D01*
X4132122Y-7297928D01*
X4134815Y-7311491D01*
X4139285Y-7324648D01*
X4145381Y-7337044D01*
X4153103Y-7348575D01*
X4162247Y-7358989D01*
X4172661Y-7368133D01*
X4184142Y-7375804D01*
X4196588Y-7381951D01*
X4209694Y-7386370D01*
X4223258Y-7389114D01*
G37*
G36*
X5625947Y-7271156D02*
G01*
X5639054Y-7271156D01*
X5652008Y-7269378D01*
X5664606Y-7265873D01*
X5676595Y-7260640D01*
X5687771Y-7253833D01*
X5697931Y-7245553D01*
X5706872Y-7236002D01*
X5714441Y-7225334D01*
X5720435Y-7213701D01*
X5724804Y-7201357D01*
X5727496Y-7188555D01*
X5728360Y-7175500D01*
X5727496Y-7162444D01*
X5724804Y-7149592D01*
X5724702Y-7146290D01*
X5725668Y-7143089D01*
X5727598Y-7140346D01*
X5940806Y-6927138D01*
X5946394Y-6920382D01*
X5950305Y-6913016D01*
X5952693Y-6905091D01*
X5953556Y-6896303D01*
X5953556Y-4768900D01*
X5952693Y-4760163D01*
X5950305Y-4752187D01*
X5946394Y-4744872D01*
X5940806Y-4738065D01*
X5696254Y-4493564D01*
X5694070Y-4490262D01*
X5693308Y-4486351D01*
X5694070Y-4482490D01*
X5696254Y-4479188D01*
X5699556Y-4476953D01*
X5703468Y-4476191D01*
X5725515Y-4476191D01*
X5731865Y-4475480D01*
X5737301Y-4473600D01*
X5742178Y-4470501D01*
X5746292Y-4466386D01*
X5749391Y-4461510D01*
X5751271Y-4456023D01*
X5751982Y-4449724D01*
X5751982Y-4250842D01*
X5751271Y-4244543D01*
X5749391Y-4239056D01*
X5746292Y-4234180D01*
X5742178Y-4230065D01*
X5737301Y-4227017D01*
X5731865Y-4225086D01*
X5725515Y-4224375D01*
X5526684Y-4224375D01*
X5520334Y-4225086D01*
X5514898Y-4227017D01*
X5509971Y-4230065D01*
X5505907Y-4234180D01*
X5502808Y-4239056D01*
X5500878Y-4244543D01*
X5500166Y-4250842D01*
X5500166Y-4449724D01*
X5500878Y-4456023D01*
X5502808Y-4461510D01*
X5505907Y-4466386D01*
X5509971Y-4470501D01*
X5514898Y-4473600D01*
X5520334Y-4475480D01*
X5526684Y-4476191D01*
X5573826Y-4476191D01*
X5577484Y-4476902D01*
X5580634Y-4478832D01*
X5582869Y-4481779D01*
X5583936Y-4485386D01*
X5584545Y-4491583D01*
X5586933Y-4499559D01*
X5590844Y-4506874D01*
X5596432Y-4513681D01*
X5759297Y-4676546D01*
X5761532Y-4679899D01*
X5762294Y-4683861D01*
X5761431Y-4687824D01*
X5759145Y-4691126D01*
X5755690Y-4693259D01*
X5751728Y-4693869D01*
X5747816Y-4692904D01*
X5733034Y-4685944D01*
X5711342Y-4677918D01*
X5689092Y-4671669D01*
X5666384Y-4667351D01*
X5643422Y-4664964D01*
X5620308Y-4664456D01*
X5597245Y-4665929D01*
X5574385Y-4669282D01*
X5551881Y-4674565D01*
X5529935Y-4681728D01*
X5508650Y-4690668D01*
X5488127Y-4701387D01*
X5468620Y-4713732D01*
X5450230Y-4727702D01*
X5433060Y-4743196D01*
X5417261Y-4760010D01*
X5402884Y-4778146D01*
X5390083Y-4797399D01*
X5378958Y-4817618D01*
X5369560Y-4838750D01*
X5361990Y-4860544D01*
X5356250Y-4882946D01*
X5352389Y-4905705D01*
X5350459Y-4928768D01*
X5350459Y-4951831D01*
X5352389Y-4974894D01*
X5356250Y-4997653D01*
X5361990Y-5020056D01*
X5369560Y-5041849D01*
X5378958Y-5062982D01*
X5390083Y-5083200D01*
X5402884Y-5102453D01*
X5417261Y-5120589D01*
X5433060Y-5137404D01*
X5450230Y-5152898D01*
X5468620Y-5166868D01*
X5488127Y-5179212D01*
X5508650Y-5189931D01*
X5529935Y-5198872D01*
X5551881Y-5206034D01*
X5574385Y-5211318D01*
X5597245Y-5214670D01*
X5620308Y-5216144D01*
X5643422Y-5215636D01*
X5666384Y-5213248D01*
X5689092Y-5208930D01*
X5711342Y-5202682D01*
X5733034Y-5194655D01*
X5753912Y-5184800D01*
X5773928Y-5173268D01*
X5792927Y-5160060D01*
X5810707Y-5145328D01*
X5827217Y-5129174D01*
X5842304Y-5111699D01*
X5850382Y-5100574D01*
X5853531Y-5097780D01*
X5857544Y-5096459D01*
X5861710Y-5096916D01*
X5865368Y-5098999D01*
X5867857Y-5102453D01*
X5868771Y-5106568D01*
X5868771Y-6875068D01*
X5867958Y-6878929D01*
X5865774Y-6882231D01*
X5667451Y-7080554D01*
X5664504Y-7082586D01*
X5661050Y-7083501D01*
X5657494Y-7083145D01*
X5652008Y-7081621D01*
X5639054Y-7079843D01*
X5625947Y-7079843D01*
X5612993Y-7081621D01*
X5600395Y-7085177D01*
X5588406Y-7090359D01*
X5577230Y-7097166D01*
X5567070Y-7105446D01*
X5558129Y-7114997D01*
X5550560Y-7125665D01*
X5544566Y-7137298D01*
X5540197Y-7149642D01*
X5537504Y-7162444D01*
X5536641Y-7175500D01*
X5537504Y-7188555D01*
X5540197Y-7201357D01*
X5544566Y-7213701D01*
X5550560Y-7225334D01*
X5558129Y-7236002D01*
X5567070Y-7245553D01*
X5577230Y-7253833D01*
X5588406Y-7260640D01*
X5600395Y-7265873D01*
X5612993Y-7269378D01*
G37*
G36*
X1647596Y-7150506D02*
G01*
X1661210Y-7150049D01*
X1674672Y-7147814D01*
X1687677Y-7143750D01*
X1700072Y-7138009D01*
X1711553Y-7130694D01*
X1721967Y-7121906D01*
X1731111Y-7111746D01*
X1738833Y-7100519D01*
X1744980Y-7088378D01*
X1749450Y-7075474D01*
X1752193Y-7062114D01*
X1753107Y-7048500D01*
X1752193Y-7034885D01*
X1749450Y-7021525D01*
X1744980Y-7008622D01*
X1738833Y-6996480D01*
X1731111Y-6985253D01*
X1721967Y-6975094D01*
X1711553Y-6966305D01*
X1700072Y-6958990D01*
X1687677Y-6953250D01*
X1674672Y-6949186D01*
X1661210Y-6946950D01*
X1647596Y-6946493D01*
X1634032Y-6947814D01*
X1620774Y-6951014D01*
X1608023Y-6955891D01*
X1596085Y-6962444D01*
X1585112Y-6970522D01*
X1575308Y-6980021D01*
X1566824Y-6990740D01*
X1559864Y-7002475D01*
X1554581Y-7015022D01*
X1550974Y-7028180D01*
X1549146Y-7041692D01*
X1549146Y-7055307D01*
X1550974Y-7068820D01*
X1554581Y-7081977D01*
X1559864Y-7094524D01*
X1566824Y-7106259D01*
X1575308Y-7116978D01*
X1585112Y-7126478D01*
X1596085Y-7134555D01*
X1608023Y-7141108D01*
X1620774Y-7145985D01*
X1634032Y-7149185D01*
G37*
G36*
X7436408Y-7044944D02*
G01*
X7459522Y-7044436D01*
X7482484Y-7042048D01*
X7505192Y-7037730D01*
X7527442Y-7031481D01*
X7549083Y-7023455D01*
X7570012Y-7013600D01*
X7590028Y-7002068D01*
X7608976Y-6988860D01*
X7626807Y-6974128D01*
X7643317Y-6957974D01*
X7658404Y-6940499D01*
X7671968Y-6921804D01*
X7683957Y-6901992D01*
X7694218Y-6881317D01*
X7702702Y-6859828D01*
X7709408Y-6837730D01*
X7714234Y-6815124D01*
X7717129Y-6792163D01*
X7718094Y-6769100D01*
X7717129Y-6746036D01*
X7714234Y-6723075D01*
X7709408Y-6700469D01*
X7702702Y-6678371D01*
X7694218Y-6656882D01*
X7683957Y-6636207D01*
X7671968Y-6616395D01*
X7658404Y-6597751D01*
X7643317Y-6580225D01*
X7626807Y-6564071D01*
X7608976Y-6549339D01*
X7590028Y-6536131D01*
X7570012Y-6524599D01*
X7549083Y-6514744D01*
X7527442Y-6506718D01*
X7505192Y-6500469D01*
X7482484Y-6496151D01*
X7459522Y-6493764D01*
X7436408Y-6493256D01*
X7413345Y-6494729D01*
X7390485Y-6498082D01*
X7367981Y-6503365D01*
X7345984Y-6510528D01*
X7324699Y-6519468D01*
X7304227Y-6530187D01*
X7284720Y-6542531D01*
X7266330Y-6556502D01*
X7249159Y-6571996D01*
X7233310Y-6588810D01*
X7218984Y-6606946D01*
X7206183Y-6626199D01*
X7195058Y-6646418D01*
X7185659Y-6667550D01*
X7178040Y-6689344D01*
X7172299Y-6711746D01*
X7168438Y-6734505D01*
X7166508Y-6757568D01*
X7166508Y-6780631D01*
X7168438Y-6803694D01*
X7172299Y-6826453D01*
X7178040Y-6848856D01*
X7185659Y-6870649D01*
X7195058Y-6891781D01*
X7206183Y-6912000D01*
X7218984Y-6931253D01*
X7233310Y-6949389D01*
X7249159Y-6966203D01*
X7266330Y-6981698D01*
X7284720Y-6995668D01*
X7304227Y-7008012D01*
X7324699Y-7018731D01*
X7345984Y-7027672D01*
X7367981Y-7034834D01*
X7390485Y-7040118D01*
X7413345Y-7043470D01*
G37*
G36*
X4731308Y-7044944D02*
G01*
X4754422Y-7044436D01*
X4777384Y-7042048D01*
X4800092Y-7037730D01*
X4822342Y-7031481D01*
X4844034Y-7023455D01*
X4864912Y-7013600D01*
X4884928Y-7002068D01*
X4903927Y-6988860D01*
X4921707Y-6974128D01*
X4938217Y-6957974D01*
X4953304Y-6940499D01*
X4966919Y-6921804D01*
X4978857Y-6901992D01*
X4989169Y-6881317D01*
X4997653Y-6859828D01*
X5004308Y-6837730D01*
X5009134Y-6815124D01*
X5012029Y-6792163D01*
X5012994Y-6769100D01*
X5012029Y-6746036D01*
X5009134Y-6723075D01*
X5004308Y-6700469D01*
X4997653Y-6678371D01*
X4989169Y-6656882D01*
X4978857Y-6636207D01*
X4966919Y-6616395D01*
X4953304Y-6597751D01*
X4938217Y-6580225D01*
X4921707Y-6564071D01*
X4903927Y-6549339D01*
X4884928Y-6536131D01*
X4864912Y-6524599D01*
X4844034Y-6514744D01*
X4822342Y-6506718D01*
X4800092Y-6500469D01*
X4777384Y-6496151D01*
X4754422Y-6493764D01*
X4731308Y-6493256D01*
X4708245Y-6494729D01*
X4685385Y-6498082D01*
X4662881Y-6503365D01*
X4640935Y-6510528D01*
X4619650Y-6519468D01*
X4599127Y-6530187D01*
X4579620Y-6542531D01*
X4561230Y-6556502D01*
X4544060Y-6571996D01*
X4528261Y-6588810D01*
X4513884Y-6606946D01*
X4501083Y-6626199D01*
X4489958Y-6646418D01*
X4480560Y-6667550D01*
X4472990Y-6689344D01*
X4467250Y-6711746D01*
X4463389Y-6734505D01*
X4461459Y-6757568D01*
X4461459Y-6780631D01*
X4463389Y-6803694D01*
X4467250Y-6826453D01*
X4472990Y-6848856D01*
X4480560Y-6870649D01*
X4489958Y-6891781D01*
X4501083Y-6912000D01*
X4513884Y-6931253D01*
X4528261Y-6949389D01*
X4544060Y-6966203D01*
X4561230Y-6981698D01*
X4579620Y-6995668D01*
X4599127Y-7008012D01*
X4619650Y-7018731D01*
X4640935Y-7027672D01*
X4662881Y-7034834D01*
X4685385Y-7040118D01*
X4708245Y-7043470D01*
G37*
G36*
X1647596Y-6896506D02*
G01*
X1661210Y-6896049D01*
X1674672Y-6893814D01*
X1687677Y-6889750D01*
X1700072Y-6884009D01*
X1711553Y-6876694D01*
X1721967Y-6867906D01*
X1731111Y-6857746D01*
X1738833Y-6846519D01*
X1744980Y-6834378D01*
X1749450Y-6821474D01*
X1752193Y-6808114D01*
X1753107Y-6794500D01*
X1752193Y-6780885D01*
X1749450Y-6767525D01*
X1744980Y-6754622D01*
X1738833Y-6742480D01*
X1731111Y-6731253D01*
X1721967Y-6721094D01*
X1711553Y-6712305D01*
X1700072Y-6704990D01*
X1687677Y-6699250D01*
X1674672Y-6695186D01*
X1661210Y-6692950D01*
X1647596Y-6692493D01*
X1634032Y-6693814D01*
X1620774Y-6697014D01*
X1608023Y-6701891D01*
X1596085Y-6708444D01*
X1585112Y-6716522D01*
X1575308Y-6726021D01*
X1566824Y-6736740D01*
X1559864Y-6748475D01*
X1554581Y-6761022D01*
X1550974Y-6774180D01*
X1549146Y-6787692D01*
X1549146Y-6801307D01*
X1550974Y-6814820D01*
X1554581Y-6827977D01*
X1559864Y-6840524D01*
X1566824Y-6852259D01*
X1575308Y-6862978D01*
X1585112Y-6872478D01*
X1596085Y-6880555D01*
X1608023Y-6887108D01*
X1620774Y-6891985D01*
X1634032Y-6895185D01*
G37*
G36*
X1606550Y-6632295D02*
G01*
X1606550Y-6584950D01*
X1559204Y-6584950D01*
X1559864Y-6586524D01*
X1566824Y-6598259D01*
X1575308Y-6608978D01*
X1585112Y-6618478D01*
X1596085Y-6626555D01*
G37*
G36*
X2368550Y-6632295D02*
G01*
X2368550Y-6584950D01*
X2321204Y-6584950D01*
X2321864Y-6586524D01*
X2328824Y-6598259D01*
X2337308Y-6608978D01*
X2347112Y-6618478D01*
X2358085Y-6626555D01*
G37*
G36*
X2457450Y-6632143D02*
G01*
X2462072Y-6630009D01*
X2473553Y-6622694D01*
X2483967Y-6613906D01*
X2493111Y-6603746D01*
X2500833Y-6592519D01*
X2504643Y-6584950D01*
X2457450Y-6584950D01*
G37*
G36*
X1695450Y-6632143D02*
G01*
X1700072Y-6630009D01*
X1711553Y-6622694D01*
X1721967Y-6613906D01*
X1731111Y-6603746D01*
X1738833Y-6592519D01*
X1742643Y-6584950D01*
X1695450Y-6584950D01*
G37*
G36*
X2457450Y-6496050D02*
G01*
X2504643Y-6496050D01*
X2500833Y-6488480D01*
X2493111Y-6477254D01*
X2483967Y-6467094D01*
X2473553Y-6458305D01*
X2462072Y-6450990D01*
X2457450Y-6448856D01*
G37*
G36*
X1695450Y-6496050D02*
G01*
X1742643Y-6496050D01*
X1738833Y-6488480D01*
X1731111Y-6477254D01*
X1721967Y-6467094D01*
X1711553Y-6458305D01*
X1700072Y-6450990D01*
X1695450Y-6448856D01*
G37*
G36*
X1559204Y-6496050D02*
G01*
X1606550Y-6496050D01*
X1606550Y-6448704D01*
X1596085Y-6454444D01*
X1585112Y-6462522D01*
X1575308Y-6472021D01*
X1566824Y-6482740D01*
X1559864Y-6494475D01*
G37*
G36*
X2321204Y-6496050D02*
G01*
X2368550Y-6496050D01*
X2368550Y-6448704D01*
X2358085Y-6454444D01*
X2347112Y-6462522D01*
X2337308Y-6472021D01*
X2328824Y-6482740D01*
X2321864Y-6494475D01*
G37*
G36*
X7342733Y-6304991D02*
G01*
X7541615Y-6304991D01*
X7547914Y-6304280D01*
X7553401Y-6302349D01*
X7558278Y-6299301D01*
X7562392Y-6295186D01*
X7565491Y-6290310D01*
X7567371Y-6284823D01*
X7568082Y-6278524D01*
X7568082Y-6079642D01*
X7567371Y-6073343D01*
X7565491Y-6067856D01*
X7562392Y-6062980D01*
X7558278Y-6058865D01*
X7553401Y-6055817D01*
X7547914Y-6053886D01*
X7541615Y-6053175D01*
X7342733Y-6053175D01*
X7336434Y-6053886D01*
X7330948Y-6055817D01*
X7326071Y-6058865D01*
X7321956Y-6062980D01*
X7318908Y-6067856D01*
X7316978Y-6073343D01*
X7316266Y-6079642D01*
X7316266Y-6278524D01*
X7316978Y-6284823D01*
X7318908Y-6290310D01*
X7321956Y-6295186D01*
X7326071Y-6299301D01*
X7330948Y-6302349D01*
X7336434Y-6304280D01*
G37*
G36*
X4637684Y-6304991D02*
G01*
X4836515Y-6304991D01*
X4842865Y-6304280D01*
X4848301Y-6302349D01*
X4853178Y-6299301D01*
X4857292Y-6295186D01*
X4860391Y-6290310D01*
X4862271Y-6284823D01*
X4862982Y-6278524D01*
X4862982Y-6079642D01*
X4862271Y-6073343D01*
X4860391Y-6067856D01*
X4857292Y-6062980D01*
X4853178Y-6058865D01*
X4848301Y-6055817D01*
X4842865Y-6053886D01*
X4836515Y-6053175D01*
X4637684Y-6053175D01*
X4631334Y-6053886D01*
X4625898Y-6055817D01*
X4620971Y-6058865D01*
X4616907Y-6062980D01*
X4613808Y-6067856D01*
X4611878Y-6073343D01*
X4611166Y-6079642D01*
X4611166Y-6278524D01*
X4611878Y-6284823D01*
X4613808Y-6290310D01*
X4616907Y-6295186D01*
X4620971Y-6299301D01*
X4625898Y-6302349D01*
X4631334Y-6304280D01*
G37*
G36*
X5625947Y-6191656D02*
G01*
X5639054Y-6191656D01*
X5652008Y-6189878D01*
X5664606Y-6186373D01*
X5676595Y-6181140D01*
X5687771Y-6174333D01*
X5697931Y-6166053D01*
X5706872Y-6156502D01*
X5714441Y-6145834D01*
X5720435Y-6134201D01*
X5724804Y-6121857D01*
X5727496Y-6109055D01*
X5728360Y-6096000D01*
X5727496Y-6082944D01*
X5724804Y-6070142D01*
X5720435Y-6057798D01*
X5714441Y-6046165D01*
X5706872Y-6035497D01*
X5697931Y-6025946D01*
X5687771Y-6017666D01*
X5676595Y-6010859D01*
X5664606Y-6005677D01*
X5652008Y-6002121D01*
X5639054Y-6000343D01*
X5625947Y-6000343D01*
X5612993Y-6002121D01*
X5600395Y-6005677D01*
X5588406Y-6010859D01*
X5577230Y-6017666D01*
X5567070Y-6025946D01*
X5558129Y-6035497D01*
X5550560Y-6046165D01*
X5544566Y-6057798D01*
X5540197Y-6070142D01*
X5537504Y-6082944D01*
X5536641Y-6096000D01*
X5537504Y-6109055D01*
X5540197Y-6121857D01*
X5544566Y-6134201D01*
X5550560Y-6145834D01*
X5558129Y-6156502D01*
X5567070Y-6166053D01*
X5577230Y-6174333D01*
X5588406Y-6181140D01*
X5600395Y-6186373D01*
X5612993Y-6189878D01*
G37*
G36*
X1519326Y-5561177D02*
G01*
X1533144Y-5560314D01*
X1546707Y-5557570D01*
X1559814Y-5553151D01*
X1572260Y-5547004D01*
X1583740Y-5539333D01*
X1594154Y-5530189D01*
X1603298Y-5519775D01*
X1611020Y-5508244D01*
X1617116Y-5495848D01*
X1621586Y-5482691D01*
X1624279Y-5469128D01*
X1625193Y-5455310D01*
X1624279Y-5441492D01*
X1621586Y-5427929D01*
X1617116Y-5414772D01*
X1611020Y-5402376D01*
X1603298Y-5390845D01*
X1594154Y-5380431D01*
X1583740Y-5371287D01*
X1572260Y-5363616D01*
X1559814Y-5357469D01*
X1546707Y-5353050D01*
X1533144Y-5350306D01*
X1519326Y-5349443D01*
X1505458Y-5350306D01*
X1491894Y-5353050D01*
X1478788Y-5357469D01*
X1466342Y-5363616D01*
X1454861Y-5371287D01*
X1444447Y-5380431D01*
X1435303Y-5390845D01*
X1427581Y-5402376D01*
X1421485Y-5414772D01*
X1417015Y-5427929D01*
X1414322Y-5441492D01*
X1413408Y-5455310D01*
X1414322Y-5469128D01*
X1417015Y-5482691D01*
X1421485Y-5495848D01*
X1427581Y-5508244D01*
X1435303Y-5519775D01*
X1444447Y-5530189D01*
X1454861Y-5539333D01*
X1466342Y-5547004D01*
X1478788Y-5553151D01*
X1491894Y-5557570D01*
X1505458Y-5560314D01*
G37*
G36*
X5126126Y-5561177D02*
G01*
X5139944Y-5560314D01*
X5153507Y-5557570D01*
X5166614Y-5553151D01*
X5179060Y-5547004D01*
X5190540Y-5539333D01*
X5200954Y-5530189D01*
X5210098Y-5519775D01*
X5217820Y-5508244D01*
X5223916Y-5495848D01*
X5228386Y-5482691D01*
X5231079Y-5469128D01*
X5231993Y-5455310D01*
X5231079Y-5441492D01*
X5228386Y-5427929D01*
X5223916Y-5414772D01*
X5217820Y-5402376D01*
X5210098Y-5390845D01*
X5200954Y-5380431D01*
X5190540Y-5371287D01*
X5179060Y-5363616D01*
X5166614Y-5357469D01*
X5153507Y-5353050D01*
X5139944Y-5350306D01*
X5126126Y-5349443D01*
X5112258Y-5350306D01*
X5098694Y-5353050D01*
X5085588Y-5357469D01*
X5073142Y-5363616D01*
X5061661Y-5371287D01*
X5051247Y-5380431D01*
X5042103Y-5390845D01*
X5034381Y-5402376D01*
X5028285Y-5414772D01*
X5023815Y-5427929D01*
X5021122Y-5441492D01*
X5020208Y-5455310D01*
X5021122Y-5469128D01*
X5023815Y-5482691D01*
X5028285Y-5495848D01*
X5034381Y-5508244D01*
X5042103Y-5519775D01*
X5051247Y-5530189D01*
X5061661Y-5539333D01*
X5073142Y-5547004D01*
X5085588Y-5553151D01*
X5098694Y-5557570D01*
X5112258Y-5560314D01*
G37*
G36*
X6942175Y-5561177D02*
G01*
X6955993Y-5560314D01*
X6969556Y-5557570D01*
X6982714Y-5553151D01*
X6995109Y-5547004D01*
X7006640Y-5539333D01*
X7017054Y-5530189D01*
X7026198Y-5519775D01*
X7033869Y-5508244D01*
X7040016Y-5495848D01*
X7044436Y-5482691D01*
X7047179Y-5469128D01*
X7048042Y-5455310D01*
X7047179Y-5441492D01*
X7044436Y-5427929D01*
X7040016Y-5414772D01*
X7033869Y-5402376D01*
X7026198Y-5390845D01*
X7017054Y-5380431D01*
X7006640Y-5371287D01*
X6995109Y-5363616D01*
X6982714Y-5357469D01*
X6969556Y-5353050D01*
X6955993Y-5350306D01*
X6942175Y-5349443D01*
X6928358Y-5350306D01*
X6914794Y-5353050D01*
X6901637Y-5357469D01*
X6889242Y-5363616D01*
X6877710Y-5371287D01*
X6867296Y-5380431D01*
X6858152Y-5390845D01*
X6850481Y-5402376D01*
X6844334Y-5414772D01*
X6839915Y-5427929D01*
X6837172Y-5441492D01*
X6836308Y-5455310D01*
X6837172Y-5469128D01*
X6839915Y-5482691D01*
X6844334Y-5495848D01*
X6850481Y-5508244D01*
X6858152Y-5519775D01*
X6867296Y-5530189D01*
X6877710Y-5539333D01*
X6889242Y-5547004D01*
X6901637Y-5553151D01*
X6914794Y-5557570D01*
X6928358Y-5560314D01*
G37*
G36*
X7436408Y-5216144D02*
G01*
X7459522Y-5215636D01*
X7482484Y-5213248D01*
X7505192Y-5208930D01*
X7527442Y-5202682D01*
X7549083Y-5194655D01*
X7570012Y-5184800D01*
X7590028Y-5173268D01*
X7608976Y-5160060D01*
X7626807Y-5145328D01*
X7643317Y-5129174D01*
X7658404Y-5111699D01*
X7671968Y-5093004D01*
X7683957Y-5073192D01*
X7694218Y-5052517D01*
X7702702Y-5031028D01*
X7709408Y-5008930D01*
X7714234Y-4986324D01*
X7717129Y-4963363D01*
X7718094Y-4940300D01*
X7717129Y-4917236D01*
X7714234Y-4894275D01*
X7709408Y-4871669D01*
X7702702Y-4849571D01*
X7694218Y-4828082D01*
X7683957Y-4807407D01*
X7671968Y-4787595D01*
X7658404Y-4768951D01*
X7643317Y-4751425D01*
X7626807Y-4735271D01*
X7608976Y-4720539D01*
X7590028Y-4707331D01*
X7570012Y-4695799D01*
X7549083Y-4685944D01*
X7527442Y-4677918D01*
X7505192Y-4671669D01*
X7482484Y-4667351D01*
X7459522Y-4664964D01*
X7436408Y-4664456D01*
X7413345Y-4665929D01*
X7390485Y-4669282D01*
X7367981Y-4674565D01*
X7345984Y-4681728D01*
X7324699Y-4690668D01*
X7304227Y-4701387D01*
X7284720Y-4713732D01*
X7266330Y-4727702D01*
X7249159Y-4743196D01*
X7233310Y-4760010D01*
X7218984Y-4778146D01*
X7206183Y-4797399D01*
X7195058Y-4817618D01*
X7185659Y-4838750D01*
X7178040Y-4860544D01*
X7172299Y-4882946D01*
X7168438Y-4905705D01*
X7166508Y-4928768D01*
X7166508Y-4951831D01*
X7168438Y-4974894D01*
X7172299Y-4997653D01*
X7178040Y-5020056D01*
X7185659Y-5041849D01*
X7195058Y-5062982D01*
X7206183Y-5083200D01*
X7218984Y-5102453D01*
X7233310Y-5120589D01*
X7249159Y-5137404D01*
X7266330Y-5152898D01*
X7284720Y-5166868D01*
X7304227Y-5179212D01*
X7324699Y-5189931D01*
X7345984Y-5198872D01*
X7367981Y-5206034D01*
X7390485Y-5211318D01*
X7413345Y-5214670D01*
G37*
G36*
X7342733Y-4476191D02*
G01*
X7541615Y-4476191D01*
X7547914Y-4475480D01*
X7553401Y-4473600D01*
X7558278Y-4470501D01*
X7562392Y-4466386D01*
X7565491Y-4461510D01*
X7567371Y-4456023D01*
X7568082Y-4449724D01*
X7568082Y-4250842D01*
X7567371Y-4244543D01*
X7565491Y-4239056D01*
X7562392Y-4234180D01*
X7558278Y-4230065D01*
X7553401Y-4227017D01*
X7547914Y-4225086D01*
X7541615Y-4224375D01*
X7342733Y-4224375D01*
X7336434Y-4225086D01*
X7330948Y-4227017D01*
X7326071Y-4230065D01*
X7321956Y-4234180D01*
X7318908Y-4239056D01*
X7316978Y-4244543D01*
X7316266Y-4250842D01*
X7316266Y-4449724D01*
X7316978Y-4456023D01*
X7318908Y-4461510D01*
X7321956Y-4466386D01*
X7326071Y-4470501D01*
X7330948Y-4473600D01*
X7336434Y-4475480D01*
G37*
G36*
X1519326Y-3732377D02*
G01*
X1533144Y-3731514D01*
X1546707Y-3728770D01*
X1559814Y-3724351D01*
X1572260Y-3718204D01*
X1583740Y-3710533D01*
X1594154Y-3701389D01*
X1603298Y-3690975D01*
X1611020Y-3679444D01*
X1617116Y-3667048D01*
X1621586Y-3653891D01*
X1624279Y-3640328D01*
X1625193Y-3626510D01*
X1624279Y-3612692D01*
X1621586Y-3599129D01*
X1617116Y-3585972D01*
X1611020Y-3573576D01*
X1603298Y-3562045D01*
X1594154Y-3551631D01*
X1583740Y-3542487D01*
X1572260Y-3534816D01*
X1559814Y-3528669D01*
X1546707Y-3524250D01*
X1533144Y-3521506D01*
X1519326Y-3520643D01*
X1505458Y-3521506D01*
X1491894Y-3524250D01*
X1478788Y-3528669D01*
X1466342Y-3534816D01*
X1454861Y-3542487D01*
X1444447Y-3551631D01*
X1435303Y-3562045D01*
X1427581Y-3573576D01*
X1421485Y-3585972D01*
X1417015Y-3599129D01*
X1414322Y-3612692D01*
X1413408Y-3626510D01*
X1414322Y-3640328D01*
X1417015Y-3653891D01*
X1421485Y-3667048D01*
X1427581Y-3679444D01*
X1435303Y-3690975D01*
X1444447Y-3701389D01*
X1454861Y-3710533D01*
X1466342Y-3718204D01*
X1478788Y-3724351D01*
X1491894Y-3728770D01*
X1505458Y-3731514D01*
G37*
G36*
X5126126Y-3732377D02*
G01*
X5139944Y-3731514D01*
X5153507Y-3728770D01*
X5166614Y-3724351D01*
X5179060Y-3718204D01*
X5190540Y-3710533D01*
X5200954Y-3701389D01*
X5210098Y-3690975D01*
X5217820Y-3679444D01*
X5223916Y-3667048D01*
X5228386Y-3653891D01*
X5231079Y-3640328D01*
X5231993Y-3626510D01*
X5231079Y-3612692D01*
X5228386Y-3599129D01*
X5223916Y-3585972D01*
X5217820Y-3573576D01*
X5210098Y-3562045D01*
X5200954Y-3551631D01*
X5190540Y-3542487D01*
X5179060Y-3534816D01*
X5166614Y-3528669D01*
X5153507Y-3524250D01*
X5139944Y-3521506D01*
X5126126Y-3520643D01*
X5112258Y-3521506D01*
X5098694Y-3524250D01*
X5085588Y-3528669D01*
X5073142Y-3534816D01*
X5061661Y-3542487D01*
X5051247Y-3551631D01*
X5042103Y-3562045D01*
X5034381Y-3573576D01*
X5028285Y-3585972D01*
X5023815Y-3599129D01*
X5021122Y-3612692D01*
X5020208Y-3626510D01*
X5021122Y-3640328D01*
X5023815Y-3653891D01*
X5028285Y-3667048D01*
X5034381Y-3679444D01*
X5042103Y-3690975D01*
X5051247Y-3701389D01*
X5061661Y-3710533D01*
X5073142Y-3718204D01*
X5085588Y-3724351D01*
X5098694Y-3728770D01*
X5112258Y-3731514D01*
G37*
G36*
X6942175Y-3719677D02*
G01*
X6955993Y-3718814D01*
X6969556Y-3716070D01*
X6982714Y-3711651D01*
X6995109Y-3705504D01*
X7006640Y-3697833D01*
X7017054Y-3688689D01*
X7026198Y-3678275D01*
X7033869Y-3666744D01*
X7040016Y-3654348D01*
X7044436Y-3641191D01*
X7047179Y-3627628D01*
X7048042Y-3613810D01*
X7047179Y-3599992D01*
X7044436Y-3586429D01*
X7040016Y-3573272D01*
X7033869Y-3560876D01*
X7026198Y-3549345D01*
X7017054Y-3538931D01*
X7006640Y-3529787D01*
X6995109Y-3522116D01*
X6982714Y-3515969D01*
X6969556Y-3511550D01*
X6955993Y-3508806D01*
X6942175Y-3507943D01*
X6928358Y-3508806D01*
X6914794Y-3511550D01*
X6901637Y-3515969D01*
X6889242Y-3522116D01*
X6877710Y-3529787D01*
X6867296Y-3538931D01*
X6858152Y-3549345D01*
X6850481Y-3560876D01*
X6844334Y-3573272D01*
X6839915Y-3586429D01*
X6837172Y-3599992D01*
X6836308Y-3613810D01*
X6837172Y-3627628D01*
X6839915Y-3641191D01*
X6844334Y-3654348D01*
X6850481Y-3666744D01*
X6858152Y-3678275D01*
X6867296Y-3688689D01*
X6877710Y-3697833D01*
X6889242Y-3705504D01*
X6901637Y-3711651D01*
X6914794Y-3716070D01*
X6928358Y-3718814D01*
G37*
G36*
X2013508Y-3387344D02*
G01*
X2036622Y-3386836D01*
X2059584Y-3384448D01*
X2082292Y-3380130D01*
X2104542Y-3373882D01*
X2126234Y-3365855D01*
X2147112Y-3356000D01*
X2167128Y-3344468D01*
X2186127Y-3331260D01*
X2203907Y-3316528D01*
X2220417Y-3300374D01*
X2235504Y-3282899D01*
X2249119Y-3264204D01*
X2261057Y-3244392D01*
X2271369Y-3223717D01*
X2279853Y-3202228D01*
X2286508Y-3180130D01*
X2291334Y-3157524D01*
X2294229Y-3134563D01*
X2295194Y-3111500D01*
X2294229Y-3088436D01*
X2291334Y-3065475D01*
X2286508Y-3042869D01*
X2279853Y-3020771D01*
X2271369Y-2999282D01*
X2261057Y-2978607D01*
X2249119Y-2958795D01*
X2235504Y-2940151D01*
X2220417Y-2922625D01*
X2203907Y-2906471D01*
X2186127Y-2891739D01*
X2167128Y-2878531D01*
X2147112Y-2866999D01*
X2126234Y-2857144D01*
X2104542Y-2849118D01*
X2082292Y-2842869D01*
X2059584Y-2838551D01*
X2036622Y-2836164D01*
X2013508Y-2835656D01*
X1990445Y-2837129D01*
X1967585Y-2840482D01*
X1945081Y-2845765D01*
X1923135Y-2852928D01*
X1901850Y-2861868D01*
X1881327Y-2872587D01*
X1861820Y-2884932D01*
X1843430Y-2898902D01*
X1826260Y-2914396D01*
X1810461Y-2931210D01*
X1796084Y-2949346D01*
X1783283Y-2968599D01*
X1772157Y-2988818D01*
X1762760Y-3009950D01*
X1755190Y-3031744D01*
X1749450Y-3054146D01*
X1745589Y-3076905D01*
X1743659Y-3099968D01*
X1743659Y-3123031D01*
X1745589Y-3146094D01*
X1749450Y-3168853D01*
X1755190Y-3191256D01*
X1762760Y-3213049D01*
X1772157Y-3234182D01*
X1783283Y-3254400D01*
X1796084Y-3273653D01*
X1810461Y-3291789D01*
X1826260Y-3308604D01*
X1843430Y-3324098D01*
X1861820Y-3338068D01*
X1881327Y-3350412D01*
X1901850Y-3361131D01*
X1923135Y-3370072D01*
X1945081Y-3377234D01*
X1967585Y-3382518D01*
X1990445Y-3385870D01*
G37*
G36*
X7436408Y-3374644D02*
G01*
X7459522Y-3374136D01*
X7482484Y-3371748D01*
X7505192Y-3367430D01*
X7527442Y-3361182D01*
X7549083Y-3353155D01*
X7570012Y-3343300D01*
X7590028Y-3331768D01*
X7608976Y-3318560D01*
X7626807Y-3303828D01*
X7643317Y-3287674D01*
X7658404Y-3270199D01*
X7671968Y-3251504D01*
X7683957Y-3231692D01*
X7694218Y-3211017D01*
X7702702Y-3189528D01*
X7709408Y-3167430D01*
X7714234Y-3144824D01*
X7717129Y-3121863D01*
X7718094Y-3098800D01*
X7717129Y-3075736D01*
X7714234Y-3052775D01*
X7709408Y-3030169D01*
X7702702Y-3008071D01*
X7694218Y-2986582D01*
X7683957Y-2965907D01*
X7671968Y-2946095D01*
X7658404Y-2927451D01*
X7643317Y-2909925D01*
X7626807Y-2893771D01*
X7608976Y-2879039D01*
X7590028Y-2865831D01*
X7570012Y-2854299D01*
X7549083Y-2844444D01*
X7527442Y-2836418D01*
X7505192Y-2830169D01*
X7482484Y-2825851D01*
X7459522Y-2823464D01*
X7436408Y-2822956D01*
X7413345Y-2824429D01*
X7390485Y-2827782D01*
X7367981Y-2833065D01*
X7345984Y-2840228D01*
X7324699Y-2849168D01*
X7304227Y-2859887D01*
X7284720Y-2872232D01*
X7266330Y-2886202D01*
X7249159Y-2901696D01*
X7233310Y-2918510D01*
X7218984Y-2936646D01*
X7206183Y-2955899D01*
X7195058Y-2976118D01*
X7185659Y-2997250D01*
X7178040Y-3019044D01*
X7172299Y-3041446D01*
X7168438Y-3064205D01*
X7166508Y-3087268D01*
X7166508Y-3110331D01*
X7168438Y-3133394D01*
X7172299Y-3156153D01*
X7178040Y-3178556D01*
X7185659Y-3200349D01*
X7195058Y-3221482D01*
X7206183Y-3241700D01*
X7218984Y-3260953D01*
X7233310Y-3279089D01*
X7249159Y-3295904D01*
X7266330Y-3311398D01*
X7284720Y-3325368D01*
X7304227Y-3337712D01*
X7324699Y-3348431D01*
X7345984Y-3357372D01*
X7367981Y-3364534D01*
X7390485Y-3369818D01*
X7413345Y-3373170D01*
G37*
G36*
X1919884Y-2647391D02*
G01*
X2118715Y-2647391D01*
X2125065Y-2646680D01*
X2130501Y-2644800D01*
X2135428Y-2641701D01*
X2139492Y-2637637D01*
X2142591Y-2632710D01*
X2144471Y-2627274D01*
X2145233Y-2620924D01*
X2145233Y-2422093D01*
X2144471Y-2415743D01*
X2142591Y-2410307D01*
X2139492Y-2405380D01*
X2135428Y-2401316D01*
X2130501Y-2398217D01*
X2125065Y-2396286D01*
X2118715Y-2395575D01*
X1919884Y-2395575D01*
X1913534Y-2396286D01*
X1908098Y-2398217D01*
X1903171Y-2401316D01*
X1899107Y-2405380D01*
X1896008Y-2410307D01*
X1894128Y-2415743D01*
X1893417Y-2422093D01*
X1893417Y-2620924D01*
X1894128Y-2627274D01*
X1896008Y-2632710D01*
X1899107Y-2637637D01*
X1903171Y-2641701D01*
X1908098Y-2644800D01*
X1913534Y-2646680D01*
G37*
G36*
X7342733Y-2634691D02*
G01*
X7541615Y-2634691D01*
X7547914Y-2633980D01*
X7553401Y-2632100D01*
X7558278Y-2629001D01*
X7562392Y-2624886D01*
X7565491Y-2620010D01*
X7567371Y-2614523D01*
X7568082Y-2608224D01*
X7568082Y-2409342D01*
X7567371Y-2403043D01*
X7565491Y-2397607D01*
X7562392Y-2392680D01*
X7558278Y-2388616D01*
X7553401Y-2385517D01*
X7547914Y-2383586D01*
X7541615Y-2382875D01*
X7342733Y-2382875D01*
X7336434Y-2383586D01*
X7330948Y-2385517D01*
X7326071Y-2388616D01*
X7321956Y-2392680D01*
X7318908Y-2397607D01*
X7316978Y-2403043D01*
X7316266Y-2409342D01*
X7316266Y-2608224D01*
X7316978Y-2614523D01*
X7318908Y-2620010D01*
X7321956Y-2624886D01*
X7326071Y-2629001D01*
X7330948Y-2632100D01*
X7336434Y-2633980D01*
G37*
G36*
X3358337Y-2322169D02*
G01*
X3360470Y-2321204D01*
X3373475Y-2313381D01*
X3385464Y-2303983D01*
X3396183Y-2293264D01*
X3405581Y-2281275D01*
X3413404Y-2268270D01*
X3414369Y-2266137D01*
X3358337Y-2266137D01*
G37*
G36*
X3245662Y-2322169D02*
G01*
X3245662Y-2266137D01*
X3189630Y-2266137D01*
X3190595Y-2268270D01*
X3198418Y-2281275D01*
X3207816Y-2293264D01*
X3218535Y-2303983D01*
X3230524Y-2313381D01*
X3243529Y-2321204D01*
G37*
G36*
X3189630Y-2153462D02*
G01*
X3245662Y-2153462D01*
X3245662Y-2097430D01*
X3243529Y-2098395D01*
X3230524Y-2106218D01*
X3218535Y-2115616D01*
X3207816Y-2126335D01*
X3198418Y-2138324D01*
X3190595Y-2151329D01*
G37*
G36*
X3358337Y-2153462D02*
G01*
X3414369Y-2153462D01*
X3413404Y-2151329D01*
X3405581Y-2138324D01*
X3396183Y-2126335D01*
X3385464Y-2115616D01*
X3373475Y-2106218D01*
X3360470Y-2098395D01*
X3358337Y-2097430D01*
G37*
G36*
X2301646Y-2057806D02*
G01*
X2315260Y-2057349D01*
X2328722Y-2055114D01*
X2341727Y-2051050D01*
X2354122Y-2045309D01*
X2365603Y-2037994D01*
X2376017Y-2029206D01*
X2385161Y-2019046D01*
X2392883Y-2007819D01*
X2399030Y-1995678D01*
X2403500Y-1982774D01*
X2406243Y-1969414D01*
X2407158Y-1955800D01*
X2406243Y-1942185D01*
X2403500Y-1928825D01*
X2399030Y-1915922D01*
X2392883Y-1903780D01*
X2385161Y-1892554D01*
X2376017Y-1882393D01*
X2365603Y-1873605D01*
X2354122Y-1866290D01*
X2341727Y-1860550D01*
X2328722Y-1856486D01*
X2315260Y-1854250D01*
X2301646Y-1853793D01*
X2288082Y-1855114D01*
X2274824Y-1858314D01*
X2262073Y-1863191D01*
X2250135Y-1869744D01*
X2239162Y-1877822D01*
X2229358Y-1887321D01*
X2220874Y-1898040D01*
X2213914Y-1909775D01*
X2208631Y-1922322D01*
X2205024Y-1935480D01*
X2203196Y-1948992D01*
X2203196Y-1962607D01*
X2205024Y-1976120D01*
X2208631Y-1989277D01*
X2213914Y-2001824D01*
X2220874Y-2013559D01*
X2229358Y-2024278D01*
X2239162Y-2033778D01*
X2250135Y-2041855D01*
X2262073Y-2048408D01*
X2274824Y-2053285D01*
X2288082Y-2056485D01*
G37*
G36*
X2082800Y-2047443D02*
G01*
X2087422Y-2045309D01*
X2098903Y-2037994D01*
X2109317Y-2029206D01*
X2118461Y-2019046D01*
X2126183Y-2007819D01*
X2129993Y-2000250D01*
X2082800Y-2000250D01*
G37*
G36*
X2082800Y-1911350D02*
G01*
X2129993Y-1911350D01*
X2126183Y-1903780D01*
X2118461Y-1892554D01*
X2109317Y-1882393D01*
X2098903Y-1873605D01*
X2087422Y-1866290D01*
X2082800Y-1864156D01*
G37*
G36*
X3322675Y-1903577D02*
G01*
X3336544Y-1902714D01*
X3350107Y-1899970D01*
X3363214Y-1895551D01*
X3375660Y-1889404D01*
X3387140Y-1881733D01*
X3397554Y-1872589D01*
X3406698Y-1862175D01*
X3414420Y-1850643D01*
X3420516Y-1838248D01*
X3424986Y-1825091D01*
X3427679Y-1811528D01*
X3428593Y-1797710D01*
X3427679Y-1783892D01*
X3424986Y-1770329D01*
X3420516Y-1757172D01*
X3414420Y-1744776D01*
X3406698Y-1733245D01*
X3397554Y-1722831D01*
X3387140Y-1713687D01*
X3375660Y-1706016D01*
X3363214Y-1699869D01*
X3350107Y-1695450D01*
X3336544Y-1692706D01*
X3322675Y-1691843D01*
X3308858Y-1692706D01*
X3295294Y-1695450D01*
X3282187Y-1699869D01*
X3269742Y-1706016D01*
X3258261Y-1713687D01*
X3247847Y-1722831D01*
X3238703Y-1733245D01*
X3230981Y-1744776D01*
X3224885Y-1757172D01*
X3220415Y-1770329D01*
X3217722Y-1783892D01*
X3216808Y-1797710D01*
X3217722Y-1811528D01*
X3220415Y-1825091D01*
X3224885Y-1838248D01*
X3230981Y-1850643D01*
X3238703Y-1862175D01*
X3247847Y-1872589D01*
X3258261Y-1881733D01*
X3269742Y-1889404D01*
X3282187Y-1895551D01*
X3295294Y-1899970D01*
X3308858Y-1902714D01*
G37*
G36*
X7958480Y-1791207D02*
G01*
X7968284Y-1790344D01*
X7977784Y-1787804D01*
X7986674Y-1783638D01*
X7993227Y-1779066D01*
X7996021Y-1777695D01*
X7999069Y-1777238D01*
X8056524Y-1777238D01*
X8065312Y-1776374D01*
X8073237Y-1773936D01*
X8080603Y-1770024D01*
X8087410Y-1764436D01*
X8162188Y-1689607D01*
X8167776Y-1682851D01*
X8171688Y-1675485D01*
X8174126Y-1667560D01*
X8174990Y-1658772D01*
X8174990Y-1489456D01*
X8174126Y-1480667D01*
X8171688Y-1472742D01*
X8167776Y-1465427D01*
X8162188Y-1458620D01*
X8109559Y-1405991D01*
X8107527Y-1402994D01*
X8106613Y-1399489D01*
X8107019Y-1395882D01*
X8108696Y-1392631D01*
X8111337Y-1390192D01*
X8115604Y-1387500D01*
X8119719Y-1383436D01*
X8122767Y-1378508D01*
X8124698Y-1373073D01*
X8125409Y-1366723D01*
X8125409Y-1237894D01*
X8124698Y-1231544D01*
X8122767Y-1226108D01*
X8119719Y-1221181D01*
X8115604Y-1217117D01*
X8110728Y-1214018D01*
X8105241Y-1212088D01*
X8098942Y-1211376D01*
X8025028Y-1211376D01*
X8021066Y-1210564D01*
X8017713Y-1208278D01*
X8015579Y-1204874D01*
X8014868Y-1200861D01*
X8015833Y-1196949D01*
X8016544Y-1195476D01*
X8019084Y-1185976D01*
X8019948Y-1176172D01*
X8019084Y-1166368D01*
X8016544Y-1156868D01*
X8012379Y-1147978D01*
X8007807Y-1141425D01*
X8006435Y-1138682D01*
X8005978Y-1135634D01*
X8005978Y-1108049D01*
X8006740Y-1104188D01*
X8008924Y-1100886D01*
X8049107Y-1060704D01*
X8054695Y-1053896D01*
X8058607Y-1046581D01*
X8061045Y-1038606D01*
X8061655Y-1032357D01*
X8062671Y-1028801D01*
X8064906Y-1025855D01*
X8068106Y-1023874D01*
X8071764Y-1023213D01*
X8098942Y-1023213D01*
X8105241Y-1022502D01*
X8110728Y-1020571D01*
X8115604Y-1017524D01*
X8119719Y-1013409D01*
X8122767Y-1008532D01*
X8124698Y-1003046D01*
X8125409Y-996746D01*
X8125409Y-867867D01*
X8124698Y-861568D01*
X8122767Y-856081D01*
X8119719Y-851204D01*
X8115604Y-847090D01*
X8110728Y-843991D01*
X8105241Y-842111D01*
X8098942Y-841400D01*
X7940090Y-841400D01*
X7933740Y-842111D01*
X7928305Y-843991D01*
X7923377Y-847090D01*
X7919313Y-851204D01*
X7916214Y-856081D01*
X7914284Y-861568D01*
X7913573Y-867867D01*
X7913573Y-996746D01*
X7914284Y-1003046D01*
X7916214Y-1008532D01*
X7919313Y-1013409D01*
X7923377Y-1017524D01*
X7928305Y-1020571D01*
X7933740Y-1022502D01*
X7940090Y-1023213D01*
X7942122Y-1023213D01*
X7946034Y-1023975D01*
X7949336Y-1026160D01*
X7951520Y-1029462D01*
X7952282Y-1033373D01*
X7951520Y-1037234D01*
X7949336Y-1040536D01*
X7933893Y-1055979D01*
X7928305Y-1062786D01*
X7924393Y-1070102D01*
X7922006Y-1078026D01*
X7921142Y-1086815D01*
X7921142Y-1135634D01*
X7920685Y-1138682D01*
X7919313Y-1141476D01*
X7914741Y-1147978D01*
X7910575Y-1156868D01*
X7908036Y-1166368D01*
X7907172Y-1176172D01*
X7908036Y-1185976D01*
X7910575Y-1195476D01*
X7914741Y-1204366D01*
X7918856Y-1210208D01*
X7920431Y-1213815D01*
X7920532Y-1217777D01*
X7919110Y-1221435D01*
X7916214Y-1226108D01*
X7914284Y-1231544D01*
X7913573Y-1237894D01*
X7913573Y-1366723D01*
X7914284Y-1373073D01*
X7916214Y-1378508D01*
X7919313Y-1383436D01*
X7923377Y-1387500D01*
X7928305Y-1390599D01*
X7933740Y-1392478D01*
X7940090Y-1393190D01*
X7967218Y-1393190D01*
X7970875Y-1393901D01*
X7974025Y-1395831D01*
X7976260Y-1398778D01*
X7977327Y-1402384D01*
X7977936Y-1408633D01*
X7980324Y-1416558D01*
X7984236Y-1423924D01*
X7989519Y-1430324D01*
X7995970Y-1435608D01*
X8003286Y-1439519D01*
X8011210Y-1441907D01*
X8019999Y-1442770D01*
X8022234Y-1442770D01*
X8026095Y-1443532D01*
X8029397Y-1445768D01*
X8062874Y-1479245D01*
X8065058Y-1482496D01*
X8065871Y-1486408D01*
X8065871Y-1543456D01*
X8079994Y-1543456D01*
X8083905Y-1544218D01*
X8087156Y-1546402D01*
X8089392Y-1549704D01*
X8090153Y-1553616D01*
X8090153Y-1610969D01*
X8089392Y-1614881D01*
X8087156Y-1618183D01*
X8083905Y-1620367D01*
X8079994Y-1621129D01*
X8065871Y-1621129D01*
X8065871Y-1661820D01*
X8065058Y-1665732D01*
X8062874Y-1668983D01*
X8042452Y-1689404D01*
X8039150Y-1691639D01*
X8035290Y-1692402D01*
X7998968Y-1692402D01*
X7995920Y-1691944D01*
X7993125Y-1690573D01*
X7986674Y-1686052D01*
X7979003Y-1682445D01*
X7975904Y-1680210D01*
X7973872Y-1677009D01*
X7973161Y-1673250D01*
X7973161Y-1621129D01*
X7913573Y-1621129D01*
X7913573Y-1646732D01*
X7914284Y-1653032D01*
X7916214Y-1658518D01*
X7919313Y-1663395D01*
X7923377Y-1667510D01*
X7928000Y-1670405D01*
X7930896Y-1673148D01*
X7932521Y-1676755D01*
X7932623Y-1680768D01*
X7931200Y-1684477D01*
X7928457Y-1687322D01*
X7922259Y-1691639D01*
X7915300Y-1698599D01*
X7909661Y-1706676D01*
X7905496Y-1715566D01*
X7902956Y-1725066D01*
X7902092Y-1734870D01*
X7902956Y-1744624D01*
X7905496Y-1754124D01*
X7909661Y-1763014D01*
X7913370Y-1768297D01*
X7915046Y-1772259D01*
X7914894Y-1776526D01*
X7913166Y-1780133D01*
X7916824Y-1778406D01*
X7921091Y-1778304D01*
X7925003Y-1779981D01*
X7930286Y-1783638D01*
X7939176Y-1787804D01*
X7948675Y-1790344D01*
G37*
G36*
X7212330Y-1550619D02*
G01*
X7223506Y-1549349D01*
X7234326Y-1546352D01*
X7244588Y-1541729D01*
X7253986Y-1535633D01*
X7262368Y-1528165D01*
X7269530Y-1519529D01*
X7275271Y-1509826D01*
X7279487Y-1499412D01*
X7282027Y-1488490D01*
X7282891Y-1477314D01*
X7282027Y-1466088D01*
X7279487Y-1455166D01*
X7275271Y-1444752D01*
X7269530Y-1435049D01*
X7262368Y-1426413D01*
X7253986Y-1418945D01*
X7244588Y-1412849D01*
X7234326Y-1408226D01*
X7223506Y-1405229D01*
X7212330Y-1403959D01*
X7201103Y-1404416D01*
X7190079Y-1406550D01*
X7179513Y-1410309D01*
X7169607Y-1415694D01*
X7160666Y-1422501D01*
X7152894Y-1430578D01*
X7146442Y-1439773D01*
X7141464Y-1449882D01*
X7138060Y-1460550D01*
X7136333Y-1471676D01*
X7136333Y-1482902D01*
X7138060Y-1494028D01*
X7141464Y-1504696D01*
X7146442Y-1514805D01*
X7152894Y-1524000D01*
X7160666Y-1532077D01*
X7169607Y-1538884D01*
X7179513Y-1544269D01*
X7190079Y-1548028D01*
X7201103Y-1550162D01*
G37*
G36*
X7652308Y-1550619D02*
G01*
X7663484Y-1549349D01*
X7674305Y-1546352D01*
X7684566Y-1541729D01*
X7693964Y-1535633D01*
X7702346Y-1528165D01*
X7709509Y-1519529D01*
X7715250Y-1509826D01*
X7719466Y-1499412D01*
X7722006Y-1488490D01*
X7722870Y-1477314D01*
X7722006Y-1466088D01*
X7719466Y-1455166D01*
X7715250Y-1444752D01*
X7709509Y-1435049D01*
X7702346Y-1426413D01*
X7693964Y-1418945D01*
X7684566Y-1412849D01*
X7674305Y-1408226D01*
X7663484Y-1405229D01*
X7652308Y-1403959D01*
X7641081Y-1404416D01*
X7630058Y-1406550D01*
X7619492Y-1410309D01*
X7609586Y-1415694D01*
X7600645Y-1422501D01*
X7592872Y-1430578D01*
X7586421Y-1439773D01*
X7581442Y-1449882D01*
X7578039Y-1460550D01*
X7576312Y-1471676D01*
X7576312Y-1482902D01*
X7578039Y-1494028D01*
X7581442Y-1504696D01*
X7586421Y-1514805D01*
X7592872Y-1524000D01*
X7600645Y-1532077D01*
X7609586Y-1538884D01*
X7619492Y-1544269D01*
X7630058Y-1548028D01*
X7641081Y-1550162D01*
G37*
G36*
X7913573Y-1543456D02*
G01*
X7973161Y-1543456D01*
X7973161Y-1491386D01*
X7940090Y-1491386D01*
X7933740Y-1492097D01*
X7928305Y-1494028D01*
X7923377Y-1497076D01*
X7919313Y-1501190D01*
X7916214Y-1506067D01*
X7914284Y-1511554D01*
X7913573Y-1517853D01*
G37*
G36*
X1401826Y-1461973D02*
G01*
X1415135Y-1461109D01*
X1428242Y-1458468D01*
X1440891Y-1454200D01*
X1452829Y-1448308D01*
X1463954Y-1440891D01*
X1473962Y-1432052D01*
X1482801Y-1422044D01*
X1490218Y-1410919D01*
X1496110Y-1398930D01*
X1500428Y-1386281D01*
X1503019Y-1373225D01*
X1503934Y-1359560D01*
X1503934Y-1212596D01*
X1503019Y-1198930D01*
X1500428Y-1185875D01*
X1496110Y-1173226D01*
X1490218Y-1161237D01*
X1482801Y-1150112D01*
X1473962Y-1140104D01*
X1463954Y-1131265D01*
X1452829Y-1123848D01*
X1440891Y-1117955D01*
X1428242Y-1113688D01*
X1415135Y-1111046D01*
X1401826Y-1110183D01*
X1388465Y-1111046D01*
X1375359Y-1113688D01*
X1362710Y-1117955D01*
X1350772Y-1123848D01*
X1339646Y-1131265D01*
X1329639Y-1140104D01*
X1320800Y-1150112D01*
X1313383Y-1161237D01*
X1307490Y-1173226D01*
X1303172Y-1185875D01*
X1300581Y-1198930D01*
X1299718Y-1212596D01*
X1299718Y-1359560D01*
X1300581Y-1373225D01*
X1303172Y-1386281D01*
X1307490Y-1398930D01*
X1313383Y-1410919D01*
X1320800Y-1422044D01*
X1329639Y-1432052D01*
X1339646Y-1440891D01*
X1350772Y-1448308D01*
X1362710Y-1454200D01*
X1375359Y-1458468D01*
X1388465Y-1461109D01*
G37*
G36*
X1780946Y-686206D02*
G01*
X1794560Y-685749D01*
X1808022Y-683514D01*
X1821027Y-679450D01*
X1833422Y-673709D01*
X1844903Y-666394D01*
X1855317Y-657606D01*
X1864461Y-647446D01*
X1872183Y-636219D01*
X1878330Y-624078D01*
X1882800Y-611174D01*
X1885543Y-597814D01*
X1886457Y-584200D01*
X1885543Y-570585D01*
X1882800Y-557225D01*
X1878330Y-544322D01*
X1872183Y-532180D01*
X1864461Y-520954D01*
X1855317Y-510793D01*
X1844903Y-502005D01*
X1833422Y-494690D01*
X1821027Y-488950D01*
X1808022Y-484885D01*
X1794560Y-482650D01*
X1780946Y-482193D01*
X1767382Y-483514D01*
X1754124Y-486714D01*
X1741373Y-491591D01*
X1729435Y-498144D01*
X1718462Y-506222D01*
X1708657Y-515721D01*
X1700174Y-526440D01*
X1693214Y-538175D01*
X1687931Y-550722D01*
X1684324Y-563880D01*
X1682496Y-577392D01*
X1682496Y-591007D01*
X1684324Y-604520D01*
X1687931Y-617677D01*
X1693214Y-630224D01*
X1700174Y-641959D01*
X1708657Y-652678D01*
X1718462Y-662178D01*
X1729435Y-670255D01*
X1741373Y-676808D01*
X1754124Y-681685D01*
X1767382Y-684885D01*
G37*
G36*
X2247900Y-675995D02*
G01*
X2247900Y-628650D01*
X2200554Y-628650D01*
X2201214Y-630224D01*
X2208174Y-641959D01*
X2216658Y-652678D01*
X2226462Y-662178D01*
X2237435Y-670255D01*
G37*
G36*
X2336800Y-675843D02*
G01*
X2341422Y-673709D01*
X2352903Y-666394D01*
X2363317Y-657606D01*
X2372461Y-647446D01*
X2380183Y-636219D01*
X2383993Y-628650D01*
X2336800Y-628650D01*
G37*
G36*
X884224Y-165455D02*
G01*
X903274Y-164947D01*
X922172Y-162610D01*
X940714Y-158343D01*
X958748Y-152298D01*
X976071Y-144475D01*
X992581Y-134975D01*
X1008024Y-123850D01*
X1022299Y-111252D01*
X1035253Y-97282D01*
X1046734Y-82143D01*
X1056640Y-65887D01*
X1064920Y-48768D01*
X1071422Y-30886D01*
X1076096Y-12446D01*
X1078941Y6400D01*
X1079906Y25400D01*
X1078941Y44399D01*
X1076096Y63246D01*
X1071422Y81686D01*
X1064920Y99568D01*
X1056640Y116687D01*
X1046734Y132943D01*
X1035253Y148082D01*
X1022299Y162052D01*
X1008024Y174650D01*
X992581Y185775D01*
X976071Y195275D01*
X958748Y203098D01*
X940714Y209143D01*
X922172Y213410D01*
X903274Y215747D01*
X884224Y216255D01*
X865276Y214833D01*
X846531Y211531D01*
X828192Y206349D01*
X810463Y199390D01*
X793546Y190703D01*
X777544Y180390D01*
X762711Y168554D01*
X749046Y155244D01*
X736854Y140665D01*
X726135Y124917D01*
X716991Y108204D01*
X709625Y90678D01*
X703986Y72491D01*
X700227Y53848D01*
X698347Y34899D01*
X698347Y15900D01*
X700227Y-3048D01*
X703986Y-21691D01*
X709625Y-39878D01*
X716991Y-57404D01*
X726135Y-74117D01*
X736854Y-89865D01*
X749046Y-104444D01*
X762711Y-117754D01*
X777544Y-129590D01*
X793546Y-139903D01*
X810463Y-148590D01*
X828192Y-155549D01*
X846531Y-160731D01*
X865276Y-164033D01*
G37*
G36*
X8605824Y-165455D02*
G01*
X8624874Y-164947D01*
X8643772Y-162610D01*
X8662314Y-158343D01*
X8680348Y-152298D01*
X8697671Y-144475D01*
X8714181Y-134975D01*
X8729624Y-123850D01*
X8743899Y-111252D01*
X8756853Y-97282D01*
X8768334Y-82143D01*
X8778240Y-65887D01*
X8786520Y-48768D01*
X8793022Y-30886D01*
X8797696Y-12446D01*
X8800541Y6400D01*
X8801506Y25400D01*
X8800541Y44399D01*
X8797696Y63246D01*
X8793022Y81686D01*
X8786520Y99568D01*
X8778240Y116687D01*
X8768334Y132943D01*
X8756853Y148082D01*
X8743899Y162052D01*
X8729624Y174650D01*
X8714181Y185775D01*
X8697671Y195275D01*
X8680348Y203098D01*
X8662314Y209143D01*
X8643772Y213410D01*
X8624874Y215747D01*
X8605824Y216255D01*
X8586876Y214833D01*
X8568131Y211531D01*
X8549792Y206349D01*
X8532063Y199390D01*
X8515146Y190703D01*
X8499144Y180390D01*
X8484311Y168554D01*
X8470646Y155244D01*
X8458454Y140665D01*
X8447735Y124917D01*
X8438591Y108204D01*
X8431225Y90678D01*
X8425586Y72491D01*
X8421827Y53848D01*
X8419947Y34899D01*
X8419947Y15900D01*
X8421827Y-3048D01*
X8425586Y-21691D01*
X8431225Y-39878D01*
X8438591Y-57404D01*
X8447735Y-74117D01*
X8458454Y-89865D01*
X8470646Y-104444D01*
X8484311Y-117754D01*
X8499144Y-129590D01*
X8515146Y-139903D01*
X8532063Y-148590D01*
X8549792Y-155549D01*
X8568131Y-160731D01*
X8586876Y-164033D01*
G37*

%LPD*%
G36*
X4109313Y-3599992D02*
G01*
X4105401Y-3599230D01*
X4102100Y-3596995D01*
X4099915Y-3593744D01*
X4099153Y-3589832D01*
X4099153Y-3339134D01*
X4099915Y-3335274D01*
X4102100Y-3331972D01*
X4993233Y-2440838D01*
X4998821Y-2434082D01*
X5002733Y-2426716D01*
X5005120Y-2418791D01*
X5005984Y-2410002D01*
X5005984Y-2299665D01*
X5007000Y-2295245D01*
X5009794Y-2291740D01*
X5013858Y-2289759D01*
X5018328Y-2289708D01*
X5022392Y-2291638D01*
X5033924Y-2300681D01*
X5046929Y-2308504D01*
X5049062Y-2309469D01*
X5049062Y-2253437D01*
X5016144Y-2253437D01*
X5012283Y-2252675D01*
X5008981Y-2250440D01*
X5006746Y-2247138D01*
X5005984Y-2243277D01*
X5005984Y-2150922D01*
X5006746Y-2147062D01*
X5008981Y-2143760D01*
X5012283Y-2141524D01*
X5016144Y-2140762D01*
X5049062Y-2140762D01*
X5049062Y-2084730D01*
X5046929Y-2085695D01*
X5033924Y-2093518D01*
X5022392Y-2102561D01*
X5018328Y-2104491D01*
X5013858Y-2104440D01*
X5009794Y-2102459D01*
X5007000Y-2098954D01*
X5005984Y-2094534D01*
X5005984Y-1821434D01*
X5006797Y-1817420D01*
X5009083Y-1814118D01*
X5012537Y-1811934D01*
X5016550Y-1811274D01*
X5020462Y-1812239D01*
X5023713Y-1814626D01*
X5025745Y-1818132D01*
X5028285Y-1825548D01*
X5034381Y-1837943D01*
X5042103Y-1849475D01*
X5051247Y-1859889D01*
X5061661Y-1869033D01*
X5073142Y-1876704D01*
X5085588Y-1882851D01*
X5098694Y-1887270D01*
X5112258Y-1890014D01*
X5126126Y-1890877D01*
X5139944Y-1890014D01*
X5153507Y-1887270D01*
X5166614Y-1882851D01*
X5179060Y-1876704D01*
X5190540Y-1869033D01*
X5200954Y-1859889D01*
X5210098Y-1849475D01*
X5217820Y-1837943D01*
X5223916Y-1825548D01*
X5228386Y-1812391D01*
X5231079Y-1798828D01*
X5231993Y-1785010D01*
X5231079Y-1771192D01*
X5228386Y-1757629D01*
X5223916Y-1744472D01*
X5217820Y-1732076D01*
X5210098Y-1720545D01*
X5200954Y-1710131D01*
X5190540Y-1700987D01*
X5179060Y-1693316D01*
X5166614Y-1687169D01*
X5153507Y-1682750D01*
X5139944Y-1680006D01*
X5126126Y-1679143D01*
X5112258Y-1680006D01*
X5098694Y-1682750D01*
X5085588Y-1687169D01*
X5073142Y-1693316D01*
X5061661Y-1700987D01*
X5051247Y-1710131D01*
X5042103Y-1720545D01*
X5034381Y-1732076D01*
X5028285Y-1744472D01*
X5025745Y-1751888D01*
X5023713Y-1755393D01*
X5020462Y-1757781D01*
X5016550Y-1758746D01*
X5012537Y-1758086D01*
X5009083Y-1755902D01*
X5006797Y-1752600D01*
X5005984Y-1748586D01*
X5005984Y-1542542D01*
X5006746Y-1538681D01*
X5008981Y-1535379D01*
X5338724Y-1205636D01*
X5342280Y-1203299D01*
X5346446Y-1202690D01*
X5350560Y-1203807D01*
X5353812Y-1206500D01*
X5355742Y-1210259D01*
X5355894Y-1214526D01*
X5352389Y-1235405D01*
X5350459Y-1258468D01*
X5350459Y-1281531D01*
X5352389Y-1304594D01*
X5356250Y-1327353D01*
X5361990Y-1349756D01*
X5369560Y-1371549D01*
X5378958Y-1392682D01*
X5390083Y-1412900D01*
X5402884Y-1432153D01*
X5417261Y-1450289D01*
X5433060Y-1467104D01*
X5450230Y-1482598D01*
X5468620Y-1496568D01*
X5488127Y-1508912D01*
X5508650Y-1519631D01*
X5529935Y-1528572D01*
X5551881Y-1535734D01*
X5574385Y-1541018D01*
X5597245Y-1544370D01*
X5620308Y-1545844D01*
X5643422Y-1545336D01*
X5666384Y-1542948D01*
X5689092Y-1538630D01*
X5711342Y-1532382D01*
X5733034Y-1524355D01*
X5753912Y-1514500D01*
X5773928Y-1502968D01*
X5792927Y-1489760D01*
X5810707Y-1475028D01*
X5827217Y-1458874D01*
X5842304Y-1441399D01*
X5855919Y-1422704D01*
X5860288Y-1415389D01*
X5863336Y-1412240D01*
X5867400Y-1410614D01*
X5871718Y-1410868D01*
X5875578Y-1412951D01*
X5878220Y-1416405D01*
X5879185Y-1420672D01*
X5879185Y-1830120D01*
X5878372Y-1834032D01*
X5876188Y-1837334D01*
X4116476Y-3596995D01*
X4113174Y-3599230D01*
G37*

%LPC*%
G36*
X5161737Y-2309469D02*
G01*
X5163870Y-2308504D01*
X5176875Y-2300681D01*
X5188864Y-2291283D01*
X5199583Y-2280564D01*
X5208981Y-2268575D01*
X5216804Y-2255570D01*
X5217769Y-2253437D01*
X5161737Y-2253437D01*
G37*
G36*
X5161737Y-2140762D02*
G01*
X5217769Y-2140762D01*
X5216804Y-2138629D01*
X5208981Y-2125624D01*
X5199583Y-2113635D01*
X5188864Y-2102916D01*
X5176875Y-2093518D01*
X5163870Y-2085695D01*
X5161737Y-2084730D01*
G37*

%LPD*%
D10*
X1022136Y-6615569D02*
G01*
X1071768Y-6565938D01*
X1071768Y-6436982D01*
X7942163Y-3639527D02*
G01*
X7942163Y-2747403D01*
X7896062Y-2701302D01*
X7896062Y-1839506D01*
X7831267Y-1774710D01*
X7831267Y-812787D01*
X7942163Y-3639527D02*
G01*
X7942163Y-2718777D01*
X7942163Y-4560277D02*
G01*
X7942163Y-3639527D01*
X4322688Y-902677D02*
G01*
X4455759Y-902677D01*
X4455759Y-902677D02*
G01*
X5633024Y274586D01*
X5844682Y274586D01*
X6008791Y110477D01*
X6008791Y-509511D01*
X6144554Y-609003D02*
G01*
X5969980Y-783577D01*
X5969980Y-2343543D01*
X5869523Y-2444000D01*
X6126088Y-2731477D02*
G01*
X6126088Y-4560277D01*
X5368711Y-791324D02*
G01*
X4778568Y-1381467D01*
X4778568Y-1961070D01*
X3924569Y-2815069D01*
X3733129Y-2815069D01*
X3447811Y-3100387D01*
X3447811Y-6111024D01*
X3056092Y-6502742D01*
X2958734Y-6502742D01*
X2892694Y-6568782D01*
X1022390Y-7088339D02*
G01*
X1199962Y-7265911D01*
X3560917Y-7265911D01*
X3797391Y-7029437D01*
X3870518Y-7029437D01*
X4184385Y-6715569D01*
X4184385Y-4153623D01*
X5613618Y-2724391D01*
X5682528Y-2724391D01*
X6121389Y-2285530D01*
X6121389Y-2197112D01*
X2019289Y-4350270D02*
G01*
X2019289Y-4483341D01*
X2019289Y-4483341D02*
G01*
X1727621Y-4775009D01*
X1727621Y-6261950D01*
X2370063Y-6904393D01*
X2654620Y-6904393D01*
X2779664Y-7029437D01*
X3694089Y-7029437D01*
X3841689Y-6095987D02*
G01*
X3841689Y-5444274D01*
X4056725Y-4727105D02*
G01*
X4056725Y-3317379D01*
X4963581Y-2410523D01*
X4963581Y-1520786D01*
X5627207Y-857161D01*
X5698556Y-857161D01*
X5810493Y-745223D01*
X5810493Y203212D01*
X3841689Y-6362687D02*
G01*
X3841689Y-6095987D01*
X3841689Y-6629387D02*
G01*
X3841689Y-6362687D01*
X3841689Y-6896087D02*
G01*
X3841689Y-6629387D01*
X6432489Y-6642087D02*
G01*
X6329492Y-6539090D01*
X6329492Y-1893100D01*
X6792280Y-1430312D01*
X6921261Y-1430312D01*
X6974321Y-1377251D01*
X6974321Y-60871D01*
X6964238Y-50787D01*
X6432489Y-6908787D02*
G01*
X6432489Y-6642087D01*
X3841689Y-7429487D02*
G01*
X3841689Y-7162787D01*
X6432489Y-7175487D02*
G01*
X6281105Y-7024103D01*
X6281105Y-436232D01*
X6246688Y-401815D01*
X6432489Y-7175487D02*
G01*
X6432489Y-7429487D01*
X6445189Y-7442187D01*
X6432489Y-6375387D02*
G01*
X6432489Y-6095987D01*
X6432489Y-6375387D02*
G01*
X6535486Y-6478384D01*
X6535486Y-7072490D01*
X6432489Y-7175487D01*
X7942163Y-6389077D02*
G01*
X7942163Y-6256007D01*
X7942163Y-6256007D02*
G01*
X7810261Y-6124105D01*
X7810261Y-2321267D01*
X7198934Y-1709940D01*
X2519288Y-2731477D02*
G01*
X2519288Y-1732318D01*
X3690813Y-560793D01*
X3954592Y-560793D01*
X4112554Y-718756D01*
X4112554Y-753122D01*
X2519288Y-4560277D02*
G01*
X2519288Y-2731477D01*
X4335388Y-4560277D02*
G01*
X4335388Y-4693348D01*
X4335388Y-4693348D02*
G01*
X4322688Y-4706048D01*
X4322688Y-5341607D01*
X5237088Y-6256007D01*
X5237088Y-6389077D02*
G01*
X5237088Y-6256007D01*
X6839498Y-932294D02*
G01*
X6839498Y-1030363D01*
X6752452Y-1147711D02*
G01*
X6752452Y-1117409D01*
X6839498Y-1030363D01*
X6839498Y-1302296D02*
G01*
X6839498Y-1204226D01*
X6839498Y-1204226D02*
G01*
X6878767Y-1204226D01*
X6911939Y-1171054D01*
X7766116Y-1685505D02*
G01*
X7728168Y-1647558D01*
X7173127Y-1647558D01*
X7140336Y-1680349D01*
X6839498Y-1680349D01*
X6839498Y-1582280D02*
G01*
X6839498Y-1680349D01*
X8019481Y-1400365D02*
G01*
X8043992Y-1400365D01*
X8132561Y-1488935D01*
X8132561Y-1659293D01*
X8057047Y-1734807D01*
X7958470Y-1734807D01*
X7958470Y-1734832D01*
X8019481Y-1302296D02*
G01*
X8019481Y-1400365D01*
X8019481Y-932294D02*
G01*
X8019481Y-1030363D01*
X8019481Y-1030363D02*
G01*
X7963550Y-1086294D01*
X7963550Y-1176159D01*
X1161989Y-7034009D02*
G01*
X1291960Y-6904037D01*
X1291960Y-2624086D01*
X1911339Y-2004707D01*
X1911339Y-804075D01*
X2247127Y-468287D01*
X2367803Y-468287D01*
X2436307Y-536790D01*
X2412989Y-6794487D02*
G01*
X2444739Y-6762737D01*
X3064449Y-6762737D01*
X3665616Y-6161570D01*
X3665616Y-5508739D01*
X4119107Y-5055247D01*
X4119107Y-3654361D01*
X5921568Y-1851901D01*
X5921568Y-684974D01*
X6071174Y-535368D01*
X6071174Y-489115D01*
X6252123Y-308165D01*
X6713946Y-308165D01*
X7800355Y-50787D02*
G01*
X7901167Y-151599D01*
X7901167Y-1577022D01*
X7906425Y-1582280D01*
X8019481Y-1582280D02*
G01*
X7906425Y-1582280D01*
X2412989Y-6540487D02*
G01*
X2387386Y-6514884D01*
X2387386Y-2304834D01*
X2038339Y-1955787D01*
X2292339Y-584187D02*
G01*
X2292339Y-1701787D01*
X2038339Y-1955787D01*
X5626089Y-4350270D02*
G01*
X5626089Y-4483341D01*
X5626089Y-4483341D02*
G01*
X5911154Y-4768405D01*
X5911154Y-6896823D01*
X5632490Y-7175487D01*
X3822689Y-692696D02*
G01*
X3822689Y-825766D01*
X3041690Y-6095987D02*
G01*
X3041690Y-1606765D01*
X3822689Y-825766D01*
X5632490Y-6908787D02*
G01*
X5738053Y-6803224D01*
X5738053Y-6598373D01*
X5648416Y-6508737D01*
X5614228Y-6508737D01*
X4385071Y-5279580D01*
X4385071Y-4901171D01*
X6105057Y-5526265D02*
G01*
X6105057Y-6982320D01*
X5645190Y-7442187D01*
X1162243Y-6668604D02*
G01*
X1168400Y-6662445D01*
X1168400Y-2108200D01*
X5626089Y-679996D02*
G01*
X5391825Y-679996D01*
X3156778Y-2915043D01*
X3156778Y-6247599D01*
X3041690Y-6362687D01*
D11*
G01*
X6839508Y-932306D03*
G01*
X6839508Y-1302308D03*
G01*
X6839508Y-1582293D03*
G01*
X8019491Y-1582293D03*
G01*
X8019491Y-1302308D03*
G01*
X8019491Y-932306D03*
D12*
G01*
X1022150Y-6615578D03*
G01*
X1162257Y-6668608D03*
D13*
G01*
X1022394Y-7088361D03*
G01*
X1162000Y-7034020D03*
G36*
X1028700Y-7480300D02*
G01*
X1168400Y-7480300D01*
X1168400Y-7620000D01*
X1028700Y-7620000D01*
G37*
G36*
X1257300Y-7645400D02*
G01*
X1422400Y-7645400D01*
X1422400Y-7797800D01*
X1257300Y-7797800D01*
G37*
G36*
X1485900Y-7810500D02*
G01*
X1612900Y-7810500D01*
X1612900Y-7937500D01*
X1485900Y-7937500D01*
G37*
G36*
X1689100Y-7950200D02*
G01*
X1828800Y-7950200D01*
X1828800Y-8089900D01*
X1689100Y-8089900D01*
G37*
G36*
X1924050Y-8108950D02*
G01*
X2038350Y-8108950D01*
X2038350Y-8223250D01*
X1924050Y-8223250D01*
G37*
G36*
X2171700Y-8242300D02*
G01*
X2298700Y-8242300D01*
X2298700Y-8369300D01*
X2171700Y-8369300D01*
G37*
G36*
X2552700Y-8223250D02*
G01*
X2679700Y-8223250D01*
X2679700Y-8337550D01*
X2552700Y-8337550D01*
G37*
G36*
X2819400Y-8045450D02*
G01*
X2946400Y-8045450D01*
X2946400Y-8159750D01*
X2819400Y-8159750D01*
G37*
G36*
X3028950Y-7867650D02*
G01*
X3143250Y-7867650D01*
X3143250Y-7981950D01*
X3028950Y-7981950D01*
G37*
G36*
X3295650Y-7759700D02*
G01*
X3409950Y-7759700D01*
X3409950Y-7861300D01*
X3295650Y-7861300D01*
G37*
G36*
X3594100Y-7797800D02*
G01*
X3708400Y-7797800D01*
X3708400Y-7899400D01*
X3594100Y-7899400D01*
G37*
G36*
X3835400Y-7899400D02*
G01*
X3949700Y-7899400D01*
X3949700Y-8001000D01*
X3835400Y-8001000D01*
G37*
G36*
X4025900Y-8077200D02*
G01*
X4140200Y-8077200D01*
X4140200Y-8178800D01*
X4025900Y-8178800D01*
G37*
G36*
X4203700Y-8242300D02*
G01*
X4318000Y-8242300D01*
X4318000Y-8331200D01*
X4203700Y-8331200D01*
G37*
G36*
X4451350Y-8350250D02*
G01*
X4565650Y-8350250D01*
X4565650Y-8464550D01*
X4451350Y-8464550D01*
G37*
G36*
X4699000Y-8356600D02*
G01*
X4826000Y-8356600D01*
X4826000Y-8458200D01*
X4699000Y-8458200D01*
G37*
G36*
X4921250Y-8267700D02*
G01*
X5035550Y-8267700D01*
X5035550Y-8369300D01*
X4921250Y-8369300D01*
G37*
G36*
X5124450Y-8153400D02*
G01*
X5238750Y-8153400D01*
X5238750Y-8255000D01*
X5124450Y-8255000D01*
G37*
G36*
X5283200Y-7975600D02*
G01*
X5397500Y-7975600D01*
X5397500Y-8077200D01*
X5283200Y-8077200D01*
G37*
G36*
X5410200Y-7823200D02*
G01*
X5511800Y-7823200D01*
X5511800Y-7924800D01*
X5410200Y-7924800D01*
G37*
G36*
X5562600Y-7721600D02*
G01*
X5651500Y-7721600D01*
X5651500Y-7810500D01*
X5562600Y-7810500D01*
G37*
G36*
X5727700Y-7721600D02*
G01*
X5829300Y-7721600D01*
X5829300Y-7797800D01*
X5727700Y-7797800D01*
G37*
G36*
X5899150Y-7785100D02*
G01*
X5988050Y-7785100D01*
X5988050Y-7861300D01*
X5899150Y-7861300D01*
G37*
G36*
X6070600Y-7848600D02*
G01*
X6159500Y-7848600D01*
X6159500Y-7937500D01*
X6070600Y-7937500D01*
G37*
G36*
X6235700Y-7950200D02*
G01*
X6324600Y-7950200D01*
X6324600Y-8039100D01*
X6235700Y-8039100D01*
G37*
G36*
X6375400Y-8064500D02*
G01*
X6464300Y-8064500D01*
X6464300Y-8140700D01*
X6375400Y-8140700D01*
G37*
G36*
X6502400Y-8178800D02*
G01*
X6591300Y-8178800D01*
X6591300Y-8255000D01*
X6502400Y-8255000D01*
G37*
G36*
X6635750Y-8267700D02*
G01*
X6724650Y-8267700D01*
X6724650Y-8343900D01*
X6635750Y-8343900D01*
G37*
G36*
X6794500Y-8343900D02*
G01*
X6883400Y-8343900D01*
X6883400Y-8432800D01*
X6794500Y-8432800D01*
G37*
G36*
X6953250Y-8416925D02*
G01*
X7042150Y-8416925D01*
X7042150Y-8499475D01*
X6953250Y-8499475D01*
G37*
G36*
X7124700Y-8382000D02*
G01*
X7213600Y-8382000D01*
X7213600Y-8458200D01*
X7124700Y-8458200D01*
G37*
G36*
X7296150Y-8305800D02*
G01*
X7385050Y-8305800D01*
X7385050Y-8382000D01*
X7296150Y-8382000D01*
G37*
G36*
X7442200Y-8235950D02*
G01*
X7518400Y-8235950D01*
X7518400Y-8299450D01*
X7442200Y-8299450D01*
G37*
G36*
X7588250Y-8140700D02*
G01*
X7677150Y-8140700D01*
X7677150Y-8216900D01*
X7588250Y-8216900D01*
G37*
G36*
X7727950Y-8026400D02*
G01*
X7829550Y-8026400D01*
X7829550Y-8115300D01*
X7727950Y-8115300D01*
G37*
G36*
X7918450Y-7924800D02*
G01*
X8020050Y-7924800D01*
X8020050Y-8001000D01*
X7918450Y-8001000D01*
G37*
G36*
X8083550Y-7785100D02*
G01*
X8223250Y-7785100D01*
X8223250Y-7886700D01*
X8083550Y-7886700D01*
G37*
G36*
X8261350Y-7620000D02*
G01*
X8413750Y-7620000D01*
X8413750Y-7734300D01*
X8261350Y-7734300D01*
G37*
G36*
X8458200Y-7454900D02*
G01*
X8636000Y-7454900D01*
X8636000Y-7594600D01*
X8458200Y-7594600D01*
G37*
G36*
X8674100Y-7277100D02*
G01*
X8813800Y-7277100D01*
X8813800Y-7416800D01*
X8674100Y-7416800D01*
G37*
G36*
X850900Y-7302500D02*
G01*
X977900Y-7302500D01*
X977900Y-7429500D01*
X850900Y-7429500D01*
G37*
G36*
X8851900Y-7086600D02*
G01*
X8991600Y-7086600D01*
X8991600Y-7226300D01*
X8851900Y-7226300D01*
G37*
G36*
X654050Y-7143750D02*
G01*
X793750Y-7143750D01*
X793750Y-7283450D01*
X654050Y-7283450D01*
G37*
G36*
X508000Y-6946900D02*
G01*
X647700Y-6946900D01*
X647700Y-7086600D01*
X508000Y-7086600D01*
G37*
D14*
G01*
X6121400Y-2197100D03*
G01*
X5105400Y-2197100D03*
G01*
X4318000Y-2209800D03*
G01*
X3302000Y-2209800D03*
D15*
G01*
X4322699Y-902690D03*
G01*
X3822700Y-692708D03*
G01*
X6126099Y-889990D03*
G01*
X5626100Y-680008D03*
G01*
X2519299Y-2731490D03*
G01*
X2019300Y-2521508D03*
G01*
X4335399Y-2731490D03*
G01*
X3835400Y-2521508D03*
G01*
X6126099Y-2731490D03*
G01*
X5626100Y-2521508D03*
G01*
X7942173Y-2718790D03*
G01*
X7442174Y-2508808D03*
G01*
X2519299Y-4560290D03*
G01*
X2019300Y-4350283D03*
G01*
X4335399Y-4560290D03*
G01*
X3835400Y-4350283D03*
G01*
X6126099Y-4560290D03*
G01*
X5626100Y-4350283D03*
G01*
X7942173Y-4560290D03*
G01*
X7442174Y-4350283D03*
G01*
X7942173Y-6389090D03*
G01*
X7442174Y-6179083D03*
G01*
X5237099Y-6389090D03*
G01*
X4737100Y-6179083D03*
D16*
G01*
X1651000Y-7048500D03*
G01*
X1651000Y-6794500D03*
G01*
X1651000Y-6540500D03*
G01*
X2413000Y-7048500D03*
G01*
X2413000Y-6794500D03*
G01*
X2413000Y-6540500D03*
D18*
G01*
X3041700Y-6096000D03*
G01*
X3841699Y-6096000D03*
G01*
X3041700Y-6362700D03*
G01*
X3841699Y-6362700D03*
G01*
X3041700Y-6629400D03*
G01*
X3841699Y-6629400D03*
G01*
X3041700Y-6896100D03*
G01*
X3841699Y-6896100D03*
G01*
X3041700Y-7162800D03*
G01*
X3841699Y-7162800D03*
G01*
X3041700Y-7429500D03*
G01*
X3841699Y-7429500D03*
G01*
X5632500Y-6642100D03*
G01*
X6432499Y-6642100D03*
G01*
X5632500Y-6908800D03*
G01*
X6432499Y-6908800D03*
G01*
X5632500Y-7175500D03*
G01*
X6432499Y-7175500D03*
G01*
X5645200Y-7442200D03*
G01*
X6445199Y-7442200D03*
G01*
X5632500Y-6096000D03*
G01*
X6432499Y-6096000D03*
G01*
X5632500Y-6375400D03*
G01*
X6432499Y-6375400D03*
D16*
G01*
X2305050Y-1955800D03*
G01*
X2038350Y-1955800D03*
G01*
X1784350Y-1955800D03*
G01*
X1784350Y-584200D03*
G01*
X2292350Y-584200D03*
D19*
G01*
X1401800Y-1286078D03*
G01*
X2667863Y-1290320D03*
D20*
G01*
X901700Y-8305800D03*
G01*
X8610600Y-8305800D03*
G01*
X8610600Y25400D03*
G01*
X889000Y25400D03*
D21*
G01*
X1071778Y-6436995D03*
G01*
X7831277Y-812800D03*
G01*
X6008801Y-509523D03*
G01*
X6144564Y-609015D03*
G01*
X5869533Y-2444013D03*
G01*
X5368721Y-791337D03*
G01*
X2892704Y-6568795D03*
G01*
X3694099Y-7029450D03*
G01*
X5810504Y203200D03*
G01*
X4056735Y-4727117D03*
G01*
X3841699Y-5444286D03*
G01*
X6964248Y-50800D03*
G01*
X6246698Y-401828D03*
G01*
X7198944Y-1709953D03*
G01*
X4112564Y-753135D03*
G01*
X1168400Y-2108200D03*
G01*
X6752463Y-1147724D03*
G01*
X6911949Y-1171067D03*
G01*
X7766126Y-1685518D03*
G01*
X7958480Y-1734845D03*
G01*
X7963560Y-1176172D03*
G01*
X2436317Y-536803D03*
G01*
X6713956Y-308178D03*
G01*
X7800365Y-50800D03*
G01*
X4385081Y-4901184D03*
G01*
X6105067Y-5526278D03*
M02*
